<?xml version="1.0" encoding="utf-8"?>
<!-- Generator: Adobe Illustrator 18.1.1, SVG Export Plug-In . SVG Version: 6.00 Build 0)  -->
<svg version="1.1" id="Layer_1" xmlns="http://www.w3.org/2000/svg" xmlns:xlink="http://www.w3.org/1999/xlink" x="0px" y="0px"
	 viewBox="0 0 1280 1300" enable-background="new 0 0 1280 1300" xml:space="preserve">
<g>
	<g>
		<g>
			<g>
				<g>
					<path fill="#C1E1F7" stroke="#5E5F5F" stroke-width="10" stroke-miterlimit="10" d="M741.9,1016c26.3,14.2,48.1,24.3,63.2,30.4
						c20.2,9.1,31.4,14.2,49.6,23.8c15.2,9.1,26.3,16.2,36.4,27.8c14.2,16.2,16.2,35.4,20.2,74.9c2.5,25.3,3.5,51.6,3.5,103.7
						c0,9.1,0,19.2,0,14.2s-118.9,9.1-572.6-2.5"/>
					<path fill="#C1E1F7" stroke="#5E5F5F" stroke-width="10" stroke-miterlimit="10" d="M519.4,1021
						c-26.3,14.2-48.1,23.8-63.2,30.4c-20.2,9.1-31.4,14.2-49.1,24.3c-15.2,9.1-26.8,16.2-36.4,27.8c-14.2,16.2-16.2,35.4-20.2,74.4
						c-2.5,25.3-4,52.1-4,103.7c0,9.1,0,19.2,0,14.2s118.9,9.1,572.6-2.5"/>
				</g>
				<g>
					<path fill="#C1E1F7" stroke="#5E5F5F" stroke-width="10" stroke-miterlimit="10" d="M634.7,1299.2c0-2.5,1-39.5,1-41.5
						c0-41.5,0-41.5,0-41.5c-1-37.9-9.1-50.6-1-56.7c4-4,9.1-1.5,25.3,0c10.1,0,27.8,0,44.5-5.1c4-1,25.3-9.1,36.4-29.3
						c11.1-19.2,5.1-32.9,6.1-56.7c1-17.7,7.6-41.5,27.8-71.8"/>
					<path fill="#C1E1F7" stroke="#5E5F5F" stroke-width="10" stroke-miterlimit="10" d="M407.1,1073.1c-4-17.7-1-31.4,0-39.5
						c12.6-54.6,80.9-85,121.4-79.9c2.5,0,4,1,21.2,2.5c27.8,3.5,43,6.1,53.1,7.6c34.4,3.5,60.7,1,68.3,0
						c39.5-4,37.9-12.6,60.7-12.6c32.9,0,69.8,16.2,92.1,45.5c25.3,30.4,26.3,64.7,27.8,75.9"/>
					<path fill="#C1E1F7" stroke="#5E5F5F" stroke-width="10" stroke-miterlimit="10" d="M493.1,988.2c4,5.1,9.1,11.1,14.2,20.2
						c4,6.1,10.1,17.7,12.6,30.4c5.1,22.8-4,26.8,0,48.1c4,15.2,11.1,26.3,16.2,32.9c2.5,4,16.7,20.2,40.5,30.4
						c18.7,7.6,33.9,7.6,64.2,7.6c29.3,0,43,0,60.7-7.6c11.1-5.1,36.4-15.2,46.5-37.9c7.6-19.2-1-29.3,1-54.6
						c1-15.2,7.6-36.4,27.8-61.7"/>
				</g>
			</g>
			<path fill="#C1E1F7" stroke="#5E5F5F" stroke-width="10" stroke-miterlimit="10" d="M853.2,1073.1
				c-32.9-12.6-65.8-25.3-100.2-36.4"/>
			<path fill="#C1E1F7" stroke="#5E5F5F" stroke-width="10" stroke-miterlimit="10" d="M414.1,1073.1
				c32.9-12.6,65.8-25.3,100.2-36.4"/>
		</g>
		<path fill="#F3EDEE" stroke="#5E5F5F" stroke-width="10" stroke-miterlimit="10" d="M584.1,940.1c-1,30.4-1,53.1-1,65.8
			c-1,31.4-1,41.5,5.1,53.1c8.6,15.2,25.3,25.3,44.5,27.8c27.8,2.5,49.1-16.2,58.2-32.9c3.5-7.6,5.1-15.2,6.1-39.5
			c1-17.7,2.5-43,2.5-72.3h-3c-36.4-1-73.3-1-110.3-2.5"/>
		<g>
			<ellipse fill="#FCF6F9" stroke="#5E5F5F" stroke-width="10" stroke-miterlimit="10" cx="360" cy="678.1" rx="73.3" ry="86"/>
			<ellipse fill="#FCF6F9" stroke="#5E5F5F" stroke-width="10" stroke-miterlimit="10" cx="920" cy="668" rx="73.3" ry="86"/>
			<ellipse fill="#F2E1E9" cx="933.1" cy="674.5" rx="30.4" ry="58.2"/>
			<ellipse fill="#F2E1E9" cx="351.4" cy="688.2" rx="30.4" ry="58.2"/>
			<path fill="#F9C99B" stroke="#5E5F5F" stroke-width="10" stroke-miterlimit="10" d="M348.4,588.5c-12.6,9.1-29.3,16.2-35.4,10.1
				c-6.1-5.1-2.5-17.7-1-32.9c2.5-20.2-1-16.2-2.5-68.3c-1-32.9,1-30.4,2.5-100.2c1-59.2,0-60.7,2.5-69.8
				c9.1-25.3,20.2-30.4,41.5-75.9c9.1-17.7,7.6-19.2,15.2-32.9c6.1-12.6,19.2-35.4,39.5-54.6c5.1-5.1,30.4-29.3,71.8-40.5
				c25.3-7.6,51.6-6.1,106.2-4c49.6,2.5,65.8,6.1,91.1-5.1c10.1-5.1,31.4-14.2,40.5-35.4c9.1-19.2,0-34.4,10.1-40.5
				c10.1-7.6,29.3,1.5,48.1,11.1c20.2,10.1,40.5,20.2,58.2,43c17.7,24.3,24.3,48.1,26.3,60.7c6.1,29.3,0,37.9,10.1,53.1
				c11.1,17.7,24.3,15.2,46.5,30.4c34.4,23.8,47,60.7,50.6,73.3c5.1,14.2,4,20.2,4,86c0,71.8,0,107.2,0,110.3
				c2.5,59.7,10.1,85-2.5,92.1c-11.1,6.1-30.4-5.1-44.5-15.2"/>
			<path fill="#FEF7FA" stroke="#5E5F5F" stroke-width="10" stroke-miterlimit="10" d="M696.4,954.3c16.2-2.5,27.8-5.1,40.5-10.1
				c19.2-6.1,31.4-15.2,48.1-25.3c16.2-10.1,35.4-22.8,56.7-44.5c26.3-25.3,40.5-49.1,44.5-55.6c6.1-11.1,20.2-36.4,30.4-70.8
				c6.1-22.8,6.1-37.9,10.1-93.6c5.1-97.1,5.1-96.1,5.1-98.6c-1.5-65.8-1.5-99.6-20.2-140.6c-17.7-36.4-25.3-25.3-60.7-83.5
				c-7.6-14.2-17.7-31.4-31.4-31.4c-10.1,0-12.6,10.1-26.3,19.2c-16.2,10.1-32.9,9.1-55.6,7.6c-17.7-1-41.5-2.5-65.8-15.2
				c-43-22.8-68.3-71.8-68.3-73.3c0,0-27.8,11.1-40.5,17.7c-35.4,15.2-53.1,22.8-65.8,30.4c-7.6,4-35.4,20.2-64.7,49.1
				c-17.7,16.7-39.5,39.5-55.6,74.9c-12.6,27.8-15.2,51.6-17.7,64.7c-2.5,24.3-1,32.9,0,73.3c0,4,0,20.2,0,40.5
				c0,22.8-1,39.5-1,44.5c-1,36.9-2.5,70.8,5.1,102.2c10.1,48.1,32.9,80.9,44.5,96.1c7.6,11.1,35.4,49.6,87,81.9
				c22.8,14.2,59.7,37.9,112.3,44.5C635.7,962.9,662,959.3,696.4,954.3z"/>
		</g>
	</g>
	<path fill="none" stroke="#5E5F5F" stroke-width="10" stroke-miterlimit="10" d="M702.5,261.3c12.6-2.5,28.8-6.1,48.1-15.2
		c25.3-11.1,43-25.3,53.1-32.9c25.3-20.2,40.5-40.5,44.5-45.5c7.6-10.1,20.2-26.3,27.8-50.6c12.6-32.9,11.1-63.2,10.1-83.5"/>
	<path fill="none" stroke="#5E5F5F" stroke-width="10" stroke-miterlimit="10" d="M705.5,214.2c10.1-5.1,21.8-12.6,35.4-22.8
		c12.6-9.1,32.9-23.8,53.1-49.1c10.1-12.6,35.4-44.5,45.5-92.6c4-20.2,5.1-37.9,4-49.1"/>
	<path fill="none" stroke="#5E5F5F" stroke-width="10" stroke-miterlimit="10" d="M547.2,789.4c6.1,3.5,14.2,9.1,25.3,12.6
		c19.2,7.6,35.4,10.1,46.5,11.1s27.8,2.5,48.1,0s35.4-7.6,43-11.1c11.1-5.1,21.2-10.1,27.8-15.2"/>
	<g display="none">
		<g display="inline">
			<g>
				<path fill="#F9C99B" d="M419.7,790c1-1,2.5-2.5,4-4c6-6-4-15.1-9-9c-1,1-2.5,2.5-4,3.5C404.6,788,413.2,796.6,419.7,790
					L419.7,790z"/>
			</g>
		</g>
		<g display="inline">
			<g>
				<path fill="#F9C99B" d="M449.8,814.2c1-5,4-9,6-11.1c5-6-6-12.6-11.1-6c-4,5-6,10-7.5,15.1C436.3,818.2,447.3,821.7,449.8,814.2
					L449.8,814.2z"/>
			</g>
		</g>
		<g display="inline">
			<g>
				<path fill="#F9C99B" d="M461.4,845.3c2.5-4,5-7.5,9-11.1c5-6-4-15.1-9-9c-4,4-7.5,9-10,14.1
					C446.3,845.3,457.4,851.8,461.4,845.3L461.4,845.3z"/>
			</g>
		</g>
		<g display="inline">
			<g>
				<path fill="#F9C99B" d="M495,879.5c5-11.1,9-24.1,14.1-35.2c2.5-7.5-9-11.1-12.6-3.5c-5,11.1-9,24.1-14.1,35.2
					C480,883.5,492.5,885.5,495,879.5L495,879.5z"/>
			</g>
		</g>
		<g display="inline">
			<g>
				<path fill="#F9C99B" d="M533.7,884.5c0-7.5,0-16.1,0-24.1s-12.6-7.5-12.6,0s0,16.1,0,24.1C521.2,892.5,533.7,892,533.7,884.5
					L533.7,884.5z"/>
			</g>
		</g>
		<g display="inline">
			<g>
				<path fill="#F9C99B" d="M556.8,909.6c1-11.1,2.5-22.6,4-34.2c1-7.5-11.1-7.5-12.6,0c-1,11.1-2.5,22.6-4,34.2
					C542.8,917.1,555.3,917.1,556.8,909.6L556.8,909.6z"/>
			</g>
		</g>
		<g display="inline">
			<g>
				<path fill="#F9C99B" d="M584,914.6c5-6,9-11.1,12.6-19.1c4-7.5-7.5-14.1-11.1-6c-2.5,6-6,11.1-10,16.1
					C568.9,912.1,577.9,920.6,584,914.6L584,914.6z"/>
			</g>
		</g>
		<g display="inline">
			<g>
				<path fill="#F9C99B" d="M628.2,927.2c2.5-7.5,4-15.1,4-24.1c0-7.5-12.6-7.5-12.6,0s-1,14.1-4,20.1
					C614.1,932.2,627.2,935.7,628.2,927.2L628.2,927.2z"/>
			</g>
		</g>
		<g display="inline">
			<g>
				<path fill="#F9C99B" d="M672.4,930.7c0-7.5,0-15.1-1-21.1c0-7.5-12.6-7.5-12.6,0s0,15.1,1,21.1
					C659.3,939.7,672.4,939.7,672.4,930.7L672.4,930.7z"/>
			</g>
		</g>
		<g display="inline">
			<g>
				<path fill="#F9C99B" d="M706,918.6c1-6,4-12.6,5-20.1c2.5-7.5-10-11.1-12.6-4c-1,6-4,12.6-5,20.1
					C692.5,923.7,703.5,927.2,706,918.6L706,918.6z"/>
			</g>
		</g>
		<g display="inline">
			<g>
				<path fill="#F9C99B" d="M746.2,903.6c0-7.5,0-14.1,0-21.6s-12.6-7.5-12.6,0s0,14.1,0,21.6S746.2,910.6,746.2,903.6L746.2,903.6z
					"/>
			</g>
		</g>
		<g display="inline">
			<g>
				<path fill="#F9C99B" d="M771.3,893.5c-1.5-5-1.5-11.1-2.5-16.1c-1-7.5-14.1-7.5-12.6,0c1,5,1,11.1,2.5,16.1
					C758.8,900.6,771.3,900.6,771.3,893.5L771.3,893.5z"/>
			</g>
		</g>
		<g display="inline">
			<g>
				<path fill="#F9C99B" d="M792.9,875.4c-1-5-4-10-5-15.1c-2.5-7.5-15.1-4-12.6,4c1,5,4,10,5,15.1
					C783.9,887,796.4,884.5,792.9,875.4L792.9,875.4z"/>
			</g>
		</g>
		<g display="inline">
			<g>
				<path fill="#F9C99B" d="M809,859.4c0-5-1.5-10-1.5-16.1c-1-7.5-14.1-7.5-12.6,0c0,5,1.5,10,1.5,16.1
					C797.9,866.9,810,866.9,809,859.4L809,859.4z"/>
			</g>
		</g>
		<g display="inline">
			<g>
				<path fill="#F9C99B" d="M830.1,835.2c-1-5-4-10-6-15.1c-4-7.5-15.1-1.5-11.1,6c2.5,3.5,4,7.5,5,12.6
					C820,846.8,831.6,843.3,830.1,835.2L830.1,835.2z"/>
			</g>
		</g>
		<g display="inline">
			<g>
				<path fill="#F9C99B" d="M855.2,818.2c-1-3.5-4-6-5-10c-3.5-7.5-15.1-1.5-11.1,6c1.5,3.5,4,6,5,10
					C848.2,830.2,859.2,824.2,855.2,818.2L855.2,818.2z"/>
			</g>
		</g>
		<g display="inline">
			<g>
				<path fill="#F9C99B" d="M777.9,724.7c-5-10-9-19.1-12.6-29.1c-2.5-7.5-15.1-4-12.6,4c3.5,11.1,9,22.6,14.1,32.7
					C771.3,738.8,781.4,731.3,777.9,724.7L777.9,724.7z"/>
			</g>
		</g>
		<g display="inline">
			<g>
				<path fill="#F9C99B" d="M746.2,734.8c-4-9-7.5-17.6-10-27.6c-1-7.5-14.1-5-12.6,4c2.5,10,6,21.6,11.1,30.1
					C738.7,748.9,749.7,742.8,746.2,734.8L746.2,734.8z"/>
			</g>
		</g>
		<g display="inline">
			<g>
				<path fill="#F9C99B" d="M714.6,746.3c-5-9-7.5-19.1-10-27.6c-1-7.5-14.1-5-12.6,4c2.5,11.1,6,21.1,11.1,31.1
					C707.5,759.9,718.6,753.9,714.6,746.3L714.6,746.3z"/>
			</g>
		</g>
		<g display="inline">
			<g>
				<path fill="#F9C99B" d="M668.3,752.9c0-10,0-19.1-3.5-29.1c-2.5-7.5-14.1-5-12.6,4c2.5,9,3.5,16.1,2.5,25.1
					C655.8,759.9,668.3,759.9,668.3,752.9L668.3,752.9z"/>
			</g>
		</g>
		<g display="inline">
			<g>
				<path fill="#F9C99B" d="M634.2,749.9c0-9,0-16.1,0-25.1c0-7.5-12.6-7.5-12.6,0c0,9,0,16.1,0,25.1
					C622.1,757.9,634.2,757.9,634.2,749.9L634.2,749.9z"/>
			</g>
		</g>
		<g display="inline">
			<g>
				<path fill="#F9C99B" d="M593,751.4c0-11.1,1-22.6,4-34.2c1.5-7.5-10-11.1-12.6-4c-2.5,12.6-4,25.1-5,36.2
					C580.4,758.9,593,758.9,593,751.4L593,751.4z"/>
			</g>
		</g>
		<g display="inline">
			<g>
				<path fill="#F9C99B" d="M531.7,736.3c6-2.5,10-7.5,14.1-11.1c5-5,11.1-10,17.6-14.1c6.5-4,0-15.1-6-11.1s-11.1,7.5-16.1,12.6
					c-5,5-9,10-15.1,12.6C517.7,728.8,523.7,739.8,531.7,736.3L531.7,736.3z"/>
			</g>
		</g>
	</g>
	<path fill="none" stroke="#5E5F5F" stroke-width="10" stroke-miterlimit="10" d="M658.5,894.6c0-2.5,1-6.1,0-12.6
		c0-1.5-4-9.1-11.1-11.1c-10.1-2.5-19.2,5.1-21.2,7.6c-2.5,1-11.1,10.1-10.1,22.8c1,11.1,9.1,17.7,10.1,19.2
		c10.1,7.6,21.2,6.1,25.3,5.1c9.1-1,14.2-6.1,16.2-9.1"/>
	<g>
		<g>
			<path fill="#F1E0E8" d="M623.1,687.2c17.7,0,36.4,0,54.6,0c24.3,0,24.3-37.9,0-37.9c-17.7,0-36.4,0-54.6,0
				C597.8,649.2,597.8,687.2,623.1,687.2L623.1,687.2z"/>
		</g>
	</g>
	<g>
		<g>
			<g>
				<path fill="#5E5F5F" d="M761.1,482.3c29.3-2.5,58.2-7.6,87-4c20.2,2.5,28.8-27.8,9.1-30.4c-32.9-5.1-63.2,0-96.1,2.5
					C740.9,452,740.9,483.8,761.1,482.3L761.1,482.3z"/>
			</g>
		</g>
		<g>
			<g>
				<path fill="#5E5F5F" d="M448.5,475.7c29.3,0,59.7,0,88.5,0c20.2,0,20.2-31.4,0-31.4c-29.3,0-59.7,0-88.5,0
					C428.3,444.4,428.3,475.7,448.5,475.7L448.5,475.7z"/>
			</g>
		</g>
		<g>
			<g>
				<path fill="#5E5F5F" d="M815.3,573.4c32.9,0,32.9-50.6,0-50.6C783.9,522.8,783.9,573.4,815.3,573.4L815.3,573.4z"/>
			</g>
		</g>
		<g>
			<g>
				<path fill="#5E5F5F" d="M485,573.4c32.9,0,32.9-50.6,0-50.6C453.6,522.8,452.6,573.4,485,573.4L485,573.4z"/>
			</g>
		</g>
	</g>
	<path fill="none" stroke="#5E5F5F" stroke-width="10" stroke-miterlimit="10" d="M616.5,504.1c0,9.1,0,21.2,0,37.9
		c1,21.2,2.5,36.4,2.5,36.4c2.5,30.4,6.1,39.5,0,45.5c-6.1,6.1-12.6,1-22.8,7.6c-10.1,6.6-16.2,21.2-14.2,34.4s15.2,19.2,25.3,25.3
		c4,2.5,24.3,12.6,51.6,10.1c14.2-1,41.5-4,53.1-25.3c5.1-9.1,9.1-25.3,2.5-35.4c-9.1-14.2-27.8-6.1-36.4-20.2
		c-3.5-5.1-1-7.6-1-35.4c0-21.2-1-21.2,0-40.5c0-14.2,1-25.3,2.5-33.9"/>
	<g>
		<g>
			<path fill="#FFFFFF" d="M714.1,1155.1c0,35.4,0,71.8,0,107.2c0,12.6,19.2,12.6,19.2,0c0-35.4,0-72.3,0-107.2
				C734.3,1143.4,714.1,1143.4,714.1,1155.1L714.1,1155.1z"/>
		</g>
	</g>
	<g>
		<g>
			<path fill="#FFFFFF" d="M544.6,1154.1c0,35.4,0,69.8,0,104.7c0,12.6,19.2,12.6,19.2,0c0-35.4,0-69.8,0-104.7
				C563.9,1141.4,544.6,1141.4,544.6,1154.1L544.6,1154.1z"/>
		</g>
	</g>
</g>
</svg>
