<?xml version="1.0" encoding="utf-8"?>
<!-- Generator: Adobe Illustrator 18.1.1, SVG Export Plug-In . SVG Version: 6.00 Build 0)  -->
<svg version="1.1" id="Layer_1" xmlns="http://www.w3.org/2000/svg" xmlns:xlink="http://www.w3.org/1999/xlink" x="0px" y="0px"
	 viewBox="0 0 512 512" enable-background="new 0 0 512 512" xml:space="preserve">
<path fill="none" stroke="#575D72" stroke-width="2" stroke-miterlimit="10" d="M276,110.5c1.3-2.5,2.7-5,4-7.5">
<set  fill="freeze" attributeType="CSS" attributeName="visibility" id="show0" begin="0s; hide0.end" to="visible" dur="0.7s" restart="always">
		</set>
	
		<set  fill="freeze" attributeType="CSS" attributeName="visibility" id="hide0" begin="show0.end" to="hidden" dur="1s" restart="always">
		</set>
</path>
<path fill="none" stroke="#575D72" stroke-width="2" stroke-miterlimit="10" d="M189,95.5c0.2-2.8,0.3-5.7,0.5-8.5">
<set  fill="freeze" attributeType="CSS" attributeName="visibility" id="show1" begin="0.3s; hide1.end" to="visible" dur="0.7s" restart="always">
		</set>
	
		<set  fill="freeze" attributeType="CSS" attributeName="visibility" id="hide1" begin="show1.end" to="hidden" dur="1s" restart="always">
		</set>
</path>
<path fill="none" stroke="#575D72" stroke-width="2" stroke-miterlimit="10" d="M103.5,123.5c-1.3-1.8-2.7-3.7-4-5.5">
<set  fill="freeze" attributeType="CSS" attributeName="visibility" id="show2" begin="0.6s; hide2.end" to="visible" dur="0.7s" restart="always">
		</set>
	
		<set  fill="freeze" attributeType="CSS" attributeName="visibility" id="hide2" begin="show2.end" to="hidden" dur="1s" restart="always">
		</set>
</path>
<path fill="none" stroke="#575D72" stroke-width="2" stroke-miterlimit="10" d="M48,173.5c-1.8-0.5-3.7-1-5.5-1.5">
<set  fill="freeze" attributeType="CSS" attributeName="visibility" id="show3" begin="0.9s; hide3.end" to="visible" dur="0.7s" restart="always">
		</set>
	
		<set  fill="freeze" attributeType="CSS" attributeName="visibility" id="hide3" begin="show3.end" to="hidden" dur="1s" restart="always">
		</set>
</path>
<g>
	<path fill="none" stroke="#575D72" stroke-width="2" stroke-miterlimit="10" d="M249.5,245.5c-3.4-1.3-8.6-3.4-15-6
		c-10.9-4.5-14.6-6.5-21-9c-8.9-3.6-15.6-5.4-25-8c-8.4-2.3-21.7-5.9-39.5-8.5c-20.2-2.9-35.7-3-47.5-3c-7.7,0-18.8,0-33.5,1.5
		c-12.7,1.3-23.5,3.2-32,5"/>
	<path fill="none" stroke="#575D72" stroke-miterlimit="10" d="M181,321.5c-0.9-7-2.6-12.4-4-16c-1.7-4.5-4.3-9.1-9.5-18.5
		c-2.7-4.8-4-7.2-6-10.5c-5-8.3-9.3-14.2-12.5-18.5c-4.3-5.8-8.9-12.1-16-20c-1.2-1.4-7.2-8-16-16c-4.2-3.9-8-7.1-11-9.5"/>
	<path fill="none" stroke="#575D72" stroke-miterlimit="10" d="M217.5,284c-2.6-3.2-6.6-8-12-13.5c-4.5-4.6-6.7-6.5-18-17
		c-12.9-12-11.6-11-14.5-13.5c-6.4-5.5-11.5-9.2-21-16c-6.2-4.5-11.4-8.1-15-10.5"/>
	<path fill="none" stroke="#575D72" stroke-width="2" stroke-miterlimit="10" d="M273.5,176.5c-2.3-2.3-5.8-5.4-10.5-8.5
		c-2.9-1.9-8.4-5.2-23.5-10c-10.9-3.5-17.6-5.6-27.5-7c-13-1.8-23.1-1.3-27-1c-13.8,1-23.9,4.1-31.5,6.5c-6.9,2.2-15.8,5-26.5,11
		c-11.3,6.3-18.7,12.8-24.5,18c-8.1,7.2-14.6,14.4-19.5,20.5"/>
	<path fill="none" stroke="#575D72" stroke-width="2" stroke-miterlimit="10" d="M262,208c-3.2,1.1-8.2,2.9-14.5,5
		c-12.4,4.2-15.7,5.2-21,7.5c-3.7,1.6-8.9,4-15,7.5"/>
	<path fill="none" stroke="#575D72" stroke-width="2" stroke-miterlimit="10" d="M457,239c-3.3-1.4-7.5-3.1-12.5-5
		c-4.4-1.7-7.7-2.8-11-4c-8.8-3.1-13.3-4.7-18-6c-3.6-1-8.9-2.4-15.5-3.5"/>
	<path fill="#FFF8B3" stroke="#575D72" stroke-width="2" stroke-miterlimit="10" d="M397.5,164.5c-1.3-2.8-6-2-14-3.5
		c-5.6-1-4.9-1.7-17-5.5c-6.6-2.1-6.9-1.9-18-5c-12.3-3.4-18.4-5.2-22-6.5c-14.4-5.4-18.8-10-23-7.5c-2.1,1.3-3.2,5-5.5,12.5
		c-1.5,5-1.4,6.3-3,12c-1.1,3.8-1.5,4.8-4,12c-4.6,13.3-3.9,12.8-6,18c-3.9,9.7-4.8,8.2-7,15c-2.4,7.4-1.2,8.9-4,19
		c-1.5,5.5-1.9,5-4,12c-3.2,10.5-2.4,11.3-5,20c-3.3,10.8-4.7,9.7-7,19c-1.9,7.5-1.4,9.7-4,14.5c-2.1,3.8-4.3,5.9-3.5,8
		c0.8,2,3.5,2.2,8,3.5c6.1,1.8,5,2.5,14,6c5.3,2,5.7,1.8,15.5,5c7.6,2.5,6.9,2.5,14.5,5c16,5.3,14.5,3.8,21,6.5
		c8.3,3.4,11.2,6.1,14.5,4.5c1.8-0.9,2.5-2.4,5-8.5c6.7-16.2,6.6-16,7-17c2.9-8.6,2.3-8.4,5-16.5c2.4-7.1,2.9-7.2,6.5-17
		c3-8.2,2.6-8.1,6-17.5c4.2-11.7,4.7-11.8,7-19c2.6-8.2,1.9-8.3,4.5-16c2.4-7.2,3-7.3,6-16c3.4-9.7,2.5-9.1,5-15.5
		c1.9-4.7,3.5-9.4,5.5-14S398.2,166,397.5,164.5z"/>
	<path fill="none" stroke="#575D72" stroke-width="2" stroke-miterlimit="10" d="M328,357c-4-0.6-4.5-1.5-12.5-4.5
		c-5.5-2-5.2-1.5-14-4.5c-7.1-2.4-6.9-2.6-15.5-5.5c-7.8-2.7-7.8-2.5-15-5c-5.8-2-5.8-2.2-12.5-4.5c-6.6-2.3-7.2-2.4-11.5-4
		c-4.2-1.6-2.5-1.1-11-4.5c-6.6-2.6-7.3-2.9-8-4c-1.7-3,1-6.3,3.5-13.5c2.7-7.8,1.1-8.5,3.5-17.5c2.2-8.2,3.5-7.6,7.5-18.5
		c3.5-9.5,2.5-10.1,6.5-22c2.8-8.3,3.2-7.8,7-18.5c3.7-10.3,3.3-10.7,7.5-23c4.1-12.1,4.8-12.5,8-22.5c2.2-6.9,1.9-6.7,5.5-18.5
		c3.5-11.5,5.3-17.3,8-24.5c0.2-0.5,2.8-6.3,8-18c4.3-9.5,6.5-14.3,11-15.5c1.8-0.5,3.1-0.2,6,0.5c6.8,1.5,13.8,2.6,20.5,4.5
		c2,0.5,7.8,2,19.5,5c11.3,2.9,11,2.6,22.5,5.5c31.7,8,18.5,6,28,8c6.3,1.3,11.7,2.1,14.5,6.5c1.9,3,2,6.7,2,8.5
		c0.1,4.7-1.4,8.2-2.5,11c-2.5,6.2-4.2,12.7-6.5,19c-3.5,9.6-2.8,8.6-6.5,19c-3.7,10.3-3.9,10-7.5,20c-5.4,14.8-4.9,15.4-9,26
		c-4.2,10.9-4.7,10.3-8,19.5c-2.6,7.3-2.3,7.7-6.5,20.5c-1.7,5.1-3.1,9.3-6,17.5c-2.8,8-4.2,12-5.5,15.5c-3,8.1-5.7,14.2-7.5,18.5
		c-4.9,11.4-4.3,8.9-6,13.5s-1.8,5.9-3.5,7.5C337.8,358.5,330.8,357.4,328,357z"/>
	<path fill="none" stroke="#575D72" stroke-width="2" stroke-miterlimit="10" d="M418,146.5c1.3,2,2.7,4.9,3.5,8.5
		c0.3,1.4,0.7,3.2,0.5,5.5c-0.2,3.1-1.2,4.5-3,9c-1.3,3.3-2,5.7-3,9c-1.3,4.3-1.2,5-2.5,10c-0.5,2-1.9,7.3-4,13
		c-1.6,4.5-1.9,4.5-5,12c-1.2,2.8-2.8,7-6,15.5c-2.6,6.9-4.9,12.9-5.5,14.5c-4.1,10.8-4.2,11.2-5.5,14.5c-3.6,9-3.8,8.2-5.5,13
		c-2.6,7.3-2.1,8.7-5,18.5c-2,6.7-3.9,11.7-5,14.5c-3.7,9.5-4.7,10-8,18.5c-2.4,6.1-1.4,4.8-6,18c-1.1,3.2-3.4,8.3-8,18.5
		c-1.4,3.1-2.6,5.7-5.5,7.5c-2,1.2-4.6,1.9-9.5,1.5c-6.6-0.6-9.4-2.5-17.5-5.5c-8.5-3.1-8.1-2-18-5.5c-7.2-2.6-7-3.1-14-5.5
		c-7.7-2.7-8.2-2.2-16.5-5c-8.8-3-7.8-3.3-16-6c-6.4-2.1-9.1-2.5-14-5c-6.7-3.4-8.4-5.9-9-7c-2.2-3.9-1.8-8-1.5-10"/>
</g>
<g>
	<path display="none" fill="none" stroke="#575D72" stroke-miterlimit="10" d="M268.7,268c-1.8-3.3,1.4-7.4,5-14.3
		c1.9-3.7,3.9-9.2,8-20.3c2.9-7.9,2.4-7.5,6-17.7c3.2-8.9,3.3-8.5,6.3-17c3.7-10.4,5.5-15.6,5.7-16.3c1.3-5.7,1.6-10.6,4.7-11.7
		c1-0.3,2-0.1,4,0.3c3.7,0.8,5.9,2.2,8.3,3.3c1.9,0.9,4.8,1.8,10.7,3.7c5.4,1.7,5,1.3,9,2.7c6.6,2.2,6.1,2.6,11.7,4.3
		c5.1,1.6,6.2,1.5,8,3c0.8,0.6,1.8,1.7,4.3,7c2.4,5,2,5.1,3.7,8.3c3.1,6.2,5.3,7.3,5.3,11c0,0.9-0.3,2.2-1,4.7c-1.1,4.1-2.3,7-3,8.7
		c-1.7,4.2-0.9,2.8-4.3,12.3c-2.1,5.7-2.2,5.6-5,13.3c-1.7,4.5-1.5,4.1-4,11c-1.3,3.5-2.7,7.5-4.7,12.7c-3.7,10.1-3.8,9.8-4,11
		c-0.9,4.2-0.7,6.4-2.3,7.3c-1.6,0.9-3.6-0.1-7.3-1.7c-4-1.7-8.2-3-12.3-4.7c-6.7-2.6-6.2-2-14-5c-6.7-2.6-6.6-2.9-11.7-4.7
		c-3.7-1.3-3.6-1.1-11.3-3.7c-2.7-0.9-6.3-2.1-10.7-4.3C270.7,269.8,269.2,269.1,268.7,268z"/>
	<path display="none" fill="none" stroke="#575D72" stroke-miterlimit="10" d="M298.8,206.5c1-0.4,1.7-0.1,6,1.5
		c2.6,0.9,5.2,1.8,7.8,2.8c4.7,1.7,4.5,1.5,8,2.8c2.6,1,2.5,1,7.5,3c2.2,0.9,4.1,1.6,7.8,3c3.4,1.3,5.1,2,7.2,2.8
		c3.7,1.4,5.6,2.1,6.2,2.2c4.6,1.3,6.6,1.1,7.2,2.5c0.3,0.7,0,1.2-1,4c-1.4,3.9-0.8,3.1-2.2,7c-0.9,2.6-1.1,2.8-2.5,6.2
		c-1.1,2.8-1.9,4.9-3.2,8.8c-1.7,4.7-1.6,4.6-3,8.5c-1.2,3.3-1.2,3.2-3,8c-1.8,4.7-2.6,7.1-2.8,7.5c-1.5,4.8-1.3,6.5-2.8,7.2
		c-0.7,0.3-1.2,0.3-5.8-1c-3.6-1-5.4-1.5-6.8-2c-3.5-1.2-3.5-1.5-7.5-3c-3-1.1-3-1-8-2.8c-2.9-1-5.1-1.9-7.5-2.8
		c-5.4-2-5.2-2-8.5-3.2c-5-1.8-7.5-2.7-8.5-3c-3.8-1.1-5.5-1.2-6-2.5c-0.5-1.2,0.4-2.2,1.8-5c0.7-1.4,1.5-3.7,3-8.2
		c1.9-5.5,1.3-5.3,2.8-9c1.5-3.8,2-3.8,3.2-7.5c1.1-3,0.8-3.3,2-6.8c1.1-3.2,1.4-3.2,2.8-7c0.9-2.4,0.9-2.8,2.2-6.8
		C297.3,207.6,297.9,206.9,298.8,206.5z"/>
	<path display="none" fill="none" stroke="#575D72" stroke-miterlimit="10" d="M355.8,188.5c-0.3,0.9-0.7,2.3-1.2,4
		c-0.6,1.8-0.9,2.6-2,5.5c-2,5.3-1.4,4.1-2.2,6.2c-1.6,4.2-2.2,4.8-1.8,5.8c0.5,1.2,1.6,1,6,2.8s4.8,2.5,7.8,3.2
		c0.7,0.2,1.9,0.4,3.5,1c1.3,0.5,2.3,0.9,3,1.2"/>
	<path display="none" fill="#FEE79F" stroke="#575D72" stroke-miterlimit="10" d="M306.1,231.1c1.4,0.1,2.5-0.1,3.4-0.4
		c1.2-0.3,2-0.5,2.9-1.1c1.6-1.1,2.3-2.7,2.5-3.1c0.7-1.6,0.6-2.9,0.5-4c-0.1-1-0.2-2.5-1.1-4.1c-0.9-1.5-2.1-2.4-2.8-2.8
		c-1.7-1-3.2-1.1-3.6-1.1c-2.1-0.1-3.6,0.7-4.6,1.2c-0.8,0.4-1.8,0.9-2.6,2c-1,1.2-1.3,2.3-1.5,3.1c-0.2,0.9-0.6,2.1-0.2,3.5
		c0.2,1.1,0.7,1.9,1.4,2.9c0.4,0.7,0.8,1.3,1.6,2c1.1,1,2.2,1.4,2.5,1.5C304.6,230.8,305.2,231,306.1,231.1z"/>
	<path display="none" fill="#C4C4C3" stroke="#575D72" stroke-miterlimit="10" d="M280.5,262.5c0.1,0.6,1.6,1.1,4.6,2.1
		c1.9,0.6,2.2,0.6,3.5,1.1c1.6,0.6,1.7,0.8,3.5,1.5c1,0.4,2,0.7,4,1.4c2.5,0.8,2.5,0.8,3.9,1.2c1.6,0.5,2.7,1,4,1.5
		c1.4,0.5,2.4,1,3.4,1.4c2.6,1.1,2.6,1.2,4.1,1.8c1.8,0.7,3.2,1.2,4.1,1.5c2,0.7,2,0.6,3.9,1.2c1,0.3,1.9,0.7,3.8,1.4
		c0.9,0.3,1.8,0.7,3.6,1.4c2.9,1.1,3.4,1.3,4.4,1.6c2.1,0.7,2.5,1.1,2.9,0.9c0.6-0.4-0.1-1.7-0.5-4.5c-0.2-1.8,0-1.7-0.2-4
		c-0.3-2.9-0.6-2.9-0.9-5.4c-0.2-2.4,0.1-2.5-0.1-5.4c-0.1-1.6-0.2-1.5-0.6-4.8c-0.3-2.1-0.4-3.6-0.6-5.8c-0.2-2.3-0.4-4.3-0.5-5.5
		c-0.2-2.5-0.2-2.8-0.4-4.4c-0.3-2.8-0.3-2.6-0.4-3.6c0-1.7,0.1-2.7-0.2-2.9c-0.3-0.1-0.5,0.4-1.4,1.1c-0.7,0.6-1,0.7-2,1.4
		c-0.7,0.5-1.3,0.9-2.4,1.9c-1.1,0.9-1.9,1.6-3,2.6c-1.7,1.6-1.7,1.6-2.4,2.1c-1.2,1-1.4,0.9-2.6,1.9s-1.1,1.1-2.4,2.1
		c-1.6,1.3-1.7,1-2.9,2.1c-0.6,0.6-1,1-2.2,2.1c-1.1,1-1.4,1.2-1.6,1.1c-0.6-0.1-0.8-1.1-1.8-3.2c-0.7-1.5-0.7-1.2-1.8-3.4
		c-0.5-1-1-2-1.5-3.2c-0.9-2.2-1.1-2.9-1.6-3c-0.2,0-0.5,0-2.1,1.6c-1.1,1.1-1.9,2-2.1,2.2c-1.2,1.3-1.2,1.5-2.2,2.6
		c-0.8,0.9-0.7,0.8-2.5,2.8c-1.9,2.1-1.9,2.1-2.5,2.8c-1,1-1.1,1-2.8,2.6c-0.5,0.5-0.5,0.5-2.5,2.5
		C280.7,261.8,280.4,262.1,280.5,262.5z"/>
	
		<set  fill="freeze" attributeType="CSS" attributeName="visibility" id="show4" begin="0s; hide4.end" to="visible" dur="1s" restart="always">
		</set>
	
		<set  fill="freeze" attributeType="CSS" attributeName="visibility" id="hide4" begin="show4.end" to="hidden" dur="3s" restart="always">
		</set>
</g>
<g>
	<path display="none" fill="none" stroke="#575D72" stroke-miterlimit="10" d="M311.1,189.1c0.7,0.1,1.1,0.3,3.7,1.2
		c3.3,1.2,5.9,2.1,6,2.2c0.9,0.3,2.6,1,6.2,2.2c4.2,1.5,4.1,1.5,4.9,1.8c4.4,1.6,4.1,1.7,6.3,2.4c3.6,1.2,3.9,0.8,6.6,1.9
		c1.8,0.7,1.6,0.9,5.1,2.6c3.9,2,4.2,1.8,6.6,3.2c0.3,0.2,2.5,1.4,5,3.6c2.2,1.8,2.7,2.6,3,3.5c0.5,1.3,0.4,2.5,0.2,3.7
		c-0.2,1.5-0.5,2.1-1.5,5c-0.6,1.6-1.1,3.2-1.6,4.8c-1.5,4.5-1.5,4.4-1.7,5.2c-0.6,1.7-0.6,1.6-2,5.6c-1.3,3.5-1.2,3.3-1.5,4.2
		c-1.1,2.7-1.4,3-2.2,5.2c-0.9,2.3-0.6,2.2-1.5,4.5c-0.9,2.6-1.1,2.4-2.8,6.4c-1,2.4-1.5,3.7-2.1,5.4c-0.4,1.3-0.5,1.7-1,2.7
		c-0.2,0.5-1,2.1-2.4,3.9c-0.8,1-1.6,2.1-3.1,3.2c-2.1,1.6-4,2.1-4.4,2.2c-2.3,0.6-4.2,0.3-6,0c-1.4-0.2-2.7-0.6-7.7-2.5
		c-3.7-1.4-5.6-2.2-7.7-3.1c-3.5-1.6-3.8-2-8.2-4.1c-3.7-1.8-5.6-2.7-7.5-3.4c-5.8-2-6.9-1-10.9-3.2c-2.7-1.5-4.5-3.1-5.4-4
		c-1.6-1.6-2.8-2.7-3.4-4.6c-0.2-0.5-0.7-2.1,0-6c0.6-3.2,1.3-4,2.9-8.9c1.2-3.6,0.9-3.4,2.2-7.4c1.3-3.9,1.5-3.9,2.8-7.7
		c1.6-4.7,1.3-4.9,2.7-8.8c1-2.8,1.2-2.9,2.3-6c1-2.7,1-3.3,2-5.9c1-2.6,1.5-4,2.5-5.6s1.8-2.9,3.5-4c1.5-0.9,2.8-1.2,4.7-1.5
		C306.9,189,308.8,188.7,311.1,189.1z"/>
	<path display="none" fill="none" stroke="#575D72" stroke-miterlimit="10" d="M311.4,208.8c0.5,0.1,1.9,0.2,5.3,1.5
		c2.6,0.9,2.8,1.2,6.9,2.8c2.4,1,3.7,1.5,5,1.8c2.2,0.6,2.6,0.4,4.2,1.1c1.8,0.7,1.8,1.1,4.4,2.4c1.3,0.6,2.4,1.1,4.5,2
		c2.3,1,2.9,1.1,3.8,1.8c0.5,0.5,1.6,1.4,1.9,2.9c0.1,0.6,0.1,1-0.2,2.6c-0.3,2.1-0.5,3.1-0.9,4.7c-0.4,1.5-0.7,2.5-1.3,4.4
		c-0.6,1.9-1.1,3.3-1.5,4.5c-0.7,2.1-1.1,3.2-1.4,3.9c-0.5,1.2-1.1,2.4-2.2,3.8c-0.9,1.1-1.9,2.4-3.5,3.2c-1.9,0.9-3.8,0.7-5.4,0.4
		c-2.8-0.4-3.4-1.2-7.4-2.7c-3.1-1.2-2.9-0.7-7.9-2.4c-2.4-0.8-1.6-0.6-6.6-2.4c-4.3-1.5-5.3-1.8-6.9-2.8c-2.3-1.5-3.6-3-3.9-3.3
		c-1-1.2-2.3-2.7-2.6-4.9c-0.1-0.8-0.2-1.9,1.4-6.5c0.5-1.3,1.1-3.1,2.7-7.1c0.5-1.2,1.6-3.8,3.2-7.1c1.5-3.1,2.1-3.8,3-4.3
		C307.7,208.4,309.4,208.6,311.4,208.8z"/>
	<path display="none" fill="#D82A28" stroke="#575D72" stroke-miterlimit="10" d="M315.8,235.6c0.1,0.1,0.4,0.4,3.3,0
		c1.8-0.2,2.1-0.3,3.7-0.6c1.6-0.2,2.6-0.3,3.9-0.4c1.9,0,2.7,0.2,3-0.3c0.4-0.6-0.6-1.9-0.9-2.4c-1.1-1.4-1.9-1.4-3.5-2.8
		c-0.3-0.2-0.3-0.3-2.9-3.3c-1.6-1.9-2.5-2.8-2.9-2.6c-0.3,0.1-0.1,0.8-0.5,2.3c-0.2,0.9-0.5,1.2-1,2.4c-0.4,0.9-0.4,1.1-1,3
		C315.8,234.7,315.4,235.2,315.8,235.6z"/>
	
		<set  fill="freeze" attributeType="CSS" attributeName="visibility" id="show5" begin="1s; hide5.end" to="visible" dur="1s" restart="always">
		</set>
	
		<set  fill="freeze" attributeType="CSS" attributeName="visibility" id="hide5" begin="show5.end" to="hidden" dur="3s" restart="always">
		</set>
</g>
<g>
	<g>
		<path display="none" fill="none" stroke="#575D72" stroke-miterlimit="10" d="M268.7,267.5c-1.8-3.3,1.4-7.4,5-14.3
			c1.9-3.7,3.9-9.2,8-20.3c2.9-7.9,2.4-7.5,6-17.7c3.2-8.9,3.3-8.5,6.3-17c3.7-10.4,5.5-15.6,5.7-16.3c1.3-5.7,1.6-10.6,4.7-11.7
			c1-0.3,2-0.1,4,0.3c3.7,0.8,5.9,2.2,8.3,3.3c1.9,0.9,4.8,1.8,10.7,3.7c5.4,1.7,5,1.3,9,2.7c6.6,2.2,6.1,2.6,11.7,4.3
			c5.1,1.6,6.2,1.5,8,3c0.8,0.6,1.8,1.7,4.3,7c2.4,5,2,5.1,3.7,8.3c3.1,6.2,5.3,7.3,5.3,11c0,0.9-0.3,2.2-1,4.7
			c-1.1,4.1-2.3,7-3,8.7c-1.7,4.2-0.9,2.8-4.3,12.3c-2.1,5.7-2.2,5.6-5,13.3c-1.7,4.5-1.5,4.1-4,11c-1.3,3.5-2.7,7.5-4.7,12.7
			c-3.7,10.1-3.8,9.8-4,11c-0.9,4.2-0.7,6.4-2.3,7.3c-1.6,0.9-3.6-0.1-7.3-1.7c-4-1.7-8.2-3-12.3-4.7c-6.7-2.6-6.2-2-14-5
			c-6.7-2.6-6.6-2.9-11.7-4.7c-3.7-1.3-3.6-1.1-11.3-3.7c-2.7-0.9-6.3-2.1-10.7-4.3C270.7,269.4,269.2,268.6,268.7,267.5z"/>
		<path display="none" fill="none" stroke="#575D72" stroke-miterlimit="10" d="M309.3,227.7c0.3-0.1,0.6,0,2.1,0.5
			c0.9,0.3,1.8,0.6,2.7,1c1.6,0.6,1.6,0.5,2.8,1c0.9,0.3,0.9,0.4,2.6,1c0.8,0.3,1.4,0.6,2.7,1c1.2,0.5,1.8,0.7,2.5,1
			c1.3,0.5,1.9,0.7,2.2,0.8c1.6,0.5,2.3,0.4,2.5,0.9c0.1,0.2,0,0.4-0.3,1.4c-0.5,1.4-0.3,1.1-0.8,2.4c-0.3,0.9-0.4,1-0.9,2.2
			c-0.4,1-0.6,1.7-1.1,3c-0.6,1.6-0.6,1.6-1,3c-0.4,1.1-0.4,1.1-1,2.8c-0.6,1.6-0.9,2.5-1,2.6c-0.5,1.7-0.4,2.3-1,2.5
			c-0.2,0.1-0.4,0.1-2-0.3c-1.3-0.4-1.9-0.5-2.3-0.7c-1.2-0.4-1.2-0.5-2.6-1c-1-0.4-1-0.3-2.8-1c-1-0.4-1.8-0.6-2.6-1
			c-1.9-0.7-1.8-0.7-3-1.1c-1.7-0.6-2.6-0.9-3-1c-1.3-0.4-1.9-0.4-2.1-0.9c-0.2-0.4,0.1-0.8,0.6-1.7c0.2-0.5,0.5-1.3,1-2.9
			c0.6-1.9,0.5-1.8,1-3.1s0.7-1.3,1.1-2.6c0.4-1.1,0.3-1.1,0.7-2.3c0.4-1.1,0.5-1.1,1-2.4c0.3-0.8,0.3-1,0.8-2.3
			C308.8,228.1,309,227.8,309.3,227.7z"/>
		<path display="none" fill="#FEE79F" stroke="#575D72" stroke-miterlimit="10" d="M311.9,236.2c0.5,0,0.9,0,1.2-0.1
			c0.4-0.1,0.7-0.2,1-0.4c0.6-0.4,0.8-0.9,0.9-1.1c0.2-0.5,0.2-1,0.2-1.4s-0.1-0.9-0.4-1.4s-0.7-0.8-1-1c-0.6-0.3-1.1-0.4-1.3-0.4
			c-0.7,0-1.3,0.2-1.6,0.4c-0.3,0.2-0.6,0.3-0.9,0.7s-0.4,0.8-0.5,1.1s-0.2,0.7-0.1,1.2c0.1,0.4,0.3,0.7,0.5,1
			c0.1,0.2,0.3,0.5,0.6,0.7c0.4,0.3,0.8,0.5,0.9,0.5C311.3,236.1,311.6,236.2,311.9,236.2z"/>
		<path display="none" fill="#C4C4C3" stroke="#575D72" stroke-miterlimit="10" d="M303,247.2c0,0.2,0.6,0.4,1.6,0.7
			c0.7,0.2,0.8,0.2,1.2,0.4c0.6,0.2,0.6,0.3,1.2,0.5c0.3,0.1,0.7,0.2,1.4,0.5c0.9,0.3,0.9,0.3,1.3,0.4c0.5,0.2,1,0.3,1.4,0.5
			c0.5,0.2,0.8,0.3,1.2,0.5c0.9,0.4,0.9,0.4,1.4,0.6c0.6,0.2,1.1,0.4,1.4,0.5c0.7,0.2,0.7,0.2,1.3,0.4c0.3,0.1,0.7,0.2,1.3,0.5
			c0.3,0.1,0.6,0.2,1.3,0.5c1,0.4,1.2,0.5,1.5,0.6c0.7,0.2,0.9,0.4,1,0.3c0.2-0.1,0-0.6-0.2-1.6c-0.1-0.6,0-0.6-0.1-1.4
			c-0.1-1-0.2-1-0.3-1.9c-0.1-0.8,0-0.9,0-1.9c0-0.6-0.1-0.5-0.2-1.7c-0.1-0.7-0.1-1.2-0.2-2s-0.1-1.5-0.2-1.9
			c-0.1-0.9-0.1-1-0.1-1.5c-0.1-1-0.1-0.9-0.1-1.3c0-0.6,0-0.9-0.1-1c-0.1,0-0.2,0.1-0.5,0.4c-0.3,0.2-0.3,0.2-0.7,0.5
			c-0.2,0.2-0.4,0.3-0.8,0.7c-0.4,0.3-0.7,0.6-1,0.9c-0.6,0.5-0.6,0.6-0.8,0.7c-0.4,0.3-0.5,0.3-0.9,0.7c-0.4,0.3-0.4,0.4-0.8,0.7
			c-0.5,0.4-0.6,0.4-1,0.7c-0.2,0.2-0.3,0.3-0.8,0.7c-0.4,0.4-0.5,0.4-0.6,0.4c-0.2,0-0.3-0.4-0.6-1.1c-0.2-0.5-0.2-0.4-0.6-1.2
			c-0.2-0.4-0.3-0.7-0.5-1.1c-0.3-0.8-0.4-1-0.6-1c-0.1,0-0.2,0-0.7,0.6c-0.4,0.4-0.7,0.7-0.7,0.8c-0.4,0.5-0.4,0.5-0.8,0.9
			c-0.3,0.3-0.3,0.3-0.9,1c-0.7,0.7-0.7,0.7-0.9,1c-0.3,0.3-0.4,0.3-1,0.9c-0.2,0.2-0.2,0.2-0.9,0.9C303,246.9,302.9,247,303,247.2z
			"/>
		<line display="none" fill="none" stroke="#575D72" stroke-miterlimit="10" x1="301.9" y1="205.3" x2="352.2" y2="222.1"/>
		<line display="none" fill="none" stroke="#575D72" stroke-miterlimit="10" x1="296.9" y1="211.1" x2="352.2" y2="229.1"/>
		<line display="none" fill="none" stroke="#575D72" stroke-miterlimit="10" x1="295.2" y1="218.8" x2="345.7" y2="234.8"/>
		<line display="none" fill="none" stroke="#575D72" stroke-miterlimit="10" x1="286.4" y1="248.8" x2="332.2" y2="263.6"/>
		<line display="none" fill="none" stroke="#575D72" stroke-miterlimit="10" x1="281.4" y1="254.1" x2="336.4" y2="272.3"/>
		<line display="none" fill="none" stroke="#575D72" stroke-miterlimit="10" x1="283.7" y1="259.8" x2="324.5" y2="274.3"/>
		<line display="none" fill="none" stroke="#575D72" stroke-miterlimit="10" x1="278.2" y1="265.1" x2="333.4" y2="284.1"/>
		<path display="none" fill="none" stroke="#575D72" stroke-miterlimit="10" d="M355.8,188c-0.3,0.9-0.7,2.3-1.2,4
			c-0.6,1.8-0.9,2.6-2,5.5c-2,5.3-1.4,4.1-2.2,6.2c-1.6,4.2-2.2,4.8-1.8,5.8c0.5,1.2,1.6,1,6,2.8s4.8,2.5,7.8,3.2
			c0.7,0.2,1.9,0.4,3.5,1c1.3,0.5,2.3,0.9,3,1.2"/>
		
			<set  fill="freeze" attributeType="CSS" attributeName="visibility" id="show6" begin="2s; hide6.end" to="visible" dur="1s" restart="always">
			</set>
		
			<set  fill="freeze" attributeType="CSS" attributeName="visibility" id="hide6" begin="show6.end" to="hidden" dur="3s" restart="always">
			</set>
	</g>
</g>
<g>
	<path display="none" fill="#DAAFD2" stroke="#575D72" stroke-width="2" stroke-miterlimit="10" d="M286.2,232.1
		c0.2,0.7,1,0.8,3.1,1.5c1.8,0.6,3.6,1.3,5.4,2c4.3,1.5,3.6,1.5,4.5,1.7c2.2,0.5,3.9,0.4,5,1.7c0.2,0.2,0.5,0.7,0.7,1.1
		c0.5,1,0.7,1.7,0.8,2.3c0.3,1.2,0.6,1.2,1.5,3.2c0.7,1.6,0.5,1.5,1.5,3.9c0.8,2,1.5,3.5,1.7,3.8c1,2.1,1,1.7,1.9,3.6
		c1.1,2.3,1.4,3.4,2.1,3.4c0.5,0,1-0.5,1.3-0.9c0.9-1.1,1.1-2.3,1.2-2.9c0.3-1.6,1.2-3.1,1.7-4.7c1.8-5.3,1.7-5,2.2-6.6
		c0.5-1.3,0.5-1.3,2.5-6.6c1.5-3.9,2.3-5.9,2.7-7c1.3-3.5,1.4-4.2,2.7-7.7c1.7-4.8,2.1-4.8,2.8-7.3c0.8-2.9,0.5-3.6,1.5-5.6
		c0.3-0.6,0.8-1.5,0.5-1.8s-1.1,0.1-2.5,0.6c-3.2,1.3,0-0.2-3.9,1.5c-1.9,0.8-2.9,1.3-4.8,2.1c-4,1.9-3.6,1.8-4.7,2.2
		c-1.8,0.6-2.5,0.7-3.8,1.6c-1.2,0.9-1.2,1.3-1.9,1.5c-1.2,0.3-1.9-0.6-4.5-1.8c-1.6-0.7-1.4-0.4-4.1-1.5c-0.9-0.4-2-0.8-4.1-1.8
		c-3-1.3-3.9-1.8-4.8-1.3c-0.5,0.3-0.9,0.7-1.4,1.5c-0.4,0.6-0.7,1.2-1.1,2.2c-0.5,1.4-0.7,1.9-1.1,2.9c-0.7,1.9-0.8,1.9-1.4,3.5
		c-0.5,1.3-0.4,1.3-1,3c-0.5,1.4-0.7,2.2-1.2,3.2C286.4,231,286,231.4,286.2,232.1z"/>
	<path display="none" fill="none" stroke="#575D72" stroke-width="2" stroke-miterlimit="10" d="M325.4,252.4c1.2-0.6,2.7-1.6,4.4-3
		c1.3-1.1,3.2-2.7,5-5.3c0.7-1.1,2.8-4.4,3.5-9.3c0.4-3.1,0.1-5.5-0.1-6.7c-0.4-2.7-1.1-4.8-1.7-6.3"/>
	<path display="none" fill="none" stroke="#575D72" stroke-width="2" stroke-miterlimit="10" d="M329.5,261c1.7-1.1,3.5-2.4,5.3-3.9
		s3.9-3.2,6-5.9c1-1.2,2.3-2.9,3.6-5.4c1.8-3.5,2.4-6.6,2.8-8.4c0.4-2.1,1-5.2,0.5-9.1c-0.5-4.8-2.4-8.6-3.9-11"/>
	<path display="none" fill="none" stroke="#575D72" stroke-width="2" stroke-miterlimit="10" d="M332.9,268.5
		c1.3-0.3,3.1-0.8,5.1-1.9c1.9-1,3.1-2.1,4.7-3.4c1.7-1.5,3.6-3.1,5.6-5.8c1.7-2.3,2.5-4.1,3.9-7.3c1.5-3.4,2.6-5.8,3.3-9.1
		c0.8-3.7,0.8-6.5,0.8-10.9c-0.1-4.7-0.1-7.9-1.5-11.8c-0.8-2.2-1.8-3.9-2.5-5.1"/>
	
		<set  fill="freeze" attributeType="CSS" attributeName="visibility" id="show7" begin="3s; hide7.end" to="visible" dur="1s" restart="always">
		</set>
	
		<set  fill="freeze" attributeType="CSS" attributeName="visibility" id="hide7" begin="show7.end" to="hidden" dur="3s" restart="always">
		</set>
</g>
<g>
	<g>
		<g>
			<path fill="#E2E2E2" stroke="#575D72" stroke-width="0.4563" stroke-miterlimit="10" d="M345.5,250.3l-3.8-1.4
				c-0.8-0.3-1.1-1.1-0.9-1.9l1.4-3.8c0.3-0.8,1.1-1.1,1.9-0.9l3.8,1.4c0.8,0.3,1.1,1.1,0.9,1.9l-1.4,3.8
				C347.2,250.1,346.3,250.6,345.5,250.3z"/>
			<path fill="#E2E2E2" stroke="#575D72" stroke-width="0.4563" stroke-miterlimit="10" d="M344,242.2c1.1-0.9,2.1-1.8,3.2-2.8"/>
			<path fill="#E2E2E2" stroke="#575D72" stroke-width="0.4563" stroke-miterlimit="10" d="M345.2,242.7c0.7-1.1,1.3-2.1,2-3.2"/>
			<path fill="#E2E2E2" stroke="#575D72" stroke-width="0.4563" stroke-miterlimit="10" d="M346.6,243.3c0.2-1.2,0.4-2.4,0.6-3.6"/>
			<path fill="#E2E2E2" stroke="#575D72" stroke-width="0.4563" stroke-miterlimit="10" d="M347.7,243.6c-0.1-1.3-0.2-2.7-0.4-4"/>
		</g>
		<g>
			<path fill="#F79D88" stroke="#575D72" stroke-width="0.4563" stroke-miterlimit="10" d="M346,239.1c0.8,0.3,1.5,0.6,2.3,0.8"/>
			<path fill="#F79D88" stroke="#575D72" stroke-width="0.4563" stroke-miterlimit="10" d="M348.3,239.8c0.3-0.3,0.5-0.5,0.7-0.8
				c0.3-0.3,0.4-0.5,0.5-0.7s0.1-0.4,0.2-0.5"/>
			<path fill="#F79D88" stroke="#575D72" stroke-width="0.4563" stroke-miterlimit="10" d="M346.2,239.2c-0.2-0.4-0.3-0.6-0.3-0.8
				s0-0.4,0-0.6c0-0.2,0.1-0.3,0.1-0.6c0-0.2,0.1-0.4,0.1-0.5"/>
			<path fill="#F79D88" stroke="#575D72" stroke-width="0.4563" stroke-miterlimit="10" d="M346.2,236.7l1.8,0.6l1.8,0.7"/>
			<path fill="#F79D88" stroke="#575D72" stroke-width="0.4563" stroke-miterlimit="10" d="M349.8,237.9c0.4-0.1,0.9-0.4,1.4-0.6
				c0.8-0.4,1.5-0.7,2-1c1.1-0.6,1.9-1.2,2.6-1.6c0.8-0.5,1.9-1.3,3.2-2.4c1.1-0.9,1.8-1.6,2.7-2.7c0.6-0.8,1.1-1.6,1.3-2.1
				c0.5-0.9,0.9-1.7,1-2.7c0.2-1.3-0.1-2.3-0.2-2.7c-0.3-1.1-0.7-1.8-1.5-2.9c-0.7-1.1-1.4-1.9-1.9-2.4c-0.9-1-1.3-1.5-1.8-1.7
				c-1-0.4-1.5,0-2.3-0.6c-0.5-0.3-0.5-0.6-1.1-0.8c-0.5-0.2-1-0.3-1.4-0.3c-0.6,0-1.1,0-1.8,0.1c-2.4,0.3-2.3,0.3-2.5,0.4
				c-1,0.3-1.7,0.6-2.5,1.1c-1,0.6-1.7,1-2.4,1.7c-0.6,0.7-0.9,1.3-1.3,2.3c-0.5,1-0.8,1.7-0.9,2.7c0,0.2-0.1,0.8,0.3,3.4
				c0.1,0.7,0.2,1.2,0.4,2.2c0.1,0.7,0.1,0.9,0.2,1.3c0.1,0.4,0.2,0.8,0.6,2.1c0.2,0.6,0.3,0.8,0.7,2c0.6,1.6,0.6,1.8,0.8,2.3
				c0.3,0.7,0.6,1.3,0.8,1.7"/>
			<path fill="#F79D88" stroke="#575D72" stroke-width="0.4563" stroke-miterlimit="10" d="M349.1,237.7c0.3-0.1,0.7-0.3,1.2-0.6
				c0.4-0.2,0.7-0.5,1.6-1.1c0.7-0.5,1.3-0.9,2-1.6c0.3-0.3,0.8-0.7,2.2-2.1c1.2-1.3,1.9-1.9,2.5-2.6c1.3-1.5,2-2.2,2.6-3.4
				c0.8-1.5,1.1-2.8,1.2-3.3c0.3-1.3,0.3-2.3,0.2-3.1"/>
			<path fill="#F79D88" stroke="#575D72" stroke-width="0.4563" stroke-miterlimit="10" d="M348.7,237.5c0.3-0.4,0.9-1,1.5-1.8
				c1.3-1.5,1.7-1.9,2.4-2.7c0.6-0.8,0.6-0.8,1.7-2.4c2-2.9,2.2-3,3.1-4.4c0.8-1.3,1.3-2.3,1.6-3.1c1.2-2.7,1.3-3.8,1.3-4.4
				c0-0.9-0.1-1.6-0.2-2.1"/>
			<path fill="#F79D88" stroke="#575D72" stroke-width="0.4563" stroke-miterlimit="10" d="M346.8,236.9c-0.1-0.4-0.3-1.1-0.5-2
				c-0.5-1.9-0.6-2.2-0.8-3.2c-0.4-1.9-0.6-3.3-0.6-3.8c-0.1-0.7-0.2-1.7-0.2-2.9c0-2.6,0.5-4.5,0.6-4.9c0.1-0.7,0.5-1.8,1.1-3.2
				c0.4-0.9,0.9-1.7,1.3-2.2"/>
			<path fill="#F79D88" stroke="#575D72" stroke-width="0.4563" stroke-miterlimit="10" d="M347.5,237.1c-0.1-0.6-0.1-1.4-0.2-2.3
				c-0.1-0.7-0.1-2.1,0.1-4.7c0.1-2.1,0.2-3.5,0.5-5.5c0.1-0.6,0.4-2.7,1.1-5.2c0.6-1.9,0.9-2.6,1.2-3.2c0.7-1.2,1.6-2,2.1-2.6"/>
			<path fill="#F79D88" stroke="#575D72" stroke-width="0.4563" stroke-miterlimit="10" d="M356.2,214.7c-2.7,7.5-5.5,15.1-8.2,22.6
				"/>
			<path fill="none" stroke="#575D72" stroke-width="0.4563" stroke-miterlimit="10" d="M346.2,236.6c1.2,0.5,2.5,0.9,3.7,1.4"/>
		</g>
		
			<animateTransform  type="rotate" fill="remove" attributeType="xml" attributeName="transform" from="0 267.5 253" calcMode="linear" id="show100" begin="0s; hide100.end" to="-10 267.5 253" dur="3s" restart="always" accumulate="none" additive="replace">
			</animateTransform>
		
			<animateTransform  type="rotate" fill="remove" attributeType="xml" attributeName="transform" from="-10 267.5 253" calcMode="linear" id="hide100" begin="3s; show100.end" to="0 267.5 253" dur="3s" restart="always" accumulate="none" additive="replace">
			</animateTransform>
	</g>
	<g>
		<g>
			<g>
				<g>
					<g>
						<g>
							<path fill="#FFFFFF" stroke="#575D72" stroke-width="0.4563" stroke-miterlimit="10" d="M353.5,293.1
								c-29.6-10.9-59.2-21.6-89.3-32.3l89.3,32.5C353.5,293.2,353.5,293.2,353.5,293.1z"/>
							<path fill="#FFFFFF" stroke="#575D72" stroke-width="0.4563" stroke-miterlimit="10" d="M269.2,244.1
								c3.1-8.4,6.1-16.9,9.2-25.3"/>
						</g>
						<path fill="#FFFFFF" stroke="#575D72" stroke-width="0.4563" stroke-miterlimit="10" d="M278.4,218.7
							c-0.4-0.2-0.9-0.3-1.3-0.4"/>
						<path fill="#FFFFFF" stroke="#575D72" stroke-width="0.4563" stroke-miterlimit="10" d="M277,218.3c0.2-0.6,0.5-1.2,0.7-1.9"
							/>
						<path fill="#FFFFFF" stroke="#575D72" stroke-width="0.4563" stroke-miterlimit="10" d="M277.7,216.4c6.4,2.3,12.9,4.7,19.3,7
							"/>
						<path fill="#FFFFFF" stroke="#575D72" stroke-width="0.4563" stroke-miterlimit="10" d="M297,223.5c-0.2,0.6-0.4,1.2-0.7,1.8"
							/>
						<path fill="#FFFFFF" stroke="#575D72" stroke-width="0.4563" stroke-miterlimit="10" d="M296.5,225.4c-6-2.2-12-4.4-18-6.6"/>
						<path fill="#FFFFFF" stroke="#575D72" stroke-width="0.4563" stroke-miterlimit="10" d="M295,225c-3.3,9.1-6.6,18.1-9.9,27.2"
							/>
						<path fill="#FFFFFF" stroke="#575D72" stroke-width="0.4563" stroke-miterlimit="10" d="M280.2,266.3c0.3-0.9,0.7-1.9,1-2.8"
							/>
						<path fill="#FFFFFF" stroke="#575D72" stroke-width="0.4563" stroke-miterlimit="10" d="M278.6,266c1-2.7,2-5.4,2.9-8.1"/>
						<path fill="#FFFFFF" stroke="#575D72" stroke-width="0.4563" stroke-miterlimit="10" d="M281,259.5c0.9-0.4,1.7-0.7,2.6-1.1"
							/>
						<path fill="#FFFFFF" stroke="#575D72" stroke-width="0.4563" stroke-miterlimit="10" d="M280.2,261.2
							c-0.2-0.4-0.4-0.8-0.6-1.2"/>
						<path fill="none" stroke="#575D72" stroke-width="0.4563" stroke-miterlimit="10" d="M279.7,263c0.2,0,0.5,0,0.8,0.2
							c0.3,0.2,0.4,0.3,0.7,0.3c0.1,0,0.3,0.1,0.9-0.1c0.7-0.2,1.1-0.4,1.2-0.5c0.4-0.2,0.7-0.3,1.1-0.6c0.6-0.3,0.9-0.5,1.2-0.8
							c0.3-0.2,0.9-0.7,1.4-1.4c0.4-0.7,0.6-1.2,0.7-1.4c0.1-0.4,0.4-1.2,0.3-2.3c-0.1-0.7-0.4-1.2-0.6-1.7c-0.9-1.5-2-2.3-2.3-2.5
							c-0.4-0.3-1-0.6-1.7-0.8c-0.9-0.2-1.6-0.1-2.2,0.1c-0.5,0.1-1.5,0.3-2.6,1c-0.9,0.6-2.1,1.5-2,2c0.1,0.2,0.4,0.1,0.9,0.4
							c0.3,0.2,0.4,0.5,0.7,0.9c0.3,0.4,0.4,0.7,0.5,1.1c0,0.1,0.1,0.6,0,1.3c-0.1,0.4-0.3,0.7-0.6,1.2c-0.4,0.7-0.7,1-1,1.3
							c-0.4,0.3-0.9,0.4-1.1,0.4c-0.7,0.1-1.3-0.1-1.6-0.2"/>
						<path fill="none" stroke="#575D72" stroke-width="0.4563" stroke-miterlimit="10" d="M273,263.9c0.6-1.7,1.3-3.5,1.9-5.2"/>
						<path fill="none" stroke="#575D72" stroke-width="0.4563" stroke-miterlimit="10" d="M279.6,262.9c-0.4-0.4-0.9-0.9-1.4-1.4
							c-0.4-0.4-0.7-0.7-1-1.1"/>
						<path fill="none" stroke="#575D72" stroke-width="0.4563" stroke-miterlimit="10" d="M274,260.8c-0.3-0.2-0.6-0.5-1-0.9
							c-0.4-0.5-0.7-0.8-0.9-1.4s-0.1-1,0-1.4c0.1-0.7,0.4-1.2,0.5-1.5c0.2-0.3,0.5-0.8,1.1-1.1c0.5-0.3,0.9-0.3,1.2-0.4
							c0.7-0.1,1.2,0.1,1.5,0.1"/>
						<path fill="none" stroke="#575D72" stroke-width="0.4563" stroke-miterlimit="10" d="M269.4,262.6c1-2.7,2-5.4,3-8.1"/>
						<path fill="none" stroke="#575D72" stroke-width="0.4563" stroke-miterlimit="10" d="M272.4,254.5c-1.5-0.5-3-1.1-4.5-1.6"/>
						<path fill="none" stroke="#575D72" stroke-width="0.4563" stroke-miterlimit="10" d="M264.9,261c1-2.7,2-5.4,2.9-8.1"/>
						<path fill="none" stroke="#575D72" stroke-width="0.4563" stroke-miterlimit="10" d="M269.6,258.3c0.3,0.1,0.6,0.2,0.9,0.3"/>
						<path fill="none" stroke="#575D72" stroke-width="0.4563" stroke-miterlimit="10" d="M268.8,250.1c2.8,1,5.6,2,8.4,3"/>
						<path fill="none" stroke="#575D72" stroke-width="0.4563" stroke-miterlimit="10" d="M275.2,252.6c0.3-0.9,0.6-1.8,1-2.6"/>
						<path fill="none" stroke="#575D72" stroke-width="0.4563" stroke-miterlimit="10" d="M268.9,249.9c0.3-0.8,0.6-1.5,0.8-2.3"/>
						<path fill="none" stroke="#575D72" stroke-width="0.4563" stroke-miterlimit="10" d="M269.8,247.4c3.6,1.3,7.2,2.6,10.8,3.9"
							/>
						<path fill="none" stroke="#575D72" stroke-width="0.4563" stroke-miterlimit="10" d="M283.5,251.5c0.4-1.1,0.8-2.1,1.2-3.2"/>
						<path fill="none" stroke="#575D72" stroke-width="0.4563" stroke-miterlimit="10" d="M271.2,243.3c4.5,1.6,8.9,3.2,13.3,4.9"
							/>
						<path fill="none" stroke="#575D72" stroke-width="0.4563" stroke-miterlimit="10" d="M283.6,250.7c-4.4-1.6-8.8-3.2-13.2-4.8"
							/>
						<path fill="none" stroke="#575D72" stroke-width="0.4563" stroke-miterlimit="10" d="M270.4,245.9c0.3-0.9,0.6-1.7,0.9-2.6"/>
						<path fill="none" stroke="#575D72" stroke-width="0.4563" stroke-miterlimit="10" d="M276.9,248.2c0.3-0.8,0.6-1.6,0.9-2.5"/>
						<path fill="none" stroke="#575D72" stroke-width="0.4563" stroke-miterlimit="10" d="M272.2,241.5c4.4,1.6,8.7,3.2,13.1,4.8"
							/>
						<path fill="none" stroke="#575D72" stroke-width="0.4563" stroke-miterlimit="10" d="M286.2,243.5c-0.3,0.9-0.6,1.8-1,2.6"/>
						<path fill="none" stroke="#575D72" stroke-width="0.4563" stroke-miterlimit="10" d="M286.3,243.3c-4.4-1.6-8.8-3.2-13.2-4.8"
							/>
						<path fill="none" stroke="#575D72" stroke-width="0.4563" stroke-miterlimit="10" d="M273.1,238.4c-0.4,1-0.7,2-1.1,3"/>
						<path fill="none" stroke="#575D72" stroke-width="0.4563" stroke-miterlimit="10" d="M278.7,243.8c0.3-0.9,0.7-1.8,1-2.8"/>
						<path fill="none" stroke="#575D72" stroke-width="0.4563" stroke-miterlimit="10" d="M273.7,237.4c4.4,1.6,8.7,3.2,13.1,4.8"
							/>
						<path fill="none" stroke="#575D72" stroke-width="0.4563" stroke-miterlimit="10" d="M287.7,239.4c-0.3,0.9-0.6,1.8-1,2.6"/>
						<path fill="none" stroke="#575D72" stroke-width="0.4563" stroke-miterlimit="10" d="M287.8,239.3c-4.4-1.6-8.8-3.2-13.2-4.8"
							/>
						<path fill="none" stroke="#575D72" stroke-width="0.4563" stroke-miterlimit="10" d="M274.5,234.4c-0.4,1-0.7,2-1.1,3"/>
						<path fill="none" stroke="#575D72" stroke-width="0.4563" stroke-miterlimit="10" d="M280.2,239.8c0.3-0.9,0.7-1.8,1-2.8"/>
						<path fill="none" stroke="#575D72" stroke-width="0.4563" stroke-miterlimit="10" d="M275.4,232.9c4.4,1.6,8.7,3.2,13.1,4.8"
							/>
						<path fill="none" stroke="#575D72" stroke-width="0.4563" stroke-miterlimit="10" d="M289.4,234.9c-0.3,0.9-0.6,1.8-1,2.6"/>
						<path fill="none" stroke="#575D72" stroke-width="0.4563" stroke-miterlimit="10" d="M289.5,234.8c-4.4-1.6-8.8-3.2-13.2-4.8"
							/>
						<path fill="none" stroke="#575D72" stroke-width="0.4563" stroke-miterlimit="10" d="M276.2,229.9c-0.4,1-0.7,2-1.1,3"/>
						<path fill="none" stroke="#575D72" stroke-width="0.4563" stroke-miterlimit="10" d="M281.8,235.3c0.3-0.9,0.7-1.8,1-2.8"/>
						<path fill="none" stroke="#575D72" stroke-width="0.4563" stroke-miterlimit="10" d="M276.8,228.5c4.4,1.6,8.7,3.2,13.1,4.8"
							/>
						<path fill="none" stroke="#575D72" stroke-width="0.4563" stroke-miterlimit="10" d="M290.8,230.5c-0.3,0.9-0.6,1.8-1,2.6"/>
						<path fill="none" stroke="#575D72" stroke-width="0.4563" stroke-miterlimit="10" d="M290.9,230.4c-4.4-1.6-8.8-3.2-13.2-4.8"
							/>
						<path fill="none" stroke="#575D72" stroke-width="0.4563" stroke-miterlimit="10" d="M277.7,225.5c-0.4,1-0.7,2-1.1,3"/>
						<path fill="none" stroke="#575D72" stroke-width="0.4563" stroke-miterlimit="10" d="M283.3,230.9c0.3-0.9,0.7-1.8,1-2.8"/>
						<path fill="none" stroke="#575D72" stroke-width="0.4563" stroke-miterlimit="10" d="M278.7,223.9c4.4,1.6,8.7,3.2,13.1,4.8"
							/>
						<path fill="none" stroke="#575D72" stroke-width="0.4563" stroke-miterlimit="10" d="M292.7,225.9c-0.3,0.9-0.6,1.8-1,2.6"/>
						<path fill="none" stroke="#575D72" stroke-width="0.4563" stroke-miterlimit="10" d="M292.8,225.7c-4.4-1.6-8.8-3.2-13.2-4.8"
							/>
						<path fill="none" stroke="#575D72" stroke-width="0.4563" stroke-miterlimit="10" d="M279.5,220.8c-0.4,1-0.7,2-1.1,3"/>
						<path fill="none" stroke="#575D72" stroke-width="0.4563" stroke-miterlimit="10" d="M285.1,226.2c0.3-0.9,0.7-1.8,1-2.8"/>
						<path fill="#FFFFFF" stroke="#575D72" stroke-width="0.4563" stroke-miterlimit="10" d="M286.2,268.7c1.5-4,2.9-8.1,4.4-12.1"
							/>
						<path fill="#FFFFFF" stroke="#575D72" stroke-width="0.4563" stroke-miterlimit="10" d="M290.6,256.6
							c-0.4-0.2-0.7-0.3-1.1-0.5"/>
						<path fill="#FFFFFF" stroke="#575D72" stroke-width="0.4563" stroke-miterlimit="10" d="M289.6,256.2c0.2-0.2,0.4-0.5,0.6-0.7
							c0.4-0.5,0.7-0.8,1.1-1.2"/>
						<path fill="#FFFFFF" stroke="#575D72" stroke-width="0.4563" stroke-miterlimit="10" d="M291.3,254.3
							c7.2,2.6,14.4,5.2,21.6,7.9"/>
						<path fill="#FFFFFF" stroke="#575D72" stroke-width="0.4563" stroke-miterlimit="10" d="M313,262.3c0,0.8,0,1.7,0.1,2.5"/>
						<path fill="#FFFFFF" stroke="#575D72" stroke-width="0.4563" stroke-miterlimit="10" d="M313,264.8
							c-7.5-2.7-14.9-5.4-22.4-8.2"/>
						<path fill="#FFFFFF" stroke="#575D72" stroke-width="0.4563" stroke-miterlimit="10" d="M311.7,264.3c-1.5,4-2.9,8-4.4,12"/>
						<path fill="#FFFFFF" stroke="#575D72" stroke-width="0.4563" stroke-miterlimit="10" d="M294.5,271.7c1.1-3,2.2-5.9,3.2-8.9"
							/>
						<path fill="#FFFFFF" stroke="#575D72" stroke-width="0.4563" stroke-miterlimit="10" d="M289.4,270.1c1.1-2.9,2.1-5.8,3.2-8.7
							"/>
						<path fill="#FFFFFF" stroke="#575D72" stroke-width="0.4563" stroke-miterlimit="10" d="M292.5,261.8c1.7,0.6,3.3,1.2,5,1.8"
							/>
						<path fill="none" stroke="#575D72" stroke-width="0.4563" stroke-miterlimit="10" d="M292.4,261.4c0.2-0.2,0.4-0.4,0.7-0.6
							c0.4-0.3,0.8-0.4,1.1-0.5c0.3-0.1,0.7-0.2,1.3-0.1c0.3,0,0.7,0.1,1.2,0.3c0.4,0.2,0.5,0.5,0.7,0.8c0.2,0.2,0.3,0.6,0.4,1
							c0,0.3,0,0.7-0.1,0.8"/>
						<path fill="none" stroke="#575D72" stroke-width="0.4563" stroke-miterlimit="10" d="M295,262.8c0.9-0.4,1.7-0.8,2.6-1.2"/>
						<path fill="none" stroke="#575D72" stroke-width="0.4563" stroke-miterlimit="10" d="M294.8,262.8c0.3-0.9,0.7-1.8,1-2.7"/>
						<path fill="none" stroke="#575D72" stroke-width="0.4563" stroke-miterlimit="10" d="M294.9,262.9c-0.4-0.8-0.7-1.6-1.1-2.4"
							/>
						<path fill="none" stroke="#575D72" stroke-width="0.4563" stroke-miterlimit="10" d="M297.7,270.9c2.6,0.9,5.1,1.9,7.7,2.8"/>
						<path fill="none" stroke="#575D72" stroke-width="0.4563" stroke-miterlimit="10" d="M305.4,273.8c0.6-1.7,1.2-3.3,1.8-5"/>
						<path fill="none" stroke="#575D72" stroke-width="0.4563" stroke-miterlimit="10" d="M297.8,270.9c0.6-1.7,1.2-3.3,1.8-5"/>
						<path fill="none" stroke="#575D72" stroke-width="0.4563" stroke-miterlimit="10" d="M298.7,265.5c3,1.1,6.1,2.2,9.1,3.3"/>
						<path fill="none" stroke="#575D72" stroke-width="0.4563" stroke-miterlimit="10" d="M298.7,265.4c0.3-0.8,0.6-1.6,0.9-2.5"/>
						<path fill="none" stroke="#575D72" stroke-width="0.4563" stroke-miterlimit="10" d="M299.5,262.9c3,1.1,6.1,2.2,9.1,3.3"/>
						<path fill="none" stroke="#575D72" stroke-width="0.4563" stroke-miterlimit="10" d="M308.7,266.1c-0.3,0.9-0.7,1.8-1,2.7"/>
						<path fill="none" stroke="#575D72" stroke-width="0.4563" stroke-miterlimit="10" d="M300.2,265.7c0.3-0.7,0.5-1.4,0.8-2.1"/>
						<path fill="none" stroke="#575D72" stroke-width="0.4563" stroke-miterlimit="10" d="M301.7,266.5c0.3-0.8,0.6-1.6,0.9-2.4"/>
						<path fill="none" stroke="#575D72" stroke-width="0.4563" stroke-miterlimit="10" d="M303.4,267.2c0.3-0.8,0.6-1.6,0.9-2.4"/>
						<path fill="none" stroke="#575D72" stroke-width="0.4563" stroke-miterlimit="10" d="M304.8,267.9c0.3-0.9,0.6-1.7,0.9-2.5"/>
						<path fill="none" stroke="#575D72" stroke-width="0.4563" stroke-miterlimit="10" d="M306.1,268.3c0.3-0.8,0.6-1.6,0.9-2.5"/>
					</g>
					<path fill="none" stroke="#575D72" stroke-width="0.4563" stroke-miterlimit="10" d="M309.9,277.5c0.7-1.9,1.4-3.7,2-5.6"/>
					<path fill="none" stroke="#575D72" stroke-width="0.4563" stroke-miterlimit="10" d="M312,271.9c0.3,0.1,0.6-0.2,0.8-0.5
						c0.4-0.4,0.5-0.7,0.6-0.9c0.1-0.3,0.2-0.6,0.1-0.7c-0.1-0.1-0.3-0.2-0.7-0.3c-0.3-0.1-0.4-0.1-0.5-0.1
						c-0.3,0.1-0.4,0.4-0.5,0.5c-0.3,0.6-0.2,1.1-0.1,1.3C311.7,271.5,311.8,271.8,312,271.9z"/>
					<path fill="none" stroke="#575D72" stroke-width="0.4563" stroke-miterlimit="10" d="M313,278.4c1.6-4.4,3.2-8.7,4.8-13.2"/>
					<path fill="none" stroke="#575D72" stroke-width="0.4563" stroke-miterlimit="10" d="M317.6,265.2c10,3.7,20.1,7.3,30.1,11"/>
					<path fill="none" stroke="#575D72" stroke-width="0.4563" stroke-miterlimit="10" d="M347.9,276c-1.7,4.5-3.3,9-5,13.6"/>
					<path fill="none" stroke="#575D72" stroke-width="0.4563" stroke-miterlimit="10" d="M316.7,267.6c10.2,3.7,20.3,7.4,30.4,11.1
						"/>
					<path fill="none" stroke="#575D72" stroke-width="0.4563" stroke-miterlimit="10" d="M333.1,285.6c1.3-3.6,2.6-7.2,3.9-10.7"/>
					<path fill="none" stroke="#575D72" stroke-width="0.4563" stroke-miterlimit="10" d="M325.1,282.6c0.8-2.2,1.6-4.5,2.5-6.7"/>
					<path fill="none" stroke="#575D72" stroke-width="0.4563" stroke-miterlimit="10" d="M327.5,275.9c2.1,0.7,4.2,1.5,6.2,2.3"/>
					<path fill="none" stroke="#575D72" stroke-width="0.4563" stroke-miterlimit="10" d="M333.7,278.3c-0.8,2.3-1.7,4.6-2.5,6.9"/>
					<path fill="none" stroke="#575D72" stroke-width="0.4563" stroke-miterlimit="10" d="M327.9,284.2c0.9-2.4,1.7-4.8,2.6-7.2"/>
					<path fill="none" stroke="#575D72" stroke-width="0.4563" stroke-miterlimit="10" d="M328.2,280.9c0.6,0.2,1.2,0.4,1.8,0.7"/>
					<path fill="none" stroke="#575D72" stroke-width="0.4563" stroke-miterlimit="10" d="M322.9,282c1.3-3.6,2.6-7.1,3.9-10.6"/>
					<path fill="none" stroke="#575D72" stroke-width="0.4563" stroke-miterlimit="10" d="M327.2,274.4c2.5,0.9,5,1.8,7.4,2.7"/>
					<path fill="none" stroke="#575D72" stroke-width="0.4563" stroke-miterlimit="10" d="M327,274.5c0.1-0.4,0.3-0.8,0.4-1.2"/>
					<path fill="none" stroke="#575D72" stroke-width="0.4563" stroke-miterlimit="10" d="M327.4,273.2c2.7,1,5.3,1.9,7.9,2.9"/>
					<path fill="none" stroke="#575D72" stroke-width="0.4563" stroke-miterlimit="10" d="M334.9,277.1c0.1-0.3,0.3-0.7,0.4-1.1"/>
					<path fill="none" stroke="#575D72" stroke-width="0.4563" stroke-miterlimit="10" d="M316.8,276.7c1.8-0.8,3.6-1.7,5.4-2.5"/>
					<path fill="none" stroke="#575D72" stroke-width="0.4563" stroke-miterlimit="10" d="M317.7,274.6c1.2-0.5,2.3-1.1,3.5-1.6"/>
					<path fill="none" stroke="#575D72" stroke-width="0.4563" stroke-miterlimit="10" d="M338.1,282.3c1.1-0.5,2.2-1,3.3-1.6"/>
					<path fill="none" stroke="#575D72" stroke-width="0.4563" stroke-miterlimit="10" d="M337.4,284.2c1.8-0.8,3.5-1.6,5.2-2.4"/>
					<path fill="none" stroke="#575D72" stroke-width="0.4563" stroke-miterlimit="10" d="M345.3,290.2c3.3-9,6.5-18,9.8-26.9"/>
					<path fill="none" stroke="#575D72" stroke-width="0.4563" stroke-miterlimit="10" d="M355,263.3c2.4,0.9,4.8,1.7,7.2,2.6"/>
					<path fill="none" stroke="#575D72" stroke-width="0.4563" stroke-miterlimit="10" d="M350.8,292.2c0.9-2.5,1.9-5.1,2.8-7.6"/>
					<path fill="none" stroke="#575D72" stroke-width="0.4563" stroke-miterlimit="10" d="M353.5,284.6c-1.2-0.5-2.5-0.9-3.8-1.4"/>
					<path fill="none" stroke="#575D72" stroke-width="0.4563" stroke-miterlimit="10" d="M349.6,283.3c-0.9,2.5-1.8,5.1-2.8,7.6"/>
					<path fill="none" stroke="#575D72" stroke-width="0.4563" stroke-miterlimit="10" d="M350.7,288.7c0.4,0.1,0.8,0.3,1.2,0.4"/>
					<path fill="none" stroke="#575D72" stroke-width="0.4563" stroke-miterlimit="10" d="M350.3,281.4c1.7,0.6,3.5,1.3,5.2,1.9"/>
					<path fill="none" stroke="#575D72" stroke-width="0.4563" stroke-miterlimit="10" d="M356.2,280.6c-1.6-0.6-3.3-1.2-4.9-1.8"/>
					<path fill="none" stroke="#575D72" stroke-width="0.4563" stroke-miterlimit="10" d="M351.3,278.7c-0.3,0.9-0.6,1.7-0.9,2.6"/>
					<path fill="none" stroke="#575D72" stroke-width="0.4563" stroke-miterlimit="10" d="M353.7,282.5c0.3-0.8,0.6-1.7,0.9-2.5"/>
					<path fill="none" stroke="#575D72" stroke-width="0.4563" stroke-miterlimit="10" d="M352,276.9c1.7,0.6,3.5,1.3,5.2,1.9"/>
					<path fill="none" stroke="#575D72" stroke-width="0.4563" stroke-miterlimit="10" d="M357.8,276.1c-1.6-0.6-3.3-1.2-4.9-1.8"/>
					<path fill="none" stroke="#575D72" stroke-width="0.4563" stroke-miterlimit="10" d="M352.9,274.2c-0.3,0.9-0.6,1.7-0.9,2.6"/>
					<path fill="none" stroke="#575D72" stroke-width="0.4563" stroke-miterlimit="10" d="M355.3,278c0.3-0.8,0.6-1.7,0.9-2.5"/>
					<path fill="none" stroke="#575D72" stroke-width="0.4563" stroke-miterlimit="10" d="M353.5,272.7c1.7,0.6,3.5,1.3,5.2,1.9"/>
					<path fill="none" stroke="#575D72" stroke-width="0.4563" stroke-miterlimit="10" d="M359.3,271.9c-1.6-0.6-3.3-1.2-4.9-1.8"/>
					<path fill="none" stroke="#575D72" stroke-width="0.4563" stroke-miterlimit="10" d="M354.4,270c-0.3,0.9-0.6,1.7-0.9,2.6"/>
					<path fill="none" stroke="#575D72" stroke-width="0.4563" stroke-miterlimit="10" d="M356.8,273.7c0.3-0.8,0.6-1.7,0.9-2.5"/>
					<path fill="none" stroke="#575D72" stroke-width="0.4563" stroke-miterlimit="10" d="M355.2,268.1c1.7,0.6,3.5,1.3,5.2,1.9"/>
					<path fill="none" stroke="#575D72" stroke-width="0.4563" stroke-miterlimit="10" d="M361.6,267.5c-1.8-0.7-3.7-1.3-5.5-2"/>
					<path fill="none" stroke="#575D72" stroke-width="0.4563" stroke-miterlimit="10" d="M356.1,265.4c-0.3,0.9-0.6,1.7-0.9,2.6"/>
					<path fill="none" stroke="#575D72" stroke-width="0.4563" stroke-miterlimit="10" d="M358.5,269.2c0.3-0.8,0.6-1.7,0.9-2.5"/>
				</g>
				<path fill="#5E5F5F" stroke="#575D72" stroke-width="0.4563" stroke-miterlimit="10" d="M297.5,256.6c0.2-0.5,0.4-1,0.5-1.5"/>
				<path fill="#5E5F5F" stroke="#575D72" stroke-width="0.4563" stroke-miterlimit="10" d="M306.6,259.9c0.2-0.5,0.4-1,0.5-1.5"/>
				<path fill="#5E5F5F" stroke="#575D72" stroke-width="0.4563" stroke-miterlimit="10" d="M310.4,259.8
					c-5.3-1.9-10.5-3.8-15.8-5.8"/>
				<path fill="#5E5F5F" stroke="#575D72" stroke-width="0.4563" stroke-miterlimit="10" d="M294.6,254.1c0.5-1.5,1.1-3,1.6-4.5"/>
				<path fill="#5E5F5F" stroke="#575D72" stroke-width="0.4563" stroke-miterlimit="10" d="M296.2,249.6c5.3,1.9,10.5,3.8,15.9,5.8
					"/>
				<path fill="#5E5F5F" stroke="#575D72" stroke-width="0.4563" stroke-miterlimit="10" d="M312.1,255.3c-0.5,1.5-1.1,3-1.6,4.5"/>
				<path fill="#5E5F5F" stroke="#575D72" stroke-width="0.4563" stroke-miterlimit="10" d="M297.9,253.3c0.4-0.2,0.8-0.4,1.2-0.6"
					/>
				<path fill="#5E5F5F" stroke="#575D72" stroke-width="0.4563" stroke-miterlimit="10" d="M299.1,252.7c0.2,0.4,0.3,0.7,0.5,1.1"
					/>
				<path fill="#5E5F5F" stroke="#575D72" stroke-width="0.4563" stroke-miterlimit="10" d="M306.7,256.4c0.4-0.2,0.8-0.4,1.1-0.5"
					/>
				<path fill="#5E5F5F" stroke="#575D72" stroke-width="0.4563" stroke-miterlimit="10" d="M307.9,255.9c0.2,0.4,0.3,0.7,0.5,1.1"
					/>
				<path fill="#5E5F5F" stroke="#575D72" stroke-width="0.4563" stroke-miterlimit="10" d="M301.8,252.8c-0.2,0.7-0.5,1.3-0.7,2"/>
				<path fill="#5E5F5F" stroke="#575D72" stroke-width="0.4563" stroke-miterlimit="10" d="M301.1,254.9c0.4,0.2,0.9,0.3,1.3,0.5"
					/>
				<path fill="#5E5F5F" stroke="#575D72" stroke-width="0.4563" stroke-miterlimit="10" d="M302.4,255.3c0.2-0.7,0.5-1.4,0.7-2.1"
					/>
				<path fill="#5E5F5F" stroke="#575D72" stroke-width="0.4563" stroke-miterlimit="10" d="M303.7,256c0.2-0.7,0.5-1.4,0.8-2.1"/>
				<path fill="#5E5F5F" stroke="#575D72" stroke-width="0.4563" stroke-miterlimit="10" d="M304.4,253.9c0.4,0.2,0.9,0.3,1.3,0.5"
					/>
				<path fill="#5E5F5F" stroke="#575D72" stroke-width="0.4563" stroke-miterlimit="10" d="M305.8,254.3c-0.2,0.5-0.3,0.9-0.5,1.4"
					/>
				<path fill="#5E5F5F" stroke="#575D72" stroke-width="0.4563" stroke-miterlimit="10" d="M305.2,255.7c-0.4-0.2-0.9-0.3-1.3-0.5"
					/>
				<path fill="#5E5F5F" stroke="#575D72" stroke-width="0.4563" stroke-miterlimit="10" d="M299.6,250.8c0.1-0.3,0.2-0.6,0.3-0.8"
					/>
				<path fill="#5E5F5F" stroke="#575D72" stroke-width="0.4563" stroke-miterlimit="10" d="M300,250c0.3,0.1,0.6,0.2,0.9,0.3"/>
				<path fill="none" stroke="#575D72" stroke-width="0.4563" stroke-miterlimit="10" d="M300.9,250.4c0.1-0.1,0.2-0.3,0.2-0.7
					c0-0.4-0.3-0.6-0.4-0.7c-0.3-0.3-0.7-0.2-0.8-0.2c-0.2,0-0.4,0-0.6,0.3c0,0,0,0-0.2,0.3c0,0.1-0.1,0.2-0.2,0.3"/>
				<path fill="none" stroke="#575D72" stroke-width="0.4563" stroke-miterlimit="10" d="M298.9,249.6c0.3,0.1,0.7,0.3,1.1,0.4"/>
				<path fill="none" stroke="#575D72" stroke-width="0.4563" stroke-miterlimit="10" d="M308.6,254.1c0.1-0.3,0.2-0.5,0.3-0.8"/>
				<path fill="none" stroke="#575D72" stroke-width="0.4563" stroke-miterlimit="10" d="M308.9,253.3c0.3,0.1,0.6,0.2,0.9,0.3"/>
				<path fill="none" stroke="#575D72" stroke-width="0.4563" stroke-miterlimit="10" d="M309.7,253.6c0,0,0.3-0.3,0.2-0.6
					c-0.1-0.3-0.2-0.4-0.3-0.5c-0.2-0.1-0.3-0.2-0.4-0.2c-0.2-0.1-0.4-0.2-0.7-0.1c-0.1,0-0.3,0.1-0.5,0.3c-0.1,0.1-0.1,0.2-0.2,0.3
					"/>
				<path fill="none" stroke="#575D72" stroke-width="0.4563" stroke-miterlimit="10" d="M307.8,252.9c0.3,0.1,0.7,0.3,1.1,0.4"/>
			</g>
			<path fill="none" stroke="#575D72" stroke-width="0.4563" stroke-miterlimit="10" d="M261.5,264.9c1.9,0.7,3.9,1.4,5.8,2.1"/>
			<path fill="none" stroke="#575D72" stroke-width="0.4563" stroke-miterlimit="10" d="M262.9,288.3c2.2,0.8,4.4,1.6,6.6,2.4"/>
			<path fill="none" stroke="#575D72" stroke-width="0.4563" stroke-miterlimit="10" d="M259.9,276.8c5.1,1.8,10.1,3.7,15.2,5.5"/>
			<path fill="none" stroke="#575D72" stroke-width="0.4563" stroke-miterlimit="10" d="M264.3,272.7c1.7,0.6,3.5,1.3,5.2,1.9"/>
			<path fill="none" stroke="#575D72" stroke-width="0.4563" stroke-miterlimit="10" d="M259.6,271.1c0.5,0.2,0.9,0.3,1.4,0.5"/>
			<path fill="none" stroke="#575D72" stroke-width="0.4563" stroke-miterlimit="10" d="M270.6,265.8c1.2,0.5,2.5,0.9,3.8,1.4"/>
			<path fill="none" stroke="#575D72" stroke-width="0.4563" stroke-miterlimit="10" d="M276,270.1c8.6,3.1,17.1,6.2,25.7,9.4"/>
			<path fill="none" stroke="#575D72" stroke-width="0.4563" stroke-miterlimit="10" d="M280.9,276.3c3.8,1.4,7.6,2.8,11.5,4.2"/>
			<path fill="none" stroke="#575D72" stroke-width="0.4563" stroke-miterlimit="10" d="M298.4,275.3c3.9,1.4,7.8,2.9,11.7,4.3"/>
			<path fill="none" stroke="#575D72" stroke-width="0.4563" stroke-miterlimit="10" d="M306.8,282.3c2.1,0.8,4.2,1.5,6.3,2.3"/>
			<path fill="none" stroke="#575D72" stroke-width="0.4563" stroke-miterlimit="10" d="M298.9,284.2c0.9,0.3,1.9,0.7,2.8,1"/>
			<path fill="none" stroke="#575D72" stroke-width="0.4563" stroke-miterlimit="10" d="M289,288.8c2.4,0.9,4.9,1.8,7.3,2.7"/>
			<path fill="none" stroke="#575D72" stroke-width="0.4563" stroke-miterlimit="10" d="M297.3,291.8c0.3,0.1,0.6,0.2,0.9,0.3"/>
			<path fill="none" stroke="#575D72" stroke-width="0.4563" stroke-miterlimit="10" d="M278.2,289.6c3.3,1.2,6.5,2.4,9.8,3.6"/>
			<path fill="none" stroke="#575D72" stroke-width="0.4563" stroke-miterlimit="10" d="M293.3,299.3c3.3,1.2,6.7,2.4,10,3.7"/>
			<path fill="none" stroke="#575D72" stroke-width="0.4563" stroke-miterlimit="10" d="M302.3,290.7c3.8,1.4,7.5,2.7,11.3,4.1"/>
			<path fill="none" stroke="#575D72" stroke-width="0.4563" stroke-miterlimit="10" d="M313.1,302.3c4.3,1.6,8.6,3.1,12.9,4.7"/>
			<path fill="none" stroke="#575D72" stroke-width="0.4563" stroke-miterlimit="10" d="M307.5,287c6.1,2.2,12.2,4.4,18.3,6.7"/>
			<path fill="none" stroke="#575D72" stroke-width="0.4563" stroke-miterlimit="10" d="M317.3,286.2c11.4,4.2,22.8,8.3,34.3,12.5"
				/>
			<path fill="none" stroke="#575D72" stroke-width="0.4563" stroke-miterlimit="10" d="M335.8,289.8c3,1.1,6,2.2,9,3.3"/>
			<path fill="none" stroke="#575D72" stroke-width="0.4563" stroke-miterlimit="10" d="M346.4,293.7c0.4,0.1,0.8,0.3,1.1,0.4"/>
			<path fill="none" stroke="#575D72" stroke-width="0.4563" stroke-miterlimit="10" d="M342.2,305.3c2.1,0.8,4.3,1.6,6.4,2.3"/>
			<path fill="none" stroke="#575D72" stroke-width="0.4563" stroke-miterlimit="10" d="M335,310.3c0.8,0.3,1.6,0.6,2.4,0.9"/>
			<path fill="none" stroke="#575D72" stroke-width="0.4563" stroke-miterlimit="10" d="M319.2,300c1.6,0.6,3.2,1.2,4.8,1.8"/>
			<path fill="none" stroke="#575D72" stroke-width="0.4563" stroke-miterlimit="10" d="M328.4,299.9c2.1,0.8,4.3,1.6,6.5,2.4"/>
			<path fill="none" stroke="#575D72" stroke-width="0.4563" stroke-miterlimit="10" d="M335.2,297.3c4.4,1.6,8.8,3.2,13.2,4.8"/>
		</g>
		<path fill="none" stroke="#575D72" stroke-width="0.4563" stroke-miterlimit="10" d="M318.9,241.9c0.2,0,0.5,0.1,0.7,0.4
			c0.2,0.3,0.1,0.7,0.3,0.8c0.1,0,0.2-0.1,0.5-0.2c0.3-0.1,0.5-0.1,0.6-0.1c0.3,0,0.6,0.1,0.8,0.2"/>
		<path fill="none" stroke="#575D72" stroke-width="0.4563" stroke-miterlimit="10" d="M327.4,241.4c-0.2-0.1-0.5-0.2-0.8-0.1
			c-0.5,0.1-0.7,0.3-0.9,0.2c-0.2-0.1-0.1-0.3-0.2-0.7c-0.1-0.2-0.3-0.5-0.9-0.7"/>
		<path fill="none" stroke="#575D72" stroke-width="0.4563" stroke-miterlimit="10" d="M318.8,234.1c0.3,0.1,0.7,0.2,0.9,0.5
			c0.2,0.3,0.1,0.7,0.3,0.8c0.2,0.1,0.3-0.3,0.7-0.4c0.3-0.1,0.7,0,0.9,0.1"/>
	</g>
	<path fill="none" stroke="#575C71" stroke-width="0.4563" stroke-miterlimit="10" d="M318.9,254.3c0.4,0.1,0.7,0.2,0.9,0.3
		c0.4,0.1,0.5,0.2,0.7,0.3c0.3,0.1,0.4,0.2,0.7,0.3c0.6,0.3,0.7,0.4,0.9,0.3c0.3-0.1,0.2-0.4,0.5-0.6c0.2-0.1,0.4-0.1,0.8-0.1
		c0.3,0,0.4,0,0.6,0.1c0.3,0.2,0.3,0.4,0.5,0.4c0.2,0,0.2-0.4,0.6-0.8c0.1-0.2,0.4-0.5,0.8-0.8c0.5-0.3,0.9-0.3,1.2-0.4
		c0.5-0.1,0.8,0.1,1.3,0.2c0.5,0.1,0.8,0.3,1.1,0.5c0.3,0.3,0.4,0.6,0.6,1c0.1,0.3,0.2,0.6,0.2,0.9c0,0.6-0.2,0.9-0.1,1
		c0.1,0.1,0.4-0.1,1-0.1c0.5,0,0.9,0.2,1.4,0.4c0.4,0.2,0.7,0.4,1,0.7c0.1,0.1,0.3,0.4,0.4,0.8c0.1,0.5-0.1,0.8,0.1,1
		c0.1,0.1,0.2,0.1,0.6,0.2c0,0,0.4,0.1,1,0.3c0.3,0.1,0.6,0.2,1.1,0.4	">
<set  fill="freeze" attributeType="CSS" attributeName="visibility" id="show1" begin="0s; hide1.end" to="visible" dur="0.2s" restart="always">
			</set>
		
			<set  fill="freeze" attributeType="CSS" attributeName="visibility" id="hide1" begin="show1.end" to="hidden" dur="3.4" restart="always">
			</set>
		
			<set  fill="freeze" attributeType="CSS" attributeName="visibility" id="show19" begin="3.6s; hide19.end" to="visible" dur="0.2s" restart="always">
			</set>
		
			<set  fill="freeze" attributeType="CSS" attributeName="visibility" id="hide19" begin="show19.end" to="hidden" dur="3.4" restart="always">
			</set>
	</path>
	<path fill="none" stroke="#575C71" stroke-width="0.4563" stroke-miterlimit="10" d="M280.9,202.6c0.1,1.4,0.1,2.4,1.1,3.4
		c1,0,2,0,2,0c0,1,1,3,4.1,3.4"/>
</g>
</svg>
