<?xml version="1.0" standalone="no"?>
<!DOCTYPE svg PUBLIC "-//W3C//DTD SVG 1.1//EN" "http://www.w3.org/Graphics/SVG/1.1/DTD/svg11.dtd">
<svg xmlns="http://www.w3.org/2000/svg">
<metadata>Generated by Fontastic.me</metadata>
<defs>
<font id="lexelor-filled" horiz-adv-x="512">
<font-face font-family="lexelor-filled" units-per-em="512" ascent="480" descent="-32"/>
<missing-glyph horiz-adv-x="512" />

<glyph unicode="&#97;" d="M459 448l-406 0c-29 0-53-24-53-53l0-278c0-29 24-53 53-53l406 0c29 0 53 24 53 53l0 278c0 29-24 53-53 53z m-182-203c0-7-1-14-2-21l-19 0 0-21 11 0c-7-15-18-28-32-37l0 5-21 0 0-16c-10-4-21-6-33-6-11 0-21 2-31 6l0 16-22 0 0-6c-14 10-25 23-33 38l12 0 0 21-19 0c-2 7-3 14-3 21 0 2 1 4 1 6l0-6 21 0 0 22-19 0c1 7 4 14 7 21l12 0 0 18c6 7 13 14 21 19l0-16 22 0 0 22-12 0c10 5 21 8 33 10l0-10 21 0 0 10c12-2 23-5 33-10l-11 0 0-22 21 0 0 16c8-6 15-12 21-20l0-17 11 0c4-7 6-14 8-21l-19 0 0-22z m66-92c-27 0-49 8-66 25 14 19 22 42 22 67 0 26-9 50-23 69 18 18 42 28 67 28 52 0 94-42 94-95 0-52-42-94-94-94z m-129 135l21 0 0-21-21 0z m0-43l21 0 0-21-21 0z m0-42l21 0 0-22-21 0z m-86 85l22 0 0-21-22 0z m0-43l22 0 0-21-22 0z m0-42l22 0 0-22-22 0z m43 106l21 0 0-21-21 0z m0-42l21 0 0-22-21 0z m0-43l21 0 0-21-21 0z m0-43l21 0 0-21-21 0z"/>
<glyph unicode="&#98;" d="M388 288l0 0c-3 0-6-14-9-20l-11-23 24 0-2 23c-1 5-1 20-2 20z m71 160l-406 0c-29 0-53-24-53-53l0-278c0-29 24-53 53-53l406 0c29 0 53 24 53 53l0 278c0 29-24 53-53 53z m-175-200c-12 7-22 15-22 29 0 22 19 35 42 35 13 0 21-3 26-5l-8-20c-3 2-11 5-20 5-11 0-16-5-16-11 0-6 6-10 16-15 13-7 21-16 21-29 0-24-20-36-44-36-15 0-26 4-31 8l8 18c6-3 15-6 25-6 9 0 17 4 17 12 0 6-4 10-14 15z m-54-45l-23 0 20 106 23 0z m-70 0l-27 0-11 85-17 0c-6 0-11 5-11 11 0 5 5 10 11 10l28 0c0 0 0 0 1 0l9 0 5-52c1-11 2-22 3-33l0 0c4 11 9 22 14 34l25 51 25 0z m235 0l-2 32-31 0-13-32-25 0 53 106 30 0 12-106z"/>
<glyph unicode="&#99;" d="M64 0l384 0 0 320-64 0 0 64c0 71-57 128-128 128-71 0-128-57-128-128l0-64-64 0z m171 192c0 12 9 21 21 21 12 0 21-9 21-21 0-8-4-15-10-18l0-57c0-6-5-10-11-10-6 0-11 4-11 10l0 57c-6 3-10 10-10 18z m-86 192c0 59 48 107 107 107 59 0 107-48 107-107l0-64-214 0z"/>
<glyph unicode="&#100;" d="M400 353l-91 0 0 40c0 19 13 24 22 24 9 0 64 0 64 0l0 84-93 0c-83 0-99-62-99-102l0-46-64 0 0-86 64 0c0-111 0-256 0-256l106 0c0 0 0 147 0 256l82 0z"/>
<glyph unicode="&#101;" d="M258 366l-34 0-12-53 22 0c6 0 13 2 20 7 2 1 4 3 7 5 6 6 10 13 12 20 2 8 0 15-4 18-3 2-7 3-11 3z m157 14c1-13 1-28-3-45-18-79-85-132-167-132l-58 0-28-112c-2-9-11-16-20-16l-30 0-10-43 104 0 32 128 74 0c72 0 131 45 146 116 12 52-9 87-40 104z m-118 79l-178 0-85-363 105 0 31 128 75 0c72 0 130 45 146 116 18 80-41 119-94 119z m-4-119c-2-12-9-22-18-31-3-3-6-5-10-8-9-6-20-9-31-9l-49 0 21 88 1 7 51 0c9 0 17-2 23-7 12-8 17-23 12-40z"/>
<glyph unicode="&#102;" d="M439 256l-67 0c0-10-1-21-3-31z m-87 21c-1 37-8 73-22 107l-152 0c-14-34-21-70-22-107z m20 0l139 0c-3 39-15 75-34 107l-125 0c13-34 20-70 20-107z m-236-21l-136 0c0-38 9-74 24-107l133 0c-12 36-19 72-21 107z m185 149c-15 31-35 61-61 89-2 2-4 4-6 6-2-2-4-4-6-6-25-28-45-58-60-89z m-203-349c6 15 22 23 38 19 0 0 14-4 35-4-10 19-19 38-27 57l-129 0c20-35 47-64 81-86 0 5 0 9 2 14z m47 349c16 36 38 71 68 103 0 0 1 2 2 3-77-6-144-46-187-106z m-164-128l135 0c1 37 8 73 20 107l-121 0c-19-32-31-68-34-107z m275 231c29-32 52-67 68-103l120 0c-44 60-113 101-191 106 1-1 2-3 3-3z m56-354c-10 6-15 16-15 27 0 13 8 24 19 29l11 5c3 14 4 27 5 41l-195 0c1-35 8-71 21-107l152 0c1 2 1 4 2 5z m-14-34c1 2 2 5 3 8l-134 0c8-19 17-38 28-56 33 3 70 15 103 48z m166 119c-1 3-3 6-6 7-2 2-6 2-9 0l-124-56c-4-1-7-5-7-9 0-4 3-8 6-10l29-14c-50-89-123-108-177-108-27 0-46 5-46 5-5 2-11-1-13-6-2-5 1-11 6-13 2-2 67-34 142-34 80 0 143 37 182 107l29-15c4-2 8-1 11 1 4 3 5 7 4 11z"/>
<glyph unicode="&#103;" d="M192 277l0 64-31 0c-7-20-11-42-13-64z m-167 0l103 0c1 22 4 44 11 64l-96 0c-10-19-16-41-18-64z m167 86l0 37c-8-12-16-25-22-37z m-64-107l-104 0c1-22 5-44 12-64l101 0c-6 22-9 43-9 64z m64-176c-21 30-37 60-48 91l-99 0c29-57 83-97 147-105z m-45 283c11 25 26 49 45 72l0 11c-58-6-108-38-137-83z m45-107l-44 0c1-21 5-42 11-64l33 0z m0-85l-26 0c7-18 16-35 26-52z m320 256l0 32c0 29-24 53-53 53l-192 0c-30 0-54-24-54-53l0-32z m-203 42l107 0c6 0 11-4 11-10 0-6-5-11-11-11l-107 0c-6 0-10 5-10 11 0 6 4 10 10 10z m-96-384l0-32c0-29 24-53 54-53l192 0c29 0 53 24 53 53l0 32z m150-53c-12 0-22 10-22 21 0 12 10 22 22 22 11 0 21-10 21-22 0-11-10-21-21-21z m-150 373l299 0 0-298-299 0z"/>
<glyph unicode="&#104;" d="M11 427l-11 0 0-342 512 0 0 342z m245-299c-71 0-128 57-128 128 0 71 57 128 128 128 71 0 128-57 128-128 0-71-57-128-128-128z m245 384l-138 0 0-64 149 0 0 53c0 6-5 11-11 11z m-330 0l170 0 0-64-170 0z m-171-448l0-53c0-6 5-11 11-11l138 0 0 64z m149 384l0 64-138 0c-6 0-11-5-11-11l0-53z m22-384l170 0 0-64-170 0z m192 0l0-64 138 0c6 0 11 5 11 11l0 53z m-49 202l-85 42c-4 2-7 2-11 0-3-2-5-6-5-9l0-86c0-3 2-7 5-9 2-1 4-1 6-1 2 0 3 0 5 1l85 42c4 2 6 6 6 10 0 4-2 8-6 10z"/>
<glyph unicode="&#105;" d="M501 395l-245-128-245 128 0 64 490 0z m-192-186l-53-28-53 28-192-115 0-41 490 0 0 41z m192-90l0 190-170-89z m-320 101l-170 89 0-190z"/>
<glyph unicode="&#106;" d="M500 409c-17-8-32-8-47 0 20 12 21 20 28 43-19-12-40-20-62-24-17 19-43 31-71 31-53 0-96-44-96-97 0-8 0-15 2-22-81 4-152 42-200 101-8-14-13-31-13-49 0-33 17-63 43-81-16 1-31 5-44 13 0-1 0-1 0-2 0-47 34-86 78-95-14-4-29-4-44-1 13-39 48-67 91-68-42-32-93-46-144-40 43-27 94-43 149-43 178 0 276 147 276 275 0 5 0 9-1 13 19 14 42 26 55 46z"/>
<glyph unicode="&#107;" d="M139 53l-106 0 0 278 106 0z m-53 320l-1 0c-32 0-53 26-53 53 0 29 22 52 54 52 33 0 53-24 54-52 0-28-21-53-54-53z m245-128c-23 0-42-19-42-42l0-150-107 0c0 0 1 256 0 278l107 0 0-32c0 0 33 31 84 31 63 0 108-46 108-135l0-142-107 0 0 150c0 23-19 42-43 42z"/>
<glyph unicode="&#108;" d="M499 330l-26 15c2 12 2 24 0 35l26 15c2 1 4 4 5 7 0 2 0 5-1 8l-32 55c-2 3-4 4-7 5-3 1-6 0-8-1l-24-15c-8 6-18 12-30 17l0 30c0 6-4 11-10 11l-64 0c-6 0-11-5-11-11l0-28c-15-5-23-11-32-19l-26 15c-5 3-11 1-14-4l-33-55c-1-3-2-6-1-8 1-3 3-6 5-7l25-15c-1-12-1-23 0-35l-25-15c-3-1-4-3-5-6-1-3 0-6 1-8l32-56c2-3 5-5 9-5l-24-14c-8 6-17 11-29 17l0 30c0 6-5 11-11 11l-64 0c-6 0-11-5-11-11l0-29c-14-4-23-11-32-18l-26 15c-5 3-11 1-14-4l-32-56c-2-2-2-5-2-8 1-3 3-5 5-6l26-15c-2-12-2-24 0-35l-26-15c-2-1-4-4-5-7 0-2 0-5 1-8l32-55c3-5 10-7 15-4l26 15c9-8 18-14 32-19l0-28c0-6 5-11 11-11l64 0c6 0 11 5 11 11l0 30c12 5 21 11 29 17l24-15c3-1 6-2 8-1 3 1 5 2 7 5l32 55c3 5 1 12-4 15l-25 15c1 11 1 23 0 35l25 15c2 1 4 3 5 6 1 3 0 6-1 8l-32 56c-2 2-4 4-7 5 0 0-1 0-2 0l26 14c8-7 17-14 32-18l0-29c0-6 5-11 11-11l64 0c6 0 10 5 10 11l0 30c12 6 22 11 30 17l24-15c2-1 5-1 8-1 3 1 5 3 7 5l32 56c2 5 1 11-4 14z m-344-234c-30 0-54 24-54 53 0 30 24 54 54 54 29 0 53-24 53-54 0-29-24-53-53-53z m202 213c-29 0-53 24-53 54 0 29 24 53 53 53 30 0 54-24 54-53 0-30-24-54-54-54z"/>
<glyph unicode="&#109;" d="M310 181c0 18 14 32 32 32 18 0 32-14 32-32 0-10 4-19 10-26l0 74c-33 10-59 37-69 70l-315 0 0-160c0-30 24-54 53-54l318 0c-36 17-61 54-61 96z m-171 11l-64 0c-6 0-11 5-11 11 0 6 5 10 11 10l64 0c6 0 10-4 10-10 0-6-4-11-10-11z m106 43l-170 0c-6 0-11 4-11 10 0 6 5 11 11 11l170 0c6 0 11-5 11-11 0-6-5-10-11-10z m65 94c0 30 12 57 32 76l-289 0c-29 0-53-24-53-53l0-32 311 0c0 3-1 6-1 9z m117-64l0 127c30-5 53-31 53-63 0-5 4-10 10-10 6 0 11 5 11 10 0 44-33 79-74 84l0 35c0 6-5 11-11 11-6 0-11-5-11-11l0-35c-41-5-74-40-74-84 0-43 33-78 74-83l0-127c-29 5-52 31-52 62 0 6-5 11-11 11-6 0-11-5-11-11 0-43 33-78 74-83l0-34c0-6 5-11 11-11 6 0 11 5 11 11l0 34c41 5 74 40 74 83 0 43-33 79-74 84z m-74 64c0 32 23 58 52 63l0-125c-29 5-52 31-52 62z m74-210l0 125c30-5 53-31 53-63 0-31-23-57-53-62z"/>
<glyph unicode="&#110;" d="M107 85l0-32c0-29 24-53 53-53l192 0c29 0 53 24 53 53l0 32z m149-53c-12 0-21 10-21 21 0 12 9 22 21 22 12 0 21-10 21-22 0-11-9-21-21-21z m149 395l0 32c0 29-24 53-53 53l-192 0c-29 0-53-24-53-53l0-32z m-202 42l106 0c6 0 11-4 11-10 0-6-5-11-11-11l-106 0c-6 0-11 5-11 11 0 6 5 10 11 10z m-96-64l0-298 298 0 0 298z m242-168l-86-85c-2-2-5-3-8-3-3 0-5 1-7 3l-86 86c-3 3-4 7-2 11 2 4 5 7 10 7l43 0 0 96c0 6 5 11 11 11l64 0c6 0 11-5 11-11l0-96 42 0c5 0 9-3 10-7 2-4 1-9-2-12z"/>
<glyph unicode="&#111;" d="M389 265l-224 128c-3 2-7 2-10 0-4-2-6-5-6-9l0-256c0-4 2-7 6-9 1-1 3-2 5-2 2 0 4 1 5 2l224 128c4 2 6 5 6 9 0 4-2 7-6 9z m-218-119l0 220 192-110z m85 366c-141 0-256-115-256-256 0-141 115-256 256-256 141 0 256 115 256 256 0 141-115 256-256 256z m0-491c-129 0-235 106-235 235 0 129 106 235 235 235 129 0 235-106 235-235 0-129-106-235-235-235z"/>
<glyph unicode="&#112;" d="M256 512c-141 0-256-115-256-256 0-141 115-256 256-256 141 0 256 115 256 256 0 141-115 256-256 256z m-160-224l82 0-37-64-45 0z m61-144l-14-9c-2-1-5-3-7-3-3 0-7 2-9 4-2 3-4 8-3 11l2 16c0 7 6 12 13 12 1 0 5-1 7-2l10-6c5-2 7-7 7-11 1-5-2-9-6-12z m-1 31c-2 0-4 0-5 1-5 3-7 10-4 15l86 151c3 5 10 7 15 4 5-3 7-10 4-15l-87-151c-2-3-5-5-9-5z m59 49l37 64 24 0 32-64z m38 159c-3 6-1 12 5 15 5 2 11 0 14-5l98-198c2-6 0-12-5-15-2 0-3-1-5-1-4 0-8 3-10 6z m137-247c-2-2-5-4-8-4-3 0-6 2-8 3l-14 9c-4 3-6 7-6 12 0 4 3 9 7 11l11 6c1 1 5 2 7 2 6 0 12-5 13-12l2-16c0-3-2-8-4-11z m26 88l-37 0-32 64 69 0z"/>
<glyph unicode="&#113;" d="M256 512c-141 0-256-115-256-256 0-141 115-256 256-256 141 0 256 115 256 256 0 141-115 256-256 256z m110-204l-41-38-124 116z m-235-199c-9 5-14 14-14 24l0 246c0 10 5 19 14 24 4 3 10 5 15 5l164-152-163-152c-5 0-11 1-16 5z m73 19l121 113 41-37z m216 101l-34-16-45 43 46 42 33-15c11-5 17-16 17-27 0-11-6-22-17-27z"/>
<glyph unicode="&#114;" d="M256 512c-141 0-256-115-256-256 0-141 115-256 256-256 141 0 256 115 256 256 0 141-115 256-256 256z m0-491c-129 0-235 106-235 235 0 129 106 235 235 235 129 0 235-106 235-235 0-129-106-235-235-235z m96 342l-192 0c-6 0-11-5-11-11l0-192c0-6 5-11 11-11l192 0c6 0 11 5 11 11l0 192c0 6-5 11-11 11z m-11-192l-170 0 0 170 170 0z"/>
<glyph unicode="&#115;" d="M256 512c-141 0-256-115-256-256 0-141 115-256 256-256 141 0 256 115 256 256 0 141-115 256-256 256z m0-491c-129 0-235 106-235 235 0 129 106 235 235 235 129 0 235-106 235-235 0-129-106-235-235-235z m-32 342l-64 0c-6 0-11-5-11-11l0-192c0-6 5-11 11-11l64 0c6 0 11 5 11 11l0 192c0 6-5 11-11 11z m-11-192l-42 0 0 170 42 0z m139 192l-64 0c-6 0-11-5-11-11l0-192c0-6 5-11 11-11l64 0c6 0 11 5 11 11l0 192c0 6-5 11-11 11z m-11-192l-42 0 0 170 42 0z"/>
<glyph unicode="&#116;" d="M0 149l0-40c0-25 19-45 43-45l202 0 0-21-138 0c-6 0-11-5-11-11 0-6 5-11 11-11l298 0c6 0 11 5 11 11 0 6-5 11-11 11l-138 0 0 21 202 0c24 0 43 20 43 45l0 40z m256-64c-12 0-21 10-21 22 0 11 9 21 21 21 12 0 21-10 21-21 0-12-9-22-21-22z m213 384l-426 0c-24 0-43-20-43-44l0-197 126 126c4 4 11 4 15 0l78-78 67 68c4 4 11 4 15 0 4-5 4-11 0-16l-75-74c-4-4-11-4-15 0l-78 78-133-134 0-27 512 0 0 254c0 24-19 44-43 44z m-74-128c23 0 42-19 42-42 0-20-13-37-32-41l0-13c0-6-5-10-10-10-6 0-11 4-11 10l0 13c-18 4-32 21-32 41 0 6 5 10 11 10 5 0 10-4 10-10 0-12 10-22 22-22 11 0 21 10 21 22 0 11-10 21-21 21-24 0-43 19-43 43 0 20 14 36 32 41l0 12c0 6 5 11 11 11 5 0 10-5 10-11l0-12c19-5 32-21 32-41 0-6-5-11-10-11-6 0-11 5-11 11 0 11-10 21-21 21-12 0-22-10-22-21 0-12 10-22 22-22z"/>
<glyph unicode="&#117;" d="M501 21l-10 0 0 310c0 6-5 10-11 10l-64 0c-6 0-11-4-11-10l0-310-42 0 0 160c0 6-5 11-11 11l-64 0c-6 0-11-5-11-11l0-160-42 0 0 203c0 6-5 11-11 11l-64 0c-6 0-11-5-11-11l0-203-42 0 0 96c0 6-5 11-11 11l-64 0c-6 0-11-5-11-11l0-96-10 0c-6 0-11-4-11-10 0-6 5-11 11-11l490 0c6 0 11 5 11 11 0 6-5 10-11 10z m-437 214c18 0 32 14 32 32 0 4-1 7-2 11l82 68c5-3 10-5 16-5 10 0 19 5 25 13l71-24c0-17 15-31 32-31 18 0 32 14 32 32 0 5-2 11-4 16l89 103c3-1 7-2 11-2 18 0 32 14 32 32 0 18-14 32-32 32-18 0-32-14-32-32 0-6 2-11 4-16l-89-104c-3 2-7 3-11 3-10 0-19-5-25-13l-71 24c0 17-15 31-32 31-18 0-32-14-32-32 0-4 1-7 2-11l-82-68c-5 3-10 5-16 5-18 0-32-15-32-32 0-18 14-32 32-32z"/>
<glyph unicode="&#118;" d="M320 64l85 0 0-64-85 0z m-53 0c-6 0-11-5-11-11l0-42c0-6 5-11 11-11l32 0 0 64z m192 0l-32 0 0-64 32 0c6 0 10 5 10 11l0 42c0 6-4 11-10 11z m-374 0l86 0 0-64-86 0z m-53 0c-6 0-11-5-11-11l0-42c0-6 5-11 11-11l32 0 0 64z m192 0l-32 0 0-64 32 0c6 0 11 5 11 11l0 42c0 6-5 11-11 11z m-160 75l85 0 0-64-85 0z m-53 0c-6 0-11-5-11-11l0-43c0-6 5-10 11-10l32 0 0 64z m192 0l-32 0 0-64 32 0c6 0 10 4 10 10l0 43c0 6-4 11-10 11z m138 0l86 0 0-64-86 0z m-53 0c-6 0-11-5-11-11l0-43c0-6 5-10 11-10l32 0 0 64z m192 0l-32 0 0-64 32 0c6 0 11 4 11 10l0 43c0 6-5 11-11 11z m-160 74l85 0 0-64-85 0z m-53 0c-6 0-11-4-11-10l0-43c0-6 5-11 11-11l32 0 0 64z m192 0l-32 0 0-64 32 0c6 0 10 5 10 11l0 43c0 6-4 10-10 10z m-118 75l86 0 0-64-86 0z m-53 0c-6 0-11-5-11-11l0-42c0-6 5-11 11-11l32 0 0 64z m192 0l-32 0 0-64 32 0c6 0 11 5 11 11l0 42c0 6-5 11-11 11z m0 224l-148 0c-6 0-11-5-11-11 0-6 5-10 11-10l123 0-136-145-99 79c-4 3-10 3-14-1l-192-192c-4-4-4-11 0-15 2-2 5-3 7-3 3 0 6 1 8 3l185 185 99-79c5-3 11-3 15 1l141 150 0-110c0-6 5-11 11-11 6 0 11 5 11 11l0 137c0 6-5 11-11 11z"/>
<glyph unicode="&#119;" d="M242 236c-15 11-29 27-29 32 0 9 0 14 21 29 26 21 40 48 40 77 0 25-8 48-21 64l10 0c2 0 5 1 6 2l29 22c4 2 6 7 4 11-1 4-5 7-10 7l-130 0c-14 0-28-3-43-7-47-17-80-57-80-99 0-58 45-103 106-104-1-5-2-10-2-14 0-9 3-18 7-26 0 0-1 0-1 0-58 0-111-29-131-71-5-11-7-22-7-33 0-11 2-21 8-31 12-22 39-39 75-49 19-4 39-7 60-7 19 0 37 3 53 7 52 15 85 53 85 97 0 42-13 68-50 93z m-164-96c0 30 39 57 83 57l1 0c10 0 20-1 28-4 3-2 6-4 9-6 21-14 34-23 38-38 1-4 1-7 1-11 0-38-28-58-84-58-43 1-76 27-76 60z m40 289c7 8 16 12 27 12l1 0c29-1 56-33 61-71 3-22-2-42-13-55-7-8-16-12-26-12l-1 0c-28 1-56 34-61 73-3 21 2 41 12 53z m383-120l-64 0 0 64-42 0 0-64-64 0 0-42 64 0 0-64 42 0 0 64 64 0z"/>
<glyph unicode="&#120;" d="M487 251c-11 67-48 126-104 166-55 40-123 56-192 45-58-10-110-38-148-81l0 120c0 6-5 11-11 11-6 0-11-5-11-11l0-149c0-5 4-10 9-10 1 0 1 0 1 0 0 0 1-1 1-1l149 0c6 0 11 5 11 11 0 6-5 11-11 11l-126 0c36 41 85 69 140 78 62 10 125-5 176-41 51-37 85-91 95-153 10-61-4-124-40-175-15-20-33-38-53-53-5-3-6-10-2-15 2-2 5-4 9-4 2 0 4 1 6 2 22 16 41 36 57 58 40 56 55 124 44 191z"/>
<glyph unicode="&#121;" d="M509 509c-3 3-8 4-13 2l-490-256c-5-2-7-7-6-12 1-5 6-8 11-8l224 0 0-224c0-5 3-10 8-11 1 0 1 0 2 0 4 0 8 2 10 6l256 490c2 5 1 10-2 13z m-253-455l0 191c0 6-5 11-11 11l-191 0 422 220z"/>
<glyph unicode="&#122;" d="M355 338l-152-142-46 46c-4 4-11 4-15 0-4-4-4-11 0-15l53-53c2-2 5-3 8-3 2 0 5 1 7 3l160 149c4 4 4 11 0 15-4 4-10 4-15 0z m-99 174c-141 0-256-115-256-256 0-141 115-256 256-256 141 0 256 115 256 256 0 141-115 256-256 256z m0-491c-129 0-235 106-235 235 0 129 106 235 235 235 129 0 235-106 235-235 0-129-106-235-235-235z"/>
<glyph unicode="&#65;" d="M245 512c-135 0-245-110-245-245 0-136 110-246 245-246 136 0 246 110 246 246 0 135-110 245-246 245z m0-469c-123 0-224 100-224 224 0 123 101 224 224 224 124 0 224-101 224-224 0-124-100-224-224-224z m0 341c-6 0-10-5-10-11l0-202c0-6 4-11 10-11 6 0 11 5 11 11l0 202c0 6-5 11-11 11z"/>
<glyph unicode="&#66;" d="M245 512c-135 0-245-110-245-245 0-136 110-246 245-246 136 0 246 110 246 246 0 135-110 245-246 245z m0-469c-123 0-224 100-224 224 0 123 101 224 224 224 124 0 224-101 224-224 0-124-100-224-224-224z m98 322c-4 4-11 4-15 0l-83-83-83 83c-4 4-11 4-15 0-4-4-4-11 0-15l83-83-83-83c-4-4-4-11 0-15 2-2 5-3 8-3 3 0 5 1 7 3l83 83 83-83c2-2 5-3 8-3 3 0 5 1 7 3 5 4 5 11 0 15l-83 83 83 83c5 4 5 11 0 15z"/>
<glyph unicode="&#67;" d="M245 491c-135 0-245-110-245-246 0-135 110-245 245-245 136 0 246 110 246 245 0 136-110 246-246 246z m-10-107c11 0 21-10 21-21 0-12-10-22-21-22-12 0-22 10-22 22 0 11 10 21 22 21z m74-299l-128 0c-6 0-10 5-10 11 0 6 4 11 10 11l54 0 0 170-32 0c-6 0-11 5-11 11 0 6 5 11 11 11l42 0c6 0 11-5 11-11l0-181 53 0c6 0 11-5 11-11 0-6-5-11-11-11z"/>
<glyph unicode="&#68;" d="M160 309c-6 0-11-4-11-10l0-54-44 60c-3 4-8 5-12 4-5-2-8-6-8-10l0-86c0-6 5-10 11-10 6 0 11 4 11 10l0 54 45-60c2-3 5-4 8-4 1 0 2 0 4 0 4 2 7 6 7 10l0 86c0 6-5 10-11 10z m96-85l-43 0 0 21 32 0c6 0 11 5 11 11 0 6-5 11-11 11l-32 0 0 21 41 0c6 0 11 5 11 11 0 6-5 10-11 10l-51 0c-6 0-11-4-11-10l0-86c0-6 5-10 11-10l53 0c6 0 11 4 11 10 0 6-5 11-11 11z m164 85c-6 2-12-1-14-7l-22-58-22 58c-3 9-17 9-20 0l-22-58-22 58c-2 6-8 9-14 7-5-2-8-9-6-14l32-85c3-9 17-9 20 0l22 58 22-58c2-5 6-7 10-7 5 0 9 2 10 7l32 85c2 5-1 12-6 14z m-164 203c-141 0-256-115-256-256 0-141 115-256 256-256 141 0 256 115 256 256 0 141-115 256-256 256z m0-491c-129 0-235 106-235 235 0 129 106 235 235 235 130 0 235-106 235-235 0-129-105-235-235-235z"/>
<glyph unicode="&#69;" d="M245 512c-135 0-245-110-245-245 0-136 110-246 245-246 136 0 246 110 246 246 0 135-110 245-246 245z m0-469c-123 0-224 100-224 224 0 123 101 224 224 224 124 0 224-101 224-224 0-124-100-224-224-224z m128 234l-117 0 0 118c0 6-5 10-11 10-6 0-10-4-10-10l0-118-118 0c-6 0-10-4-10-10 0-6 4-11 10-11l118 0 0-117c0-6 4-11 10-11 6 0 11 5 11 11l0 117 117 0c6 0 11 5 11 11 0 6-5 10-11 10z"/>
</font>
</defs>
</svg>
