<?xml version="1.0" encoding="utf-8"?>
<!-- Generator: Adobe Illustrator 18.1.1, SVG Export Plug-In . SVG Version: 6.00 Build 0)  -->
<svg version="1.1" id="Layer_1" xmlns="http://www.w3.org/2000/svg" xmlns:xlink="http://www.w3.org/1999/xlink" x="0px" y="0px"
	 viewBox="0 0 512 512" enable-background="new 0 0 512 512" xml:space="preserve">
	<g>
<g>
	<path fill="#E2E2E2" stroke="#575D72" stroke-miterlimit="10" d="M301.5,227h-8.8c-1.8,0-3.2-1.5-3.2-3.2V215
		c0-1.8,1.5-3.2,3.2-3.2h8.8c1.8,0,3.2,1.5,3.2,3.2v8.8C304.8,225.5,303.3,227,301.5,227z"/>
	<path fill="#E2E2E2" stroke="#575D72" stroke-miterlimit="10" d="M292.4,211.6c1.5-2.7,3-5.4,4.5-8.2"/>
	<path fill="#E2E2E2" stroke="#575D72" stroke-miterlimit="10" d="M295.2,211.7c0.6-2.7,1.1-5.4,1.7-8.1"/>
	<path fill="#E2E2E2" stroke="#575D72" stroke-miterlimit="10" d="M298.5,211.8c-0.5-2.6-1-5.3-1.5-7.9"/>
	<path fill="#E2E2E2" stroke="#575D72" stroke-miterlimit="10" d="M300.9,211.7c-1.2-2.7-2.5-5.3-3.8-8"/>
</g>
<g>
	<path fill="#F79D88" stroke="#575D72" stroke-miterlimit="10" d="M294.2,203.6c1.8,0,3.6,0,5.3,0"/>
	<path fill="#F79D88" stroke="#575D72" stroke-miterlimit="10" d="M299.5,203.4c0.4-0.8,0.7-1.5,0.9-2.1c0.3-0.9,0.4-1.3,0.5-1.8
		c0.1-0.5,0-0.9,0-1.2"/>
	<path fill="#F79D88" stroke="#575D72" stroke-miterlimit="10" d="M294.6,203.7c-0.7-0.6-1-1.1-1.2-1.5c-0.2-0.4-0.3-0.9-0.4-1.2
		c-0.1-0.4-0.1-0.7-0.2-1.3c-0.1-0.5-0.1-0.8-0.2-1.1"/>
	<path fill="#F79D88" stroke="#575D72" stroke-miterlimit="10" d="M292.6,198.5c0,0,4.1,0,4.1,0c0,0,4.3,0,4.3,0"/>
	<path fill="#F79D88" stroke="#575D72" stroke-miterlimit="10" d="M301.1,198.4c0.7-0.6,1.6-1.4,2.5-2.3c1.4-1.4,2.5-2.6,3.3-3.5
		c1.9-2.1,3.1-3.9,4.1-5.2c1.2-1.7,2.9-4.1,4.8-7.4c1.5-2.7,2.6-4.7,3.5-7.6c0.7-2.2,1-4.1,1.1-5.2c0.3-2.3,0.5-4.1,0-6.3
		c-0.6-2.8-1.9-4.6-2.5-5.5c-1.4-2-2.8-3.1-5.2-4.9c-2.3-1.7-4.2-2.8-5.6-3.5c-2.6-1.4-3.8-2-5-2.1c-2.3-0.1-3.1,1.1-5.2,0.6
		c-1.2-0.3-1.4-0.8-2.8-0.9c-1.2-0.1-2.2,0.1-3.1,0.4c-1.3,0.4-2.2,0.9-3.6,1.6c-4.7,2.5-4.5,2.4-4.8,2.6c-1.9,1.3-3,2.6-4.3,4.1
		c-1.7,2-2.8,3.3-3.6,5.3c-0.7,1.9-0.8,3.4-1,5.8c-0.2,2.4-0.3,4.1,0.2,6.3c0.1,0.5,0.4,1.7,3.2,6.8c0.8,1.4,1.4,2.3,2.4,4.2
		c0.7,1.4,0.8,1.7,1.3,2.6c0.4,0.7,1,1.6,2.8,3.8c0.9,1.1,1.1,1.4,3,3.6c2.4,2.8,2.6,3.2,3.4,4.1c1.2,1.3,2.3,2.2,2.9,2.8"/>
	<path fill="#F79D88" stroke="#575D72" stroke-miterlimit="10" d="M299.5,198.4c0.5-0.5,1.3-1.2,2.1-2.2c0.6-0.7,1.2-1.5,2.5-3.4
		c1.1-1.6,1.9-2.9,2.9-4.7c0.5-0.8,1.2-2.1,3-6.1c1.6-3.5,2.4-5.3,3.2-7.2c1.6-4.1,2.4-6.1,2.8-9c0.5-3.6,0.2-6.5,0-7.7
		c-0.4-2.8-1.2-5-1.9-6.6"/>
	<path fill="#F79D88" stroke="#575D72" stroke-miterlimit="10" d="M298.5,198.4c0.4-1.1,1-2.8,1.8-4.8c1.5-4,2-5.2,2.8-7.4
		c0.6-2,0.6-2.1,1.7-6.2c2-7.4,2.4-7.8,3.1-11.4c0.7-3.4,0.9-5.8,1-7.6c0.5-6.4-0.2-8.9-0.5-10c-0.6-1.8-1.3-3.2-1.9-4.1"/>
	<path fill="#F79D88" stroke="#575D72" stroke-miterlimit="10" d="M294.1,198.4c-0.5-0.8-1.4-2.1-2.4-3.7c-2.4-3.6-2.8-4-4.1-6
		c-2.3-3.5-3.7-6.4-4.2-7.4c-0.7-1.4-1.6-3.3-2.5-5.9c-1.9-5.3-2.3-9.6-2.4-10.6c-0.2-1.5-0.4-4.1-0.1-7.4c0.2-2.2,0.6-4.1,1-5.5"/>
	<path fill="#F79D88" stroke="#575D72" stroke-miterlimit="10" d="M295.8,198.4c-0.6-1.1-1.3-2.7-2.1-4.7c-0.6-1.3-1.8-4.3-3.4-9.8
		c-1.3-4.4-2.3-7.4-3.1-11.7c-0.3-1.3-1.1-5.8-1.6-11.6c-0.3-4.4-0.1-6.1,0.1-7.5c0.6-3,1.7-5.4,2.5-6.9"/>
	<path fill="#F79D88" stroke="#575D72" stroke-miterlimit="10" d="M296.8,145.7c0,17.6,0,35.2,0,52.8"/>
	<path fill="none" stroke="#575D72" stroke-miterlimit="10" d="M292.6,198.3c2.9,0,5.8,0,8.7,0"/>
</g>

<animateTransform attributeType="xml"
	id="show100"
	begin="0s; hide100.end"
									attributeName="transform"
									type="rotate"
									from="0 267.5 253"
									to="-10 267.5 253"
									dur="3s"
									restart="always"/>

<animateTransform attributeType="xml"
									id="hide100"
									begin="3s; show100.end"
									attributeName="transform"
									type="rotate"
									from="-10 267.5 253"
									to="0 267.5 253"
									dur="3s"
									restart="always"/>

</g>
<g>
	<g>
		<g>
			<g>
				<g>
					<g>
						<path fill="#FFFFFF" stroke="#575D72" stroke-miterlimit="10" d="M417.4,309.6c-15.7,0-31.3,0-47,0c-16.6,0-33.1,0-49.7,0
							c-16.2,0-32.3,0-48.5,0c-23.7,0-47.3,0-71,0c-19.2,0-38.4,0-57.6,0c-19.2,0-38.5,0-57.7,0"/>
						<path fill="#FFFFFF" stroke="#575D72" stroke-miterlimit="10" d="M85.9,309.4c0-22.5,0-44.9,0-67.4"/>
						<path fill="#FFFFFF" stroke="#575D72" stroke-miterlimit="10" d="M86,242c8.9,0,17.8,0,26.8,0"/>
						<path fill="#FFFFFF" stroke="#575D72" stroke-miterlimit="10" d="M112.4,241.8c0,22.5,0,45.1,0,67.6"/>
						<path fill="#FFFFFF" stroke="#575D72" stroke-miterlimit="10" d="M106.1,309.2c0-5.8,0-11.7,0-17.5"/>
						<path fill="#FFFFFF" stroke="#575D72" stroke-miterlimit="10" d="M91.4,309.5c0-6,0-11.9,0-17.9"/>
						<path fill="#FFFFFF" stroke="#575D72" stroke-miterlimit="10" d="M91.2,291.5c5,0,10,0,15,0"/>
						<path fill="#FFFFFF" stroke="#575D72" stroke-miterlimit="10" d="M99.2,309.5c0-6,0-12.1,0-18.1"/>
						<path fill="#FFFFFF" stroke="#575D72" stroke-miterlimit="10" d="M96.9,302c1.6,0,3.2,0,4.8,0"/>
						<path fill="#FFFFFF" stroke="#575D72" stroke-miterlimit="10" d="M102.2,286c1.7,0,3.3,0,5,0"/>
						<path fill="#FFFFFF" stroke="#575D72" stroke-miterlimit="10" d="M107.2,286.1c0-2.9,0-5.8,0-8.8"/>
						<path fill="#FFFFFF" stroke="#575D72" stroke-miterlimit="10" d="M102.4,285.5c0-2.7,0-5.4,0-8.1"/>
						<path fill="#FFFFFF" stroke="#575D72" stroke-miterlimit="10" d="M102.4,277.1c1.7,0,3.4,0,5.1,0"/>
						<path fill="#FFFFFF" stroke="#575D72" stroke-miterlimit="10" d="M91.6,286.1c1.7,0,3.3,0,5,0"/>
						<path fill="#FFFFFF" stroke="#575D72" stroke-miterlimit="10" d="M96.6,286.2c0-2.9,0-5.8,0-8.8"/>
						<path fill="#FFFFFF" stroke="#575D72" stroke-miterlimit="10" d="M91.7,285.6c0-2.7,0-5.4,0-8.1"/>
						<path fill="#FFFFFF" stroke="#575D72" stroke-miterlimit="10" d="M91.7,277.2c1.7,0,3.4,0,5.1,0"/>
						<path fill="#FFFFFF" stroke="#575D72" stroke-miterlimit="10" d="M91.5,271.6c1.7,0,3.3,0,5,0"/>
						<path fill="#FFFFFF" stroke="#575D72" stroke-miterlimit="10" d="M96.5,271.7c0-2.9,0-5.8,0-8.8"/>
						<path fill="#FFFFFF" stroke="#575D72" stroke-miterlimit="10" d="M91.6,271.1c0-2.7,0-5.4,0-8.1"/>
						<path fill="#FFFFFF" stroke="#575D72" stroke-miterlimit="10" d="M91.6,262.7c1.7,0,3.4,0,5.1,0"/>
						<path fill="#FFFFFF" stroke="#575D72" stroke-miterlimit="10" d="M102.1,271.4c1.7,0,3.3,0,5,0"/>
						<path fill="#FFFFFF" stroke="#575D72" stroke-miterlimit="10" d="M107.1,271.6c0-2.9,0-5.8,0-8.8"/>
						<path fill="#FFFFFF" stroke="#575D72" stroke-miterlimit="10" d="M102.3,270.9c0-2.7,0-5.4,0-8.1"/>
						<path fill="#FFFFFF" stroke="#575D72" stroke-miterlimit="10" d="M102.3,262.6c1.7,0,3.4,0,5.1,0"/>
						<path fill="#FFFFFF" stroke="#575D72" stroke-miterlimit="10" d="M102,256.4c1.7,0,3.3,0,5,0"/>
						<path fill="#FFFFFF" stroke="#575D72" stroke-miterlimit="10" d="M107,256.6c0-2.9,0-5.8,0-8.8"/>
						<path fill="#FFFFFF" stroke="#575D72" stroke-miterlimit="10" d="M102.1,255.9c0-2.7,0-5.4,0-8.1"/>
						<path fill="#FFFFFF" stroke="#575D72" stroke-miterlimit="10" d="M102.1,247.6c1.7,0,3.4,0,5.1,0"/>
						<path fill="#FFFFFF" stroke="#575D72" stroke-miterlimit="10" d="M91.4,256.6c1.7,0,3.3,0,5,0"/>
						<path fill="#FFFFFF" stroke="#575D72" stroke-miterlimit="10" d="M96.4,256.7c0-2.9,0-5.8,0-8.8"/>
						<path fill="#FFFFFF" stroke="#575D72" stroke-miterlimit="10" d="M91.5,256.1c0-2.7,0-5.4,0-8.1"/>
						<path fill="#FFFFFF" stroke="#575D72" stroke-miterlimit="10" d="M91.5,247.7c1.7,0,3.4,0,5.1,0"/>
						<path fill="#FFFFFF" stroke="#575D72" stroke-miterlimit="10" d="M112.7,269.8c8.9,0,17.8,0,26.8,0"/>
						<path fill="#FFFFFF" stroke="#575D72" stroke-miterlimit="10" d="M124.4,269.7c0-1.4,0-2.7,0-4.1"/>
						<path fill="#FFFFFF" stroke="#575D72" stroke-miterlimit="10" d="M134.5,269.5c0-1.4,0-2.9,0-4.3"/>
						<path fill="#FFFFFF" stroke="#575D72" stroke-miterlimit="10" d="M124.5,265.5c3.3,0,6.7,0,10,0"/>
						<path fill="#FFFFFF" stroke="#575D72" stroke-miterlimit="10" d="M139.7,309.4c0-32.3,0-64.6,0-96.9"/>
						<path fill="#FFFFFF" stroke="#575D72" stroke-miterlimit="10" d="M116.7,280c2.1,0,4.2,0,6.3,0"/>
						<path fill="#FFFFFF" stroke="#575D72" stroke-miterlimit="10" d="M123,280.1c0-1.8,0-3.7,0-5.5"/>
						<path fill="#FFFFFF" stroke="#575D72" stroke-miterlimit="10" d="M123.2,274.4c-2.2,0-4.4,0-6.6,0"/>
						<path fill="#FFFFFF" stroke="#575D72" stroke-miterlimit="10" d="M116.8,280c0-1.9,0-3.8,0-5.7"/>
						<path fill="#FFFFFF" stroke="#575D72" stroke-miterlimit="10" d="M128.5,280.2c2.1,0,4.2,0,6.3,0"/>
						<path fill="#FFFFFF" stroke="#575D72" stroke-miterlimit="10" d="M134.8,280c0-1.9,0-3.9,0-5.8"/>
						<path fill="#FFFFFF" stroke="#575D72" stroke-miterlimit="10" d="M134.8,274.2c-2,0-4,0-6,0"/>
						<path fill="#FFFFFF" stroke="#575D72" stroke-miterlimit="10" d="M128.8,274.3c0,2,0,3.9,0,5.9"/>
						<path fill="#FFFFFF" stroke="#575D72" stroke-miterlimit="10" d="M116.8,291.9c2.1,0,4.1,0,6.2,0"/>
						<path fill="#FFFFFF" stroke="#575D72" stroke-miterlimit="10" d="M123,291.9c0-2,0-3.9,0-5.9"/>
						<path fill="#FFFFFF" stroke="#575D72" stroke-miterlimit="10" d="M116.8,286.2c2.1,0,4.1,0,6.2,0"/>
						<path fill="#FFFFFF" stroke="#575D72" stroke-miterlimit="10" d="M117.2,292c0-1.9,0-3.7,0-5.6"/>
						<path fill="#FFFFFF" stroke="#575D72" stroke-miterlimit="10" d="M128.8,291.9c1.9,0,3.9,0,5.8,0"/>
						<path fill="#FFFFFF" stroke="#575D72" stroke-miterlimit="10" d="M134.7,285.8c0,2.1,0,4.2,0,6.2"/>
						<path fill="#FFFFFF" stroke="#575D72" stroke-miterlimit="10" d="M129,291.9c0-1.9,0-3.8,0-5.7"/>
						<path fill="#FFFFFF" stroke="#575D72" stroke-miterlimit="10" d="M129.2,286.2c1.8,0,3.6,0,5.4,0"/>
						<path fill="#FFFFFF" stroke="#575D72" stroke-miterlimit="10" d="M116.2,309.4c0-4,0-7.9,0-11.9"/>
						<path fill="#FFFFFF" stroke="#575D72" stroke-miterlimit="10" d="M116.6,297.5"/>
						<path fill="#FFFFFF" stroke="#575D72" stroke-miterlimit="10" d="M134.6,309.4c0-4,0-8,0-12"/>
						<path fill="#FFFFFF" stroke="#575D72" stroke-miterlimit="10" d="M116.4,297.8c6.1,0,12.2,0,18.3,0"/>
						<path fill="#FFFFFF" stroke="#575D72" stroke-miterlimit="10" d="M134.4,302.4c-6,0-12,0-18,0"/>
					</g>
					<path fill="#FFFFFF" stroke="#575D72" stroke-miterlimit="10" d="M139.6,212.4c-1,0-2.1,0.1-3.1,0.1"/>
					<path fill="#FFFFFF" stroke="#575D72" stroke-miterlimit="10" d="M136.4,212.6c0-1.5,0-2.9,0-4.4"/>
					<path fill="#FFFFFF" stroke="#575D72" stroke-miterlimit="10" d="M136.4,208.2c15,0,30.1,0,45.1,0"/>
					<path fill="#FFFFFF" stroke="#575D72" stroke-miterlimit="10" d="M181.5,208.2c0,1.4,0,2.8,0,4.3"/>
					<path fill="#FFFFFF" stroke="#575D72" stroke-miterlimit="10" d="M181.8,212.5c-14,0-28.1,0-42.1,0"/>
					<path fill="#FFFFFF" stroke="#575D72" stroke-miterlimit="10" d="M178.4,212.8c0,21.2,0,42.3,0,63.5"/>
					<path fill="#FFFFFF" stroke="#575D72" stroke-miterlimit="10" d="M179,309c0-2.2,0-4.4,0-6.6"/>
					<path fill="#FFFFFF" stroke="#575D72" stroke-miterlimit="10" d="M175.4,309.6c0-6.3,0-12.5,0-18.8"/>
					<path fill="#FFFFFF" stroke="#575D72" stroke-miterlimit="10" d="M175.5,294.5c1.5-1.4,3-2.8,4.5-4.2"/>
					<path fill="#FFFFFF" stroke="#575D72" stroke-miterlimit="10" d="M175.1,298.5c-0.8-0.7-1.5-1.3-2.2-2"/>
					<path fill="none" stroke="#575D72" stroke-miterlimit="10" d="M175.6,302.6c0.4-0.2,1.1-0.3,1.9-0.2c0.8,0.1,1,0.3,1.6,0.2
						c0.3,0,0.7-0.1,1.8-0.9c1.2-0.9,2-1.7,2.2-1.9c0.7-0.7,1.1-1.2,1.8-2c0.9-1.1,1.4-1.7,1.9-2.5c0.4-0.7,1.3-2.1,1.8-4
						c0.4-1.7,0.4-3,0.4-3.4c0-0.9-0.1-2.8-1.2-4.9c-0.8-1.4-1.7-2.2-2.6-3c-2.9-2.5-5.9-3.3-6.6-3.5c-1.1-0.3-2.5-0.6-4.2-0.4
						c-1.9,0.3-3.3,1-4.5,1.8c-1,0.6-2.9,1.7-4.6,4c-1.4,1.8-3.3,4.7-2.6,5.5c0.3,0.4,0.9-0.1,2.2,0.2c0.8,0.2,1.3,0.7,2.2,1.4
						c0.9,0.7,1.4,1.1,1.9,1.9c0.1,0.2,0.7,1.2,0.9,2.6c0.1,0.8-0.1,1.6-0.4,3c-0.4,1.7-0.6,2.6-1.1,3.4c-0.7,0.9-1.5,1.4-1.9,1.6
						c-1.4,0.8-2.8,0.9-3.5,0.9"/>
					<path fill="none" stroke="#575D72" stroke-miterlimit="10" d="M162.4,309.5c0-4,0-8.1,0-12.1"/>
					<path fill="none" stroke="#575D72" stroke-miterlimit="10" d="M175.2,302.5c-1.2-0.5-2.5-1.1-3.9-1.8c-1-0.5-2-1-2.9-1.5"/>
					<path fill="none" stroke="#575D72" stroke-miterlimit="10" d="M162.1,302.4c-0.7-0.2-1.7-0.6-2.8-1.1c-1.2-0.7-2.1-1.1-2.9-2.1
						c-0.8-1-1-2-1.1-2.8c-0.3-1.5-0.1-2.8,0-3.5c0.2-0.8,0.4-2,1.4-3.1c0.8-1,1.7-1.4,2.1-1.6c1.3-0.6,2.5-0.7,3.1-0.8"/>
					<path fill="none" stroke="#575D72" stroke-miterlimit="10" d="M154,309.6c0-6.3,0-12.7,0-19"/>
					<path fill="none" stroke="#575D72" stroke-miterlimit="10" d="M154.1,290.6c-3.5,0-6.9,0-10.4,0"/>
					<path fill="none" stroke="#575D72" stroke-miterlimit="10" d="M143.5,309.5c0-6.3,0-12.5,0-18.8"/>
					<path fill="none" stroke="#575D72" stroke-miterlimit="10" d="M151.2,300.5c0.7,0,1.4,0,2.1,0"/>
					<path fill="none" stroke="#575D72" stroke-miterlimit="10" d="M143.5,284.2c6.5,0,13,0,19.5,0"/>
					<path fill="none" stroke="#575D72" stroke-miterlimit="10" d="M158.5,284.5c0-2,0-4.1,0-6.1"/>
					<path fill="none" stroke="#575D72" stroke-miterlimit="10" d="M143.4,283.8c0-1.8,0-3.6,0-5.4"/>
					<path fill="none" stroke="#575D72" stroke-miterlimit="10" d="M143.4,278c8.4,0,16.8,0,25.1,0"/>
					<path fill="none" stroke="#575D72" stroke-miterlimit="10" d="M174.8,276c0-2.5,0-4.9,0-7.4"/>
					<path fill="none" stroke="#575D72" stroke-miterlimit="10" d="M143.2,268.4c10.4,0,20.8,0,31.1,0"/>
					<path fill="none" stroke="#575D72" stroke-miterlimit="10" d="M174.4,274.4c-10.2,0-20.5,0-30.8,0"/>
					<path fill="none" stroke="#575D72" stroke-miterlimit="10" d="M143.6,274.4c0-2,0-4,0-6"/>
					<path fill="none" stroke="#575D72" stroke-miterlimit="10" d="M158.6,274.2c0-1.9,0-3.8,0-5.8"/>
					<path fill="none" stroke="#575D72" stroke-miterlimit="10" d="M143.9,263.9c10.2,0,20.4,0,30.6,0"/>
					<path fill="none" stroke="#575D72" stroke-miterlimit="10" d="M174.2,257.5c0,2,0,4.1,0,6.1"/>
					<path fill="none" stroke="#575D72" stroke-miterlimit="10" d="M174.4,257.1c-10.3,0-20.6,0-30.9,0"/>
					<path fill="none" stroke="#575D72" stroke-miterlimit="10" d="M143.4,257c0,2.3,0,4.6,0,6.9"/>
					<path fill="none" stroke="#575D72" stroke-miterlimit="10" d="M159,263.9c0-2.2,0-4.3,0-6.5"/>
					<path fill="none" stroke="#575D72" stroke-miterlimit="10" d="M143.9,254.4c10.2,0,20.4,0,30.6,0"/>
					<path fill="none" stroke="#575D72" stroke-miterlimit="10" d="M174.3,248.1c0,2,0,4.1,0,6.1"/>
					<path fill="none" stroke="#575D72" stroke-miterlimit="10" d="M174.4,247.7c-10.3,0-20.6,0-30.9,0"/>
					<path fill="none" stroke="#575D72" stroke-miterlimit="10" d="M143.4,247.6c0,2.3,0,4.6,0,6.9"/>
					<path fill="none" stroke="#575D72" stroke-miterlimit="10" d="M159.1,254.4c0-2.2,0-4.3,0-6.5"/>
					<path fill="none" stroke="#575D72" stroke-miterlimit="10" d="M144,243.9c10.2,0,20.4,0,30.6,0"/>
					<path fill="none" stroke="#575D72" stroke-miterlimit="10" d="M174.4,237.5c0,2,0,4.1,0,6.1"/>
					<path fill="none" stroke="#575D72" stroke-miterlimit="10" d="M174.5,237.1c-10.3,0-20.6,0-30.9,0"/>
					<path fill="none" stroke="#575D72" stroke-miterlimit="10" d="M143.5,237c0,2.3,0,4.6,0,6.9"/>
					<path fill="none" stroke="#575D72" stroke-miterlimit="10" d="M159.1,243.9c0-2.2,0-4.3,0-6.5"/>
					<path fill="none" stroke="#575D72" stroke-miterlimit="10" d="M143.7,233.8c10.2,0,20.4,0,30.6,0"/>
					<path fill="none" stroke="#575D72" stroke-miterlimit="10" d="M174.1,227.4c0,2,0,4.1,0,6.1"/>
					<path fill="none" stroke="#575D72" stroke-miterlimit="10" d="M174.2,227.1c-10.3,0-20.6,0-30.9,0"/>
					<path fill="none" stroke="#575D72" stroke-miterlimit="10" d="M143.2,226.9c0,2.3,0,4.6,0,6.9"/>
					<path fill="none" stroke="#575D72" stroke-miterlimit="10" d="M158.9,233.8c0-2.2,0-4.3,0-6.5"/>
					<path fill="none" stroke="#575D72" stroke-miterlimit="10" d="M144,222.8c10.2,0,20.4,0,30.6,0"/>
					<path fill="none" stroke="#575D72" stroke-miterlimit="10" d="M174.4,216.4c0,2,0,4.1,0,6.1"/>
					<path fill="none" stroke="#575D72" stroke-miterlimit="10" d="M174.5,216c-10.3,0-20.6,0-30.9,0"/>
					<path fill="none" stroke="#575D72" stroke-miterlimit="10" d="M143.5,215.9c0,2.3,0,4.6,0,6.9"/>
					<path fill="none" stroke="#575D72" stroke-miterlimit="10" d="M159.1,222.8c0-2.2,0-4.3,0-6.5"/>
					<path fill="#FFFFFF" stroke="#575D72" stroke-miterlimit="10" d="M193.3,309.5c0-9.4,0-18.8,0-28.3"/>
					<path fill="#FFFFFF" stroke="#575D72" stroke-miterlimit="10" d="M193.2,281.3c-0.9-0.1-1.7-0.1-2.6-0.2"/>
					<path fill="#FFFFFF" stroke="#575D72" stroke-miterlimit="10" d="M190.8,281.2c0.2-0.6,0.4-1.3,0.7-1.9
						c0.4-1.2,0.9-2.3,1.3-3.3"/>
					<path fill="#FFFFFF" stroke="#575D72" stroke-miterlimit="10" d="M192.8,275.9c16.8,0,33.6,0,50.4,0"/>
					<path fill="#FFFFFF" stroke="#575D72" stroke-miterlimit="10" d="M243.5,276.2c0.7,1.7,1.3,3.4,2,5.1"/>
					<path fill="#FFFFFF" stroke="#575D72" stroke-miterlimit="10" d="M245.5,281.2c-17.4,0-34.8,0-52.2,0"/>
					<path fill="#FFFFFF" stroke="#575D72" stroke-miterlimit="10" d="M242.4,281.3c0,9.4,0,18.7,0,28.1"/>
					<path fill="#FFFFFF" stroke="#575D72" stroke-miterlimit="10" d="M212.6,309.4c0-6.9,0-13.8,0-20.8"/>
					<path fill="#FFFFFF" stroke="#575D72" stroke-miterlimit="10" d="M200.7,309.9c0-6.8,0-13.6,0-20.3"/>
					<path fill="#FFFFFF" stroke="#575D72" stroke-miterlimit="10" d="M201,290.6c3.9,0,7.8,0,11.7,0"/>
					<path fill="none" stroke="#575D72" stroke-miterlimit="10" d="M200.4,289.7c0.2-0.5,0.5-1.1,1-1.8c0.7-0.9,1.4-1.4,1.9-1.8
						c0.6-0.4,1.4-0.9,2.5-1.2c0.7-0.2,1.6-0.4,2.7-0.2c0.9,0.2,1.5,0.7,2,1.1c0.5,0.4,1.1,0.9,1.6,1.8c0.3,0.7,0.4,1.4,0.4,1.8"/>
					<path fill="none" stroke="#575D72" stroke-miterlimit="10" d="M206.8,290.7c1.5-1.5,2.9-2.9,4.4-4.4"/>
					<path fill="none" stroke="#575D72" stroke-miterlimit="10" d="M206.5,290.8c0-2.1,0-4.3,0-6.4"/>
					<path fill="none" stroke="#575D72" stroke-miterlimit="10" d="M206.7,290.9c-1.4-1.4-2.7-2.7-4.1-4.1"/>
					<path fill="none" stroke="#575D72" stroke-miterlimit="10" d="M218.5,305.3c6,0,12,0,18,0"/>
					<path fill="none" stroke="#575D72" stroke-miterlimit="10" d="M236.5,305.6c0-3.9,0-7.7,0-11.6"/>
					<path fill="none" stroke="#575D72" stroke-miterlimit="10" d="M218.7,305.4c0-3.9,0-7.8,0-11.7"/>
					<path fill="none" stroke="#575D72" stroke-miterlimit="10" d="M216.5,293.6c7.1,0,14.2,0,21.3,0"/>
					<path fill="none" stroke="#575D72" stroke-miterlimit="10" d="M216.4,293.4c0-1.9,0-3.8,0-5.8"/>
					<path fill="none" stroke="#575D72" stroke-miterlimit="10" d="M216.2,287.6c7.1,0,14.2,0,21.3,0"/>
					<path fill="none" stroke="#575D72" stroke-miterlimit="10" d="M237.6,287.3c0,2.1,0,4.2,0,6.3"/>
					<path fill="none" stroke="#575D72" stroke-miterlimit="10" d="M219.7,292.9c0-1.7,0-3.3,0-5"/>
					<path fill="none" stroke="#575D72" stroke-miterlimit="10" d="M223.5,293.3c0-1.9,0-3.7,0-5.6"/>
					<path fill="none" stroke="#575D72" stroke-miterlimit="10" d="M227.4,293.5c0-1.9,0-3.8,0-5.7"/>
					<path fill="none" stroke="#575D72" stroke-miterlimit="10" d="M230.8,293.8c0-2,0-4,0-5.9"/>
					<path fill="none" stroke="#575D72" stroke-miterlimit="10" d="M233.9,293.7c0-1.9,0-3.8,0-5.8"/>
				</g>
				<path fill="none" stroke="#575D72" stroke-miterlimit="10" d="M248.7,309.8c0-4.4,0-8.7,0-13.1"/>
				<path fill="none" stroke="#575D72" stroke-miterlimit="10" d="M248.8,296.7c0.6,0,1-0.9,1.3-1.7c0.5-1.1,0.5-1.9,0.5-2.2
					c0-0.7,0-1.3-0.4-1.6c-0.3-0.2-0.7-0.2-1.7-0.1c-0.6,0.1-0.9,0.1-1.2,0.2c-0.5,0.4-0.5,1-0.6,1.5c-0.1,1.4,0.5,2.4,0.8,2.7
					C247.9,296.1,248.3,296.7,248.8,296.7z"/>
				<path fill="none" stroke="#575D72" stroke-miterlimit="10" d="M255.7,309.3c0-10.2,0-20.4,0-30.7"/>
				<path fill="none" stroke="#575D72" stroke-miterlimit="10" d="M255.3,278.7c23.4,0,46.9,0,70.3,0"/>
				<path fill="none" stroke="#575D72" stroke-miterlimit="10" d="M325.7,278.2c0,10.6,0,21.1,0,31.7"/>
				<path fill="none" stroke="#575D72" stroke-miterlimit="10" d="M255.2,284.2c23.7,0,47.3,0,71,0"/>
				<path fill="none" stroke="#575D72" stroke-miterlimit="10" d="M302.5,309c0-8.3,0-16.7,0-25"/>
				<path fill="none" stroke="#575D72" stroke-miterlimit="10" d="M283.7,309c0-5.2,0-10.4,0-15.7"/>
				<path fill="none" stroke="#575D72" stroke-miterlimit="10" d="M283.7,293.3c4.8,0,9.7,0,14.5,0"/>
				<path fill="none" stroke="#575D72" stroke-miterlimit="10" d="M298.2,293.5c0,5.4,0,10.8,0,16.2"/>
				<path fill="none" stroke="#575D72" stroke-miterlimit="10" d="M290.7,310c0-5.6,0-11.2,0-16.8"/>
				<path fill="none" stroke="#575D72" stroke-miterlimit="10" d="M288.7,303c1.4,0,2.8,0,4.2,0"/>
				<path fill="none" stroke="#575D72" stroke-miterlimit="10" d="M278.7,309.3c0-8.3,0-16.6,0-24.8"/>
				<path fill="none" stroke="#575D72" stroke-miterlimit="10" d="M282,290.5c5.8,0,11.6,0,17.3,0"/>
				<path fill="none" stroke="#575D72" stroke-miterlimit="10" d="M281.5,290.7c0-0.9,0-1.9,0-2.8"/>
				<path fill="none" stroke="#575D72" stroke-miterlimit="10" d="M281.5,287.8c6.2,0,12.3,0,18.5,0"/>
				<path fill="none" stroke="#575D72" stroke-miterlimit="10" d="M299.7,290.3c0-0.8,0-1.7,0-2.5"/>
				<path fill="none" stroke="#575D72" stroke-miterlimit="10" d="M262.3,303c3.1-3.1,6.2-6.2,9.3-9.3"/>
				<path fill="none" stroke="#575D72" stroke-miterlimit="10" d="M262.5,298c2-2,3.9-3.9,5.9-5.9"/>
				<path fill="none" stroke="#575D72" stroke-miterlimit="10" d="M310.2,298.5c1.9-1.9,3.8-3.8,5.7-5.7"/>
				<path fill="none" stroke="#575D72" stroke-miterlimit="10" d="M310.2,303c3-3,5.9-5.9,8.9-8.9"/>
				<path fill="none" stroke="#575D72" stroke-miterlimit="10" d="M331,309.5c0-20.9,0-41.9,0-62.8"/>
				<path fill="none" stroke="#575D72" stroke-miterlimit="10" d="M330.8,246.7c10.2,0,20.3,0,30.5,0"/>
				<path fill="none" stroke="#575D72" stroke-miterlimit="10" d="M361.3,246.7c0,21.1,0,42.1,0,63.2"/>
				<path fill="none" stroke="#575D72" stroke-miterlimit="10" d="M343.8,309.5c0-5.9,0-11.9,0-17.8"/>
				<path fill="none" stroke="#575D72" stroke-miterlimit="10" d="M343.7,291.7c-2.9,0-5.9,0-8.8,0"/>
				<path fill="none" stroke="#575D72" stroke-miterlimit="10" d="M334.8,292c0,5.9,0,11.8,0,17.7"/>
				<path fill="none" stroke="#575D72" stroke-miterlimit="10" d="M341,302.2c0.9,0,1.8,0,2.7,0"/>
				<path fill="none" stroke="#575D72" stroke-miterlimit="10" d="M347,302c3.3,0,6.6,0,9.8,0"/>
				<path fill="none" stroke="#575D72" stroke-miterlimit="10" d="M357.2,292.2c0,3.3,0,6.6,0,9.8"/>
				<path fill="none" stroke="#575D72" stroke-miterlimit="10" d="M346.8,302c0-3.4,0-6.8,0-10.2"/>
				<path fill="none" stroke="#575D72" stroke-miterlimit="10" d="M346.7,291.8c3.5,0,7,0,10.5,0"/>
				<path fill="none" stroke="#575D72" stroke-miterlimit="10" d="M334.8,287.5c7.6,0,15.1,0,22.7,0"/>
				<path fill="none" stroke="#575D72" stroke-miterlimit="10" d="M357.5,287.5c0-2,0-4,0-6"/>
				<path fill="none" stroke="#575D72" stroke-miterlimit="10" d="M357.7,281.5c-7.7,0-15.3,0-23,0"/>
				<path fill="none" stroke="#575D72" stroke-miterlimit="10" d="M334.7,281.3c0,2,0,4,0,6"/>
				<path fill="none" stroke="#575D72" stroke-miterlimit="10" d="M342.5,287.2c0-1.9,0-3.9,0-5.8"/>
				<path fill="none" stroke="#575D72" stroke-miterlimit="10" d="M349.5,287.7c0-2,0-4,0-6"/>
				<path fill="none" stroke="#575D72" stroke-miterlimit="10" d="M334.8,277c7.6,0,15.1,0,22.7,0"/>
				<path fill="none" stroke="#575D72" stroke-miterlimit="10" d="M357.4,277c0-2,0-4,0-6"/>
				<path fill="none" stroke="#575D72" stroke-miterlimit="10" d="M357.6,271c-7.7,0-15.3,0-23,0"/>
				<path fill="none" stroke="#575D72" stroke-miterlimit="10" d="M334.6,270.8c0,2,0,4,0,6"/>
				<path fill="none" stroke="#575D72" stroke-miterlimit="10" d="M342.4,276.7c0-1.9,0-3.9,0-5.8"/>
				<path fill="none" stroke="#575D72" stroke-miterlimit="10" d="M349.4,277.2c0-2,0-4,0-6"/>
				<path fill="none" stroke="#575D72" stroke-miterlimit="10" d="M334.8,267.2c7.6,0,15.1,0,22.7,0"/>
				<path fill="none" stroke="#575D72" stroke-miterlimit="10" d="M357.4,267.2c0-2,0-4,0-6"/>
				<path fill="none" stroke="#575D72" stroke-miterlimit="10" d="M357.6,261.2c-7.7,0-15.3,0-23,0"/>
				<path fill="none" stroke="#575D72" stroke-miterlimit="10" d="M334.6,261c0,2,0,4,0,6"/>
				<path fill="none" stroke="#575D72" stroke-miterlimit="10" d="M342.4,266.8c0-1.9,0-3.9,0-5.8"/>
				<path fill="none" stroke="#575D72" stroke-miterlimit="10" d="M349.4,267.3c0-2,0-4,0-6"/>
				<path fill="none" stroke="#575D72" stroke-miterlimit="10" d="M334.8,256.5c7.6,0,15.1,0,22.7,0"/>
				<path fill="none" stroke="#575D72" stroke-miterlimit="10" d="M357.4,256.5c0-2,0-4,0-6"/>
				<path fill="none" stroke="#575D72" stroke-miterlimit="10" d="M357.6,250.5c-7.7,0-15.3,0-23,0"/>
				<path fill="none" stroke="#575D72" stroke-miterlimit="10" d="M334.6,250.3c0,2,0,4,0,6"/>
				<path fill="none" stroke="#575D72" stroke-miterlimit="10" d="M342.4,256.2c0-1.9,0-3.9,0-5.8"/>
				<path fill="none" stroke="#575D72" stroke-miterlimit="10" d="M349.4,256.7c0-2,0-4,0-6"/>
				<path fill="none" stroke="#575D72" stroke-miterlimit="10" d="M365.6,309.5c0-7.8,0-15.7,0-23.5"/>
				<path fill="none" stroke="#575D72" stroke-miterlimit="10" d="M365.6,286.3c15.7,0,31.3,0,47,0"/>
				<path fill="none" stroke="#575D72" stroke-miterlimit="10" d="M412.6,286.3c0,7.8,0,15.5,0,23.3"/>
				<path fill="none" stroke="#575D72" stroke-miterlimit="10" d="M395.6,309.6c0-5.9,0-11.8,0-17.7"/>
				<path fill="none" stroke="#575D72" stroke-miterlimit="10" d="M395.4,291.9c-3.6,0-7.3,0-10.9,0"/>
				<path fill="none" stroke="#575D72" stroke-miterlimit="10" d="M384.5,292.1c0,5.9,0,11.7,0,17.6"/>
				<path fill="none" stroke="#575D72" stroke-miterlimit="10" d="M392.2,301.4c0.4,0,0.8,0,1.2,0"/>
				<path fill="none" stroke="#575D72" stroke-miterlimit="10" d="M393.4,301.4c0-0.7,0-1.4,0-2.2"/>
				<path fill="none" stroke="#575D72" stroke-miterlimit="10" d="M392.2,299.2c0.4,0,0.7,0,1.1,0"/>
				<path fill="none" stroke="#575D72" stroke-miterlimit="10" d="M393.5,300.2c0.6,0,1.3,0,1.9,0"/>
				<path fill="none" stroke="#575D72" stroke-miterlimit="10" d="M370,303.5c3.5,0,7,0,10.5,0"/>
				<path fill="none" stroke="#575D72" stroke-miterlimit="10" d="M380.4,291.7c0,3.9,0,7.8,0,11.7"/>
				<path fill="none" stroke="#575D72" stroke-miterlimit="10" d="M380.5,291.5c-3.4,0-6.8,0-10.2,0"/>
				<path fill="none" stroke="#575D72" stroke-miterlimit="10" d="M370.3,291.5c0,4,0,8,0,12"/>
				<path fill="none" stroke="#575D72" stroke-miterlimit="10" d="M370.7,297.5c3.2,0,6.5,0,9.8,0"/>
				<path fill="none" stroke="#575D72" stroke-miterlimit="10" d="M399.1,303.1c3.3,0,6.5,0,9.8,0"/>
				<path fill="none" stroke="#575D72" stroke-miterlimit="10" d="M408.7,303.2c0-3.9,0-7.7,0-11.6"/>
				<path fill="none" stroke="#575D72" stroke-miterlimit="10" d="M408.6,291.6c-3,0-6.1,0-9.1,0"/>
				<path fill="none" stroke="#575D72" stroke-miterlimit="10" d="M399.5,291.6c0,3.8,0,7.6,0,11.3"/>
				<path fill="none" stroke="#575D72" stroke-miterlimit="10" d="M399.6,296.4c1.6,0,3.2,0,4.8,0"/>
				<path fill="none" stroke="#575D72" stroke-miterlimit="10" d="M404.3,296.4c0-1.7,0-3.4,0-5.1"/>
				<path fill="none" stroke="#575D72" stroke-miterlimit="10" d="M404.5,303.2c0-2.3,0-4.7,0-7"/>
				<path fill="none" stroke="#575D72" stroke-miterlimit="10" d="M395.4,286.2c0-1.6,0-3.1,0-4.7"/>
				<path fill="none" stroke="#575D72" stroke-miterlimit="10" d="M395.5,281.6c-8.4,0-16.7,0-25.1,0"/>
				<path fill="none" stroke="#575D72" stroke-miterlimit="10" d="M370.4,281.6c0,1.6,0,3.2,0,4.8"/>
				<path fill="none" stroke="#575D72" stroke-miterlimit="10" d="M417.5,309.6c0-7.9,0-15.8,0-23.7"/>
				<path fill="none" stroke="#575D72" stroke-miterlimit="10" d="M417.6,285.9c0.2-0.3,0.5-0.7,1-1.1c0.6-0.4,1.1-0.6,1.6-0.7
					c0.7-0.2,1.3-0.3,2.1-0.1c0.9,0.3,1.4,0.9,1.8,1.2c0.2,0.3,0.4,0.5,0.6,0.9c0.3,0.7,0.1,1.4,0,1.7"/>
				<g>
					<path fill="#5E5F5F" stroke="#575D72" stroke-miterlimit="10" d="M422.8,289.9c1.2,0,2.3,0,3.5,0"/>
					<path fill="#5E5F5F" stroke="#575D72" stroke-miterlimit="10" d="M426.4,290c0-0.6,0-1.3,0-1.9"/>
					<path fill="#5E5F5F" stroke="#575D72" stroke-miterlimit="10" d="M426.4,288.1c-1,0-2.1,0-3.1,0"/>
					<path fill="#5E5F5F" stroke="#575D72" stroke-miterlimit="10" d="M423.2,289.7c0-0.6,0-1.2,0-1.8"/>
				</g>
			</g>
			<path fill="#5E5F5F" stroke="#575D72" stroke-miterlimit="10" d="M207.4,276c0-1.2,0-2.3,0-3.5"/>
			<path fill="#5E5F5F" stroke="#575D72" stroke-miterlimit="10" d="M228.5,276c0-1.1,0-2.3,0-3.4"/>
			<path fill="#5E5F5F" stroke="#575D72" stroke-miterlimit="10" d="M236.4,272.9c-12.3,0-24.6,0-36.9,0"/>
			<path fill="#5E5F5F" stroke="#575D72" stroke-miterlimit="10" d="M199.5,273.1c0-3.5,0-7,0-10.5"/>
			<path fill="#5E5F5F" stroke="#575D72" stroke-miterlimit="10" d="M199.5,262.5c12.3,0,24.6,0,37,0"/>
			<path fill="#5E5F5F" stroke="#575D72" stroke-miterlimit="10" d="M236.5,262.5c0,3.5,0,6.9,0,10.4"/>
			<path fill="#5E5F5F" stroke="#575D72" stroke-miterlimit="10" d="M205.7,268.9c0.7-0.7,1.4-1.4,2.1-2.1"/>
			<path fill="#5E5F5F" stroke="#575D72" stroke-miterlimit="10" d="M207.8,266.8c0.6,0.6,1.2,1.2,1.8,1.8"/>
			<path fill="#5E5F5F" stroke="#575D72" stroke-miterlimit="10" d="M226.3,268.8c0.6-0.6,1.3-1.3,1.9-1.9"/>
			<path fill="#5E5F5F" stroke="#575D72" stroke-miterlimit="10" d="M228.3,266.8c0.6,0.6,1.2,1.2,1.8,1.8"/>
			<path fill="#5E5F5F" stroke="#575D72" stroke-miterlimit="10" d="M213.3,265.1c0,1.6,0,3.1,0,4.7"/>
			<path fill="#5E5F5F" stroke="#575D72" stroke-miterlimit="10" d="M213.4,269.8c1,0,2.1,0,3.1,0"/>
			<path fill="#5E5F5F" stroke="#575D72" stroke-miterlimit="10" d="M216.5,269.8c0-1.6,0-3.2,0-4.8"/>
			<path fill="#5E5F5F" stroke="#575D72" stroke-miterlimit="10" d="M219.6,270.1c0-1.6,0-3.3,0-4.9"/>
			<path fill="#5E5F5F" stroke="#575D72" stroke-miterlimit="10" d="M219.6,265.2c1,0,2,0,3,0"/>
			<path fill="#5E5F5F" stroke="#575D72" stroke-miterlimit="10" d="M222.7,265.2c0,1.1,0,2.2,0,3.3"/>
			<path fill="#5E5F5F" stroke="#575D72" stroke-miterlimit="10" d="M222.6,268.5c-1,0-2.1,0-3.1,0"/>
			<path fill="#5E5F5F" stroke="#575D72" stroke-miterlimit="10" d="M207.4,262.5c0-0.6,0-1.3,0-1.9"/>
			<path fill="#5E5F5F" stroke="#575D72" stroke-miterlimit="10" d="M207.5,260.6c0.7,0,1.5,0,2.2,0"/>
			<path fill="none" stroke="#575D72" stroke-miterlimit="10" d="M209.7,260.7c0.1-0.2,0.2-0.8-0.1-1.5c-0.4-0.8-1.1-1-1.3-1.1
				c-0.9-0.3-1.6,0.1-1.8,0.2c-0.3,0.2-0.9,0.4-1.1,1c0,0.1,0,0.1-0.1,0.7c0,0.3-0.1,0.5-0.1,0.7"/>
			<path fill="none" stroke="#575D72" stroke-miterlimit="10" d="M205,260.7c0.8,0,1.7,0,2.5,0"/>
			<path fill="none" stroke="#575D72" stroke-miterlimit="10" d="M228.3,262.5c0-0.6,0-1.2,0-1.8"/>
			<path fill="none" stroke="#575D72" stroke-miterlimit="10" d="M228.3,260.7c0.7,0,1.4,0,2,0"/>
			<path fill="none" stroke="#575D72" stroke-miterlimit="10" d="M230.3,260.7c0-0.1,0.3-0.8-0.1-1.4c-0.3-0.5-0.8-0.6-1.1-0.8
				c-0.4-0.1-0.8-0.1-1-0.1c-0.4,0-1,0-1.5,0.4c-0.1,0.1-0.5,0.4-0.7,1c-0.1,0.3-0.1,0.6-0.1,0.8"/>
			<path fill="none" stroke="#575D72" stroke-miterlimit="10" d="M225.8,260.7c0.8,0,1.7,0,2.5,0"/>
		</g>
		<path fill="none" stroke="#575D72" stroke-miterlimit="10" d="M85.1,329.4c5.5,0,10.9,0,16.4,0"/>
		<path fill="none" stroke="#575D72" stroke-miterlimit="10" d="M91,320.2c20.8,0,41.5,0,62.2,0"/>
		<path fill="none" stroke="#575D72" stroke-miterlimit="10" d="M113.8,329.4c4.9,0,9.8,0,14.6,0"/>
		<path fill="none" stroke="#575D72" stroke-miterlimit="10" d="M130.5,329.4c0.8,0,1.5,0,2.3,0"/>
		<path fill="none" stroke="#575D72" stroke-miterlimit="10" d="M119.6,339c1.9,0,3.8,0,5.6,0"/>
		<path fill="none" stroke="#575D72" stroke-miterlimit="10" d="M98.4,355.4c5.4,0,10.8,0,16.1,0"/>
		<path fill="none" stroke="#575D72" stroke-miterlimit="10" d="M159.9,367.4c5.2,0,10.3,0,15.5,0"/>
		<path fill="none" stroke="#575D72" stroke-miterlimit="10" d="M145,345.8c11.8,0,23.6,0,35.4,0"/>
		<path fill="none" stroke="#575D72" stroke-miterlimit="10" d="M151.1,334.1c4,0,8.1,0,12.1,0"/>
		<path fill="none" stroke="#575D72" stroke-miterlimit="10" d="M140.2,334.4c1.1,0,2.2,0,3.3,0"/>
		<path fill="none" stroke="#575D72" stroke-miterlimit="10" d="M158.8,315.2c2.9,0,5.8,0,8.8,0"/>
		<path fill="none" stroke="#575D72" stroke-miterlimit="10" d="M173.2,320c20,0,39.9,0,59.9,0"/>
		<path fill="none" stroke="#575D72" stroke-miterlimit="10" d="M187.9,329.2c8.9,0,17.8,0,26.8,0"/>
		<path fill="none" stroke="#575D72" stroke-miterlimit="10" d="M223.2,314c9.1,0,18.3,0,27.4,0"/>
		<path fill="none" stroke="#575D72" stroke-miterlimit="10" d="M245.9,322c4.9,0,9.8,0,14.8,0"/>
		<path fill="none" stroke="#575D72" stroke-miterlimit="10" d="M231,331.8c2.2,0,4.4,0,6.6,0"/>
		<path fill="none" stroke="#575D72" stroke-miterlimit="10" d="M214.1,348.8c5.7,0,11.4,0,17.1,0"/>
		<path fill="none" stroke="#575D72" stroke-miterlimit="10" d="M233.4,348.8c0.7,0,1.4,0,2,0"/>
		<path fill="none" stroke="#575D72" stroke-miterlimit="10" d="M192.4,358.6c7.6,0,15.2,0,22.8,0"/>
		<path fill="none" stroke="#575D72" stroke-miterlimit="10" d="M230.9,367.2c7.8,0,15.6,0,23.4,0"/>
		<path fill="none" stroke="#575D72" stroke-miterlimit="10" d="M242.8,342.6c8.8,0,17.5,0,26.3,0"/>
		<path fill="none" stroke="#575D72" stroke-miterlimit="10" d="M273.8,358.4c10,0,20,0,30,0"/>
		<path fill="none" stroke="#575D72" stroke-miterlimit="10" d="M250.9,331.2c14.2,0,28.4,0,42.6,0"/>
		<path fill="none" stroke="#575D72" stroke-miterlimit="10" d="M270.4,322.1c26.6,0,53.3,0,79.9,0"/>
		<path fill="none" stroke="#575D72" stroke-miterlimit="10" d="M311.1,315.8c7,0,13.9,0,20.9,0"/>
		<path fill="none" stroke="#575D72" stroke-miterlimit="10" d="M335.9,315.8c0.9,0,1.8,0,2.6,0"/>
		<path fill="none" stroke="#575D72" stroke-miterlimit="10" d="M336,342.8c5,0,10,0,15,0"/>
		<path fill="none" stroke="#575D72" stroke-miterlimit="10" d="M325,358.5c1.9,0,3.8,0,5.6,0"/>
		<path fill="none" stroke="#575D72" stroke-miterlimit="10" d="M284.5,349.1c3.8,0,7.5,0,11.3,0"/>
		<path fill="none" stroke="#575D72" stroke-miterlimit="10" d="M303.5,342.1c5,0,10.1,0,15.1,0"/>
		<path fill="none" stroke="#575D72" stroke-miterlimit="10" d="M348.5,358.5c5.7,0,11.3,0,17,0"/>
		<path fill="none" stroke="#575D72" stroke-miterlimit="10" d="M315.6,331.6c10.3,0,20.6,0,30.9,0"/>
		<path fill="none" stroke="#575D72" stroke-miterlimit="10" d="M360.8,322.2c4.3,0,8.5,0,12.8,0"/>
		<path fill="none" stroke="#575D72" stroke-miterlimit="10" d="M373.2,338.9c12.3,0,24.7,0,37,0"/>
		<path fill="none" stroke="#575D72" stroke-miterlimit="10" d="M391.4,329.6c4.5,0,8.9,0,13.4,0"/>
		<path fill="none" stroke="#575D72" stroke-miterlimit="10" d="M394.4,315.5c2.3,0,4.7,0,7,0"/>
		<path fill="none" stroke="#575D72" stroke-miterlimit="10" d="M395.5,349.8c5,0,9.9,0,14.9,0"/>
		<path fill="none" stroke="#575D72" stroke-miterlimit="10" d="M412,349.4c0.9,0,1.8,0,2.6,0"/>
	</g>
	<path fill="none" stroke="#575D72" stroke-miterlimit="10" d="M240.5,229.8c0.5-0.1,1.2-0.2,1.8,0.2c0.7,0.5,0.8,1.4,1.2,1.4
		c0.3,0,0.3-0.3,0.9-0.8c0.5-0.4,1-0.6,1.2-0.7c0.7-0.3,1.3-0.3,1.8-0.3"/>
	<path fill="none" stroke="#575D72" stroke-miterlimit="10" d="M257.6,222.4c-0.5,0-1.1,0-1.7,0.3c-0.9,0.5-1.2,1.2-1.7,1.1
		c-0.4-0.1-0.5-0.6-1-1.2c-0.4-0.4-1.1-0.8-2.4-0.8"/>
	<path fill="none" stroke="#575D72" stroke-miterlimit="10" d="M234.3,213.7c0.6-0.1,1.5-0.1,2.2,0.3c0.7,0.5,0.8,1.4,1.3,1.4
		c0.4,0,0.5-0.8,1.2-1.3c0.6-0.5,1.4-0.5,2-0.4"/>
	<path fill="none" stroke="#575D72" stroke-miterlimit="10" d="M377.8,189c-0.7-0.1-1.5,0-2.2,0.5c-0.6,0.5-0.8,1.2-1.2,1.1
		c-0.3-0.1-0.3-0.6-0.5-1c-0.3-0.5-1-1-2.7-1.1"/>
	<path fill="none" stroke="#575D72" stroke-miterlimit="10" d="M381.4,192.8c0.6,0,1.5,0.2,2.1,0.8c0.6,0.6,0.7,1.2,1.2,1.2
		c0.4,0,0.6-0.7,1.2-1.3c0.7-0.6,1.6-0.8,2.2-0.8"/>
</g>
<path fill="none" stroke="#575C71" stroke-miterlimit="10" d="M249.7,255.2c0.9,0,1.6,0,2.1,0c0.9,0,1.2,0,1.7,0
	c0.6,0,1,0.1,1.7,0.1c1.5,0.1,1.7,0.2,2,0c0.5-0.4,0.1-1,0.6-1.6c0.3-0.4,0.8-0.5,1.6-0.8c0.6-0.2,0.9-0.3,1.3-0.2
	c0.8,0.1,1,0.6,1.4,0.5c0.4-0.2,0.2-0.9,0.6-2.2c0.1-0.4,0.4-1.3,1-2.2c0.8-1,1.7-1.4,2.1-1.6c1-0.5,1.8-0.5,2.8-0.6
	c1.2-0.1,1.9-0.1,2.7,0.2c0.8,0.3,1.2,0.9,1.9,1.6c0.5,0.6,0.9,1,1.2,1.7c0.5,1.2,0.2,2,0.6,2.2c0.4,0.2,0.8-0.5,1.9-0.9
	c1.1-0.4,2.1-0.3,3.1-0.2c0.9,0.1,1.7,0.2,2.6,0.7c0.3,0.2,0.9,0.6,1.4,1.3c0.6,1,0.3,1.7,0.9,2.1c0.3,0.2,0.4,0.1,1.5,0
	c0,0,0.8-0.1,2.2-0.1c0.6,0,1.5,0,2.6,0.1">
	<set  fill="freeze" attributeType="CSS" attributeName="visibility" id="show1" begin="0s; hide1.end" to="visible" dur="0.2s" restart="always">
	</set>

	<set  fill="freeze" attributeType="CSS" attributeName="visibility" id="hide1" begin="show1.end" to="hidden" dur="3.4" restart="always">
	</set>

	<set  fill="freeze" attributeType="CSS" attributeName="visibility" id="show19" begin="3.6s; hide19.end" to="visible" dur="0.2s" restart="always">
	</set>

	<set  fill="freeze" attributeType="CSS" attributeName="visibility" id="hide19" begin="show19.end" to="hidden" dur="3.4" restart="always">
	</set>

</path>
<g style="visibility:hidden">
<path fill="none" stroke="#575C71" stroke-miterlimit="10" d="M249.7,255.2c0.5,0,1.3,0,2.2,0c1.6,0,2.4,0,2.9,0.1
	c1.5,0.1,1.9,0.3,2.3,0c0.5-0.4,0.3-0.8,1-1.5c0.6-0.7,1.4-1,1.7-1.1c0.4-0.1,1.1-0.4,1.9-0.2c0.7,0.2,1,0.7,1.2,0.5
	c0.3-0.2-0.3-1.2,0.1-2.3c0.2-0.7,0.7-1.2,1.8-2.1c1-0.9,1.9-1.3,2.2-1.5c0.7-0.4,1.3-0.6,2.2-0.7c1-0.1,1.8,0.2,2.4,0.4
	c1.2,0.4,1.9,1,2.1,1.2c0.5,0.4,1,0.9,1.4,1.7c0.1,0.3,0.2,0.7,0.4,1.5c0.2,1.1,0.2,1.5,0.5,1.5c0.3,0.1,0.5-0.6,1.2-1
	c0.7-0.4,1.5-0.4,2.7-0.2c1,0.1,1.9,0.2,2.8,0.8c0.3,0.2,1.1,0.7,1.5,1.5c0.4,0.7,0.3,1.2,0.8,1.5c0.5,0.3,1.2,0.1,1.6-0.1
	c0.9-0.3,2.3-0.5,4.3-0.1">
	<set  fill="freeze" attributeType="CSS" attributeName="visibility" id="show2" begin="0.2s; hide2.end" to="visible" dur="0.2s" restart="always">
	</set>

	<set  fill="freeze" attributeType="CSS" attributeName="visibility" id="hide2" begin="show2.end" to="hidden" dur="3.4" restart="always">
	</set>

	<set  fill="freeze" attributeType="CSS" attributeName="visibility" id="show18" begin="3.4s; hide18.end" to="visible" dur="0.2s" restart="always">
	</set>

	<set  fill="freeze" attributeType="CSS" attributeName="visibility" id="hide18" begin="show18.end" to="hidden" dur="3.4" restart="always">
	</set>

</path>
<path fill="none" stroke="#575C71" stroke-miterlimit="10" d="M249.8,255.2c0.6,0.1,1.2,0.1,1.9,0.1c1.1,0,1.2,0,2.2,0
	c0.6,0,0.8,0.1,1.9,0.1c1.2,0.1,1.4,0,1.6-0.1c0.5-0.3,0.2-0.8,0.7-1.5c0.4-0.6,1-0.8,1.5-1c0.5-0.2,1.2-0.5,2-0.3
	c0.9,0.2,1.3,0.8,1.6,0.7c0.4-0.2,0-1.1,0.3-2.4c0.3-1.4,1.3-2.2,1.7-2.7c0.3-0.3,1.2-1.1,2.6-1.5c0.8-0.3,1.5-0.2,2.2-0.2
	c0.9,0,1.9,0,3.1,0.6c0.5,0.2,1.4,0.7,2.1,1.6c0.6,0.8,0.7,1.6,0.8,2c0.3,1.4-0.1,2.2,0.2,2.4c0.3,0.1,0.6-0.3,1.5-0.7
	c0.4-0.2,1.2-0.4,2.2-0.3c0.8,0.1,1.3,0.3,2.1,0.7c0.8,0.4,1.3,0.6,1.6,1c0.6,0.7,0.4,1.2,0.9,1.5c0.4,0.2,0.6,0.1,1.6,0
	c0,0,0,0,1.7,0c1,0,2,0,3,0">
	<set  fill="freeze" attributeType="CSS" attributeName="visibility" id="show3" begin="0.4s; hide3.end" to="visible" dur="0.2s" restart="always">
	</set>

	<set  fill="freeze" attributeType="CSS" attributeName="visibility" id="hide3" begin="show3.end" to="hidden" dur="3.4" restart="always">
	</set>

	<set  fill="freeze" attributeType="CSS" attributeName="visibility" id="show17" begin="3.2s; hide17.end" to="visible" dur="0.2s" restart="always">
	</set>

	<set  fill="freeze" attributeType="CSS" attributeName="visibility" id="hide17" begin="show17.end" to="hidden" dur="3.4" restart="always">
	</set>

</path>
<path fill="none" stroke="#575C71" stroke-miterlimit="10" d="M249.7,255.3c0.8,0,1.6,0,2.5,0c0.7,0,1.3,0,2,0c0.6,0,1.2,0,1.9,0
	c1.2,0,1.3,0.1,1.5,0c0.6-0.4,0.3-1.2,0.9-2c0.6-0.7,1.7-0.9,2.3-0.9c0,0,0.2,0,1.9,0c0.6,0.7,0.8,0.8,0.9,0.7c0.3-0.1,0-0.9,0.2-2
	c0-0.1,0.2-0.8,0.6-1.5c0.5-0.8,1.1-1.2,1.8-1.7c0.4-0.3,0.8-0.6,1.5-0.9c0.9-0.4,1.7-0.5,2.2-0.5c0.6-0.1,1.2-0.1,2,0
	c0.2,0,1.1,0.2,2.1,0.9c0.2,0.1,1,0.7,1.8,1.8c0.2,0.3,0.6,0.8,0.8,1.5c0.4,1.3,0,2.1,0.4,2.3c0.3,0.2,0.7-0.3,1.8-0.5
	c1.1-0.2,2-0.1,2.5,0.1c1.1,0.3,1.7,0.9,1.9,1c0.5,0.4,0.8,0.9,0.8,0.9c0.4,0.6,0.4,0.9,0.8,1.1c0.3,0.1,0.5,0,1.2-0.1
	c0.3-0.1,0.9-0.1,2-0.1c0.4,0,0.5,0,1.7,0c0.6,0,1.1,0,1.5,0">
	<set  fill="freeze" attributeType="CSS" attributeName="visibility" id="show4" begin="0.6s; hide4.end" to="visible" dur="0.2s" restart="always">
	</set>

	<set  fill="freeze" attributeType="CSS" attributeName="visibility" id="hide4" begin="show4.end" to="hidden" dur="3.4" restart="always">
	</set>

	<set  fill="freeze" attributeType="CSS" attributeName="visibility" id="show16" begin="3s; hide16.end" to="visible" dur="0.2s" restart="always">
	</set>

	<set  fill="freeze" attributeType="CSS" attributeName="visibility" id="hide16" begin="show16.end" to="hidden" dur="3.4" restart="always">
	</set>

</path>
<path fill="none" stroke="#575C71" stroke-miterlimit="10" d="M249.8,255.2c1.3,0.1,2.4,0.1,3.1,0.1c0,0,0,0,2.6,0
	c0.9,0,1.4,0,1.4,0c0.8,0,1,0.1,1.2,0c0.4-0.3,0-1,0.5-1.7c0.2-0.4,0.7-0.6,1.7-1c1.1-0.5,1.6-0.7,2.2-0.6c0.9,0.2,1.3,1.1,1.6,0.9
	c0.4-0.2-0.1-1.2,0.3-2.4c0.3-0.6,0.7-1,1.6-1.9c0.7-0.7,1.3-1.1,2.1-1.5c1-0.5,1.8-0.5,3-0.6c1.4-0.1,2.1-0.1,3,0.2
	c1.1,0.5,1.8,1.3,2.1,1.6c0.5,0.7,0.8,1.5,0.9,2.1c0.5,1.7,0.1,2.6,0.7,2.9c0.3,0.2,0.5-0.1,1.6-0.2c0.7-0.1,1.5-0.2,2.4,0.1
	c0.3,0.1,1.1,0.4,1.6,1c0.5,0.6,0.4,1,0.8,1.3c0.4,0.3,0.8,0,1.9-0.1c0.4-0.1,0.4,0,2.3,0c0.5,0,1.3,0,2.3,0">
	<set  fill="freeze" attributeType="CSS" attributeName="visibility" id="show5" begin="0.8s; hide5.end" to="visible" dur="0.2s" restart="always">
	</set>

	<set  fill="freeze" attributeType="CSS" attributeName="visibility" id="hide5" begin="show5.end" to="hidden" dur="3.4" restart="always">
	</set>

	<set  fill="freeze" attributeType="CSS" attributeName="visibility" id="show15" begin="2.8s; hide15.end" to="visible" dur="0.2s" restart="always">
	</set>

	<set  fill="freeze" attributeType="CSS" attributeName="visibility" id="hide15" begin="show15.end" to="hidden" dur="3.4" restart="always">
	</set>

</path>
<path fill="none" stroke="#575C71" stroke-miterlimit="10" d="M249.8,255.2c0.9,0,1.8,0,2.7,0c0.8,0,1.6,0,2.4,0c0.7,0,1.3-0.1,2,0
	c0.5,0.1,0.8,0.1,1-0.1c0.3-0.2,0.1-0.5,0.3-1.1c0.2-0.5,0.5-0.9,0.7-1.1c0.7-0.7,1.5-0.9,1.9-1c0.5-0.1,1-0.2,1.6-0.1
	c0.9,0.3,1.3,1.1,1.6,0.9c0.2-0.1,0.1-0.5,0.3-1.2c0.1-0.2,0.2-0.6,1-1.7c0.8-1,1.2-1.6,1.6-1.9c0.8-0.7,1.5-0.9,2.7-1.3
	c1.3-0.4,1.9-0.7,2.9-0.6c1,0.1,1.8,0.5,2.4,0.8c0.5,0.3,1.1,0.6,1.7,1.3c0.7,0.8,1,1.5,1.2,2.2c0.4,1,0.6,1.8,0.5,2.7
	c-0.1,0.5-0.2,0.8,0,1c0.2,0.2,0.6-0.2,1.4-0.4c0.3-0.1,1-0.3,1.9-0.1c0.3,0,0.9,0.2,1.5,0.7c0.5,0.4,0.5,0.7,0.8,1
	c0.7,0.5,1.7,0.1,2.4-0.1c1-0.3,2.5-0.5,4.6-0.2">
	<set  fill="freeze" attributeType="CSS" attributeName="visibility" id="show6" begin="1.0s; hide6.end" to="visible" dur="0.2s" restart="always">
	</set>

	<set  fill="freeze" attributeType="CSS" attributeName="visibility" id="hide6" begin="show6.end" to="hidden" dur="3.4" restart="always">
	</set>

	<set  fill="freeze" attributeType="CSS" attributeName="visibility" id="show14" begin="2.6s; hide14.end" to="visible" dur="0.2s" restart="always">
	</set>

	<set  fill="freeze" attributeType="CSS" attributeName="visibility" id="hide14" begin="show14.end" to="hidden" dur="3.4" restart="always">
	</set>

</path>
<path fill="none" stroke="#575C71" stroke-miterlimit="10" d="M249.7,255.3c1,0,2,0,3,0c2,0,2.9,0,2.9,0c1.5,0.1,2.1,0.4,2.5,0
	c0.3-0.4-0.1-0.8,0.2-1.5c0.2-0.6,0.7-0.9,1.2-1.2c0.3-0.2,1.1-0.6,2.1-0.7c0.5,0,1.1-0.1,1.7,0.2c0.6,0.3,0.7,0.8,1,0.7
	c0.3-0.1,0.3-0.8,0.6-1.7c0.3-0.9,0.7-1.5,1.1-1.9c0.3-0.4,1-1.3,2.2-2c1.3-0.7,2.5-0.8,3.2-0.9c0.9-0.1,2.4-0.1,4,0.8
	c1.5,0.8,2.2,2.1,2.4,2.5c0.3,0.6,0.9,1.7,0.9,3.1c0,0.7-0.2,1.4,0.2,1.5c0.2,0.1,0.5-0.2,1.2-0.3c1-0.2,1.9,0.1,2.2,0.2
	c0.9,0.4,0.8,0.8,1.6,1.1c0.3,0.1,0.5,0.1,2.1,0.2c1,0,1.6,0,2.9,0c0.9,0,1.6,0,2,0">
	<set  fill="freeze" attributeType="CSS" attributeName="visibility" id="show7" begin="1.2s; hide7.end" to="visible" dur="0.2s" restart="always">
	</set>

	<set  fill="freeze" attributeType="CSS" attributeName="visibility" id="hide7" begin="show7.end" to="hidden" dur="3.4" restart="always">
	</set>

	<set  fill="freeze" attributeType="CSS" attributeName="visibility" id="show13" begin="2.4s; hide13.end" to="visible" dur="0.2s" restart="always">
	</set>

	<set  fill="freeze" attributeType="CSS" attributeName="visibility" id="hide13" begin="show13.end" to="hidden" dur="3.4" restart="always">
	</set>

</path>
<path fill="none" stroke="#575C71" stroke-miterlimit="10" d="M249.7,255.4c0.9,0,1.9,0,2.8,0c0.9,0,1.8-0.1,2.7,0
	c1.4,0.1,1.9,0.3,2.3,0c0.4-0.3,0.2-0.7,0.7-1.5c0.5-0.9,1.3-1.3,1.5-1.5c0.8-0.5,1.6-0.5,1.9-0.5c0.4,0,0.9,0,1.5,0.2
	c0.9,0.4,1.1,1.1,1.4,1c0.3-0.1,0.1-0.8,0.5-1.9c0.3-0.8,0.7-1.3,1.3-2c0.3-0.4,0.9-1,1.8-1.6c0.4-0.3,1.2-0.8,2.4-1.1
	c1.3-0.3,2.3-0.2,3-0.1c0.9,0.1,1.9,0.3,3,0.9c0.4,0.2,1.5,0.9,2.2,2.3c0.5,0.9,0.5,1.9,0.5,2.2c0.1,1.4-0.4,2.2,0.1,2.6
	c0.3,0.2,0.4-0.1,1.3,0c0.7,0,2.8,0.8,2.1,0.5c0.1,0.2,0.4,0.5,0.8,0.6c0.5,0.3,0.9,0.1,1.5,0c0.8-0.1,1.5-0.1,2.3-0.2
	c0.7,0,1.6-0.1,2.8-0.1">
	<set  fill="freeze" attributeType="CSS" attributeName="visibility" id="show8" begin="1.4s; hide8.end" to="visible" dur="0.2s" restart="always">
	</set>

	<set  fill="freeze" attributeType="CSS" attributeName="visibility" id="hide8" begin="show8.end" to="hidden" dur="3.4" restart="always">
	</set>

	<set  fill="freeze" attributeType="CSS" attributeName="visibility" id="show12" begin="2.2s; hide12.end" to="visible" dur="0.2s" restart="always">
	</set>

	<set  fill="freeze" attributeType="CSS" attributeName="visibility" id="hide12" begin="show12.end" to="hidden" dur="3.4" restart="always">
	</set>

</path>
<path fill="none" stroke="#575C71" stroke-miterlimit="10" d="M249.7,255.4c1.1-0.1,2.1-0.1,2.7-0.2c0.1,0,0.1,0,2.6,0
	c1.5,0,1.5,0,1.5,0c1,0.1,1.3,0.2,1.5,0c0.3-0.3-0.2-0.9,0.1-1.7c0.2-0.5,0.6-0.8,1.4-1.3c0.5-0.4,1-0.7,1.7-0.9
	c0.5-0.1,1.5-0.4,2.3,0.1c0.9,0.5,1.1,1.4,1.4,1.3c0.2-0.1,0.1-0.6,0.3-1.3c0.2-0.7,0.5-1.1,1-1.9c0.4-0.6,0.8-1.2,1.5-1.8
	c1-0.8,2-1.1,2.5-1.3c0.3-0.1,1.6-0.5,3.3-0.4c1.1,0.1,2.3,0.1,3.5,0.9c1.3,0.8,1.8,2,2.2,2.7c0.3,0.6,0.7,1.5,0.8,2.7
	c0.1,1.1-0.2,1.9,0.2,2.2c0.2,0.2,0.4,0,1,0.2c0.6,0.2,0.7,0.4,1.2,0.5c0.5,0.2,1,0.1,1.4,0c1-0.2,2-0.1,2.9-0.2
	c0.9-0.1,2.2-0.1,3.9,0">
	<set  fill="freeze" attributeType="CSS" attributeName="visibility" id="show9" begin="1.6s; hide9.end" to="visible" dur="0.2s" restart="always">
	</set>

	<set  fill="freeze" attributeType="CSS" attributeName="visibility" id="hide9" begin="show9.end" to="hidden" dur="3.4" restart="always">
	</set>

	<set  fill="freeze" attributeType="CSS" attributeName="visibility" id="show11" begin="2s; hide11.end" to="visible" dur="0.2s" restart="always">
	</set>

	<set  fill="freeze" attributeType="CSS" attributeName="visibility" id="hide11" begin="show11.end" to="hidden" dur="3.4" restart="always">
	</set>


</path>
<path fill="none" stroke="#575C71" stroke-miterlimit="10" d="M249.7,255.2c1.4,0.1,2.5,0.1,3.3,0.2c2.2,0,2-0.1,2.9,0
	c0.9,0.1,1.5,0.3,1.9,0c0.3-0.3,0.2-0.6,0.5-1.3c0.3-0.5,0.6-0.9,1-1.3c0.6-0.6,0.9-1,1.5-1.2c0.2-0.1,1-0.4,2-0.2
	c0.8,0.2,1.3,0.6,1.5,0.7c0.5,0.4,0.6,0.7,0.9,0.7c0.3-0.1,0.2-0.8,0.5-1.7c0.3-0.8,0.8-1.3,1.5-2c0.2-0.2,0.9-0.9,2.1-1.5
	c0.7-0.4,1.4-0.8,2.4-1c1.2-0.3,2.2-0.1,2.9,0c0.5,0.1,1.3,0.2,2.2,0.7c0.9,0.5,1.5,1,2,1.5c0.8,0.7,1.2,1.2,1.5,2
	c0.3,0.8,0.3,1.4,0.3,1.9c0,1.5-0.4,2.1-0.1,2.5c0.3,0.3,0.8,0.2,1.6,0.2c1.1-0.1,2.3,0.1,3.4,0c1.1-0.1,2.8-0.1,4.9,0">
	<set  fill="freeze" attributeType="CSS" attributeName="visibility" id="show10" begin="1.8s; hide10.end" to="visible" dur="0.2s" restart="always">
	</set>

	<set  fill="freeze" attributeType="CSS" attributeName="visibility" id="hide10" begin="show10.end" to="hidden" dur="3.4" restart="always">
	</set>


</path>
</g>











<path fill="none" stroke="#575C71" stroke-miterlimit="10" d="M111,185.8c0.9,0,1.6,0,2.1,0c0.9,0,1.2,0,1.7,0c0.6,0,1,0.1,1.7,0.1
	c1.5,0.1,1.7,0.2,2,0c0.5-0.4,0.1-1,0.6-1.6c0.3-0.4,0.8-0.5,1.6-0.8c0.6-0.2,0.9-0.3,1.3-0.2c0.8,0.1,1,0.6,1.4,0.5
	c0.4-0.2,0.2-0.9,0.6-2.2c0.1-0.4,0.4-1.3,1-2.2c0.8-1,1.7-1.4,2.1-1.6c1-0.5,1.8-0.5,2.8-0.6c1.2-0.1,1.9-0.1,2.7,0.2
	c0.8,0.3,1.2,0.9,1.9,1.6c0.5,0.6,0.9,1,1.2,1.7c0.5,1.2,0.2,2,0.6,2.2c0.4,0.2,0.8-0.5,1.9-0.9c1.1-0.4,2.1-0.3,3.1-0.2
	c0.9,0.1,1.7,0.2,2.6,0.7c0.3,0.2,0.9,0.6,1.4,1.3c0.6,1,0.3,1.7,0.9,2.1c0.3,0.2,0.4,0.1,1.5,0c0,0,0.8-0.1,2.2-0.1
	c0.6,0,1.5,0,2.6,0.1">
	<set  fill="freeze" attributeType="CSS" attributeName="visibility" id="show21" begin="0s; hide21.end" to="visible" dur="0.2s" restart="always">
	</set>

	<set  fill="freeze" attributeType="CSS" attributeName="visibility" id="hide21" begin="show21.end" to="hidden" dur="3.4" restart="always">
	</set>

	<set  fill="freeze" attributeType="CSS" attributeName="visibility" id="show39" begin="3.6s; hide39.end" to="visible" dur="0.2s" restart="always">
	</set>

	<set  fill="freeze" attributeType="CSS" attributeName="visibility" id="hide39" begin="show39.end" to="hidden" dur="3.4" restart="always">
	</set>

</path>
<g style="visibility:hidden">
<path fill="none" stroke="#575C71" stroke-miterlimit="10" d="M111,185.8c0.5,0,1.3,0,2.2,0c1.6,0,2.4,0,2.9,0.1
	c1.5,0.1,1.9,0.3,2.3,0c0.5-0.4,0.3-0.8,1-1.5c0.6-0.7,1.4-1,1.7-1.1c0.4-0.1,1.1-0.4,1.9-0.2c0.7,0.2,1,0.7,1.2,0.5
	c0.3-0.2-0.3-1.2,0.1-2.3c0.2-0.7,0.7-1.2,1.8-2.1c1-0.9,1.9-1.3,2.2-1.5c0.7-0.4,1.3-0.6,2.2-0.7c1-0.1,1.8,0.2,2.4,0.4
	c1.2,0.4,1.9,1,2.1,1.2c0.5,0.4,1,0.9,1.4,1.7c0.1,0.3,0.2,0.7,0.4,1.5c0.2,1.1,0.2,1.5,0.5,1.5c0.3,0.1,0.5-0.6,1.2-1
	c0.7-0.4,1.5-0.4,2.7-0.2c1,0.1,1.9,0.2,2.8,0.8c0.3,0.2,1.1,0.7,1.5,1.5c0.4,0.7,0.3,1.2,0.8,1.5c0.5,0.3,1.2,0.1,1.6-0.1
	c0.9-0.3,2.3-0.5,4.3-0.1">
	<set  fill="freeze" attributeType="CSS" attributeName="visibility" id="show22" begin="0.2s; hide22.end" to="visible" dur="0.2s" restart="always">
	</set>

	<set  fill="freeze" attributeType="CSS" attributeName="visibility" id="hide22" begin="show22.end" to="hidden" dur="3.4" restart="always">
	</set>

	<set  fill="freeze" attributeType="CSS" attributeName="visibility" id="show38" begin="3.4s; hide38.end" to="visible" dur="0.2s" restart="always">
	</set>

	<set  fill="freeze" attributeType="CSS" attributeName="visibility" id="hide38" begin="show38.end" to="hidden" dur="3.4" restart="always">
	</set>

</path>
<path fill="none" stroke="#575C71" stroke-miterlimit="10" d="M111,185.8c0.6,0.1,1.2,0.1,1.9,0.1c1.1,0,1.2,0,2.2,0
	c0.6,0,0.8,0.1,1.9,0.1c1.2,0.1,1.4,0,1.6-0.1c0.5-0.3,0.2-0.8,0.7-1.5c0.4-0.6,1-0.8,1.5-1c0.5-0.2,1.2-0.5,2-0.3
	c0.9,0.2,1.3,0.8,1.6,0.7c0.4-0.2,0-1.1,0.3-2.4c0.3-1.4,1.3-2.2,1.7-2.7c0.3-0.3,1.2-1.1,2.6-1.5c0.8-0.3,1.5-0.2,2.2-0.2
	c0.9,0,1.9,0,3.1,0.6c0.5,0.2,1.4,0.7,2.1,1.6c0.6,0.8,0.7,1.6,0.8,2c0.3,1.4-0.1,2.2,0.2,2.4c0.3,0.1,0.6-0.3,1.5-0.7
	c0.4-0.2,1.2-0.4,2.2-0.3c0.8,0.1,1.3,0.3,2.1,0.7c0.8,0.4,1.3,0.6,1.6,1c0.6,0.7,0.4,1.2,0.9,1.5c0.4,0.2,0.6,0.1,1.6,0
	c0,0,0,0,1.7,0c1,0,2,0,3,0">
	<set  fill="freeze" attributeType="CSS" attributeName="visibility" id="show23" begin="0.4s; hide23.end" to="visible" dur="0.2s" restart="always">
	</set>

	<set  fill="freeze" attributeType="CSS" attributeName="visibility" id="hide23" begin="show23.end" to="hidden" dur="3.4" restart="always">
	</set>

	<set  fill="freeze" attributeType="CSS" attributeName="visibility" id="show37" begin="3.2s; hide37.end" to="visible" dur="0.2s" restart="always">
	</set>

	<set  fill="freeze" attributeType="CSS" attributeName="visibility" id="hide37" begin="show37.end" to="hidden" dur="3.4" restart="always">
	</set>

</path>
<path fill="none" stroke="#575C71" stroke-miterlimit="10" d="M111,185.9c0.8,0,1.6,0,2.5,0c0.7,0,1.3,0,2,0c0.6,0,1.2,0,1.9,0
	c1.2,0,1.3,0.1,1.5,0c0.6-0.4,0.3-1.2,0.9-2c0.6-0.7,1.7-0.9,2.3-0.9c0,0,0.2,0,1.9,0c0.6,0.7,0.8,0.8,0.9,0.7c0.3-0.1,0-0.9,0.2-2
	c0-0.1,0.2-0.8,0.6-1.5c0.5-0.8,1.1-1.2,1.8-1.7c0.4-0.3,0.8-0.6,1.5-0.9c0.9-0.4,1.7-0.5,2.2-0.5c0.6-0.1,1.2-0.1,2,0
	c0.2,0,1.1,0.2,2.1,0.9c0.2,0.1,1,0.7,1.8,1.8c0.2,0.3,0.6,0.8,0.8,1.5c0.4,1.3,0,2.1,0.4,2.3c0.3,0.2,0.7-0.3,1.8-0.5
	c1.1-0.2,2-0.1,2.5,0.1c1.1,0.3,1.7,0.9,1.9,1c0.5,0.4,0.8,0.9,0.8,0.9c0.4,0.6,0.4,0.9,0.8,1.1c0.3,0.1,0.5,0,1.2-0.1
	c0.3-0.1,0.9-0.1,2-0.1c0.4,0,0.5,0,1.7,0c0.6,0,1.1,0,1.5,0">
	<set  fill="freeze" attributeType="CSS" attributeName="visibility" id="show24" begin="0.6s; hide24.end" to="visible" dur="0.2s" restart="always">
	</set>

	<set  fill="freeze" attributeType="CSS" attributeName="visibility" id="hide24" begin="show24.end" to="hidden" dur="3.4" restart="always">
	</set>

	<set  fill="freeze" attributeType="CSS" attributeName="visibility" id="show36" begin="3s; hide36.end" to="visible" dur="0.2s" restart="always">
	</set>

	<set  fill="freeze" attributeType="CSS" attributeName="visibility" id="hide36" begin="show36.end" to="hidden" dur="3.4" restart="always">
	</set>

</path>
<path fill="none" stroke="#575C71" stroke-miterlimit="10" d="M111.1,185.8c1.3,0.1,2.4,0.1,3.1,0.1c0,0,0,0,2.6,0
	c0.9,0,1.4,0,1.4,0c0.8,0,1,0.1,1.2,0c0.4-0.3,0-1,0.5-1.7c0.2-0.4,0.7-0.6,1.7-1c1.1-0.5,1.6-0.7,2.2-0.6c0.9,0.2,1.3,1.1,1.6,0.9
	c0.4-0.2-0.1-1.2,0.3-2.4c0.3-0.6,0.7-1,1.6-1.9c0.7-0.7,1.3-1.1,2.1-1.5c1-0.5,1.8-0.5,3-0.6c1.4-0.1,2.1-0.1,3,0.2
	c1.1,0.5,1.8,1.3,2.1,1.6c0.5,0.7,0.8,1.5,0.9,2.1c0.5,1.7,0.1,2.6,0.7,2.9c0.3,0.2,0.5-0.1,1.6-0.2c0.7-0.1,1.5-0.2,2.4,0.1
	c0.3,0.1,1.1,0.4,1.6,1c0.5,0.6,0.4,1,0.8,1.3c0.4,0.3,0.8,0,1.9-0.1c0.4-0.1,0.4,0,2.3,0c0.5,0,1.3,0,2.3,0">
	<set  fill="freeze" attributeType="CSS" attributeName="visibility" id="show25" begin="0.8s; hide25.end" to="visible" dur="0.2s" restart="always">
	</set>

	<set  fill="freeze" attributeType="CSS" attributeName="visibility" id="hide25" begin="show25.end" to="hidden" dur="3.4" restart="always">
	</set>

	<set  fill="freeze" attributeType="CSS" attributeName="visibility" id="show35" begin="2.8s; hide35.end" to="visible" dur="0.2s" restart="always">
	</set>

	<set  fill="freeze" attributeType="CSS" attributeName="visibility" id="hide35" begin="show35.end" to="hidden" dur="3.4" restart="always">
	</set>

</path>
<path fill="none" stroke="#575C71" stroke-miterlimit="10" d="M111,185.8c0.9,0,1.8,0,2.7,0c0.8,0,1.6,0,2.4,0c0.7,0,1.3-0.1,2,0
	c0.5,0.1,0.8,0.1,1-0.1c0.3-0.2,0.1-0.5,0.3-1.1c0.2-0.5,0.5-0.9,0.7-1.1c0.7-0.7,1.5-0.9,1.9-1c0.5-0.1,1-0.2,1.6-0.1
	c0.9,0.3,1.3,1.1,1.6,0.9c0.2-0.1,0.1-0.5,0.3-1.2c0.1-0.2,0.2-0.6,1-1.7c0.8-1,1.2-1.6,1.6-1.9c0.8-0.7,1.5-0.9,2.7-1.3
	c1.3-0.4,1.9-0.7,2.9-0.6c1,0.1,1.8,0.5,2.4,0.8c0.5,0.3,1.1,0.6,1.7,1.3c0.7,0.8,1,1.5,1.2,2.2c0.4,1,0.6,1.8,0.5,2.7
	c-0.1,0.5-0.2,0.8,0,1c0.2,0.2,0.6-0.2,1.4-0.4c0.3-0.1,1-0.3,1.9-0.1c0.3,0,0.9,0.2,1.5,0.7c0.5,0.4,0.5,0.7,0.8,1
	c0.7,0.5,1.7,0.1,2.4-0.1c1-0.3,2.5-0.5,4.6-0.2">
	<set  fill="freeze" attributeType="CSS" attributeName="visibility" id="show26" begin="1.0s; hide26.end" to="visible" dur="0.2s" restart="always">
	</set>

	<set  fill="freeze" attributeType="CSS" attributeName="visibility" id="hide26" begin="show26.end" to="hidden" dur="3.4" restart="always">
	</set>

	<set  fill="freeze" attributeType="CSS" attributeName="visibility" id="show34" begin="2.6s; hide34.end" to="visible" dur="0.2s" restart="always">
	</set>

	<set  fill="freeze" attributeType="CSS" attributeName="visibility" id="hide34" begin="show34.end" to="hidden" dur="3.4" restart="always">
	</set>

</path>
<path fill="none" stroke="#575C71" stroke-miterlimit="10" d="M111,185.8c1,0,2,0,3,0c2,0,2.9,0,2.9,0c1.5,0.1,2.1,0.4,2.5,0
	c0.3-0.4-0.1-0.8,0.2-1.5c0.2-0.6,0.7-0.9,1.2-1.2c0.3-0.2,1.1-0.6,2.1-0.7c0.5,0,1.1-0.1,1.7,0.2c0.6,0.3,0.7,0.8,1,0.7
	c0.3-0.1,0.3-0.8,0.6-1.7c0.3-0.9,0.7-1.5,1.1-1.9c0.3-0.4,1-1.3,2.2-2c1.3-0.7,2.5-0.8,3.2-0.9c0.9-0.1,2.4-0.1,4,0.8
	c1.5,0.8,2.2,2.1,2.4,2.5c0.3,0.6,0.9,1.7,0.9,3.1c0,0.7-0.2,1.4,0.2,1.5c0.2,0.1,0.5-0.2,1.2-0.3c1-0.2,1.9,0.1,2.2,0.2
	c0.9,0.4,0.8,0.8,1.6,1.1c0.3,0.1,0.5,0.1,2.1,0.2c1,0,1.6,0,2.9,0c0.9,0,1.6,0,2,0">
	<set  fill="freeze" attributeType="CSS" attributeName="visibility" id="show27" begin="1.2s; hide27.end" to="visible" dur="0.2s" restart="always">
	</set>

	<set  fill="freeze" attributeType="CSS" attributeName="visibility" id="hide27" begin="show27.end" to="hidden" dur="3.4" restart="always">
	</set>

	<set  fill="freeze" attributeType="CSS" attributeName="visibility" id="show33" begin="2.4s; hide33.end" to="visible" dur="0.2s" restart="always">
	</set>

	<set  fill="freeze" attributeType="CSS" attributeName="visibility" id="hide33" begin="show33.end" to="hidden" dur="3.4" restart="always">
	</set>

</path>
<path fill="none" stroke="#575C71" stroke-miterlimit="10" d="M111,185.9c0.9,0,1.9,0,2.8,0c0.9,0,1.8-0.1,2.7,0
	c1.4,0.1,1.9,0.3,2.3,0c0.4-0.3,0.2-0.7,0.7-1.5c0.5-0.9,1.3-1.3,1.5-1.5c0.8-0.5,1.6-0.5,1.9-0.5c0.4,0,0.9,0,1.5,0.2
	c0.9,0.4,1.1,1.1,1.4,1c0.3-0.1,0.1-0.8,0.5-1.9c0.3-0.8,0.7-1.3,1.3-2c0.3-0.4,0.9-1,1.8-1.6c0.4-0.3,1.2-0.8,2.4-1.1
	c1.3-0.3,2.3-0.2,3-0.1c0.9,0.1,1.9,0.3,3,0.9c0.4,0.2,1.5,0.9,2.2,2.3c0.5,0.9,0.5,1.9,0.5,2.2c0.1,1.4-0.4,2.2,0.1,2.6
	c0.3,0.2,0.4-0.1,1.3,0c0.7,0,2.8,0.8,2.1,0.5c0.1,0.2,0.4,0.5,0.8,0.6c0.5,0.3,0.9,0.1,1.5,0c0.8-0.1,1.5-0.1,2.3-0.2
	c0.7,0,1.6-0.1,2.8-0.1">
	<set  fill="freeze" attributeType="CSS" attributeName="visibility" id="show28" begin="1.4s; hide28.end" to="visible" dur="0.2s" restart="always">
	</set>

	<set  fill="freeze" attributeType="CSS" attributeName="visibility" id="hide28" begin="show28.end" to="hidden" dur="3.4" restart="always">
	</set>

	<set  fill="freeze" attributeType="CSS" attributeName="visibility" id="show32" begin="2.2s; hide32.end" to="visible" dur="0.2s" restart="always">
	</set>

	<set  fill="freeze" attributeType="CSS" attributeName="visibility" id="hide32" begin="show32.end" to="hidden" dur="3.4" restart="always">
	</set>

</path>
<path fill="none" stroke="#575C71" stroke-miterlimit="10" d="M111,185.9c1.1-0.1,2.1-0.1,2.7-0.2c0.1,0,0.1,0,2.6,0
	c1.5,0,1.5,0,1.5,0c1,0.1,1.3,0.2,1.5,0c0.3-0.3-0.2-0.9,0.1-1.7c0.2-0.5,0.6-0.8,1.4-1.3c0.5-0.4,1-0.7,1.7-0.9
	c0.5-0.1,1.5-0.4,2.3,0.1c0.9,0.5,1.1,1.4,1.4,1.3c0.2-0.1,0.1-0.6,0.3-1.3c0.2-0.7,0.5-1.1,1-1.9c0.4-0.6,0.8-1.2,1.5-1.8
	c1-0.8,2-1.1,2.5-1.3c0.3-0.1,1.6-0.5,3.3-0.4c1.1,0.1,2.3,0.1,3.5,0.9c1.3,0.8,1.8,2,2.2,2.7c0.3,0.6,0.7,1.5,0.8,2.7
	c0.1,1.1-0.2,1.9,0.2,2.2c0.2,0.2,0.4,0,1,0.2c0.6,0.2,0.7,0.4,1.2,0.5c0.5,0.2,1,0.1,1.4,0c1-0.2,2-0.1,2.9-0.2
	c0.9-0.1,2.2-0.1,3.9,0">
	<set  fill="freeze" attributeType="CSS" attributeName="visibility" id="show29" begin="1.6s; hide29.end" to="visible" dur="0.2s" restart="always">
	</set>

	<set  fill="freeze" attributeType="CSS" attributeName="visibility" id="hide29" begin="show29.end" to="hidden" dur="3.4" restart="always">
	</set>

	<set  fill="freeze" attributeType="CSS" attributeName="visibility" id="show31" begin="2s; hide31.end" to="visible" dur="0.2s" restart="always">
	</set>

	<set  fill="freeze" attributeType="CSS" attributeName="visibility" id="hide31" begin="show31.end" to="hidden" dur="3.4" restart="always">
	</set>


</path>
<path fill="none" stroke="#575C71" stroke-miterlimit="10" d="M111,185.8c1.4,0.1,2.5,0.1,3.3,0.2c2.2,0,2-0.1,2.9,0
	c0.9,0.1,1.5,0.3,1.9,0c0.3-0.3,0.2-0.6,0.5-1.3c0.3-0.5,0.6-0.9,1-1.3c0.6-0.6,0.9-1,1.5-1.2c0.2-0.1,1-0.4,2-0.2
	c0.8,0.2,1.3,0.6,1.5,0.7c0.5,0.4,0.6,0.7,0.9,0.7c0.3-0.1,0.2-0.8,0.5-1.7c0.3-0.8,0.8-1.3,1.5-2c0.2-0.2,0.9-0.9,2.1-1.5
	c0.7-0.4,1.4-0.8,2.4-1c1.2-0.3,2.2-0.1,2.9,0c0.5,0.1,1.3,0.2,2.2,0.7c0.9,0.5,1.5,1,2,1.5c0.8,0.7,1.2,1.2,1.5,2
	c0.3,0.8,0.3,1.4,0.3,1.9c0,1.5-0.4,2.1-0.1,2.5c0.3,0.3,0.8,0.2,1.6,0.2c1.1-0.1,2.3,0.1,3.4,0c1.1-0.1,2.8-0.1,4.9,0">
	<set  fill="freeze" attributeType="CSS" attributeName="visibility" id="show30" begin="1.8s; hide30.end" to="visible" dur="0.2s" restart="always">
	</set>

	<set  fill="freeze" attributeType="CSS" attributeName="visibility" id="hide30" begin="show30.end" to="hidden" dur="3.4" restart="always">
	</set>


</path>
</g>













<path fill="none" stroke="#575C71" stroke-miterlimit="10" d="M377.8,225.7c0.9,0,1.6,0,2.1,0c0.9,0,1.2,0,1.7,0
	c0.6,0,1,0.1,1.7,0.1c1.5,0.1,1.7,0.2,2,0c0.5-0.4,0.1-1,0.6-1.6c0.3-0.4,0.8-0.5,1.6-0.8c0.6-0.2,0.9-0.3,1.3-0.2
	c0.8,0.1,1,0.6,1.4,0.5c0.4-0.2,0.2-0.9,0.6-2.2c0.1-0.4,0.4-1.3,1-2.2c0.8-1,1.7-1.4,2.1-1.6c1-0.5,1.8-0.5,2.8-0.6
	c1.2-0.1,1.9-0.1,2.7,0.2c0.8,0.3,1.2,0.9,1.9,1.6c0.5,0.6,0.9,1,1.2,1.7c0.5,1.2,0.2,2,0.6,2.2c0.4,0.2,0.8-0.5,1.9-0.9
	c1.1-0.4,2.1-0.3,3.1-0.2c0.9,0.1,1.7,0.2,2.6,0.7c0.3,0.2,0.9,0.6,1.4,1.3c0.6,1,0.3,1.7,0.9,2.1c0.3,0.2,0.4,0.1,1.5,0
	c0,0,0.8-0.1,2.2-0.1c0.6,0,1.5,0,2.6,0.1">
	<set  fill="freeze" attributeType="CSS" attributeName="visibility" id="show101" begin="0.1s; hide101.end" to="visible" dur="0.2s" restart="always">
	</set>

	<set  fill="freeze" attributeType="CSS" attributeName="visibility" id="hide101" begin="show101.end" to="hidden" dur="3.4" restart="always">
	</set>

	<set  fill="freeze" attributeType="CSS" attributeName="visibility" id="show99" begin="3.7s; hide99.end" to="visible" dur="0.2s" restart="always">
	</set>

	<set  fill="freeze" attributeType="CSS" attributeName="visibility" id="hide99" begin="show99.end" to="hidden" dur="3.4" restart="always">
	</set>

</path>
<g style="visibility:hidden">
<path fill="none" stroke="#575C71" stroke-miterlimit="10" d="M377.8,225.7c0.5,0,1.3,0,2.2,0c1.6,0,2.4,0,2.9,0.1
	c1.5,0.1,1.9,0.3,2.3,0c0.5-0.4,0.3-0.8,1-1.5c0.6-0.7,1.4-1,1.7-1.1c0.4-0.1,1.1-0.4,1.9-0.2c0.7,0.2,1,0.7,1.2,0.5
	c0.3-0.2-0.3-1.2,0.1-2.3c0.2-0.7,0.7-1.2,1.8-2.1c1-0.9,1.9-1.3,2.2-1.5c0.7-0.4,1.3-0.6,2.2-0.7c1-0.1,1.8,0.2,2.4,0.4
	c1.2,0.4,1.9,1,2.1,1.2c0.5,0.4,1,0.9,1.4,1.7c0.1,0.3,0.2,0.7,0.4,1.5c0.2,1.1,0.2,1.5,0.5,1.5c0.3,0.1,0.5-0.6,1.2-1
	c0.7-0.4,1.5-0.4,2.7-0.2c1,0.1,1.9,0.2,2.8,0.8c0.3,0.2,1.1,0.7,1.5,1.5c0.4,0.7,0.3,1.2,0.8,1.5c0.5,0.3,1.2,0.1,1.6-0.1
	c0.9-0.3,2.3-0.5,4.3-0.1">
	<set  fill="freeze" attributeType="CSS" attributeName="visibility" id="show102" begin="0.3s; hide102.end" to="visible" dur="0.2s" restart="always">
	</set>

	<set  fill="freeze" attributeType="CSS" attributeName="visibility" id="hide102" begin="show102.end" to="hidden" dur="3.4" restart="always">
	</set>

	<set  fill="freeze" attributeType="CSS" attributeName="visibility" id="show98" begin="3.5s; hide98.end" to="visible" dur="0.2s" restart="always">
	</set>

	<set  fill="freeze" attributeType="CSS" attributeName="visibility" id="hide98" begin="show98.end" to="hidden" dur="3.4" restart="always">
	</set>

</path>
<path fill="none" stroke="#575C71" stroke-miterlimit="10" d="M377.8,225.6c0.6,0.1,1.2,0.1,1.9,0.1c1.1,0,1.2,0,2.2,0
	c0.6,0,0.8,0.1,1.9,0.1c1.2,0.1,1.4,0,1.6-0.1c0.5-0.3,0.2-0.8,0.7-1.5c0.4-0.6,1-0.8,1.5-1c0.5-0.2,1.2-0.5,2-0.3
	c0.9,0.2,1.3,0.8,1.6,0.7c0.4-0.2,0-1.1,0.3-2.4c0.3-1.4,1.3-2.2,1.7-2.7c0.3-0.3,1.2-1.1,2.6-1.5c0.8-0.3,1.5-0.2,2.2-0.2
	c0.9,0,1.9,0,3.1,0.6c0.5,0.2,1.4,0.7,2.1,1.6c0.6,0.8,0.7,1.6,0.8,2c0.3,1.4-0.1,2.2,0.2,2.4c0.3,0.1,0.6-0.3,1.5-0.7
	c0.4-0.2,1.2-0.4,2.2-0.3c0.8,0.1,1.3,0.3,2.1,0.7c0.8,0.4,1.3,0.6,1.6,1c0.6,0.7,0.4,1.2,0.9,1.5c0.4,0.2,0.6,0.1,1.6,0
	c0,0,0,0,1.7,0c1,0,2,0,3,0">
	<set  fill="freeze" attributeType="CSS" attributeName="visibility" id="show103" begin="0.5s; hide103.end" to="visible" dur="0.2s" restart="always">
	</set>

	<set  fill="freeze" attributeType="CSS" attributeName="visibility" id="hide103" begin="show103.end" to="hidden" dur="3.4" restart="always">
	</set>

	<set  fill="freeze" attributeType="CSS" attributeName="visibility" id="show97" begin="3.3s; hide97.end" to="visible" dur="0.2s" restart="always">
	</set>

	<set  fill="freeze" attributeType="CSS" attributeName="visibility" id="hide97" begin="show97.end" to="hidden" dur="3.4" restart="always">
	</set>

</path>
<path fill="none" stroke="#575C71" stroke-miterlimit="10" d="M377.8,225.7c0.8,0,1.6,0,2.5,0c0.7,0,1.3,0,2,0c0.6,0,1.2,0,1.9,0
	c1.2,0,1.3,0.1,1.5,0c0.6-0.4,0.3-1.2,0.9-2c0.6-0.7,1.7-0.9,2.3-0.9c0,0,0.2,0,1.9,0c0.6,0.7,0.8,0.8,0.9,0.7c0.3-0.1,0-0.9,0.2-2
	c0-0.1,0.2-0.8,0.6-1.5c0.5-0.8,1.1-1.2,1.8-1.7c0.4-0.3,0.8-0.6,1.5-0.9c0.9-0.4,1.7-0.5,2.2-0.5c0.6-0.1,1.2-0.1,2,0
	c0.2,0,1.1,0.2,2.1,0.9c0.2,0.1,1,0.7,1.8,1.8c0.2,0.3,0.6,0.8,0.8,1.5c0.4,1.3,0,2.1,0.4,2.3c0.3,0.2,0.7-0.3,1.8-0.5
	c1.1-0.2,2-0.1,2.5,0.1c1.1,0.3,1.7,0.9,1.9,1c0.5,0.4,0.8,0.9,0.8,0.9c0.4,0.6,0.4,0.9,0.8,1.1c0.3,0.1,0.5,0,1.2-0.1
	c0.3-0.1,0.9-0.1,2-0.1c0.4,0,0.5,0,1.7,0c0.6,0,1.1,0,1.5,0">
	<set  fill="freeze" attributeType="CSS" attributeName="visibility" id="show104" begin="0.7s; hide104.end" to="visible" dur="0.2s" restart="always">
	</set>

	<set  fill="freeze" attributeType="CSS" attributeName="visibility" id="hide104" begin="show104.end" to="hidden" dur="3.4" restart="always">
	</set>

	<set  fill="freeze" attributeType="CSS" attributeName="visibility" id="show96" begin="3.1s; hide96.end" to="visible" dur="0.2s" restart="always">
	</set>

	<set  fill="freeze" attributeType="CSS" attributeName="visibility" id="hide96" begin="show96.end" to="hidden" dur="3.4" restart="always">
	</set>

</path>
<path fill="none" stroke="#575C71" stroke-miterlimit="10" d="M377.9,225.7c1.3,0.1,2.4,0.1,3.1,0.1c0,0,0,0,2.6,0
	c0.9,0,1.4,0,1.4,0c0.8,0,1,0.1,1.2,0c0.4-0.3,0-1,0.5-1.7c0.2-0.4,0.7-0.6,1.7-1c1.1-0.5,1.6-0.7,2.2-0.6c0.9,0.2,1.3,1.1,1.6,0.9
	c0.4-0.2-0.1-1.2,0.3-2.4c0.3-0.6,0.7-1,1.6-1.9c0.7-0.7,1.3-1.1,2.1-1.5c1-0.5,1.8-0.5,3-0.6c1.4-0.1,2.1-0.1,3,0.2
	c1.1,0.5,1.8,1.3,2.1,1.6c0.5,0.7,0.8,1.5,0.9,2.1c0.5,1.7,0.1,2.6,0.7,2.9c0.3,0.2,0.5-0.1,1.6-0.2c0.7-0.1,1.5-0.2,2.4,0.1
	c0.3,0.1,1.1,0.4,1.6,1c0.5,0.6,0.4,1,0.8,1.3c0.4,0.3,0.8,0,1.9-0.1c0.4-0.1,0.4,0,2.3,0c0.5,0,1.3,0,2.3,0">
	<set  fill="freeze" attributeType="CSS" attributeName="visibility" id="show105" begin="0.9s; hide105.end" to="visible" dur="0.2s" restart="always">
	</set>

	<set  fill="freeze" attributeType="CSS" attributeName="visibility" id="hide105" begin="show105.end" to="hidden" dur="3.4" restart="always">
	</set>

	<set  fill="freeze" attributeType="CSS" attributeName="visibility" id="show95" begin="2.9s; hide95.end" to="visible" dur="0.2s" restart="always">
	</set>

	<set  fill="freeze" attributeType="CSS" attributeName="visibility" id="hide95" begin="show95.end" to="hidden" dur="3.4" restart="always">
	</set>

</path>
<path fill="none" stroke="#575C71" stroke-miterlimit="10" d="M377.8,225.6c0.9,0,1.8,0,2.7,0c0.8,0,1.6,0,2.4,0c0.7,0,1.3-0.1,2,0
	c0.5,0.1,0.8,0.1,1-0.1c0.3-0.2,0.1-0.5,0.3-1.1c0.2-0.5,0.5-0.9,0.7-1.1c0.7-0.7,1.5-0.9,1.9-1c0.5-0.1,1-0.2,1.6-0.1
	c0.9,0.3,1.3,1.1,1.6,0.9c0.2-0.1,0.1-0.5,0.3-1.2c0.1-0.2,0.2-0.6,1-1.7c0.8-1,1.2-1.6,1.6-1.9c0.8-0.7,1.5-0.9,2.7-1.3
	c1.3-0.4,1.9-0.7,2.9-0.6c1,0.1,1.8,0.5,2.4,0.8c0.5,0.3,1.1,0.6,1.7,1.3c0.7,0.8,1,1.5,1.2,2.2c0.4,1,0.6,1.8,0.5,2.7
	c-0.1,0.5-0.2,0.8,0,1c0.2,0.2,0.6-0.2,1.4-0.4c0.3-0.1,1-0.3,1.9-0.1c0.3,0,0.9,0.2,1.5,0.7c0.5,0.4,0.5,0.7,0.8,1
	c0.7,0.5,1.7,0.1,2.4-0.1c1-0.3,2.5-0.5,4.6-0.2">
	<set  fill="freeze" attributeType="CSS" attributeName="visibility" id="show106" begin="1.1s; hide106.end" to="visible" dur="0.2s" restart="always">
	</set>

	<set  fill="freeze" attributeType="CSS" attributeName="visibility" id="hide106" begin="show106.end" to="hidden" dur="3.4" restart="always">
	</set>

	<set  fill="freeze" attributeType="CSS" attributeName="visibility" id="show94" begin="2.7s; hide94.end" to="visible" dur="0.2s" restart="always">
	</set>

	<set  fill="freeze" attributeType="CSS" attributeName="visibility" id="hide94" begin="show94.end" to="hidden" dur="3.4" restart="always">
	</set>

</path>
<path fill="none" stroke="#575C71" stroke-miterlimit="10" d="M377.8,225.7c1,0,2,0,3,0c2,0,2.9,0,2.9,0c1.5,0.1,2.1,0.4,2.5,0
	c0.3-0.4-0.1-0.8,0.2-1.5c0.2-0.6,0.7-0.9,1.2-1.2c0.3-0.2,1.1-0.6,2.1-0.7c0.5,0,1.1-0.1,1.7,0.2c0.6,0.3,0.7,0.8,1,0.7
	c0.3-0.1,0.3-0.8,0.6-1.7c0.3-0.9,0.7-1.5,1.1-1.9c0.3-0.4,1-1.3,2.2-2c1.3-0.7,2.5-0.8,3.2-0.9c0.9-0.1,2.4-0.1,4,0.8
	c1.5,0.8,2.2,2.1,2.4,2.5c0.3,0.6,0.9,1.7,0.9,3.1c0,0.7-0.2,1.4,0.2,1.5c0.2,0.1,0.5-0.2,1.2-0.3c1-0.2,1.9,0.1,2.2,0.2
	c0.9,0.4,0.8,0.8,1.6,1.1c0.3,0.1,0.5,0.1,2.1,0.2c1,0,1.6,0,2.9,0c0.9,0,1.6,0,2,0">
	<set  fill="freeze" attributeType="CSS" attributeName="visibility" id="show107" begin="1.3s; hide107.end" to="visible" dur="0.2s" restart="always">
	</set>

	<set  fill="freeze" attributeType="CSS" attributeName="visibility" id="hide107" begin="show107.end" to="hidden" dur="3.4" restart="always">
	</set>

	<set  fill="freeze" attributeType="CSS" attributeName="visibility" id="show93" begin="2.5s; hide93.end" to="visible" dur="0.2s" restart="always">
	</set>

	<set  fill="freeze" attributeType="CSS" attributeName="visibility" id="hide93" begin="show93.end" to="hidden" dur="3.4" restart="always">
	</set>

</path>
<path fill="none" stroke="#575C71" stroke-miterlimit="10" d="M377.8,225.8c0.9,0,1.9,0,2.8,0c0.9,0,1.8-0.1,2.7,0
	c1.4,0.1,1.9,0.3,2.3,0c0.4-0.3,0.2-0.7,0.7-1.5c0.5-0.9,1.3-1.3,1.5-1.5c0.8-0.5,1.6-0.5,1.9-0.5c0.4,0,0.9,0,1.5,0.2
	c0.9,0.4,1.1,1.1,1.4,1c0.3-0.1,0.1-0.8,0.5-1.9c0.3-0.8,0.7-1.3,1.3-2c0.3-0.4,0.9-1,1.8-1.6c0.4-0.3,1.2-0.8,2.4-1.1
	c1.3-0.3,2.3-0.2,3-0.1c0.9,0.1,1.9,0.3,3,0.9c0.4,0.2,1.5,0.9,2.2,2.3c0.5,0.9,0.5,1.9,0.5,2.2c0.1,1.4-0.4,2.2,0.1,2.6
	c0.3,0.2,0.4-0.1,1.3,0c0.7,0,2.8,0.8,2.1,0.5c0.1,0.2,0.4,0.5,0.8,0.6c0.5,0.3,0.9,0.1,1.5,0c0.8-0.1,1.5-0.1,2.3-0.2
	c0.7,0,1.6-0.1,2.8-0.1">
	<set  fill="freeze" attributeType="CSS" attributeName="visibility" id="show108" begin="1.5s; hide108.end" to="visible" dur="0.2s" restart="always">
	</set>

	<set  fill="freeze" attributeType="CSS" attributeName="visibility" id="hide108" begin="show108.end" to="hidden" dur="3.4" restart="always">
	</set>

	<set  fill="freeze" attributeType="CSS" attributeName="visibility" id="show92" begin="2.3s; hide92.end" to="visible" dur="0.2s" restart="always">
	</set>

	<set  fill="freeze" attributeType="CSS" attributeName="visibility" id="hide92" begin="show92.end" to="hidden" dur="3.4" restart="always">
	</set>

</path>
<path fill="none" stroke="#575C71" stroke-miterlimit="10" d="M377.8,225.8c1.1-0.1,2.1-0.1,2.7-0.2c0.1,0,0.1,0,2.6,0
	c1.5,0,1.5,0,1.5,0c1,0.1,1.3,0.2,1.5,0c0.3-0.3-0.2-0.9,0.1-1.7c0.2-0.5,0.6-0.8,1.4-1.3c0.5-0.4,1-0.7,1.7-0.9
	c0.5-0.1,1.5-0.4,2.3,0.1c0.9,0.5,1.1,1.4,1.4,1.3c0.2-0.1,0.1-0.6,0.3-1.3c0.2-0.7,0.5-1.1,1-1.9c0.4-0.6,0.8-1.2,1.5-1.8
	c1-0.8,2-1.1,2.5-1.3c0.3-0.1,1.6-0.5,3.3-0.4c1.1,0.1,2.3,0.1,3.5,0.9c1.3,0.8,1.8,2,2.2,2.7c0.3,0.6,0.7,1.5,0.8,2.7
	c0.1,1.1-0.2,1.9,0.2,2.2c0.2,0.2,0.4,0,1,0.2c0.6,0.2,0.7,0.4,1.2,0.5c0.5,0.2,1,0.1,1.4,0c1-0.2,2-0.1,2.9-0.2
	c0.9-0.1,2.2-0.1,3.9,0">
	<set  fill="freeze" attributeType="CSS" attributeName="visibility" id="show109" begin="1.7s; hide109.end" to="visible" dur="0.2s" restart="always">
	</set>

	<set  fill="freeze" attributeType="CSS" attributeName="visibility" id="hide109" begin="show109.end" to="hidden" dur="3.4" restart="always">
	</set>

	<set  fill="freeze" attributeType="CSS" attributeName="visibility" id="show91" begin="2.1s; hide91.end" to="visible" dur="0.2s" restart="always">
	</set>

	<set  fill="freeze" attributeType="CSS" attributeName="visibility" id="hide91" begin="show91.end" to="hidden" dur="3.4" restart="always">
	</set>


</path>
<path fill="none" stroke="#575C71" stroke-miterlimit="10" d="M377.8,225.7c1.4,0.1,2.5,0.1,3.3,0.2c2.2,0,2-0.1,2.9,0
	c0.9,0.1,1.5,0.3,1.9,0c0.3-0.3,0.2-0.6,0.5-1.3c0.3-0.5,0.6-0.9,1-1.3c0.6-0.6,0.9-1,1.5-1.2c0.2-0.1,1-0.4,2-0.2
	c0.8,0.2,1.3,0.6,1.5,0.7c0.5,0.4,0.6,0.7,0.9,0.7c0.3-0.1,0.2-0.8,0.5-1.7c0.3-0.8,0.8-1.3,1.5-2c0.2-0.2,0.9-0.9,2.1-1.5
	c0.7-0.4,1.4-0.8,2.4-1c1.2-0.3,2.2-0.1,2.9,0c0.5,0.1,1.3,0.2,2.2,0.7c0.9,0.5,1.5,1,2,1.5c0.8,0.7,1.2,1.2,1.5,2
	c0.3,0.8,0.3,1.4,0.3,1.9c0,1.5-0.4,2.1-0.1,2.5c0.3,0.3,0.8,0.2,1.6,0.2c1.1-0.1,2.3,0.1,3.4,0c1.1-0.1,2.8-0.1,4.9,0">
	<set  fill="freeze" attributeType="CSS" attributeName="visibility" id="show90" begin="1.9s; hide90.end" to="visible" dur="0.2s" restart="always">
	</set>

	<set  fill="freeze" attributeType="CSS" attributeName="visibility" id="hide90" begin="show90.end" to="hidden" dur="3.4" restart="always">
	</set>


</path>
</g>
</svg>
