<?xml version="1.0" encoding="utf-8"?>
<!-- Generator: Adobe Illustrator 18.1.1, SVG Export Plug-In . SVG Version: 6.00 Build 0)  -->
<svg version="1.1" id="Layer_1" xmlns="http://www.w3.org/2000/svg" xmlns:xlink="http://www.w3.org/1999/xlink" x="0px" y="0px"
	 viewBox="0 0 512 512" enable-background="new 0 0 512 512" xml:space="preserve">
<g>
	<g>
		<g>
			<g>
				<path fill="#B6DA6E" stroke="#575D72" stroke-width="1.3273" stroke-miterlimit="10" d="M414.7,222.1c-0.6-4-1-8-1.5-12
					c-0.1-0.9,0,0.1-1.5-12.2c-1.1-8.6-1-8.3-1.1-9.1c-1.1-9-1.6-13.5-1.6-14.5c0,0-0.2-5.8-2.1-11.8c-0.2-0.5-0.6-1.7-1.6-2.5
					c-1.6-1.1-3.8-0.6-4.7-0.4c-3.7,0.8-7.6,0-11.3,0.4c-16.3,1.8-16.3,1.2-31.5,3.4c-12.3,1.8-10.8,2-19.2,3
					c-10,1.2-11.5,0.9-20.2,1.7c-1.3,8.6-1.2,17.3-1.4,26.1c-0.2,9.4-1.6,18.6-1.5,28c0.1,7.2-0.4,14.3-0.9,21.4
					c0.2,0,0.3,0,0.5-0.1c18.9-2.6,26.8-3.6,29.9-4c8.4-1.1,12.6-1.6,17.6-2.2c6.4-0.7,7.9-0.8,21.1-2.1c6.3-0.6,12.6-2,18.9-2.3
					c6.7-0.4,10.9-0.2,12.5-2.9C416,228.7,415.5,227.7,414.7,222.1z"/>
				<g>
					<path fill="none" stroke="#575D72" stroke-width="0.6636" stroke-miterlimit="10" d="M317.4,196.2c9.9,0.5,19.3-2.5,29.2-3.2
						c2.5-0.2,5.2,0,7.7-0.5c5.5-1.1,9.2-3.8,15-1.8"/>
					<path fill="none" stroke="#575D72" stroke-width="0.6636" stroke-miterlimit="10" d="M317,207.5c5-1.5,9-0.5,14-0.5
						c2-1,5-2,7-2c7-1,13-2,20-3c6,0,13-1,18.6-2.3"/>
					<path fill="none" stroke="#575D72" stroke-width="0.6636" stroke-miterlimit="10" d="M356,226c2.8,0.7,4.7,0.4,6-0.1
						s2.1-1.1,4-1.5c1.3-0.3,2-0.2,3.3-0.2c3.5-0.1,3.4-0.6,6.8-0.8c3.8-0.2,4.6,0.4,7.1-0.4c1.1-0.3,1.2-0.5,2.2-0.8
						c2.1-0.5,3.3,0,5.4,0c1,0,2.4-0.2,5.1-0.6c1.6-0.3,3.8-0.7,6.4-1.3"/>
					<path fill="none" stroke="#575D72" stroke-width="0.6636" stroke-miterlimit="10" d="M381.3,198.3c0.9,0.4,2.3,1,3.9,0.8
						c3-0.2,4.1-2.2,6.9-2.7c1.3-0.2,3.3-0.2,6,1.4"/>
					<path fill="none" stroke="#575D72" stroke-width="0.6636" stroke-miterlimit="10" d="M384.3,186.2c2.2,0,4.3,0,6.5,0"/>
					<path fill="none" stroke="#575D72" stroke-width="0.6636" stroke-miterlimit="10" d="M394.9,186.1c2.2-0.3,4.5-0.7,6.7-1"/>
					<path fill="none" stroke="#575D72" stroke-width="0.6636" stroke-miterlimit="10" d="M374.1,187.6c0,0.1,0.8,2.3,2.9,2.8
						c0.4,0.1,2,0.4,3.1-0.7c1-1.1,0.7-2.6,0.6-2.9c0-0.1-0.4-1.8-1.8-2.3c-1.6-0.6-2.6,1.1-4,0.5c-1-0.4-1.8-2.1-1.3-3.4
						c0.6-1.3,2.2-1.6,3.3-1.4c1.6,0.3,2.3,1.7,2.4,1.9"/>
					<path fill="none" stroke="#575D72" stroke-width="0.6636" stroke-miterlimit="10" d="M378.2,192c-0.6-4.6-1.1-9.1-1.7-13.7"/>
					<path fill="none" stroke="#575D72" stroke-width="0.6636" stroke-miterlimit="10" d="M317.7,228.2c0.2,0,0.9-0.1,1.6,0.2
						c0.2,0.1,0.8,0.5,1.1,1.1c0.2,0.6,0.1,1.1,0,1.9c-0.2,0.9-0.3,1.5-0.8,1.9c-0.4,0.3-0.9,0.3-1.4,0.3s-1.1,0-1.7-0.5
						s-0.8-1.1-0.9-1.5s-0.3-1.1,0.1-1.9C316.2,228.4,317.5,228.2,317.7,228.2z"/>
					<path fill="none" stroke="#575D72" stroke-width="0.6636" stroke-miterlimit="10" d="M325.5,227.1c0.2,0,0.9-0.1,1.6,0.2
						c0.2,0.1,0.8,0.5,1.1,1.1c0.2,0.6,0.1,1.1,0,1.9c-0.2,0.9-0.3,1.5-0.8,1.9c-0.4,0.3-0.9,0.3-1.4,0.3s-1.1,0-1.7-0.5
						s-0.8-1.1-0.9-1.5s-0.3-1.1,0.1-1.9C324,227.3,325.3,227.1,325.5,227.1z"/>
					<path fill="none" stroke="#575D72" stroke-width="0.6636" stroke-miterlimit="10" d="M333.4,226.1c0.2,0,0.9-0.1,1.6,0.2
						c0.2,0.1,0.8,0.5,1.1,1.1c0.2,0.6,0.1,1.1,0,1.9c-0.2,0.9-0.3,1.5-0.8,1.9c-0.4,0.3-0.9,0.3-1.4,0.3s-1.1,0-1.7-0.5
						s-0.8-1.1-0.9-1.5s-0.3-1.1,0.1-1.9C332,226.3,333.2,226.1,333.4,226.1z"/>
				</g>
			</g>
			<g>
				<path fill="#B6DA6E" stroke="#575D72" stroke-width="1.3273" stroke-miterlimit="10" d="M429,208.6c-0.1-0.5-0.3-1.8-1.3-2.7
					c-1.4-1.4-3.7-1.2-4.6-1.1c-3.8,0.3-7.5-1.1-11.3-1.2c-16.4-0.5-16.3-1.2-31.7-1.1c-12.4,0-11,0.4-19.4,0.3
					c-11.4-0.2-11.8-1-24-1.3c-9.2-0.3-14.8-0.4-20.2-0.2c-0.5,7-1.2,14-1.1,21.1c0.2,17.9-3.3,35.6,0.1,53.4c3.1,0,6.8,0,11.1,0.1
					c19.1,0.1,27,0.2,30.2,0.3c8.4,0.1,12.7,0.2,17.7,0.4c6.4,0.2,7.9,0.4,21.2,0.9c6.4,0.3,12.7-0.1,19.1,0.4
					c6.7,0.6,10.8,1.4,12.8-1.1c1-1.2,0.7-2.3,0.7-8c0-4,0.2-8.1,0.2-12.1c0-0.9,0,0.1,0.2-12.3c0.2-8.7,0.2-8.4,0.2-9.1
					c0.2-9,0.4-13.6,0.5-14.6C429.5,220.6,430.1,214.8,429,208.6z"/>
				<g>
					<path fill="none" stroke="#575D72" stroke-width="0.6636" stroke-miterlimit="10" d="M316.6,212.2c8.3,1.4,16.6-1.3,24.9,0.6"
						/>
					<path fill="none" stroke="#575D72" stroke-width="0.6636" stroke-miterlimit="10" d="M317,206.9c7.8,1.9,15.3-0.9,23,0"/>
					<path fill="none" stroke="#575D72" stroke-width="0.6636" stroke-miterlimit="10" d="M316,229.6c17-0.6,34-0.6,51,1.4
						c7,1,14-3,20.9,0.2"/>
					<path fill="none" stroke="#575D72" stroke-width="0.6636" stroke-miterlimit="10" d="M315.2,241.3C320,241,326,241,331,241
						c20,0,39-1,59,1c1,0,3-1,3.9-0.9"/>
					<path fill="none" stroke="#575D72" stroke-width="0.6636" stroke-miterlimit="10" d="M369.7,264.2c2.7,1.1,4.6,1,6,0.8
						c1.4-0.3,2.2-0.8,4.2-0.9c1.3-0.1,2,0.1,3.3,0.2c3.4,0.4,3.4-0.2,6.8,0.1c3.8,0.3,4.5,1.1,7.1,0.6c1.1-0.2,1.3-0.4,2.3-0.5
						c2.1-0.2,3.2,0.4,5.3,0.8c1,0.2,2.4,0.2,5.1,0.1c1.7,0,3.9-0.1,6.5-0.4"/>
					<path fill="none" stroke="#575D72" stroke-width="0.6636" stroke-miterlimit="10" d="M398.7,240.3c0.8,0.6,2.1,1.3,3.8,1.4
						c3,0.2,4.4-1.6,7.2-1.7c1.4,0,3.3,0.3,5.8,2.3"/>
					<path fill="none" stroke="#575D72" stroke-width="0.6636" stroke-miterlimit="10" d="M403.4,228.8c2.2,0.3,4.3,0.6,6.5,1"/>
					<path fill="none" stroke="#575D72" stroke-width="0.6636" stroke-miterlimit="10" d="M413.8,230.2c2.3,0,4.5,0,6.8,0"/>
					<path fill="none" stroke="#575D72" stroke-width="0.6636" stroke-miterlimit="10" d="M393.1,228.8c0,0.1,0.4,2.4,2.4,3.2
						c0.4,0.1,1.9,0.7,3.2-0.3c1.2-0.9,1.1-2.5,1.1-2.8c0-0.1-0.2-1.8-1.4-2.5c-1.5-0.8-2.8,0.7-4-0.1c-1-0.6-1.5-2.3-0.8-3.5
						s2.4-1.3,3.5-0.9c1.5,0.5,2,2,2.1,2.2"/>
					<path fill="none" stroke="#575D72" stroke-width="0.6636" stroke-miterlimit="10" d="M396.5,233.7c0.1-4.6,0.2-9.2,0.3-13.8"/>
					<path fill="none" stroke="#575D72" stroke-width="0.6636" stroke-miterlimit="10" d="M317.5,260.6c-0.6-0.4-1.3-0.4-1.5-0.4
						s-1.2,0-2,0.8c0,1.3,0.1,2.6,0.2,3.9c0.5,0.4,1,0.5,1.4,0.6c0.5,0.1,1,0.2,1.4-0.1c0.6-0.3,0.8-0.9,1.1-1.7
						c0.3-0.8,0.4-1.2,0.3-1.8C318.2,261.2,317.7,260.7,317.5,260.6z"/>
					<path fill="none" stroke="#575D72" stroke-width="0.6636" stroke-miterlimit="10" d="M323.8,260.3c0.3,0,0.9,0,1.5,0.4
						c0.2,0.1,0.7,0.6,0.9,1.3c0.2,0.6,0,1.1-0.3,1.8c-0.3,0.9-0.5,1.4-1.1,1.7c-0.5,0.2-0.9,0.1-1.4,0.1c-0.5-0.1-1.1-0.2-1.6-0.7
						s-0.6-1.2-0.6-1.6s-0.1-1.2,0.4-1.9C322.3,260.4,323.6,260.3,323.8,260.3z"/>
					<path fill="none" stroke="#575D72" stroke-width="0.6636" stroke-miterlimit="10" d="M331.4,260.8c0.3,0,0.9,0,1.5,0.4
						c0.2,0.1,0.7,0.6,0.9,1.3c0.2,0.6,0,1.1-0.3,1.8c-0.3,0.9-0.5,1.4-1.1,1.7c-0.5,0.2-0.9,0.1-1.4,0.1c-0.5-0.1-1.1-0.2-1.6-0.7
						s-0.6-1.2-0.6-1.6s-0.1-1.2,0.4-1.9C329.9,260.9,331.2,260.8,331.4,260.8z"/>
					<path fill="none" stroke="#575D72" stroke-width="0.6636" stroke-miterlimit="10" d="M339.3,260.8c0.3,0,0.9,0,1.5,0.4
						c0.2,0.1,0.7,0.6,0.9,1.3c0.2,0.6,0,1.1-0.3,1.8c-0.3,0.9-0.5,1.4-1.1,1.7c-0.5,0.2-0.9,0.1-1.4,0.1c-0.5-0.1-1.1-0.2-1.6-0.7
						s-0.6-1.2-0.6-1.6s-0.1-1.2,0.4-1.9C337.8,260.9,339.1,260.9,339.3,260.8z"/>
					<path fill="none" stroke="#575D72" stroke-width="0.6636" stroke-miterlimit="10" d="M347.3,261c0.3,0,0.9,0,1.5,0.4
						c0.2,0.1,0.7,0.6,0.9,1.3c0.2,0.6,0,1.1-0.3,1.8c-0.3,0.9-0.5,1.4-1.1,1.7c-0.5,0.2-0.9,0.1-1.4,0.1c-0.5-0.1-1.1-0.2-1.6-0.7
						s-0.6-1.2-0.6-1.6s-0.1-1.2,0.4-1.9C345.8,261.1,347.1,261,347.3,261z"/>
				</g>
			</g>
			<g>
				<path fill="#B6DA6E" stroke="#575D72" stroke-width="1.3273" stroke-miterlimit="10" d="M409.4,224.7c0-0.5-0.1-1.8-0.9-2.8
					c-1.3-1.5-3.5-1.6-4.5-1.7c-3.8-0.2-7.3-2-11-2.6c-16.2-2.6-16-3.2-31.3-5.1c-12.3-1.5-10.9-0.9-19.3-2.2
					c-11.3-1.7-11.6-2.4-23.7-4.3c-0.9-0.1-1.7-0.3-2.5-0.4c-0.4,5.5-0.9,11.1-0.8,16.6c0.2,18.5-3.6,36.7,0.4,55.2
					c0.2,0.9,0.2,1.7,0,2.5c0,0.2,0,0.5,0,0.8c7.5,1,11.5,1.6,13.5,1.9c8.4,1.2,12.5,1.8,17.6,2.6c6.4,1,7.8,1.3,20.9,3.6
					c6.3,1.1,12.7,1.5,18.9,2.8c6.6,1.4,10.6,2.7,12.8,0.5c1.1-1.1,1-2.2,1.6-7.8c0.5-4,1.2-8,1.8-12c0.1-0.9,0,0.1,1.8-12.1
					c1.3-8.6,1.2-8.3,1.3-9c1.4-8.9,2-13.4,2.3-14.4C408.3,236.6,409.6,230.9,409.4,224.7z"/>
				<g>
					<path fill="none" stroke="#575D72" stroke-width="0.6636" stroke-miterlimit="10" d="M316.4,216.4c1.9,0.3,3.8,0.8,5.7,1.5"/>
					<path fill="none" stroke="#575D72" stroke-width="0.6636" stroke-miterlimit="10" d="M316.6,211.1c1.6,0.2,3.1,0.4,4.6,0.8"/>
					<path fill="none" stroke="#575D72" stroke-width="0.6636" stroke-miterlimit="10" d="M315.9,234c4.3,1.9,8.5,1.7,13.1,1.9
						c5.1,0.3,10.2,1.3,15.2,2.4c2.3,0.5,4.5,1.3,6.8,1.4c5.5,0.3,9.8-1.2,14.8,2.2"/>
					<path fill="none" stroke="#575D72" stroke-width="0.6636" stroke-miterlimit="10" d="M315.1,245c8.7,2.2,17.6,2.7,26.5,4.1
						c4.5,0.7,9,0.3,13.4,1.3c5.3,1.2,9.9,2.6,15.4,2.2"/>
					<path fill="none" stroke="#575D72" stroke-width="0.6636" stroke-miterlimit="10" d="M343.6,272.4c2.5,1.4,4.5,1.6,5.8,1.5
						c1.4-0.1,2.3-0.5,4.2-0.4c1.3,0.1,2,0.3,3.3,0.6c3.4,0.8,3.4,0.3,6.7,1c3.7,0.8,4.3,1.6,7,1.5c1.1,0,1.3-0.2,2.4-0.2
						c2.1,0.1,3.2,0.8,5.2,1.4c1,0.3,2.4,0.4,5.1,0.7c1.6,0.2,3.8,0.4,6.5,0.4"/>
					<path fill="none" stroke="#575D72" stroke-width="0.6636" stroke-miterlimit="10" d="M375.3,252.4c0.8,0.7,2,1.5,3.6,1.9
						c2.9,0.6,4.6-1,7.3-0.8c1.4,0.1,3.3,0.7,5.4,3"/>
					<path fill="none" stroke="#575D72" stroke-width="0.6636" stroke-miterlimit="10" d="M381.5,241.5c2.1,0.6,4.2,1.2,6.3,1.8"/>
					<path fill="none" stroke="#575D72" stroke-width="0.6636" stroke-miterlimit="10" d="M391.6,244.2c2.3,0.3,4.5,0.5,6.8,0.8"/>
					<path fill="none" stroke="#575D72" stroke-width="0.6636" stroke-miterlimit="10" d="M371.3,240.2c0,0.2,0.1,2.5,2,3.5
						c0.3,0.2,1.8,0.9,3.2,0.1c1.3-0.8,1.4-2.3,1.4-2.6c0-0.1,0-1.8-1.1-2.7c-1.3-1-2.8,0.3-3.9-0.6c-0.9-0.7-1.2-2.5-0.3-3.6
						c0.9-1.1,2.6-1,3.6-0.5c1.4,0.7,1.8,2.2,1.8,2.4"/>
					<path fill="none" stroke="#575D72" stroke-width="0.6636" stroke-miterlimit="10" d="M374,245.5c0.7-4.5,1.3-9.1,2-13.6"/>
					<path fill="none" stroke="#575D72" stroke-width="0.6636" stroke-miterlimit="10" d="M315.3,265.9c-0.4-0.3-0.8-0.5-1.1-0.5
						c0.1,1.7,0.2,3.4,0.5,5.1c0.4-0.3,0.6-0.7,0.9-1.4c0.4-0.7,0.6-1.2,0.5-1.8C316,266.6,315.5,266.1,315.3,265.9z"/>
					<path fill="none" stroke="#575D72" stroke-width="0.6636" stroke-miterlimit="10" d="M321.8,266.5c0.3,0,0.9,0.1,1.4,0.6
						c0.2,0.2,0.7,0.7,0.8,1.4c0.1,0.6-0.1,1.1-0.5,1.8c-0.4,0.8-0.7,1.4-1.3,1.6c-0.5,0.2-0.9,0-1.4-0.1c-0.4-0.1-1.1-0.3-1.5-0.9
						s-0.4-1.3-0.4-1.7c0-0.4,0-1.2,0.6-1.8C320.3,266.3,321.6,266.4,321.8,266.5z"/>
				</g>
			</g>
			<g>
				<path fill="#B6DA6E" stroke="#575D72" stroke-width="1.3273" stroke-miterlimit="10" d="M326.5,195.1c3.1-1.6,5.9,1.1,11.7,2.4
					c4.6,1.1,6.9,0.4,14.4-0.2c7-0.5,12.8-0.3,24.4,0c12.3,0.4,12.6,1.1,24,1.3c8.4,0.2,7-0.3,19.4-0.3c15.4,0,15.2,0.6,31.7,1.1
					c3.8,0.1,7.5,1.5,11.3,1.2c1-0.1,3.2-0.3,4.6,1.1c1,0.9,1.2,2.1,1.3,2.7c1,6.2,0.4,12,0.4,12c-0.1,1-0.2,5.6-0.5,14.6
					c0,0.7,0,0.4-0.2,9.1c-0.2,12.4-0.2,11.4-0.2,12.3c-0.1,4-0.3,8.1-0.2,12.1c0,5.7,0.3,6.8-0.7,8c-2,2.4-6.1,1.6-12.8,1.1
					c-6.3-0.5-12.7-0.1-19.1-0.4c-13.3-0.6-14.8-0.7-21.2-0.9c-5.1-0.2-9.3-0.2-17.7-0.4c-3.2,0-11.1-0.2-30.2-0.3
					c-15.6-0.1-23.3-0.1-23.4-0.1c-6.8,0.7-13.8-1.2-20.6-0.3c-0.5,0.1-2.1,0.3-2.8-0.6c-0.8-0.9,0-2.5,0.4-4.5
					c0.4-1.6,0.2-2.2,0-7.1c0,0-0.2-5.1-0.3-11c0-2.8,0.1-5.7,0.2-11.4c0.1-2.2,0.2-5.6,0.4-10.1c0.5-11.3,0.8-9.8,0.8-14.4
					c0-5-0.3-6.5,0.5-9.4C322.9,199.9,323.8,196.4,326.5,195.1z"/>
				<g>
					<path fill="none" stroke="#575D72" stroke-width="0.6636" stroke-miterlimit="10" d="M356.2,208c3.7,0.7,6.7,0.8,8.8,0.7
						c4.1-0.2,6.1-0.9,10.3-0.8c2.8,0.1,5,0.5,6.5,0.8"/>
					<path fill="none" stroke="#575D72" stroke-width="0.6636" stroke-miterlimit="10" d="M355.5,202.3c1.2,0.4,3,0.8,5.1,1.1
						c2.9,0.3,5.2,0.2,7.5,0c4.1-0.3,5.1-0.9,8.5-0.8c1.5,0,2.8,0.1,3.6,0.2"/>
					<path fill="none" stroke="#575D72" stroke-width="0.6636" stroke-miterlimit="10" d="M330.5,224.4c1.7,0.1,4.3,0.2,7.5,0.3
						c4.9,0.2,6.5,0.1,10,0.2c9.5,0.3,8.6,0.9,13.6,0.8c7.1-0.2,7.6-1.5,12.8-0.9c3.9,0.5,4.2,1.3,8.3,1.5c3.7,0.2,4.6-0.4,9.6-0.6
						c2.8-0.1,4.9,0,9.1,0.2c9.8,0.5,9.3,1.3,12.8,0.8c3.8-0.6,5.5-1.7,9.1-1.1c2.1,0.3,3.8,1,4.9,1.6"/>
					<path fill="none" stroke="#575D72" stroke-width="0.6636" stroke-miterlimit="10" d="M328.7,233.1c0.9,0.7,2.4,1.5,4.3,1.9
						c2.2,0.4,3.1-0.1,7-0.4c2.5-0.2,4.3-0.3,6.6,0.1c2.9,0.5,3.3,1.3,5.9,1.9c2.5,0.6,4.3,0.5,8.5,0.2c6.4-0.5,9.5-0.7,11.5-0.8
						c7.3-0.2,7.1,1,15.9,1c4.8,0,5.1-0.4,10.8-0.3c5,0.1,5.5,0.3,9.3,0.2c4.5-0.2,5.2-0.7,8.6-0.5s4.1,0.7,7.3,1
						c2.3,0.2,5.7,0.2,9.8-0.6"/>
					<path fill="none" stroke="#575D72" stroke-width="0.6636" stroke-miterlimit="10" d="M409.9,260c2.7,1.1,4.6,1,6,0.8
						c1.4-0.3,2.2-0.8,4.2-0.9c1.3-0.1,2,0.1,3.3,0.2c3.4,0.4,3.4-0.2,6.8,0.1c3.8,0.3,4.5,1.1,7.1,0.6c1.1-0.2,1.3-0.4,2.3-0.5
						c2.1-0.2,3.2,0.4,5.3,0.8c1,0.2,2.4,0.2,5.1,0.1c1.7,0,3.9-0.1,6.5-0.4"/>
					<path fill="none" stroke="#575D72" stroke-width="0.6636" stroke-miterlimit="10" d="M439,236.2c0.8,0.6,2.1,1.3,3.8,1.4
						c3,0.2,4.4-1.6,7.2-1.7c1.4,0,3.3,0.3,5.8,2.3"/>
					<path fill="none" stroke="#575D72" stroke-width="0.6636" stroke-miterlimit="10" d="M443.7,224.7c2.2,0.3,4.3,0.6,6.5,1"/>
					<path fill="none" stroke="#575D72" stroke-width="0.6636" stroke-miterlimit="10" d="M454.1,226.1c2.3,0,4.5,0,6.8,0"/>
					<path fill="none" stroke="#575D72" stroke-width="0.6636" stroke-miterlimit="10" d="M433.4,224.7c0,0.1,0.4,2.4,2.4,3.2
						c0.4,0.1,1.9,0.7,3.2-0.3c1.2-0.9,1.1-2.5,1.1-2.8c0-0.1-0.2-1.8-1.4-2.5c-1.5-0.8-2.8,0.7-4-0.1c-1-0.6-1.5-2.3-0.8-3.5
						s2.4-1.3,3.5-0.9c1.5,0.5,2,2,2.1,2.2"/>
					<path fill="none" stroke="#575D72" stroke-width="0.6636" stroke-miterlimit="10" d="M436.8,229.5c0.1-4.6,0.2-9.2,0.3-13.8"/>
					<path fill="none" stroke="#575D72" stroke-width="0.6636" stroke-miterlimit="10" d="M330.8,221.3c-0.2-0.3-0.5-0.8-0.5-1.6
						l0,0c0-0.5,0.2-1.7,1-2.3c1.1-0.9,3-0.5,3.5,0.3c0.1,0.2,0.2,0.4,0.2,0.9c0.1,0.8,0.2,1.2,0,1.5c-0.4,0.6-1.7,0.4-2.4,0.1
						c-0.9-0.4-1.5-1-1.7-1.4"/>
					<path fill="none" stroke="#575D72" stroke-width="0.6636" stroke-miterlimit="10" d="M337.1,222.1c0.1-0.9,0.2-1.6,0.4-2.3
						c0.2-1.2,0.3-1.5,0.6-1.8c0.5-0.5,1.4-0.6,2-0.3c0.4,0.2,0.5,0.6,0.7,1.1c0.2,0.8,0.6,1.8,0.8,3.1"/>
					<path fill="none" stroke="#575D72" stroke-width="0.6636" stroke-miterlimit="10" d="M337.5,220.1c1.2,0,2.4,0,3.7,0"/>
					<path fill="none" stroke="#575D72" stroke-width="0.6636" stroke-miterlimit="10" d="M345.7,222.8c0-1.1,0-2.1-0.1-3.2"/>
					<path fill="none" stroke="#575D72" stroke-width="0.6636" stroke-miterlimit="10" d="M345.7,219.6c-0.1,0.3-0.1,0.5,0,0.5
						c0.2,0.1,0.9-0.8,2-2.8"/>
					<path fill="none" stroke="#575D72" stroke-width="0.6636" stroke-miterlimit="10" d="M345.7,220.1c-0.8-0.9-1.7-1.7-2.5-2.6"/>
					<path fill="none" stroke="#575D72" stroke-width="0.6636" stroke-miterlimit="10" d="M356.2,256.1c0.3,0,0.9,0,1.5,0.4
						c0.2,0.1,0.7,0.6,0.9,1.3c0.2,0.6,0,1.1-0.3,1.8c-0.3,0.9-0.5,1.4-1.1,1.7c-0.5,0.2-0.9,0.1-1.4,0.1c-0.5-0.1-1.1-0.2-1.6-0.7
						s-0.6-1.2-0.6-1.6s-0.1-1.2,0.4-1.9C354.7,256.1,356,256.1,356.2,256.1z"/>
					<path fill="none" stroke="#575D72" stroke-width="0.6636" stroke-miterlimit="10" d="M364.1,256.2c0.3,0,0.9,0,1.5,0.4
						c0.2,0.1,0.7,0.6,0.9,1.3c0.2,0.6,0,1.1-0.3,1.8c-0.3,0.9-0.5,1.4-1.1,1.7c-0.5,0.2-0.9,0.1-1.4,0.1c-0.5-0.1-1.1-0.2-1.6-0.7
						s-0.6-1.2-0.6-1.6s-0.1-1.2,0.4-1.9C362.6,256.3,363.9,256.2,364.1,256.2z"/>
					<path fill="none" stroke="#575D72" stroke-width="0.6636" stroke-miterlimit="10" d="M371.7,256.7c0.3,0,0.9,0,1.5,0.4
						c0.2,0.1,0.7,0.6,0.9,1.3c0.2,0.6,0,1.1-0.3,1.8c-0.3,0.9-0.5,1.4-1.1,1.7c-0.5,0.2-0.9,0.1-1.4,0.1c-0.5-0.1-1.1-0.2-1.6-0.7
						s-0.6-1.2-0.6-1.6s-0.1-1.2,0.4-1.9C370.2,256.7,371.5,256.7,371.7,256.7z"/>
					<path fill="none" stroke="#575D72" stroke-width="0.6636" stroke-miterlimit="10" d="M379.6,256.7c0.3,0,0.9,0,1.5,0.4
						c0.2,0.1,0.7,0.6,0.9,1.3c0.2,0.6,0,1.1-0.3,1.8c-0.3,0.9-0.5,1.4-1.1,1.7c-0.5,0.2-0.9,0.1-1.4,0.1c-0.5-0.1-1.1-0.2-1.6-0.7
						s-0.6-1.2-0.6-1.6s-0.1-1.2,0.4-1.9C378.1,256.8,379.4,256.7,379.6,256.7z"/>
					<path fill="none" stroke="#575D72" stroke-width="0.6636" stroke-miterlimit="10" d="M387.6,256.9c0.3,0,0.9,0,1.5,0.4
						c0.2,0.1,0.7,0.6,0.9,1.3c0.2,0.6,0,1.1-0.3,1.8c-0.3,0.9-0.5,1.4-1.1,1.7c-0.5,0.2-0.9,0.1-1.4,0.1c-0.5-0.1-1.1-0.2-1.6-0.7
						s-0.6-1.2-0.6-1.6s-0.1-1.2,0.4-1.9C386.1,256.9,387.4,256.9,387.6,256.9z"/>
				</g>
			</g>
		</g>
		<g>
			<g>
				<path fill="#B6DA6E" stroke="#575D72" stroke-width="1.3273" stroke-miterlimit="10" d="M454.2,188.4c-0.6-4-1-8-1.5-12
					c-0.1-0.9,0,0.1-1.5-12.2c-1.1-8.6-1-8.3-1.1-9.1c-1.1-9-1.6-13.5-1.6-14.5c0,0-0.2-5.8-2.1-11.8c-0.2-0.5-0.6-1.7-1.6-2.5
					c-1.6-1.1-3.8-0.6-4.7-0.4c-3.7,0.8-7.6,0-11.3,0.4c-16.3,1.8-16.3,1.2-31.5,3.4c-12.3,1.8-10.8,2-19.2,3
					c-11.3,1.4-11.8,0.7-24,2.1c-11.5,1.3-17.3,2-24.1,3.5c-3,0.7-5.2,1.2-7,1.6c0.1,0.7,0.1,1.4,0,2c-1.1,6.2-3.6,12.1-4.1,18.4
					c0,0.4-0.1,0.9-0.2,1.2c0.4,0.9,0.5,1.9,0.3,3.1c-1.9,9.7-1.8,19.6-2,29.4c-0.1,6.9-0.9,13.8-1.3,20.7
					c5.2-0.7,10.7-0.4,15.8-1.8c0.1,0,7.8-1.1,23.2-3.2c18.9-2.6,26.8-3.6,29.9-4c8.4-1.1,12.6-1.6,17.6-2.2
					c6.4-0.7,7.9-0.8,21.1-2.1c6.3-0.6,12.6-2,18.9-2.3c6.7-0.4,10.9-0.2,12.5-2.9C455.5,195.1,455,194.1,454.2,188.4z"/>
				<g>
					<path fill="none" stroke="#575D72" stroke-width="0.6636" stroke-miterlimit="10" d="M334.9,148.5c3.8,0.2,6.8-0.2,8.8-0.6
						c4-0.7,5.9-1.8,10.1-2.2c2.8-0.3,5.1-0.2,6.5-0.1"/>
					<path fill="none" stroke="#575D72" stroke-width="0.6636" stroke-miterlimit="10" d="M333.4,143c1.2,0.2,3,0.4,5.2,0.4
						c2.9-0.1,5.1-0.6,7.4-1.1c4-0.9,4.9-1.6,8.3-2c1.5-0.2,2.8-0.3,3.6-0.3"/>
					<path fill="none" stroke="#575D72" stroke-width="0.6636" stroke-miterlimit="10" d="M319.2,167.7C330,166,341,165,352,164
						c14-2,28-5,42-5c4,0,7-3,11-3c1,0,3,1,3.9,1.1"/>
					<path fill="none" stroke="#575D72" stroke-width="0.6636" stroke-miterlimit="10" d="M318.1,178.4C325,177,332,177,339,178
						c5,0,10-3,15-4c14-1,26-3,40-5c4,0,9-1,13-1c3,0,6-1,9.1-1.9"/>
					<path fill="none" stroke="#575D72" stroke-width="0.6636" stroke-miterlimit="10" d="M395.5,192.4c2.8,0.7,4.7,0.4,6-0.1
						s2.1-1.1,4-1.5c1.3-0.3,2-0.2,3.3-0.2c3.5-0.1,3.4-0.6,6.8-0.8c3.8-0.2,4.6,0.4,7.1-0.4c1.1-0.3,1.2-0.5,2.2-0.8
						c2.1-0.5,3.3,0,5.4,0c1,0,2.4-0.2,5.1-0.6c1.6-0.3,3.8-0.7,6.4-1.3"/>
					<path fill="none" stroke="#575D72" stroke-width="0.6636" stroke-miterlimit="10" d="M420.8,164.7c0.9,0.4,2.3,1,3.9,0.8
						c3-0.2,4.1-2.2,6.9-2.7c1.3-0.2,3.3-0.2,6,1.4"/>
					<path fill="none" stroke="#575D72" stroke-width="0.6636" stroke-miterlimit="10" d="M423.8,152.6c2.2,0,4.3,0,6.5,0"/>
					<path fill="none" stroke="#575D72" stroke-width="0.6636" stroke-miterlimit="10" d="M434.4,152.5c2.2-0.3,4.5-0.7,6.7-1"/>
					<path fill="none" stroke="#575D72" stroke-width="0.6636" stroke-miterlimit="10" d="M413.7,154c0,0.1,0.8,2.3,2.9,2.8
						c0.4,0.1,2,0.4,3.1-0.7c1-1.1,0.7-2.6,0.6-2.9c0-0.1-0.4-1.8-1.8-2.3c-1.6-0.6-2.6,1.1-4,0.5c-1-0.4-1.8-2.1-1.3-3.4
						c0.6-1.3,2.2-1.6,3.3-1.4c1.6,0.3,2.3,1.7,2.4,1.9"/>
					<path fill="none" stroke="#575D72" stroke-width="0.6636" stroke-miterlimit="10" d="M417.7,158.4c-0.6-4.6-1.1-9.1-1.7-13.7"
						/>
					<path fill="none" stroke="#575D72" stroke-width="0.6636" stroke-miterlimit="10" d="M319.6,160.4c1.7,0.3,2.3,2.7,2.7,4.1"/>
					<path fill="none" stroke="#575D72" stroke-width="0.6636" stroke-miterlimit="10" d="M326.6,164.7c-0.2-1-0.4-2.1-0.5-3.1"/>
					<path fill="none" stroke="#575D72" stroke-width="0.6636" stroke-miterlimit="10" d="M326.1,161.5c0,0.3,0,0.5,0.1,0.5
						c0.2,0.1,0.7-1,1.6-3.1"/>
					<path fill="none" stroke="#575D72" stroke-width="0.6636" stroke-miterlimit="10" d="M326.2,162c-0.9-0.7-1.9-1.5-2.8-2.2"/>
					<path fill="none" stroke="#575D72" stroke-width="0.6636" stroke-miterlimit="10" d="M341.8,196.1c0.2,0,0.9-0.1,1.6,0.2
						c0.2,0.1,0.8,0.5,1.1,1.1c0.2,0.6,0.1,1.1,0,1.9c-0.2,0.9-0.3,1.5-0.8,1.9c-0.4,0.3-0.9,0.3-1.4,0.3s-1.1,0-1.7-0.5
						s-0.8-1.1-0.9-1.5s-0.3-1.1,0.1-1.9C340.3,196.4,341.6,196.1,341.8,196.1z"/>
					<path fill="none" stroke="#575D72" stroke-width="0.6636" stroke-miterlimit="10" d="M349.5,195.1c0.2,0,0.9-0.1,1.6,0.2
						c0.2,0.1,0.8,0.5,1.1,1.1c0.2,0.6,0.1,1.1,0,1.9c-0.2,0.9-0.3,1.5-0.8,1.9c-0.4,0.3-0.9,0.3-1.4,0.3s-1.1,0-1.7-0.5
						s-0.8-1.1-0.9-1.5s-0.3-1.1,0.1-1.9C348.1,195.4,349.3,195.2,349.5,195.1z"/>
					<path fill="none" stroke="#575D72" stroke-width="0.6636" stroke-miterlimit="10" d="M357.2,194.5c0.2,0,0.9-0.1,1.6,0.2
						c0.2,0.1,0.8,0.5,1.1,1.1c0.2,0.6,0.1,1.1,0,1.9c-0.2,0.9-0.3,1.5-0.8,1.9c-0.4,0.3-0.9,0.3-1.4,0.3s-1.1,0-1.7-0.5
						s-0.8-1.1-0.9-1.5s-0.3-1.1,0.1-1.9C355.7,194.8,357,194.5,357.2,194.5z"/>
					<path fill="none" stroke="#575D72" stroke-width="0.6636" stroke-miterlimit="10" d="M365,193.4c0.2,0,0.9-0.1,1.6,0.2
						c0.2,0.1,0.8,0.5,1.1,1.1c0.2,0.6,0.1,1.1,0,1.9c-0.2,0.9-0.3,1.5-0.8,1.9c-0.4,0.3-0.9,0.3-1.4,0.3s-1.1,0-1.7-0.5
						s-0.8-1.1-0.9-1.5s-0.3-1.1,0.1-1.9C363.5,193.7,364.8,193.5,365,193.4z"/>
					<path fill="none" stroke="#575D72" stroke-width="0.6636" stroke-miterlimit="10" d="M372.9,192.4c0.2,0,0.9-0.1,1.6,0.2
						c0.2,0.1,0.8,0.5,1.1,1.1c0.2,0.6,0.1,1.1,0,1.9c-0.2,0.9-0.3,1.5-0.8,1.9c-0.4,0.3-0.9,0.3-1.4,0.3s-1.1,0-1.7-0.5
						s-0.8-1.1-0.9-1.5s-0.3-1.1,0.1-1.9C371.5,192.7,372.7,192.5,372.9,192.4z"/>
				</g>
			</g>
			<g>
				<path fill="#B6DA6E" stroke="#575D72" stroke-width="1.3273" stroke-miterlimit="10" d="M325.7,165.6c3.1-1.6,5.9,1.1,11.7,2.4
					c4.6,1.1,6.9,0.4,14.4-0.2c7-0.5,12.8-0.3,24.4,0c12.3,0.4,12.6,1.1,24,1.3c8.4,0.2,7-0.3,19.4-0.3c15.4,0,15.2,0.6,31.7,1.1
					c3.8,0.1,7.5,1.5,11.3,1.2c1-0.1,3.2-0.3,4.6,1.1c1,0.9,1.2,2.1,1.3,2.7c1,6.2,0.4,12,0.4,12c-0.1,1-0.2,5.6-0.5,14.6
					c0,0.7,0,0.4-0.2,9.1C468,223,468,222,468,222.9c-0.1,4-0.3,8.1-0.2,12.1c0,5.7,0.3,6.8-0.7,8c-2,2.4-6.1,1.6-12.8,1.1
					c-6.3-0.5-12.7-0.1-19.1-0.4c-13.3-0.6-14.8-0.7-21.2-0.9c-5.1-0.2-9.3-0.2-17.7-0.4c-3.2,0-11.1-0.2-30.2-0.3
					c-15.6-0.1-23.3-0.1-23.4-0.1c-6.8,0.7-13.8-1.2-20.6-0.3c-0.5,0.1-2.1,0.3-2.8-0.6c-0.8-0.9,0-2.5,0.4-4.5
					c0.4-1.6,0.2-2.2,0-7.1c0,0-0.2-5.1-0.3-11c0-2.8,0.1-5.7,0.2-11.4c0.1-2.2,0.2-5.6,0.4-10.1c0.5-11.3,0.8-9.8,0.8-14.4
					c0-5-0.3-6.5,0.5-9.4C322.1,170.4,323,166.9,325.7,165.6z"/>
				<g>
					<path fill="none" stroke="#575D72" stroke-width="0.6636" stroke-miterlimit="10" d="M355.5,178.5c3.7,0.7,6.7,0.8,8.8,0.7
						c4.1-0.2,6.1-0.9,10.3-0.8c2.8,0.1,5,0.5,6.5,0.8"/>
					<path fill="none" stroke="#575D72" stroke-width="0.6636" stroke-miterlimit="10" d="M354.8,172.8c1.2,0.4,3,0.8,5.1,1.1
						c2.9,0.3,5.2,0.2,7.5,0c4.1-0.3,5.1-0.9,8.5-0.8c1.5,0,2.8,0.1,3.6,0.2"/>
					<path fill="none" stroke="#575D72" stroke-width="0.6636" stroke-miterlimit="10" d="M329.7,194.9c1.7,0.1,4.3,0.2,7.5,0.3
						c4.9,0.2,6.5,0.1,10,0.2c9.5,0.3,8.6,0.9,13.6,0.8c7.1-0.2,7.6-1.5,12.8-0.9c3.9,0.5,4.2,1.3,8.3,1.5c3.7,0.2,4.6-0.4,9.6-0.6
						c2.8-0.1,4.9,0,9.1,0.2c9.8,0.5,9.3,1.3,12.8,0.8c3.8-0.6,5.5-1.7,9.1-1.1c2.1,0.3,3.8,1,4.9,1.6"/>
					<path fill="none" stroke="#575D72" stroke-width="0.6636" stroke-miterlimit="10" d="M327.9,203.6c0.9,0.7,2.4,1.5,4.3,1.9
						c2.2,0.4,3.1-0.1,7-0.4c2.5-0.2,4.3-0.3,6.6,0.1c2.9,0.5,3.3,1.3,5.9,1.9c2.5,0.6,4.3,0.5,8.5,0.2c6.4-0.5,9.5-0.7,11.5-0.8
						c7.3-0.2,7.1,1,15.9,1c4.8,0,5.1-0.4,10.8-0.3c5,0.1,5.5,0.3,9.3,0.2c4.5-0.2,5.2-0.7,8.6-0.5s4.1,0.7,7.3,1
						c2.3,0.2,5.7,0.2,9.8-0.6"/>
					<path fill="none" stroke="#575D72" stroke-width="0.6636" stroke-miterlimit="10" d="M409.2,230.5c2.7,1.1,4.6,1,6,0.8
						c1.4-0.3,2.2-0.8,4.2-0.9c1.3-0.1,2,0.1,3.3,0.2c3.4,0.4,3.4-0.2,6.8,0.1c3.8,0.3,4.5,1.1,7.1,0.6c1.1-0.2,1.3-0.4,2.3-0.5
						c2.1-0.2,3.2,0.4,5.3,0.8c1,0.2,2.4,0.2,5.1,0.1c1.7,0,3.9-0.1,6.5-0.4"/>
					<path fill="none" stroke="#575D72" stroke-width="0.6636" stroke-miterlimit="10" d="M438.2,206.7c0.8,0.6,2.1,1.3,3.8,1.4
						c3,0.2,4.4-1.6,7.2-1.7c1.4,0,3.3,0.3,5.8,2.3"/>
					<path fill="none" stroke="#575D72" stroke-width="0.6636" stroke-miterlimit="10" d="M442.9,195.2c2.2,0.3,4.3,0.6,6.5,1"/>
					<path fill="none" stroke="#575D72" stroke-width="0.6636" stroke-miterlimit="10" d="M453.3,196.6c2.3,0,4.5,0,6.8,0"/>
					<path fill="none" stroke="#575D72" stroke-width="0.6636" stroke-miterlimit="10" d="M432.6,195.1c0,0.1,0.4,2.4,2.4,3.2
						c0.4,0.1,1.9,0.7,3.2-0.3c1.2-0.9,1.1-2.5,1.1-2.8c0-0.1-0.2-1.8-1.4-2.5c-1.5-0.8-2.8,0.7-4-0.1c-1-0.6-1.5-2.3-0.8-3.5
						s2.4-1.3,3.5-0.9c1.5,0.5,2,2,2.1,2.2"/>
					<path fill="none" stroke="#575D72" stroke-width="0.6636" stroke-miterlimit="10" d="M436,200c0.1-4.6,0.2-9.2,0.3-13.8"/>
					<path fill="none" stroke="#575D72" stroke-width="0.6636" stroke-miterlimit="10" d="M330,191.8c-0.2-0.3-0.5-0.8-0.5-1.6l0,0
						c0-0.5,0.2-1.7,1-2.3c1.1-0.9,3-0.5,3.5,0.3c0.1,0.2,0.2,0.4,0.2,0.9c0.1,0.8,0.2,1.2,0,1.5c-0.4,0.6-1.7,0.4-2.4,0.1
						c-0.9-0.4-1.5-1-1.7-1.4"/>
					<path fill="none" stroke="#575D72" stroke-width="0.6636" stroke-miterlimit="10" d="M336.3,192.6c0.1-0.9,0.2-1.6,0.4-2.3
						c0.2-1.2,0.3-1.5,0.6-1.8c0.5-0.5,1.4-0.6,2-0.3c0.4,0.2,0.5,0.6,0.7,1.1c0.2,0.8,0.6,1.8,0.8,3.1"/>
					<path fill="none" stroke="#575D72" stroke-width="0.6636" stroke-miterlimit="10" d="M336.7,190.6c1.2,0,2.4,0,3.7,0"/>
					<path fill="none" stroke="#575D72" stroke-width="0.6636" stroke-miterlimit="10" d="M345,193.3c0-1.1,0-2.1-0.1-3.2"/>
					<path fill="none" stroke="#575D72" stroke-width="0.6636" stroke-miterlimit="10" d="M344.9,190.1c-0.1,0.3-0.1,0.5,0,0.5
						c0.2,0.1,0.9-0.8,2-2.8"/>
					<path fill="none" stroke="#575D72" stroke-width="0.6636" stroke-miterlimit="10" d="M345,190.6c-0.8-0.9-1.7-1.7-2.5-2.6"/>
					<path fill="none" stroke="#575D72" stroke-width="0.6636" stroke-miterlimit="10" d="M355.5,226.5c0.3,0,0.9,0,1.5,0.4
						c0.2,0.1,0.7,0.6,0.9,1.3c0.2,0.6,0,1.1-0.3,1.8c-0.3,0.9-0.5,1.4-1.1,1.7c-0.5,0.2-0.9,0.1-1.4,0.1c-0.5-0.1-1.1-0.2-1.6-0.7
						s-0.6-1.2-0.6-1.6c0-0.4-0.1-1.2,0.4-1.9C354,226.6,355.3,226.5,355.5,226.5z"/>
					<path fill="none" stroke="#575D72" stroke-width="0.6636" stroke-miterlimit="10" d="M363.3,226.7c0.3,0,0.9,0,1.5,0.4
						c0.2,0.1,0.7,0.6,0.9,1.3c0.2,0.6,0,1.1-0.3,1.8c-0.3,0.9-0.5,1.4-1.1,1.7c-0.5,0.2-0.9,0.1-1.4,0.1c-0.5-0.1-1.1-0.2-1.6-0.7
						s-0.6-1.2-0.6-1.6c0-0.4-0.1-1.2,0.4-1.9C361.8,226.8,363.1,226.7,363.3,226.7z"/>
					<path fill="none" stroke="#575D72" stroke-width="0.6636" stroke-miterlimit="10" d="M370.9,227.2c0.3,0,0.9,0,1.5,0.4
						c0.2,0.1,0.7,0.6,0.9,1.3c0.2,0.6,0,1.1-0.3,1.8c-0.3,0.9-0.5,1.4-1.1,1.7c-0.5,0.2-0.9,0.1-1.4,0.1c-0.5-0.1-1.1-0.2-1.6-0.7
						s-0.6-1.2-0.6-1.6c0-0.4-0.1-1.2,0.4-1.9C369.4,227.2,370.7,227.2,370.9,227.2z"/>
					<path fill="none" stroke="#575D72" stroke-width="0.6636" stroke-miterlimit="10" d="M378.8,227.2c0.3,0,0.9,0,1.5,0.4
						c0.2,0.1,0.7,0.6,0.9,1.3c0.2,0.6,0,1.1-0.3,1.8c-0.3,0.9-0.5,1.4-1.1,1.7c-0.5,0.2-0.9,0.1-1.4,0.1c-0.5-0.1-1.1-0.2-1.6-0.7
						s-0.6-1.2-0.6-1.6c0-0.4-0.1-1.2,0.4-1.9C377.3,227.3,378.6,227.2,378.8,227.2z"/>
					<path fill="none" stroke="#575D72" stroke-width="0.6636" stroke-miterlimit="10" d="M386.8,227.4c0.3,0,0.9,0,1.5,0.4
						c0.2,0.1,0.7,0.6,0.9,1.3c0.2,0.6,0,1.1-0.3,1.8c-0.3,0.9-0.5,1.4-1.1,1.7c-0.5,0.2-0.9,0.1-1.4,0.1c-0.5-0.1-1.1-0.2-1.6-0.7
						s-0.6-1.2-0.6-1.6c0-0.4-0.1-1.2,0.4-1.9C385.3,227.4,386.6,227.4,386.8,227.4z"/>
				</g>
			</g>
			<g>
				<path fill="#B6DA6E" stroke="#575D72" stroke-width="1.3273" stroke-miterlimit="10" d="M448.9,191c0-0.5-0.1-1.8-0.9-2.8
					c-1.3-1.5-3.5-1.6-4.5-1.7c-3.8-0.2-7.3-2-11-2.6c-16.2-2.6-16-3.2-31.3-5.1c-12.3-1.5-10.9-0.9-19.3-2.2
					c-11.3-1.7-11.6-2.4-23.7-4.3c-11.5-1.8-17.2-2.7-24.2-3c-7.6-0.4-9.9,0-14.4-1.6c-0.4-0.2-0.9-0.3-1.3-0.5
					c-1.5,8.9-1.4,18-1.6,27c-0.2,9.4-1.6,18.6-1.5,28c0.1,6.5-0.3,13-0.7,19.5c0.4,0,0.7,0,1.1,0c0.1,0,7.8,1,23.2,3.1
					c18.9,2.5,26.8,3.6,29.9,4c8.4,1.2,12.5,1.8,17.6,2.6c6.4,1,7.8,1.3,20.9,3.6c6.3,1.1,12.7,1.5,18.9,2.8
					c6.6,1.4,10.6,2.7,12.8,0.5c1.1-1.1,1-2.2,1.6-7.8c0.5-4,1.2-8,1.8-12c0.1-0.9,0,0.1,1.8-12.1c1.3-8.6,1.2-8.3,1.3-9
					c1.4-8.9,2-13.4,2.3-14.4C447.8,202.9,449.1,197.3,448.9,191z"/>
				<g>
					<path fill="none" stroke="#575D72" stroke-width="0.6636" stroke-miterlimit="10" d="M336.3,180.4c3.6,1.2,6.6,1.6,8.6,1.8
						c4.1,0.4,6.1-0.1,10.3,0.5c2.8,0.4,4.9,1.1,6.3,1.6"/>
					<path fill="none" stroke="#575D72" stroke-width="0.6636" stroke-miterlimit="10" d="M336.3,174.7c1.1,0.5,2.8,1.2,4.9,1.7
						c2.8,0.7,5.1,0.8,7.4,0.9c4.1,0.2,5.1-0.2,8.5,0.2c1.5,0.2,2.8,0.5,3.6,0.7"/>
					<path fill="none" stroke="#575D72" stroke-width="0.6636" stroke-miterlimit="10" d="M317.9,195c14.1,3,27.1,3,41.1,7
						c3,1,7,0,10,0c10,2,19,4,29,4c2,0,5,1,7.3,2.3"/>
					<path fill="none" stroke="#575D72" stroke-width="0.6636" stroke-miterlimit="10" d="M317.4,204.9c6.8,0.4,11.9,4.4,18.7,4.8
						c5.8,0.3,11.8,0.2,17.5,1.4c11.3,2.4,23.2,4.5,34.8,4.9c7.4,0.3,14,3.5,21.5,2.9"/>
					<path fill="none" stroke="#575D72" stroke-width="0.6636" stroke-miterlimit="10" d="M383.1,238.7c2.5,1.4,4.5,1.6,5.8,1.5
						c1.4-0.1,2.3-0.5,4.2-0.4c1.3,0.1,2,0.3,3.3,0.6c3.4,0.8,3.4,0.3,6.7,1c3.7,0.8,4.3,1.6,7,1.5c1.1,0,1.3-0.2,2.4-0.2
						c2.1,0.1,3.2,0.8,5.2,1.4c1,0.3,2.4,0.4,5.1,0.7c1.6,0.2,3.8,0.4,6.5,0.4"/>
					<path fill="none" stroke="#575D72" stroke-width="0.6636" stroke-miterlimit="10" d="M414.8,218.7c0.8,0.7,2,1.5,3.6,1.9
						c2.9,0.6,4.6-1,7.3-0.8c1.4,0.1,3.3,0.7,5.4,3"/>
					<path fill="none" stroke="#575D72" stroke-width="0.6636" stroke-miterlimit="10" d="M421,207.9c2.1,0.6,4.2,1.2,6.3,1.8"/>
					<path fill="none" stroke="#575D72" stroke-width="0.6636" stroke-miterlimit="10" d="M431.1,210.6c2.3,0.3,4.5,0.5,6.8,0.8"/>
					<path fill="none" stroke="#575D72" stroke-width="0.6636" stroke-miterlimit="10" d="M410.8,206.6c0,0.2,0.1,2.5,2,3.5
						c0.3,0.2,1.8,0.9,3.2,0.1c1.3-0.8,1.4-2.3,1.4-2.6c0-0.1,0-1.8-1.1-2.7c-1.3-1-2.8,0.3-3.9-0.6c-0.9-0.7-1.2-2.5-0.3-3.6
						c0.9-1.1,2.6-1,3.6-0.5c1.4,0.7,1.8,2.2,1.8,2.4"/>
					<path fill="none" stroke="#575D72" stroke-width="0.6636" stroke-miterlimit="10" d="M413.5,211.8c0.7-4.5,1.3-9.1,2-13.6"/>
					<path fill="none" stroke="#575D72" stroke-width="0.6636" stroke-miterlimit="10" d="M317.7,187.8c2.2-0.3,2.1,3.3,2.1,4.7"/>
					<path fill="none" stroke="#575D72" stroke-width="0.6636" stroke-miterlimit="10" d="M324,193.8c0.1-1.1,0.2-2.1,0.3-3.2"/>
					<path fill="none" stroke="#575D72" stroke-width="0.6636" stroke-miterlimit="10" d="M324.4,190.6c-0.1,0.3-0.1,0.5,0,0.5
						c0.2,0.1,1-0.7,2.4-2.5"/>
					<path fill="none" stroke="#575D72" stroke-width="0.6636" stroke-miterlimit="10" d="M324.3,191.1c-0.7-1-1.4-1.9-2.2-2.9"/>
					<path fill="none" stroke="#575D72" stroke-width="0.6636" stroke-miterlimit="10" d="M330.3,228.1c0.3,0,0.9,0.1,1.4,0.6
						c0.2,0.2,0.7,0.7,0.8,1.4c0.1,0.6-0.1,1.1-0.5,1.8c-0.4,0.8-0.7,1.4-1.3,1.6c-0.5,0.2-0.9,0-1.4-0.1c-0.4-0.1-1.1-0.3-1.5-0.9
						c-0.4-0.6-0.4-1.3-0.4-1.7s0-1.2,0.6-1.8C328.8,228,330.1,228.1,330.3,228.1z"/>
					<path fill="none" stroke="#575D72" stroke-width="0.6636" stroke-miterlimit="10" d="M338,229.2c0.3,0,0.9,0.1,1.4,0.6
						c0.2,0.2,0.7,0.7,0.8,1.4c0.1,0.6-0.1,1.1-0.5,1.8c-0.4,0.8-0.7,1.4-1.3,1.6c-0.5,0.2-0.9,0-1.4-0.1c-0.4-0.1-1.1-0.3-1.5-0.9
						c-0.4-0.6-0.4-1.3-0.4-1.7s0-1.2,0.6-1.8C336.5,229.1,337.8,229.2,338,229.2z"/>
					<path fill="none" stroke="#575D72" stroke-width="0.6636" stroke-miterlimit="10" d="M345.5,230.6c0.3,0,0.9,0.1,1.4,0.6
						c0.2,0.2,0.7,0.7,0.8,1.4c0.1,0.6-0.1,1.1-0.5,1.8c-0.4,0.8-0.7,1.4-1.3,1.6c-0.5,0.2-0.9,0-1.4-0.1c-0.4-0.1-1.1-0.3-1.5-0.9
						c-0.4-0.6-0.4-1.3-0.4-1.7s0-1.2,0.6-1.8C344,230.5,345.4,230.6,345.5,230.6z"/>
					<path fill="none" stroke="#575D72" stroke-width="0.6636" stroke-miterlimit="10" d="M353.4,231.7c0.3,0,0.9,0.1,1.4,0.6
						c0.2,0.2,0.7,0.7,0.8,1.4c0.1,0.6-0.1,1.1-0.5,1.8c-0.4,0.8-0.7,1.4-1.3,1.6c-0.5,0.2-0.9,0-1.4-0.1c-0.4-0.1-1.1-0.3-1.5-0.9
						c-0.4-0.6-0.4-1.3-0.4-1.7s0-1.2,0.6-1.8C351.9,231.5,353.2,231.6,353.4,231.7z"/>
					<path fill="none" stroke="#575D72" stroke-width="0.6636" stroke-miterlimit="10" d="M361.3,232.8c0.3,0,0.9,0.1,1.4,0.6
						c0.2,0.2,0.7,0.7,0.8,1.4c0.1,0.6-0.1,1.1-0.5,1.8c-0.4,0.8-0.7,1.4-1.3,1.6c-0.5,0.2-0.9,0-1.4-0.1c-0.4-0.1-1.1-0.3-1.5-0.9
						c-0.4-0.6-0.4-1.3-0.4-1.7s0-1.2,0.6-1.8C359.8,232.7,361.1,232.8,361.3,232.8z"/>
				</g>
			</g>
		</g>
	</g>
	<g>
		<path fill="none" stroke="#575D72" stroke-width="2" stroke-miterlimit="10" d="M374.7,289.5C373,290,372,292,370,293
			c-13,4-24,13-37,19c-2,1-5,1-7,2c-1,1-2,1-2.6,2.1"/>
		<path fill="none" stroke="#575D72" stroke-width="2" stroke-miterlimit="10" d="M238,486c-1-15-3-29-2-44c3-48,2-94.2-1-142.2
			c0.5,0.4,0,11.9,0-1.8c1.8,0.4,0.1,2.7,0,0c16.6,3.5,33.2,7,49.9,9.7C298,311,312,310,323,317c7,13,14,26,21,40c6,10,13,18,19,28
			c7,12,13,23,22,33c2,1,3,3,5,5c17,17,42,25,64,12c8-5,14-13,18-21c7-15,9-31,6-47c-1-6-3-12-6-18c-6-17-12.8-33.9-21-50
			c-1.5-2.9-4.1-5.7-6.2-7.8"/>
		<path fill="none" stroke="#575D72" stroke-width="2" stroke-miterlimit="10" d="M190.2,489.8c-0.1-2.6-0.2-6.2-0.3-10.5
			c-0.1-4.6-0.2-8.2-0.3-12.8c-0.2-10.3-0.4-15.5-0.5-21.8c-0.2-11.9-0.4-17.9-0.3-21c0.1-9.7,0.5-10,0.7-19.8
			c0.1-8.4-0.1-14.9-0.3-21.8c-0.4-12.7-0.9-14.8-0.8-23.8c0-7.4,0.3-6.8,0.3-13.7c0-9.1-0.5-13.2-1-23c-0.6-12.9-0.7-17.9-0.5-20.7
			c0.1-1.6,0.3-3.5,0.1-6.1c0-0.5-0.1-1.6-0.1-3c0-2-0.1-2.4,0.2-2.8c0.7-0.8,2.4-0.1,4.1,0.4c2.7,0.8,5.5,0.9,8.2,1.5
			c2.3,0.5,5.5,1.2,8.8,1.8c4.6,0.9,4.7,0.8,9.9,1.8c3.4,0.6,3.9,0.8,7.9,1.6c3.7,0.7,6.7,1.2,8.6,1.6"/>
		<path fill="none" stroke="#575D72" stroke-width="2" stroke-miterlimit="10" d="M179.2,490.2c-0.1-1.3-0.1-3.2-0.2-5.7
			c0-3.1,0-4.7,0-8c0-3.8-0.1-3.5-0.1-8.5c0-5.6,0-6.3,0-10.8c0-4.7-0.1-5-0.2-9.4c-0.1-7.4,0.1-8.9,0.1-16.2
			c0-6.3-0.2-11.3-0.2-13.4c-0.2-5.9-0.4-7-1.1-18.5c-0.3-5.5-0.6-10.6-0.9-17.1c-0.2-4.2-0.2-4.9-0.6-16.8
			c-0.6-16.7-0.6-16.2-0.7-20.1c-0.1-7.6-0.1-13.4,0-19.8c0.1-10.8,0.3-10.3,0.3-19.4c0.1-12.1,0.1-18.2-0.1-18.7
			c-0.1-0.2-0.4-1.1,0-1.5c0.6-0.6,2.4,0.3,4.2,0.9c1.7,0.6,4,1.3,7.2,1.5"/>
		<path fill="none" stroke="#575D72" stroke-width="2" stroke-miterlimit="10" d="M175.2,286.8c-1.6-0.3-4-0.8-6.9-1.4
			c-4.2-0.8-7.2-1.5-9.2-1.9c-6.9-1.5-11.3-2.4-15.6-3.3c-7.9-1.6-14.1-2.6-18.3-3.3c-10.4-1.7-10.1-1.4-17.4-2.7
			c-5.9-1-10.4-2-19.3-4c-9.7-2.1-9-2.1-15.8-3.6c-12.6-2.7-12.8-2.2-19.6-4c-10.2-2.7-11.9-4.3-14.6-4.2c-0.3,0-1.9,0.1-2.4-0.8
			c-0.4-0.6,0.2-1.3,0.1-2.6c-0.1-1-0.4-1.6-0.7-2.2c-0.9-2.1-0.4-3.5-0.6-7.4c-0.1-2.3-0.3-1.8-0.6-4.8c-0.4-4.3,0-5.5-0.2-9.8
			c-0.2-2.7-0.3-2.4-0.6-5.9c-0.3-3-0.3-5-0.4-10.6c-0.1-6.6-0.1-10-0.1-11.2c0-8,0.4-9,0.5-15.4c0.1-8.2-0.4-7.9-0.5-18.1
			c-0.1-7.4,0.2-13.3,0.4-17.6c0.3-5.9,0.4-5.9,0.9-16.2c0.6-10.4,0.4-10.3,0.8-13.8c0.1-1.5,0.8-8,2.4-16.4
			c1.2-5.9,2.3-10.2,3.2-13.4c2.1-7.9,3.2-11.8,5.1-15.7c0.8-1.6,3.5-7.1,8.8-13.1c4.1-4.7,7.8-7.5,11.4-10.2
			c3.5-2.6,7.7-5.8,13.8-8.8c5.4-2.6,11.9-5.7,20.7-5.9c5.5-0.1,10.5,0.9,14.7,1.8c4,0.9,5,1.4,9.4,2.5c6,1.6,6.7,1.2,17.8,3.2
			c0,0,14,2.6,20.1,3.5c3.9,0.6,5.9,0.9,6.9,0.6c0.1,0,0.4-0.2,0.7,0c0.4,0.3,0.1,1.2,0,2.9c-0.1,1.6,0.1,1.3,0,3.4
			c0,0.5-0.1,1.4,0.1,2.5c0.1,0.5,0.1,0.8,0.2,0.9c0.6,1.1,3.5,0.7,5.2,0.5c2.7-0.3,5.4,0,8.1-0.2c6.8-0.5,6.6,0.4,13.7,0
			c6.5-0.4,6.5-1.1,12.1-1.2c3.7,0,6.6,0,10.4,0.8c4.1,0.9,6.4,2.2,10.5,2.6c1.4,0.1,2.9,0.4,4.3,0.4c2.1,0.1,3-0.1,3.7,0.6
			c0.6,0.5,0.7,1.2,0.8,3.2c0.2,2.8,0.3,4.2,0.3,4.8c0,2.1,0.2,2.5,0.9,8.7c0.5,4.1,0.9,7.4,1.1,10.8c0.2,3.2,0.1,3.3,0.2,12.2
			c0.1,6.4,0.1,9.5,0.3,13.1c0.3,5.1,0.6,6,1,11.8c0.4,5.6,0.3,6.4,0.8,15.7c0.5,11.2,0.8,11.2,1.1,20.1c0.2,4,0.4,8.8,0.4,15.2
			c0.1,14.6-0.8,14.4-0.1,20.1c0.6,4.1,1.8,9.5,0.9,12.2c-0.5,1.7-0.4,2.4-0.1,3.9c0.1,0.5,0.2,0.9,0.6,1.2c0.8,0.7,2.2,0.2,2.8,0.1
			c0.7-0.2,2.9-0.3,7.2-0.4c6.2-0.2,9.4-0.2,9.9-0.2c0.3,0,1.1,0.1,1.7-0.4c0.7-0.6,0.5-1.9,0.4-2.3c-0.4-2.6,0.2-5.4-0.1-8
			c-0.1-0.9-0.3-3.7-0.6-9.2c-0.2-2.9-0.2-5.4-0.3-10.3c-0.2-7.9,0-8-0.2-13.8c-0.1-5-0.3-9.4-0.5-12.8c-0.4-6.8-0.5-7.1-0.8-12.6
			c-0.3-5.8-0.1-6.5-0.4-13.8c-0.2-7.2-0.4-7.1-0.8-15.7c-0.4-9.7-0.2-9.8-0.6-17.2c-0.2-3.4-0.2-3.3-1.1-16
			c-0.9-13.5-0.9-14.2-1.2-18.1c-0.6-6.9-1.6-14.4-1.9-17.4c-0.9-7.5-1.2-8.8-1.2-12.1c0-3.1-0.8-6.3-0.2-9.4
			c0.2-1.3,0.7-3.2-0.3-4.1c-0.6-0.5-1.5-0.4-2.6-0.2c-2.2,0.2-4.3-0.1-6.5,0c-1.5,0.1-0.1,0-9.2,0.1c-5.7,0.1-5.3,0.1-9.2,0.1
			s-6.8,0-12.1,0c-5,0-5.6,0-9.6-0.1c-3.4,0-9.3,0-16.5,0.1c-11,0.2-12.4,0.4-16.4,0.4c-2.4,0-4.8,0.7-7.1,0.2
			c-0.4-0.1-1.2-0.3-1.6,0.1c-0.6,0.5-0.2,1.7,0,3.4c0.2,1.4-0.1,0.7,0.1,4.4c0.1,1.8,0.2,3.8,0.5,6.3s0.6,4.4,1.1,6.6
			c0.1,0.6,0.6,2.3,0.4,4.6c0,0.2,0,0.4,0,0.5"/>
		<path fill="none" stroke="#575D72" stroke-width="2" stroke-miterlimit="10" d="M214.2,59c3.6-0.9,6.8-1.3,9.2-1.5
			c6-0.4,4.9,0.7,10,0.2c1.4-0.1,2.8-0.3,3.8,0.5c1.4,1.2,1.2,3.5,1,4.8"/>
		<path fill="none" stroke="#575D72" stroke-width="2" stroke-miterlimit="10" d="M374.2,289.3c-1.7-0.2-4.3-1-7.3-1.3
			c-5.3-0.6-8.2-0.9-11-1.2c-4.7-0.4-6.6-1.9-13.4-2.3c-8.7-0.5-9.7-1.4-13.7-2c-3.4-0.5-4.3-0.4-6.4-0.9c-1.4-0.3-4.8-1.1-5.4-0.7
			c-0.9,0.7,1.2,6.2,1.5,8.6c0.5,3.5-0.2,3.4,0,8.5c0.2,3.9,0.7,6.8,0.8,7.7c0.5,2.5,1.3,5.9,2.8,9.8"/>
		<path fill="none" stroke="#575D72" stroke-width="2" stroke-miterlimit="10" d="M328.5,131.8c0.3-1.8,1-4.4,2.5-7.2
			c1.4-2.6,3.4-5.3,8.8-9.8c5.9-4.9,11.2-8.1,13.8-9.5c4-2.3,9.7-5.4,17.8-8c4.4-1.4,10.4-2.9,17.8-3.5"/>
	</g>
	<path fill="none" stroke="#575D72" stroke-width="2" stroke-miterlimit="10" d="M263,67c3.5,1.3,8.5,2.9,14.5,4.5
		c6.7,1.8,11.9,2.8,15.5,3.5c21.1,4,24.9,2.9,39.5,6c13,2.8,10.7,3.8,25.5,7c12.8,2.8,28,5.5,28,5.5c10.2,1.8,11.6,1.9,14.5,3.5
		c8.6,4.7,13,13.3,15.5,18c2.4,4.5,3.7,8.6,4.5,11.5"/>
	<path fill="none" stroke="#575D72" stroke-width="2" stroke-miterlimit="10" d="M322.8,138.7c5.8,0.8,14-3.8,24.9-3.2
		c13.6-3,19.4-2.9,32.5-3.7c6.8,0.3,28.4-6.8,40.3-5.3"/>
	<path fill="none" stroke="#575D72" stroke-width="2" stroke-miterlimit="10" d="M445.3,292c-2.1-3.4-5.1-7.8-9.7-12
		c-3.1-2.9-6.1-5-8.7-6.7"/>
	<path fill="none" stroke="#575D72" stroke-width="2" stroke-miterlimit="10" d="M257,194.5c0.7,0.1,3.4,0.8,4.5,3.2
		c0.8,1.7,0.4,3.3,0.2,4c-0.5,2-2.2,5.4-5.2,5.5c-3.7,0.2-5.6-4.7-5.8-5c-0.3-0.9-1.4-3.8,0.2-6C252.9,193.7,256.6,194.4,257,194.5z
		"/>
	<path fill="none" stroke="#575D72" stroke-width="2" stroke-miterlimit="10" d="M318,283.8c-0.9-2.2-2.1-5.7-3-10
		c-1-4.9-1.2-8.6-1.2-20c0-7.2,0-11.4,0-18.8c0-13.1-0.1-12.5,0-17.5c0.1-4.5,0.1-5.8,0.8-23.2c0.7-18.7,0.7-20.3,1.2-24.5
		c0.1-0.9,1.3-6.9,3.8-18.8c1.4-6.6,2.3-11.1,5.5-16c1.4-2.1,2.8-3.7,3.8-4.8"/>
</g>
</svg>
