<?xml version="1.0" encoding="utf-8"?>
<!-- Generator: Adobe Illustrator 18.1.1, SVG Export Plug-In . SVG Version: 6.00 Build 0)  -->
<svg version="1.1" id="Layer_1" xmlns="http://www.w3.org/2000/svg" xmlns:xlink="http://www.w3.org/1999/xlink" x="0px" y="0px"
	 viewBox="0 0 512 512" enable-background="new 0 0 512 512" xml:space="preserve">
<g>
	<path fill="#FFFFFF" stroke="#5F6060" stroke-width="1.1174" stroke-miterlimit="10" d="M322.8,247.4c0-2.9,0.1-6,0.1-9
		c0-4.4-0.3-8.7,0.1-13.1c-0.4-2.8,0.1-4.6-0.4-7.4c-0.6-3.5-0.6-5.1-1-5.6c-0.6-0.8-1.9-2.7-4.4-3.6c-2.2-0.8-4-0.1-6.4,0.4
		c-2.2,0.4-2.3,0.1-10.8,0c0,0,0,0-13.2,0c-6.1,0-12.4,0-18.6,0c-4.9,0-9.7,0-14.6,0s-9.9,0-14.7,0c-4.1,0-8.1,0.3-12.2,0
		c-3.6-0.3-7.6-0.8-12.9,0c-2.2,0.3-4,0.8-5.4,2.2c-0.6,0.6-1.5,1.8-2.2,5.8c-0.5,3.5-0.1,5.9,0,8.7c0.3,3.5,0,6.9,0,10.4
		c0,4.6,0,9.3,0,14c0,4.7,0,9.5,0,14.3c0,4.4,0,8.8,0,13.2c0,5.2,0,10.5,0,15.7s0,10.5,0,15.7c0,5.2,0,10.4,0,15.6
		c0,5.6,0,11.3,0,16.8c0,6.3,0,12.4,0,18.7c0,5,0,10,0,15c0,4.5,0,9.1,0,13.6c0,4.2,0,8.3,0,12.5c0,5.8,0,8.7,0,8.7
		c-0.4,2.3-0.9,3.8,0,4.9c0.9,1.2,2.6,1.2,5.4,1c3.1,0,6.1,0.3,9.3,0c4.1-0.3,8.1,0,12.2,0c5.1,0,10.2,0,15.4,0c5.2,0,10.5,0,15.7,0
		c5.6,0,11.3,0,16.8,0c3.8,0,7.7,0,11.4,0c4.7,0,9.6-0.3,14.3,0c9.9,0.5,14.2,2.3,15.7,0c0.8-1,0-1.9-0.4-6.8
		c-0.1-2.6-0.1-3.8,0-7.2c0.1-6.8,0-13.6,0-20.4c0-5.9,0-11.6,0-17.5c0-8.7,0-17.4,0-26.1c0-7.8,0-15.7,0-23.6c0-5.6,0-11.3,0-16.8
		c0-4.9,0-9.7,0-14.7c0-3.6,0-7.2,0-10.8c0-4,0-7.8,0-11.8"/>
	<path fill="#FFFFFF" stroke="#5F6060" stroke-width="1.1174" stroke-miterlimit="10" d="M224.7,392c3.3,0,6.7,0,10,0
		c4.2,0,8.3,0,12.5,0c4.4,0,8.8,0,13.2,0c4.7,0,9.6,0,14.3,0c4.7,0,9.5,0,14.3,0c3.7,0,7.4,0,11.1,0c2.4,0,4.7-0.3,7.2,0
		c2.8,0.3,4.2,0.8,5.1,0c1-1,0.4-2.9,0-5.8c-0.5-3.2,0-6.4,0-9.6c0-4.2,0-5.8,0-14c0-5.9,0-11.6,0-17.5c0-7.8,0-15.5,0-23.3
		c0-6.9,0-13.8,0-20.7c0-8.1,0-16.3,0-24.3c0-7.6,0-15,0-22.5c0-5.5-1.4-11.1,0-16.5c0.4-1.5,1.3-4.2,0-5.4c-1-0.9-2.6-0.3-6,0
		c-2.4,0.3-4.7,0-7.2,0c-3.6,0-7.2,0-10.8,0c-6,0-11.9,0-17.9,0c-6.7,0-13.3,0-20,0c-6.3,0-12.7,0.8-18.9,0c-3.7-0.4-7.4,0-11.1,0
		c-2.2,0-4-0.1-5,1c-1.2,1.3-0.6,2.9-0.4,6.4c0.3,2.6,0,5.2,0,7.9c0.1,5.4,0,10.8,0,16.1c0,4,0,7.8,0,11.8c0,5.9,0,11.6,0,17.5
		c0,6.1,0,12.2,0,18.3c0,6,0,12.2,0,18.2c0,6.4,0,12.9,0,19.3c0,10.5,0,21,0,31.5"/>
	<path fill="none" stroke="#5F6060" stroke-width="1.1174" stroke-miterlimit="10" d="M264.3,410c1-0.3,1.5-0.9,2.2-1.5
		c0.4-0.5,1.2-1.3,1.4-2.6c0.1-0.6,0.4-1.8-0.1-2.8c-0.6-1.2-1.8-1.4-3.6-2c-1.4-0.4-2.2-0.6-2.9-0.4c-1.4,0.5-1.9,2-2.2,2.6
		c-0.6,1.9,0.1,3.6,0.3,4c0.3,0.4,0.8,1.5,2,2.3C261.6,409.8,262.8,410.4,264.3,410z"/>
	<path fill="#B1B7CA" stroke="#5F6060" stroke-width="1.1174" stroke-miterlimit="10" d="M252.2,223.9c1.4,0,2.9,0,4.4,0
		c1,0,2.2,0,3.2,0c1.2,0,2.3,0,3.5,0c1,0,2,0,2.9,0c1,0,2,0,2.9,0c1.3,0.1,1.9,0.3,3.1,0c1-0.1,1.3-0.4,1.4-0.6c0.4-0.5,0.4-1,0.3-2
		c-0.1-1-0.1-1.7-0.6-2c-0.5-0.4-1-0.1-2,0c-1.2,0.1-2.4,0-3.6,0c-1.4,0-2.8,0-4.2,0c-1.3,0-2.6,0-4,0c-0.9,0-1.8,0-2.7,0
		c-0.9,0-1.7,0-2.6,0c-1.3-0.1-1.5-0.3-2,0c-0.9,0.4-1.3,1.4-1.3,1.7c-0.1,0.3-0.3,0.9,0,1.7C251.3,223.4,251.9,223.8,252.2,223.9z"
		/>
	<g>
		<circle fill="#EEEEF0" cx="261.8" cy="316.1" r="36.5"/>
		<circle fill="#FFFFFF" stroke="#5F6060" stroke-width="1.762" stroke-miterlimit="10" cx="263.8" cy="310.6" r="36.5"/>
		<text transform="matrix(1 0 0 1 243.457 331.2763)" fill="#5F6060" font-family="'Courier'" font-size="76.6805">L</text>
	</g>
	<g>
		<g>
			<circle fill="#FBE69D" stroke="#D8A128" stroke-width="1.762" stroke-miterlimit="10" cx="102.8" cy="212.8" r="36.5"/>
		</g>
		<g>
			<path fill="none" stroke="#F5BC2A" stroke-width="0.881" stroke-miterlimit="10" d="M110.2,189.8c0,0.4,0.1,1,0.1,1.9
				s0,1.3,0,2.7c0,2.6,0,1.9,0,2.9c0,2-0.1,2.3,0.1,2.7c0.4,0.4,0.9,0.1,2.9,0.3c2.2,0,2.4,0.4,3.8,0.1c0.3,0,0.9-0.1,1.7-0.1
				c0.6,0,1.2,0,1.4,0.1"/>
			<g>
				<path fill="none" stroke="#F5BC2A" stroke-width="0.881" stroke-miterlimit="10" d="M85.5,237c-1.3-1.2-0.5-3.3-0.1-6.9
					c0.3-1.9,0.3-4.5,0.3-9.9c0-3.8-0.1-3.6-0.1-8.4c0-4.2,0.1-4.1,0-8.2c0-5-0.1-7.6-0.1-7.8c-0.4-2.6-0.9-4.7,0.1-5.6
					c0.4-0.3,0.8-0.4,1.8-0.5c1.7-0.3,2.8,0,4.1,0.1c0.9,0.1,2.3,0,5.1-0.1c2.6-0.1,2.3-0.3,4.2-0.3c3.1-0.1,2.9,0.1,5.6,0
					c2.4-0.1,2.8-0.4,3.8,0c0.4,0.1,1,0.4,2.9,2.3c1.8,1.8,1.7,1.8,2.8,2.9c2.3,2.2,3.3,2.3,4,3.8c0.1,0.4,0.3,1,0.3,2.2
					c0.1,1.9,0.1,3.3,0.1,4.1c-0.1,2,0,1.3,0.1,5.9c0,2.7,0,2.7,0,6.4c0,2.2,0,1.9,0,5.2c0,1.7,0,3.6,0,6.1c0,4.9-0.1,4.7,0,5.2
					c0.3,1.9,0.6,2.8,0.1,3.5c-0.5,0.6-1.5,0.5-3.3,0.4c-1.9-0.1-4,0-6-0.1c-3.2-0.1-2.9,0.1-6.7,0c-3.2,0-3.2-0.3-5.6-0.1
					c-1.8,0-1.7,0.1-5.4,0.3c-1.3,0-3.1,0.1-5.2-0.1C86.7,237.4,85.9,237.2,85.5,237z"/>
				<path fill="none" stroke="#F5BC2A" stroke-width="0.881" stroke-miterlimit="10" d="M96.7,213.7c0.1-0.1,0.3-0.1,1-0.1
					c0.4,0,0.9,0,1.3,0c0.8,0,0.8,0,1.3,0c0.4,0,0.4,0,1.3,0c0.4,0,0.6,0,1.3,0c0.5,0,0.9,0,1.3,0c0.6,0,0.9,0,1,0
					c0.8,0,1-0.3,1.2,0c0.1,0.1,0,0.1,0.1,0.6c0,0.6,0,0.5,0,1.2c0,0.4,0,0.5,0,1c0,0.5,0,0.8,0,1.4c0,0.8,0,0.8,0,1.4
					c0,0.5,0,0.5,0,1.3c0,0.8,0,1.2,0,1.3c0,0.8,0.1,1,0,1.3c-0.1,0.1-0.1,0.1-0.9,0.1c-0.6,0-0.9,0.1-1.2,0.1c-0.6,0-0.6,0-1.3,0
					c-0.5,0-0.5,0-1.3,0c-0.5,0-0.9,0-1.3,0c-0.9,0-0.9,0-1.4,0c-0.9,0-1.3,0-1.4,0c-0.6,0-0.9,0.1-1,0c-0.1-0.1,0-0.4,0-0.9
					c0-0.3,0-0.6,0-1.4c0-0.9-0.1-0.9-0.1-1.5s0.1-0.6,0.1-1.3c0-0.5,0-0.5-0.1-1.2c0-0.5,0-0.5,0-1.2c0-0.4,0-0.5,0-1.2
					C96.4,214,96.5,213.8,96.7,213.7z"/>
				<path fill="#B6852C" stroke="#F5BC2A" stroke-width="0.881" stroke-miterlimit="10" d="M99,217c0.3,0,0.4-0.1,0.5-0.3
					c0.1-0.1,0.3-0.1,0.4-0.4c0.1-0.3,0.3-0.5,0.3-0.6c0-0.3-0.1-0.5-0.1-0.6c-0.1-0.1-0.1-0.4-0.4-0.5c-0.3-0.1-0.4-0.3-0.5-0.3
					c-0.3,0-0.5,0-0.6,0c-0.3,0.1-0.5,0.3-0.6,0.4s-0.3,0.3-0.3,0.4c-0.1,0.3-0.1,0.4,0,0.5c0,0.1,0,0.4,0.1,0.5
					c0.1,0.1,0.3,0.3,0.4,0.4c0.1,0.1,0.3,0.1,0.4,0.3C98.7,216.9,98.8,216.9,99,217C98.7,217,98.8,217,99,217z"/>
				<path fill="#C4C4C3" stroke="#F5BC2A" stroke-width="0.881" stroke-miterlimit="10" d="M96.9,223c0,0.1,0.3,0.1,0.8,0.1
					c0.4,0,0.4,0,0.6,0s0.3,0,0.6,0c0.1,0,0.4,0,0.6,0c0.4,0,0.4,0,0.6,0s0.5,0,0.6,0c0.3,0,0.4,0,0.5,0c0.5,0,0.5,0,0.6,0
					c0.3,0,0.5,0,0.6,0c0.4,0,0.4,0,0.6,0c0.1,0,0.3,0,0.6,0c0.1,0,0.3,0,0.6,0c0.5,0,0.5,0,0.8,0c0.4,0,0.4,0,0.5,0
					c0-0.1-0.1-0.3-0.3-0.6c-0.1-0.3-0.1-0.3-0.3-0.6c-0.3-0.4-0.3-0.4-0.4-0.8c-0.1-0.4-0.1-0.4-0.3-0.8c-0.1-0.3-0.1-0.3-0.4-0.6
					c-0.1-0.3-0.3-0.5-0.4-0.8c-0.1-0.4-0.3-0.6-0.4-0.8c-0.1-0.4-0.1-0.4-0.3-0.6c-0.3-0.4-0.1-0.4-0.3-0.5
					c-0.1-0.3-0.1-0.4-0.1-0.4s0,0.1-0.1,0.3c-0.1,0.1-0.1,0.1-0.3,0.3c-0.1,0.1-0.1,0.3-0.3,0.4c-0.1,0.3-0.3,0.4-0.3,0.5
					c-0.1,0.4-0.1,0.4-0.3,0.4c-0.1,0.3-0.1,0.3-0.3,0.4c-0.1,0.3-0.1,0.3-0.3,0.4c-0.1,0.3-0.1,0.3-0.3,0.5c0,0.1-0.1,0.3-0.3,0.4
					c-0.1,0.3-0.1,0.3-0.1,0.3c-0.1,0-0.1-0.1-0.4-0.4c-0.1-0.1-0.1-0.1-0.4-0.4c-0.1-0.1-0.3-0.3-0.4-0.4c-0.3-0.3-0.3-0.4-0.4-0.4
					c0,0-0.1,0-0.3,0.4c-0.1,0.3-0.1,0.4-0.3,0.4c-0.1,0.3-0.1,0.3-0.1,0.5c-0.1,0.1-0.1,0.1-0.3,0.5s-0.1,0.4-0.3,0.5
					c-0.1,0.3-0.1,0.3-0.3,0.5c0,0.1,0,0.1-0.3,0.5C96.9,222.9,96.9,222.9,96.9,223z"/>
				<line fill="none" stroke="#F5BC2A" stroke-width="0.881" stroke-miterlimit="10" x1="90" y1="205.4" x2="113.9" y2="204.7"/>
				<line fill="none" stroke="#F5BC2A" stroke-width="0.881" stroke-miterlimit="10" x1="88.7" y1="208.6" x2="115" y2="207.7"/>
				<line fill="none" stroke="#F5BC2A" stroke-width="0.881" stroke-miterlimit="10" x1="89.2" y1="212.2" x2="113.2" y2="211.1"/>
				<line fill="none" stroke="#F5BC2A" stroke-width="0.881" stroke-miterlimit="10" x1="90.1" y1="226.2" x2="111.9" y2="225.5"/>
				<line fill="none" stroke="#F5BC2A" stroke-width="0.881" stroke-miterlimit="10" x1="88.8" y1="229.3" x2="115" y2="228.5"/>
				<line fill="none" stroke="#F5BC2A" stroke-width="0.881" stroke-miterlimit="10" x1="90.6" y1="231.4" x2="110.2" y2="231.2"/>
				<line fill="none" stroke="#F5BC2A" stroke-width="0.881" stroke-miterlimit="10" x1="89.1" y1="234.4" x2="115.6" y2="233.9"/>
			</g>
		</g>
	</g>
	<g>
		<g>
			<circle fill="#CFC7E3" stroke="#837AB2" stroke-width="2" stroke-miterlimit="10" cx="186.6" cy="132.8" r="36.5"/>
		</g>
		<g>
			<path fill="none" stroke="#A39FCD" stroke-width="1.5057" stroke-miterlimit="10" d="M199.6,142.5c-3.1-1.4-5.4-2.7-7-3.7
				c-1.9-1.2-3.7-2.4-4.6-3.1c-1.2-0.8-2.3-2.2-2.9-2.7"/>
			<path fill="none" stroke="#A39FCD" stroke-width="1.5057" stroke-miterlimit="10" d="M185.1,134.2c0-1.5,0-2.9,0-4.5
				c0-1.7,0-3.5,0-5.1c0-2.3,0-4.6,0-6.9"/>
			<path fill="none" stroke="#A39FCD" stroke-width="1.5057" stroke-miterlimit="10" d="M192.7,158.4c3.3-0.8,5.5-1.8,5.9-2
				c3.2-1.7,5.1-3.6,6.1-4.6c2.8-2.9,4.2-5.6,5-7.2c1.3-2.6,2.8-5.6,3.1-10c0.3-4.5-1-7.8-1.7-9.5c-1.7-4.6-4.4-7.4-5.6-8.8
				c-1.5-1.7-4.6-5-10-7c-1.8-0.8-7.3-2.8-14.1-1.4c-5.6,1.2-9.3,4.1-11.1,5.5c-4.5,3.7-6.7,7.8-7.2,9c-2.9,6-2.7,11.4-2.6,12.8
				c0.4,5,2.2,8.4,3.1,10.2c2.3,4.4,5,7,5.6,7.6c1.3,1.3,4.7,4.4,10.1,5.8C185,160.2,189.7,159,192.7,158.4z"/>
		</g>
	</g>
	<g>
		<g>
			<circle fill="#9BC7E2" stroke="#3E9DCC" stroke-width="2" stroke-miterlimit="10" cx="409.1" cy="210" r="36.5"/>
		</g>
		<g>
			<path fill="none" stroke="#4794D0" stroke-width="1.1174" stroke-miterlimit="10" d="M383.2,206c0.9,0.9,2.4,0.4,5.5,0
				c0,0,0,0,7.3,0c2.8,0,5.6,0,8.4,0c2,0,4.1,0,6,0c2.6,0,5,0,7.6,0s5.1,0,7.6,0c5.5,0,5.5,0,5.5,0c0.9,0,1.9-0.1,2.8,0
				c0.6,0.1,1,0.1,1.3-0.1c0.4-0.4,0-0.9-0.1-2.2c-0.1-1.3,0.1-1.4,0-2.8c-0.1-1-0.1-1.5-0.4-1.9c-0.1-0.3-0.6-0.8-2-1.3
				c-1.7-0.6-3.1-0.8-3.2-0.8c-2.6-0.3-4.5-0.1-5.5,0c-2.4,0.1-5,0-7.4,0c-2.7,0-5.2,0-7.9,0c-2.4,0-4.9,0-7.3,0c-5,0-7.6,0-7.6,0
				c-1.9-0.1-3.8,0-5.8,0c-0.6,0-1.5,0-2.6,0.4c-1.2,0.5-1.8,1.5-2,1.8c-0.8,1-0.9,2.2-1,2.9C382.6,203.3,382.4,205.1,383.2,206z"/>
			<path fill="none" stroke="#4794D0" stroke-width="1.1174" stroke-miterlimit="10" d="M383.1,205.9c0,0.5,0,1.4,0,2.6
				c0,1.2,0,1.8-0.1,2.4c0,1.3,0,1.5,0,4.4c0,2.7,0,4.1,0,5.1c0,1.2,0,2.3,0,3.5c0,1,0,1.5,0.1,2.2c0.1,0.4,0.4,1.4,1.4,2.2
				c0.8,0.6,1.5,0.8,2.2,0.9c1.2,0.3,2,0.1,3.1,0c1.4-0.1,2.8,0,4.4,0c1.8,0,3.5,0,5.2,0c1.5,0,2.9,0,4.5,0c1.7,0,3.5,0,5.1,0
				c1.3,0,2.6,0,3.8,0c1.5,0,3.1,0,4.6,0c1.3,0,2.4,0,3.7,0c1.7,0,3.3,0,5,0c1.7,0,2.4,0.1,3.7,0c1.5-0.1,2.3-0.4,2.8-0.8
				c0.5-0.3,1.3-0.8,1.9-1.7c0.4-0.6,0.4-1.3,0.5-2.4c0.1-1,0-1.8,0-2.6c0,0,0,0,0-4c0-2.2,0-4.5,0-6.7c0-1.7,0-3.3,0-4.9"/>
			<path fill="none" stroke="#4794D0" stroke-width="1.1174" stroke-miterlimit="10" d="M389.5,212.8c6.4,0,12.8,0,19.2,0"/>
			<path fill="none" stroke="#4794D0" stroke-width="1.1174" stroke-miterlimit="10" d="M389.1,217.3c2.7,0,5.4,0,8.2,0"/>
			<path fill="none" stroke="#4794D0" stroke-width="1.1174" stroke-miterlimit="10" d="M421.4,212.8c2.7,0,5.4,0,8.2,0"/>
		</g>
	</g>
	<g>
		<g>
			<circle fill="#AED9B3" stroke="#4F9B4E" stroke-width="1.762" stroke-miterlimit="10" cx="321.8" cy="130" r="36.5"/>
		</g>
		<g>
			<path fill="none" stroke="#51B848" stroke-width="1.537" stroke-miterlimit="10" d="M321.9,153c0-15.4,0-30.7,0-46"/>
			<path fill="none" stroke="#51B848" stroke-width="1.537" stroke-miterlimit="10" d="M332,121.4c0-0.5-0.1-1.3-0.4-2.2
				c-0.1-0.3-0.4-1.5-1.4-2.9c-0.5-0.8-1.2-1.8-2.4-2.6c-1-0.8-2-0.9-3.2-1.3c-1.2-0.3-1.8-0.4-2.7-0.4c-1.2,0.1-1.9,0.6-2.9,1.2
				c-0.9,0.5-1.7,1-2.4,1.9c-0.8,0.9-1.2,1.9-1.5,2.8c-0.3,0.8-0.4,1.4-0.5,1.7c-0.1,0.8-0.3,1.4-0.3,2.4c0.1,1.2,0.5,1.9,0.8,2.6
				c0.4,0.8,0.6,1.2,1.3,2c0.6,0.9,1,1.3,1.5,1.7c0.6,0.5,1.2,0.6,2,1c0.3,0.1,1,0.4,2.9,0.6c2,0.4,2,0.1,2.8,0.4
				c0.5,0.1,1.7,0.5,2.9,1.5c0.4,0.4,1.2,1,1.9,2.2c0.8,1.3,0.9,2.3,1,3.6c0.1,1,0.3,2.3,0,3.7c-0.1,0.8-0.4,1.8-1,2.7
				c-0.9,1.2-1.9,1.5-3.5,2.2c-0.9,0.4-1.9,0.8-3.5,1c-1.3,0.1-2.9,0.4-4.6-0.5c-1.2-0.6-1.9-1.4-2.7-2.6c-0.4-0.5-1-1.3-1.5-2.4
				c-0.8-1.7-0.8-2.9-0.8-3.3c0-0.4,0-0.6,0-0.8"/>
		</g>
	</g>
</g>
<g>
	<path fill="none" stroke="#999FAF" stroke-width="1.1174" stroke-miterlimit="10" d="M237.9,121.3c2.4,0,4.7,0,7.2,0"/>
	<path fill="none" stroke="#999FAF" stroke-width="1.1174" stroke-miterlimit="10" d="M249,121.6c2.6,0.1,5,0.3,7.6,0.4"/>
	<path fill="none" stroke="#999FAF" stroke-width="1.1174" stroke-miterlimit="10" d="M260,122c1.9,0.1,3.8,0.3,5.8,0.4"/>
	<path fill="none" stroke="#999FAF" stroke-width="1.1174" stroke-miterlimit="10" d="M269,122.5c1.9,0.1,4,0.4,5.9,0.5"/>
	<path fill="none" stroke="#999FAF" stroke-width="1.1174" stroke-miterlimit="10" d="M277.1,123.2c1.9,0.1,4,0.4,5.9,0.5"/>
	<path fill="none" stroke="#999FAF" stroke-width="1.1174" stroke-miterlimit="10" d="M363.7,148.9c1.4,1,2.7,2,4.1,3.1"/>
	<path fill="none" stroke="#999FAF" stroke-width="1.1174" stroke-miterlimit="10" d="M369.5,153.2c1.2,0.9,2.3,1.8,3.5,2.7"/>
	<path fill="none" stroke="#999FAF" stroke-width="1.1174" stroke-miterlimit="10" d="M374,157.2c0.9,0.8,1.9,1.5,2.8,2.3"/>
	<path fill="none" stroke="#999FAF" stroke-width="1.1174" stroke-miterlimit="10" d="M389.5,170.9c1,1,2,2.2,3.1,3.2"/>
	<path fill="none" stroke="#999FAF" stroke-width="1.1174" stroke-miterlimit="10" d="M386.5,255.2c-1.8,1.5-3.6,2.9-5.4,4.5"/>
	<path fill="none" stroke="#999FAF" stroke-width="1.1174" stroke-miterlimit="10" d="M378.7,261.9c-2.4,1.7-4.7,3.2-7.2,4.9"/>
	<path fill="none" stroke="#999FAF" stroke-width="1.1174" stroke-miterlimit="10" d="M368.2,268.8c-2.9,1.8-5.9,3.6-8.7,5.4"/>
	<path fill="none" stroke="#999FAF" stroke-width="1.1174" stroke-miterlimit="10" d="M356,275.5c-2.6,1.4-5.2,2.7-7.8,4.1"/>
	<path fill="none" stroke="#999FAF" stroke-width="1.1174" stroke-miterlimit="10" d="M344.9,280.3c-3.5,1.5-6.8,3.1-10.2,4.6"/>
	<path fill="none" stroke="#999FAF" stroke-width="1.1174" stroke-miterlimit="10" d="M330.8,286.2c-2.6,1-5.1,2-7.7,3.1"/>
	<path fill="none" stroke="#999FAF" stroke-width="1.1174" stroke-miterlimit="10" d="M138,174.1c1-1.4,2-2.7,3.1-4.1"/>
	<path fill="none" stroke="#999FAF" stroke-width="1.1174" stroke-miterlimit="10" d="M142.4,168.3c0.9-1.2,1.8-2.3,2.7-3.5"/>
	<path fill="none" stroke="#999FAF" stroke-width="1.1174" stroke-miterlimit="10" d="M146.3,163.2c0.8-0.9,1.5-1.9,2.3-2.8"/>
	<path fill="none" stroke="#999FAF" stroke-width="1.1174" stroke-miterlimit="10" d="M129.9,184.7c0.8-0.9,1.5-1.9,2.3-2.8"/>
	<path fill="none" stroke="#999FAF" stroke-width="1.1174" stroke-miterlimit="10" d="M149.5,159.4c1-1,2.2-2,3.2-3.1"/>
	<path fill="none" stroke="#999FAF" stroke-width="1.1174" stroke-miterlimit="10" d="M204.8,288.8c-2.3-0.6-4.5-1.3-6.8-1.8"/>
	<path fill="none" stroke="#999FAF" stroke-width="1.1174" stroke-miterlimit="10" d="M195,286.3c-2.7-1-5.4-2-8.1-3.1"/>
	<path fill="none" stroke="#999FAF" stroke-width="1.1174" stroke-miterlimit="10" d="M183.2,281.7c-3.2-1.4-6.3-2.7-9.5-4.1"/>
	<path fill="none" stroke="#999FAF" stroke-width="1.1174" stroke-miterlimit="10" d="M170.8,275.5c-2.7-1.4-5.2-2.7-7.9-4.1"/>
	<path fill="none" stroke="#999FAF" stroke-width="1.1174" stroke-miterlimit="10" d="M160.6,269.1c-3.2-1.9-6.4-3.8-9.6-5.6"/>
	<path fill="none" stroke="#999FAF" stroke-width="1.1174" stroke-miterlimit="10" d="M147.6,260.9c-2.3-1.5-4.6-3.1-6.9-4.6"/>
	<path fill="none" stroke="#999FAF" stroke-width="1.1174" stroke-miterlimit="10" d="M138.4,254.1c-1.8-1.2-3.5-2.2-5.2-3.3"/>
	<path fill="none" stroke="#999FAF" stroke-width="1.1174" stroke-miterlimit="10" d="M131.3,249.7c-1.8-1.2-3.5-2.2-5.2-3.3"/>
	<path fill="none" stroke="#999FAF" stroke-width="1.1174" stroke-miterlimit="10" d="M133.6,179.9c1-1.4,2-2.7,3.1-4.1"/>
	<path fill="none" stroke="#999FAF" stroke-width="1.1174" stroke-miterlimit="10" d="M227.5,121.3c2.4,0,4.7,0,7.2,0"/>
	<path fill="none" stroke="#999FAF" stroke-width="1.1174" stroke-miterlimit="10" d="M393.2,249.2c-1.8,1.5-3.6,2.9-5.4,4.5"/>
	<path fill="none" stroke="#999FAF" stroke-width="1.1174" stroke-miterlimit="10" d="M357.5,144.7c1.4,1,2.7,2,4.1,3.1"/>
	<path fill="none" stroke="#999FAF" stroke-width="1.1174" stroke-miterlimit="10" d="M378.3,160.9c0.9,0.8,1.9,1.5,2.8,2.3"/>
	<path fill="none" stroke="#999FAF" stroke-width="1.1174" stroke-miterlimit="10" d="M382.1,164.2c0.9,0.8,1.9,1.5,2.8,2.3"/>
	<path fill="none" stroke="#999FAF" stroke-width="1.1174" stroke-miterlimit="10" d="M386,167.5c0.9,0.8,1.9,1.5,2.8,2.3"/>
</g>
</svg>
