<?xml version="1.0" encoding="utf-8"?>
<!-- Generator: Adobe Illustrator 18.1.1, SVG Export Plug-In . SVG Version: 6.00 Build 0)  -->
<svg version="1.1" id="Layer_1" xmlns="http://www.w3.org/2000/svg" xmlns:xlink="http://www.w3.org/1999/xlink" x="0px" y="0px"
	 viewBox="567.5 524.1 143.2 251.8" enable-background="new 567.5 524.1 143.2 251.8" xml:space="preserve">
<g>
	<g>
		<path fill="#7F7E7E" stroke="#5E5F5F" stroke-miterlimit="10" d="M652.2,717.8c5.2,2.8,19.8,7,22.8,8.2c4,1.8,6.2,2.8,9.8,4.8
			c3,1.8,5.2,3.2,7.2,5.5c2.8,3.2,3.2,7,4,14.8c0.5,5,0.7,10.2,0.7,20.5c0,1.8,0,3.8,0,2.8s-23.5,1.8-113.2-0.5"/>
		<path fill="#7F7E7E" stroke="#5E5F5F" stroke-miterlimit="10" d="M628.8,717.2c-5.2,2.8-19.8,8.2-22.8,9.5c-4,1.8-6.2,2.8-9.8,4.7
			c-3,1.8-5.2,3.2-7.2,5.5c-2.8,3.2-3.2,7-4,14.8c-0.5,5-0.8,10.2-0.8,20.5c0,1.8,0,3.8,0,2.8c0-1,23.5,1.8,113.2-0.5"/>
	</g>
	<g>
		<ellipse fill="#FCF6F9" stroke="#5E5F5F" stroke-miterlimit="10" cx="582.5" cy="646.8" rx="14.5" ry="17"/>
		<ellipse fill="#FCF6F9" stroke="#5E5F5F" stroke-miterlimit="10" cx="695.8" cy="644.7" rx="14.5" ry="17"/>
		<ellipse fill="#F2E1E9" cx="695.8" cy="646" rx="6" ry="11.5"/>
		<ellipse fill="#F2E1E9" cx="580.8" cy="648.8" rx="6" ry="11.5"/>
		<g>
			<path fill="#434649" stroke="#5E5F5F" stroke-miterlimit="10" d="M582.5,627.2c-1.5,0.8-3.8,1.5-5.2,0.5c-1.8-1-1.8-3.8-2-10.2
				c0-4.5-0.2-8.8-0.2-13c0-7.8,0-11.8,0-14.2c-0.5-10.2-1.8-12-0.5-17.2c0.8-4,1.8-3.8,2.5-8.2c1.2-6.5-0.3-7.8,0.5-13
				c1-5.5,4-9.5,5.8-12c4-5.5,8.5-8.5,9.7-9.2c5.5-3.5,10.5-4.2,14.5-5c5.2-0.8,11.2-1.8,17.8,0.5c7.2,2.8,10.2,7.8,15.2,6.2
				c1.8-0.5,1.8-1.2,4.5-2.8c5.7-3.2,11.8-3.5,14.2-3.5c7,0.2,12,3,15,4.8c5.3,3,10,5.8,11,10.5c0.5,2.5-0.2,4.7,1.8,6.5
				c1.5,1.2,2.5,0.5,4.5,1.5c3.8,1.8,2.8,5.8,6.8,10.2c3,3.3,4.5,2.2,6,5c1.2,2.5,1,4.5,0.5,10c-0.2,4.2-0.2,8.5-0.2,12.8
				c0,1.8,0,1.2,0,13.8c0,16.8,0,16.5,0,16.8c0.5,4,1.2,6.2,0,7.5c-1.8,1.7-5.3,0.5-8.5-0.5"/>
			<path fill="none" stroke="#000000" stroke-miterlimit="10" d="M626,563.8c-2,0-5-0.2-8.8-0.8c-5-0.8-10-1.5-15.5-4s-9-5.5-11.8-8
				c-7.8-6.8-12.2-14.5-15-20.8"/>
			<path fill="none" stroke="#000000" stroke-miterlimit="10" d="M631.2,573.8c-1.8,0.5-4.5,1.2-7.8,1.5c-4,0.2-6.5-0.5-12.5-1.2
				c-9.5-1.2-9-0.5-12.2-1.5c-5.8-1.5-9.2-4.7-13.2-8.2c-4.2-3.8-10.8-10.5-16.2-20.8"/>
			<path fill="#F3EDEE" stroke="#5E5F5F" stroke-miterlimit="10" d="M641.2,709.8c5.2-0.2,9-1.2,12.8-2c4.8-1.2,9.5-2.5,15-5.8
				c5.8-3.5,9.3-7.5,12-11c1.5-1.8,5-6,8.2-12.5c2-4,4.8-9.2,6-16.5c0.5-2.5,0.5-6,0.5-13c0.2-7.5,0-13.5,0-17c0-6-0.3-6.2-0.5-18.2
				c-0.2-8.5-0.5-12.8-0.5-16c0-8.8,0-13.2,0.2-15.5c0.5-5.5,1.2-9,0-9.5s-2.8,2.8-7,4.5c-4.7,1.8-9.7-0.2-10.7-0.5
				c-4.5-2-6-5-10-4.7c-0.2,0-1.2,0.2-3,0.5c-5.2,0.8-5.2,1-6,0.8c-3.5-0.3-4.8-2.5-6.2-1.8c-0.8,0.5-0.8,1.5-1.2,2.8
				c-1,2.8-3.5,3.5-7,5.5c-5.5,3.2-4.5,3.8-8.2,5.5c-4.5,2.2-8.5,3-11,3.2c-7,1-12.2,0-13.8-0.2c-3.8-0.8-6.2-2-10.5-3.8
				c-5.5-2.5-8.2-3.5-11-6.2c-3.5-3.2-5-6.5-5.8-6c-0.5,0.2-0.2,1.2,0,4.5c0.3,3.5,0,2.8,0.3,8c0.2,3.5,0.2,4,0.5,7
				c0,0.8,0.2,5.5,0.2,10.5c0,6-0.5,6.5-0.8,12.8c0,1.2,0,2.5,0,12c0,10.8,0.2,10,0.2,16.8c0,11,0,12.3,0.5,15.8
				c0.5,3.2,1,7.2,2.8,12c0.8,1.8,2.8,7,7.2,13c3.5,4.5,6.5,7,11.2,10.5c5.8,4.5,9.2,7.2,14.5,9.8
				C623,706.5,630.8,710.3,641.2,709.8z"/>
		</g>
		<circle fill="#F2E1E9" cx="672.5" cy="645" r="7.8"/>
		<circle fill="#F2E1E9" cx="608" cy="645" r="7.8"/>
		<g>
			<g>
				<path fill="#F1E0E8" d="M634.5,653.8c3.5,0,7.3,0,10.8,0c6.5,0,6.5-10,0-10c-3.5,0-7.2,0-10.8,0
					C628.2,643.8,628.2,653.8,634.5,653.8L634.5,653.8z"/>
			</g>
		</g>
		<path fill="none" stroke="#5E5F5F" stroke-miterlimit="10" d="M629,611.2c0,2-0.2,4.8-0.2,8c0,2-0.2,4.5-0.2,12.8
			c-0.2,11.5-0.2,12.8,0.5,14.8c0.8,1.8,2.5,6,7,7.8c5.2,2,10-0.8,10.2-1c0.2,0,4-2.5,5.2-7.2c0.3-0.8,0.3-1,0.3-6.5
			c0-5.2,0-2,0-7.2c0-3,0-5.5,0-9s0-7.8-0.3-12.8"/>
		<g>
			<g>
				<path fill="#434649" d="M672.2,630.5c5.7,0,5.7-8.8,0-8.8C666.5,621.8,666.5,630.5,672.2,630.5L672.2,630.5z"/>
			</g>
		</g>
		<g>
			<g>
				<path fill="#434649" d="M607,630c5.8,0,5.8-8.8,0-8.8S601.2,630,607,630L607,630z"/>
			</g>
		</g>
		<g>
			<g>
				<path fill="#434649" d="M664.3,611.5c5.2-1.8,10.5-2.2,15.7-1.5c3.2,0.5,4.5-4.5,1.2-4.7c-6.2-1-12.5-0.5-18.5,1.5
					C659.8,607.5,661.2,612.5,664.3,611.5L664.3,611.5z"/>
			</g>
		</g>
		<g>
			<g>
				<path fill="#434649" d="M601.2,611c4.8-1,9.2-2,14-0.2c3,1.2,4.2-3.8,1.2-4.8c-5.5-2-11-1-16.5,0.2
					C597,606.8,598.2,611.8,601.2,611L601.2,611z"/>
			</g>
		</g>
		<g opacity="0.5">
			<g>
				<g>
					<path fill="#5E5F5F" d="M589.8,670c0-10,0-19.7,0-29.7c0-0.8-1.2-0.8-1.2,0c0,10,0,19.7,0,29.7C588.5,671,589.8,671,589.8,670
						L589.8,670z"/>
				</g>
			</g>
			<g>
				<g>
					<path fill="#5E5F5F" d="M594.2,681.8c0-10.5,0-20.8,0-31.2c0-0.8-1.2-0.8-1.2,0c0,10.5,0,20.7,0,31.2
						C593,682.5,594.2,682.5,594.2,681.8L594.2,681.8z"/>
				</g>
			</g>
			<g>
				<g>
					<path fill="#5E5F5F" d="M602.2,688c0-8,0-15.8,0-23.8c0-0.8-1.2-0.8-1.2,0c0,8,0,15.7,0,23.8C601,688.8,602.2,688.8,602.2,688
						L602.2,688z"/>
				</g>
			</g>
			<g>
				<g>
					<path fill="#5E5F5F" d="M606.2,691.2c0-8.2,0-16.8,0-25c0-0.7-1.2-0.7-1.2,0c0,8.2,0,16.8,0,25C605,692,606.2,692,606.2,691.2
						L606.2,691.2z"/>
				</g>
			</g>
			<g>
				<g>
					<path fill="#5E5F5F" d="M613.5,697.2c0-9.2,0-18.5,0-27.8c0-0.8-1.2-0.8-1.2,0c0,9.2,0,18.5,0,27.8
						C612.2,698,613.5,698,613.5,697.2L613.5,697.2z"/>
				</g>
			</g>
			<g>
				<g>
					<path fill="#5E5F5F" d="M621,701.5c0-11.2,0-22.8,0-34c0-0.7-1.2-0.7-1.2,0c0,11.2,0,22.8,0,34
						C619.8,702.2,621,702.2,621,701.5L621,701.5z"/>
				</g>
			</g>
			<g>
				<g>
					<path fill="#5E5F5F" d="M624,703.5c0-14.2,0-28.2,0-42.5c0-0.7-1.2-0.7-1.2,0c0,14.3,0,28.2,0,42.5
						C622.8,704.3,624,704.3,624,703.5L624,703.5z"/>
				</g>
			</g>
			<g>
				<g>
					<path fill="#5E5F5F" d="M628.5,705.3c0-15.5,0-31,0-46.8c0-0.7-1.2-0.7-1.2,0c0,15.5,0,31,0,46.8
						C627.2,706,628.5,706,628.5,705.3L628.5,705.3z"/>
				</g>
			</g>
			<g>
				<g>
					<path fill="#5E5F5F" d="M635.8,705.5c0-15.2,0-30.5,0-45.8c0-0.7-1.2-0.7-1.2,0c0,15.3,0,30.5,0,45.8
						C634.5,706.2,635.8,706.2,635.8,705.5L635.8,705.5z"/>
				</g>
			</g>
			<g>
				<g>
					<path fill="#5E5F5F" d="M639,706.8c0-15.8,0-31.5,0-47c0-0.7-1.2-0.7-1.2,0c0,15.8,0,31.5,0,47
						C637.8,707.5,639,707.5,639,706.8L639,706.8z"/>
				</g>
			</g>
			<g>
				<g>
					<path fill="#5E5F5F" d="M647,705.5c0-15.8,0-31.5,0-47.2c0-0.7-1.2-0.7-1.2,0c0,15.8,0,31.5,0,47.2
						C645.5,706.2,647,706.2,647,705.5L647,705.5z"/>
				</g>
			</g>
			<g>
				<g>
					<path fill="#5E5F5F" d="M651.2,705.3c0-15.3,0-30.5,0-45.5c0-0.7-1.2-0.7-1.2,0c0,15.2,0,30.5,0,45.5
						C650,706,651.2,706,651.2,705.3L651.2,705.3z"/>
				</g>
			</g>
			<g>
				<g>
					<path fill="#5E5F5F" d="M657.8,704.3c0-15,0-30,0-45c0-0.8-1.2-0.8-1.2,0c0,15,0,30,0,45C656.5,705,657.8,705,657.8,704.3
						L657.8,704.3z"/>
				</g>
			</g>
			<g>
				<g>
					<path fill="#5E5F5F" d="M665.2,702c0-11.5,0-23.2,0-34.8c0-0.7-1.2-0.7-1.2,0c0,11.5,0,23.2,0,34.8
						C664,702.8,665.2,702.8,665.2,702L665.2,702z"/>
				</g>
			</g>
			<g>
				<g>
					<path fill="#5E5F5F" d="M668.5,699c0-8.8,0-17.8,0-26.5c0-0.7-1.2-0.7-1.2,0c0,8.8,0,17.8,0,26.5
						C667.2,699.8,668.5,699.8,668.5,699L668.5,699z"/>
				</g>
			</g>
			<g>
				<g>
					<path fill="#5E5F5F" d="M673.8,695.3c0-9,0-17.8,0-26.8c0-0.7-1.2-0.7-1.2,0c0,9,0,17.8,0,26.8
						C672.5,696,673.8,696,673.8,695.3L673.8,695.3z"/>
				</g>
			</g>
			<g>
				<g>
					<path fill="#5E5F5F" d="M680,689.3c0-8.2,0-16.8,0-25c0-0.8-1.2-0.8-1.2,0c0,8.2,0,16.8,0,25C678.8,690,680,690,680,689.3
						L680,689.3z"/>
				</g>
			</g>
			<g>
				<g>
					<path fill="#5E5F5F" d="M685.5,681.8c0-9.8,0-19.5,0-29.5c0-0.7-1.2-0.7-1.2,0c0,9.8,0,19.5,0,29.5
						C684.3,682.5,685.5,682.5,685.5,681.8L685.5,681.8z"/>
				</g>
			</g>
			<g>
				<g>
					<path fill="#5E5F5F" d="M692,672.5c0-10.5,0-21,0-31.5c0-0.8-1.2-0.8-1.2,0c0,10.5,0,21,0,31.5
						C690.8,673.5,692,673.5,692,672.5L692,672.5z"/>
				</g>
			</g>
			<g>
				<g>
					<path fill="#5E5F5F" d="M598.2,683.5c0-10,0-19.8,0-29.8c0-0.7-1.2-0.7-1.2,0c0,10,0,19.8,0,29.8
						C597,684.5,598.2,684.5,598.2,683.5L598.2,683.5z"/>
				</g>
			</g>
			<g>
				<g>
					<path fill="#5E5F5F" d="M610.2,692.5c0-8,0-15.7,0-23.8c0-0.7-1.2-0.7-1.2,0c0,8,0,15.8,0,23.8
						C609,693.2,610.2,693.2,610.2,692.5L610.2,692.5z"/>
				</g>
			</g>
			<g>
				<g>
					<path fill="#5E5F5F" d="M617,699.5c0-9.3,0-18.5,0-27.8c0-0.8-1.2-0.8-1.2,0c0,9.2,0,18.5,0,27.8
						C615.8,700.3,617,700.3,617,699.5L617,699.5z"/>
				</g>
			</g>
			<g>
				<g>
					<path fill="#5E5F5F" d="M632,704c0-14.3,0-28.2,0-42.5c0-0.8-1.2-0.8-1.2,0c0,14.2,0,28.2,0,42.5
						C630.8,704.8,632,704.8,632,704L632,704z"/>
				</g>
			</g>
			<g>
				<g>
					<path fill="#5E5F5F" d="M643,705.8c0-15.2,0-30.5,0-45.8c0-0.7-1.2-0.7-1.2,0c0,15.3,0,30.5,0,45.8
						C641.8,706.5,643,706.5,643,705.8L643,705.8z"/>
				</g>
			</g>
			<g>
				<g>
					<path fill="#5E5F5F" d="M654.8,705.5c0-15.8,0-31.5,0-47.2c0-0.7-1.2-0.7-1.2,0c0,15.8,0,31.5,0,47.2
						C653.5,706.2,654.8,706.2,654.8,705.5L654.8,705.5z"/>
				</g>
			</g>
			<g>
				<g>
					<path fill="#5E5F5F" d="M661.8,703c0-15,0-30,0-45c0-0.8-1.2-0.8-1.2,0c0,15,0,30,0,45C660.5,703.8,661.8,703.8,661.8,703
						L661.8,703z"/>
				</g>
			</g>
			<g>
				<g>
					<path fill="#5E5F5F" d="M677,692c0-8.8,0-17.8,0-26.5c0-0.8-1.2-0.8-1.2,0c0,8.8,0,17.8,0,26.5C675.8,692.8,677,692.8,677,692
						L677,692z"/>
				</g>
			</g>
			<g>
				<g>
					<path fill="#5E5F5F" d="M688.5,675.5c0-8.2,0-16.8,0-25c0-0.8-1.2-0.8-1.2,0c0,8.2,0,16.8,0,25
						C687.2,676.2,688.5,676.2,688.5,675.5L688.5,675.5z"/>
				</g>
			</g>
			<g>
				<g>
					<path fill="#5E5F5F" d="M682.5,684.8c0-10.5,0-21,0-31.5c0-0.8-1.2-0.8-1.2,0c0,10.5,0,21,0,31.5
						C681.2,685.8,682.5,685.8,682.5,684.8L682.5,684.8z"/>
				</g>
			</g>
		</g>
		<path fill="none" stroke="#5E5F5F" stroke-miterlimit="10" d="M632.5,686.2c4.8,0,9.5,0.3,14.5,0.3"/>
		<path fill="none" stroke="#5E5F5F" stroke-miterlimit="10" d="M613.5,670c2,1.5,5.2,3.8,9.5,5.3c5.8,2.2,10.5,2.2,15.2,2.5
			c4.8,0.2,10.2,0.2,17-2c5.3-1.8,9.3-4.2,11.5-6"/>
	</g>
</g>
<path fill="#FFFFFF" stroke="#5E5F5F" stroke-miterlimit="10" d="M639.5,774.5c0.2-2.8,0.2-5,0.2-6.5c-0.2-6-1-8.2,0.2-11.5
	c0.8-2.2,1.2-1.5,2.8-4.5c2.8-5.5,1.2-7.8,3.8-13c1.5-2.8,3.5-5.2,3.5-5.2s-2,3.2-5.7,6c-1.2,0.5-2.5,0.5-4.8,0.2
	c-2.8-0.2-5-0.2-6.8-1.5c-2.5-1.8-2.5-5.8-2.5-5.8c-0.2,0,2.2,9.5,2.2,9.5c1,3,1.8,7,3.2,9.8c0.2,0.5,1,1.8,2.5,3.2
	c0.5,0.5,1,1,1.5,1.2"/>
<path fill="#FFFFFF" stroke="#5E5F5F" stroke-miterlimit="10" d="M637,755.5c-1-0.2-3.8-1.2-6.5-3.2c-2-1.5-3.8-3.8-6.8-8
	c-3-4.3-4.2-6.2-5.2-8.2c-2.5-6.2-3.2-8.2-3.2-8.2c-0.5-1.2-0.8-2.5-2-3.5c-1.5-1.2-2.8-0.7-3.2-2c-1-1.5,1.2-4.5,1.7-4.8
	c1-1.5,2.8-2.5,7-4.5c4.5-1.8,7-2.8,10.5-3c3-0.2,2,0.2,9.5,0.5c0.5,0,3.5,0,9.2,0c3.5,0,3.5,0,3.5,0c3,0,6.8,0.3,11,1.8
	c3,1,5.5,2,7.2,4.5c0.7,1,0.5,2.5,1.8,4.5c0.5,1,1,1.5,0.8,2c-0.3,1-1.5,1.5-2.8,2.5c-1.2,1-1.5,2-2.8,4.5c0,0-1.8,3.8-3.5,7.2
	c-0.7,1.5-2.8,5-6,8.8c-2,2.2-3.8,3.8-5.5,5.5c-3.5,3-5,3.8-5.5,4c-1,0.5-3,1.2-5.5,1C639.2,756.2,638.2,755.8,637,755.5z"/>
<path fill="none" stroke="#5E5F5F" stroke-miterlimit="10" d="M614,723.5c1-0.2,2.2-0.7,4-1.5c1.2-0.5,1.5-0.8,3.5-1.8
	c0.8-0.2,0.8-0.2,4-1.8c2.8-1.2,3.2-1.2,3.5-1c0.8,0.5,0.3,1.8,0.3,4c0,1.2,0.2,3,0.5,6.5c0.5,4.7,1,5.5,1.2,6c1,1.5,2.5,2.5,3.8,3
	c2,1,4.8,2.8,8.3,2c4.2-1,6.2-4.5,6.8-5.2c0.5-0.7,0-0.2,2-6.8c1.2-4,1.5-5,1.2-7c-0.3-1-0.5-1.8-0.3-2.2c0.5-0.5,2,0.3,4,1.5
	c0,0,2.8,1.2,6.8,2.8c1.8,0.5,4,1.2,7.2,1.5"/>
<path fill="#7F7E7E" stroke="#5E5F5F" stroke-miterlimit="10" d="M613.5,724.3c-1,0-2-0.2-2.5-1c-1-1-0.8-2.5-0.8-2.8
	c0.2-2,1.8-3.2,2.8-4.5c1.8-1.5,3.2-2,6.2-3.2c2-0.8,3.5-1.2,4.8-1.8c1.8-0.5,3-1,4.2-1.2c2.2-0.5,3.2-0.2,7.5,0c0.2,0,4,0.3,8,0.3
	c3.8,0,4.3,0,7,0c2.5,0,4,0.2,6.2,0.5c5,0.8,8,2,8.8,2.5c2.5,1.2,3.2,2.2,3.5,2.5c0.3,0.5,1,1.8,2,4.3c0.7,1.8,1,2.5,0.7,3.2
	c-0.2,0.5-0.7,1.5-1.5,1.8c-1,0.2-1.5-1-3.5-1.8c-1.2-0.5-1.2,0-3-0.5c-2-0.5-2-1-4.5-1.8c-2-0.7-1.8-0.2-3.5-1
	c-1.2-0.5-2.2-0.7-3.5-1.2c-0.5-0.2-0.8-0.2-1-0.2c-0.5,0.2,0,1.2,0,2.8c0.2,1.5,0,2.8,0,4c-0.2,1.8-0.5,2.8-0.7,4
	c-0.5,2.2-1,3.5-1.8,5c-0.5,1-1.5,2.5-3.2,3.8c-0.3,0.2-2.2,1.5-4.8,1.8c-1.8,0.3-1.5-0.2-5.8-0.7c-2-0.2-2.8-0.2-3.8-1
	c-1-0.7-1.2-1.8-1.8-2.5c-0.5-1-0.5-1.8-0.8-3.8c-0.5-3-0.5-4.5-0.5-5c0-1.2,0-2.2,0.2-4.8c0.2-2.2,0.2-3-0.2-3.5
	c-0.2-0.3-0.8-0.5-2.8,0c-1.8,0.2-2.8,1-5.5,2c-3.8,1.8-3.8,1.5-4.5,2C615.2,723.2,614.8,724,613.5,724.3z"/>
<path fill="#F3EDEE" stroke="#5E5F5F" stroke-miterlimit="10" d="M629.8,709.8c-0.2,6-0.2,10.5-0.2,13c-0.3,6.2-0.3,8.2,1,10.5
	c1.8,3,5,5,8.8,5.5c5.5,0.5,9.8-3.2,11.5-6.5c0.7-1.5,1-3,1.2-7.8c0.2-3.5,0.5-8.5,0.5-14.2H652c-7.2-0.3-14.5-0.3-21.8-0.5"/>
<g display="none">
	<path display="inline" fill="#7C957F" d="M652.8,718c0.8,0.5,0.8,1.2,1.5,1.5c1.2,0.5,2.5,0,3.8-0.7c1.2-0.5,1.8-1.2,3.8-2.5
		c0.7-0.5,1.5-1,2.8-1.8c2.8-1.8,3.5-2,5.2-2.8c2.5-1.2,2-1.5,6-4c2.5-1.8,4.5-2.8,5.5-3.5c3.8-2.2,4.3-2,7.2-4
		c2.8-1.8,2.8-2,5.2-3.5c2.8-1.8,2.8-1.2,5.5-2.8c2.8-1.8,4.2-2.5,6-4.3c1.2-1.2,1.5-2,2.8-3c1.2-1,1.5-1,1.8-1.8
		c0.5-1.2-0.2-2-0.7-4c-0.2-1.2,0-1.2-0.2-3.8c-0.3-1.8-0.5-2.8-0.8-5.2c-0.5-2.8-0.7-3-1-5c-0.5-2.8-0.5-3.8-0.7-7.2
		c-0.5-3-0.5-5-1.2-8c-1-5.2-1.2-5.5-1.8-9.7c-0.7-5-0.5-4.2-1-8.3c-0.8-4.7-1.5-5.5-1.2-7.8c0-0.5,0.2-1.5-0.3-2.8
		c-0.2-0.5-0.5-0.8-2-2.8c-1.2-1.5-2-2.5-2.5-2.8c-1.2-1-2-0.5-2.5-1.5c-0.5-0.8-0.5-1.2-0.5-2.8c0,0,0-1-0.2-4.5
		c-0.2-2.8-0.7-2.8-1.2-6.8c-0.5-2.5-0.2-2.2-0.5-4.2c-0.5-3-1.2-5.2-1.8-6c-1.2-3.5-3-6.2-3.5-7s-2.5-3.5-5.7-6
		c-2.5-2-4.5-3.2-6.8-4.5c-1.8-1-3.8-2.2-7-3.5c-2-0.8-4.3-1.2-9-2.2c-4.3-1-6.2-1.5-8-1.8c-3.5-0.5-6-0.5-9.8-0.5
		c-4.5,0-6.8,0-9.7,0.2c-3.5,0.5-7,1.2-13.8,3.2c-6.5,1.8-8.3,2.5-9.5,3.3c-2.8,1.5-4.7,3-6.7,4.5c-2.8,2.2-5,4-7.2,7
		c-2.5,3.5-3.8,6.5-4.2,7.8c-0.5,1.8-1,3.8-1.8,8c-0.5,3-0.8,4.5-1,6c-0.5,5.5-0.8,8.2-0.8,8.5c0,0.2,0.3,1.8-0.5,2
		c-0.5,0.2-0.8-0.3-1.2-0.3c-0.8,0.5-0.5,2.5-0.5,4.5c0,1.5-0.3,3-0.3,4.5c-0.2,2.8-0.5,4-0.8,8c0,0.3-0.5,3.3-1,9.2
		c-1.2,11.5-1,10.8-1.2,11.5c-0.5,5-0.8,5-1.7,12.8c-0.5,4.5-0.5,3.8-1,7.5c-0.5,3.5-0.2,7.5-1.2,11c-0.5,1.8-1.2,3.5-0.5,5
		c0.5,1,1.2,1.2,2,1.5c2.8,1.2,0.5,0.7,6.8,4.2c4,2.2,5,2.5,8,4.3c6,3,5,3.5,11,7c3.5,2,6,2.8,9.7,5c3.8,2.2,5,2.8,5,2.8
		c0.5,0.5,1,0.5,1.8,1c2,1.2,3,1.8,4.2,1.8c1,0,1-0.5,3.8-1.2c0,0,1.2-0.5,2.8-0.8c2.8-0.5,4.2,0,8.5,0.3c4.2,0.2,6.8,0.2,8.2-0.3
		C649.5,717.5,651.2,717,652.8,718z"/>
	<path display="inline" fill="#7B947E" d="M619,717.2c0-3.8,0-7-0.2-9.8c0-1.2-0.5-5.2-1.2-10.7c-0.5-3.5-0.5-3.2-1.8-9
		c-1.2-6-1-6.5-1.8-9.5c-1-3.8-1-2.8-2.2-7.8c-1.2-4.3-1.2-6-2.8-7.5c-1.5-2-3.5-2.8-4-2.8c-0.5-0.3-2.2-1-4.2-0.5
		c-0.8,0.2-2.8,0.5-5.8,3.2c-1,1-2.8,2.8-5.2,7.2c-1.8,3-2.8,5.3-4.5,9.8c-0.8,1.8-2,4.3-3,7.5c-1,2.5-1.8,4.5-2.2,6.5"/>
	<path display="inline" fill="none" stroke="#000000" stroke-width="0.3582" stroke-miterlimit="10" d="M621,718.8
		c0-1.2,0-3.2,0.2-5.7c0-4.3,0.2-6.5,0.2-7.8c0-4.3-0.5-7.5-1-12.8c-0.5-3.2-0.8-7.5-1.8-13c-0.8-4.3-1.2-7-2.5-10.8
		c-0.5-1.2-1.5-5-4-9.7c-2.2-4.8-3.5-7.5-6.5-10.3c-2.8-2.8-5-4.2-7-5.5s-4.5-2.8-8.2-4c-3-1-5.8-1.2-7.5-1.2"/>
	<path display="inline" fill="#303030" stroke="#000000" stroke-width="0.3582" stroke-miterlimit="10" d="M628.5,719.5
		c0.2-2.2,0.2-5.5,0.5-9.8c0-3.8,0-6,0-11s0-8.2,0-14c0-4,0-9.5,0.2-16.5c0.2-10,0.2-15.2,0.2-16.5c0.2-3.5-1-6.8,0-10.3
		c0.2-0.5,0.5-2-0.2-2.8c-0.5-0.5-2-0.2-2.8-0.2c-2.5,0.5-3.5-0.5-7.2-1.5c-4.5-1.2-4.2-0.5-10.2-1.8c-4-1-7-2-9-2.8
		c-6-2-4.2-2-7.5-2.8c-1.2-0.5-7.2-1.2-8.3-2.5c-0.5-0.8-0.5-2.2,0-2.8c0.5-0.5,4.2,0.5,5.5,0.5c2.5,0.5,3.8,0.5,5,1
		c1.2,0.5,4.5,0.8,11,1.5c1.2,0.2,4.2,0.5,12,0.8c3.8,0.2,8.2,0.5,14.2,0.5c9.5,0.2,17,0.2,19.8,0.2c8-0.2,12-0.2,17.2-0.8
		c6.2-0.5,9.3-1,11.8-1.2c3-0.5,6.2-0.5,9.2-1.2c0.8-0.2,6-2.2,6.8-1.5c0.5,0.5,0.5,1.5,0.2,2c-0.5,1.2-5,2.8-6.2,3.2
		c-2.5,0.8-4.8,2-7.2,2.8c-8.2,2.5-7.2,2.2-9.8,2.8c-3.5,1-5.5,1.5-7.5,2c-5.2,1.2-8.2,1.5-9.7,1.5c-1.5-0.2-3.5-0.5-4,0.5
		c-0.5,0.5,0,1.2,0.3,2.2c0.5,1.2,0.2,1.5,0.2,6c0,1.2,0,0,0.2,7.3c0,1.2,0.2,4.2,0.2,8.5c0.3,8,0.3,7.2,0.3,9.8
		c0.2,6,0.5,6,0.5,9.8c0,4.8-0.2,4.8-0.2,8.5c0.2,4.2,0.5,4.7,0.7,9.7c0.3,3.8,0,6.8,0,9c-0.2,3.5-0.5,6.8-0.5,9.7"/>
	<path display="inline" fill="none" stroke="#000000" stroke-width="0.3582" stroke-miterlimit="10" d="M707.2,688.2
		c-0.2-1.2-0.5-3-0.8-5c-0.5-2.8-0.5-4.5-1-8c-0.3-1,0-0.5-1-8.2c-1-8.5-1-8.5-1.2-10c-0.8-6-0.8-5.2-1.2-9.5
		c-0.8-6.5-0.5-6.5-1.2-11.5c-0.5-3.5-0.8-4.5-1.2-7.8c-0.5-2.8-0.5-5.2-0.5-7"/>
	<path display="inline" fill="none" stroke="#000000" stroke-width="0.3582" stroke-miterlimit="10" d="M696.5,618.8
		c0,1.2,0,2.8,0,4.2c0,0.8,0.3,2.8,0.5,6.8s0.5,4.2,1,7s0.2,4.2,0.5,6.8c0.2,4.2,0.5,5.5,1.2,11.8c1,8,0.5,7,1.5,15.2
		c0.8,6,1.2,7.5,1.8,13c0.5,3.5,0.5,6.5,0.7,8.5"/>
	<path display="inline" fill="none" stroke="#000000" stroke-width="0.3582" stroke-miterlimit="10" d="M700,694.5
		c-0.2-1.2-0.7-2.8-1.2-5c-0.7-2-1.2-3.2-2.8-7.5c-2.8-6.8-2.8-6.8-3.5-8c-0.5-1-1.5-2.8-3.8-6.8c-1-2-1.5-2.8-2.5-3.5
		c-2-2-3.8-2.5-4.2-2.8c-1.2-0.5-2.8-1-5-0.5c-2,0.5-3.2,1.8-4,2.5c-0.5,0.5-1.8,1.8-3.2,5.3c-0.5,1.5-1.2,3.5-2.2,7
		c-1,3.8-1.5,6.8-1.8,7.5c-0.8,4.3-0.8,5.2-1.5,11.5c-0.7,6.2-1,6.2-1.5,11c-0.5,2.8-0.7,7-1,12"/>
	<path display="inline" fill="none" stroke="#000000" stroke-width="0.3582" stroke-miterlimit="10" d="M660,718.5
		c0-1.2,0-2.8-0.2-4.5c0-4.3,0.2-7.5,0.2-10c0.2-4.3,0.5-7.5,0.5-8.8c0.2-2.8,0.5-6.2,1.2-10.8c0.5-2.8,0.7-5.5,1.8-9.2
		c1-4.3,1.2-6.5,2.8-9.5c0.8-2,2.2-4.2,5-9.5c3.2-5.8,4-6.8,5-7.5c1.5-1.2,3.2-2.2,7-4.2c3-1.5,5-2.8,8.2-3.5c2.8-1,5.3-1.2,7-1.5"
		/>
	<path display="inline" fill="none" stroke="#FFFFFF" stroke-width="0.3582" stroke-miterlimit="10" d="M643.8,617
		c-0.2-0.2,0-0.5,0-1s0-0.5,0-1.2c0-0.5,0-0.5,0-1c0-0.8-0.2-1,0-1.2s0.5,0,1.5,0.5c1,0.5,1,0.2,1.5,0.5c0.5,0.2,0.5,0.2,1.5,0.8
		c0.7,0.5,1.2,0.5,1.2,0.5c0,0.2-0.5,0.2-1.2,0.5c-0.8,0.5-0.8,0.5-1.8,0.8c-0.5,0.2-1,0.5-1.8,0.5S643.8,617.2,643.8,617z"/>
	<path display="inline" fill="none" stroke="#FFFFFF" stroke-width="0.3582" stroke-miterlimit="10" d="M635.8,617.2c0,0,0,0,0-0.8
		c0-0.5,0-1,0-1.2c0-0.5,0-0.5,0-1.2c0-0.5,0-0.5,0-0.8c0-0.5,0-0.5,0-0.8c-0.2-0.3-0.5,0-1.2,0.2s-1.2,0.5-2,0.5
		c-1,0.5-0.8,0.5-1.5,0.5c-0.8,0.2-1.2,0.2-1.2,0.5c0,0.2,0.5,0.5,1.2,0.8c1.2,0.5,1.8,0.8,2,0.8C635,617.2,635.5,617.5,635.8,617.2
		z"/>
	<path display="inline" fill="none" stroke="#000000" stroke-width="0.3582" stroke-miterlimit="10" d="M579,618.2
		c1.5,0,2.8,0,4.2,0"/>
	<path display="inline" fill="#BCBCBC" stroke="#000000" stroke-width="0.3582" stroke-miterlimit="10" d="M582,537.8
		c-0.2-0.5-0.5-1.2-1-2c-0.5-1.5-0.5-2-1-4c-0.5-1.2-0.5-1.5-0.8-2.5c-0.5-1.5-0.5-2.2-0.3-2.8c0.3-0.5,0.8-0.5,2.8-0.8
		c2-0.2,3.5,0,3.5,0c2.8,0.2,4.2,0.5,6,0.5c3,0.5,5.5,1,6,1c8,1.5,7.2,2.5,9.8,2.2c0,0,2.8-0.2,5.2,1c0.5,0.2,1,0.5,1,1
		c0.2,0.5-0.5,1.2-0.8,1.5c-1,0.5-2,0-3.3-0.2c-1.2-0.3-2.2,0-4.7,0.5c-2,0.5-3.5,0.8-5.8,1.2c-0.8,0.2-3.5,1-7,2.5
		c-1.2,0.5-2.5,1.5-4.7,2c-0.8,0.2-1.2,0.5-1.8,0.5"/>
	<path display="inline" fill="none" stroke="#000000" stroke-width="0.3582" stroke-miterlimit="10" d="M585.2,538
		c0.5-0.8,0.8-1.8,1-3c0.2-0.5,0.5-1.8,0.5-5c0-1.2,0-2.8,0-4.7"/>
	<path display="inline" fill="#BCBCBC" stroke="#000000" stroke-width="0.3582" stroke-miterlimit="10" d="M591.8,537.2
		c0.5,0.5,0.8,1,1.2,1.5c0.5,1,0.5,1.2,1,1.5c0.5,0.5,1.2,0.2,2.2,0.2c0.5,0,1.7,0.2,4.2,0.5c2.5,0.5,3,0.5,3.5,0.2
		c0.5-0.5,0.5-0.5,1.2-1.5c0.5-0.5,0.8-0.8,1.5-1.2c0.5-0.5,0.5-0.5,2-2c1.2-1.2,1.5-1.2,2.2-2.2c0.5-0.5,1-1,1.2-1.2"/>
	<path display="inline" fill="#BCBCBC" stroke="#000000" stroke-width="0.3582" stroke-miterlimit="10" d="M594.8,535.5
		c0,0.2,0.2,0.5,0.5,0.8c0.5,0.5,1.2,0.3,2,0.3c1.2,0,0.8,0.2,2.8,0.2c0.8,0,1.5,0,2.8,0c1.5-0.2,2-0.5,2.5,0
		c0.5,0.2,0.5,0.8,0.5,2.2"/>
	<path display="inline" fill="none" stroke="#000000" stroke-width="0.3582" stroke-miterlimit="10" d="M594.5,540.3
		c0.2-1.2,0.2-2.8,0.5-4"/>
	<path display="inline" fill="#862809" d="M621,718c0.2,0.2,0.8,0.5,1.2,1c0.5,0.2,1.2,0.5,2,0.7c1.2,0.2,3.5,0,4-1.2
		c0.5-0.7-0.2-1.2-0.5-2.8c-0.2-1.8,0-2.8,0.5-4.3c0.5-2.8,0.2-4.2,0-7.5c-0.5-8.2,1.2-15.2,0.5-28.8c-0.2-6.8-0.8-7.2-0.5-13
		c0.2-7,0.8-8,0.5-12.5c-0.5-3.2-1-5-0.5-7.5c0.5-2,1.2-3.5,0.5-4.2c-0.5-0.5-1.5-0.5-3-0.5c-2.5,0-3.5-0.8-6-1.5
		c-2.8-0.8-3-0.5-7.5-1.2c-2-0.5-6-1-10.5-2.5c-5.5-2-5-2.8-8.3-3.2c-3-0.5-5.2,0-7.5-1.8c-0.5-0.5-1.5-1.2-2-1.2
		c-0.2,0.2,0,0.8,0,1.8c0,1.2,0,2-0.5,3.8c-0.2,1-0.5,1.8-0.8,3.5c-0.2,1-0.2,1.2,0,1.8c0.5,0.8,1.8,0.5,2.8,0.5c0,0,0.8,0,5.2,1
		c2.8,0.5,4.5,1.8,7.2,3.2c1.2,0.8,4,2.5,6.7,5.8c2.8,3,4.2,5.8,6,8.8c1,1.8,2.5,4.5,4,8.5c1.8,4.5,2.8,8.2,3.3,11.5
		c1.2,5.5,1.7,9.8,2,14c0.5,5.5,0.8,9.8,0.8,11.5c0.2,6,0.2,8.8,0,9.8C620.8,713.5,619.8,716.5,621,718z"/>
	<path display="inline" fill="#862809" d="M659.5,718c-0.3,0.2-0.8,0.5-1.2,1c-0.5,0.2-1.2,0.5-2,0.7c-1.2,0.2-3.5,0-4-1.2
		c-0.5-0.7,0.2-1.2,0.5-2.8c0.3-1.8,0-2.8-0.5-4.3c-0.5-2.8-0.2-4.2,0-7.5c0.5-8.2-1.2-15.2-0.5-28.8c0.3-6.8,0.8-7.2,0.5-13
		c-0.2-7-0.8-8-0.5-12.5c0.5-3.2,1-5,0.5-7.5c-0.5-2-1.2-3.5-0.5-4.2c0.5-0.5,1.5-0.5,3-0.5c2.5,0,3.5-0.8,6-1.5
		c2.8-0.8,3-0.5,7.5-1.2c2-0.5,6-1,10.5-2.5c5.5-2,5-2.8,8.2-3.2c3-0.5,5-0.5,7.2-2.2c0.5-0.5,2-0.8,2.2-0.5s0,0.8,0,1.8
		c0,1.2,0,2,0.5,3.8c0.2,1,0.5,1.8,0.7,3.5c0.2,1,0.2,1.2,0,1.8c-0.5,0.8-1.5,1.2-2.8,1.2c0,0-0.5,0.2-5.2,1.2c-2.8,0.5-4.3,2-7,3.2
		c-1.2,0.5-4.2,2-7.5,5c-2.8,3-4.2,5.8-6,8.8c-1,1.8-2.5,4.5-4,8.5c-1.8,4.5-2.8,8.2-3.2,11.5c-1.2,5.5-1.8,9.8-2,14
		c-0.5,5.5-0.7,9.7-0.7,11.5c-0.3,6-0.3,8.8,0,9.8C660,713.5,660.8,716.5,659.5,718z"/>
	<path display="inline" fill="#262421" d="M580.5,695.5c-0.5,0.2-1.2-0.5-2-1.5c-0.8-0.8-1.2-1.2-1.5-2.2c-0.3-1.2,0.5-1.8,1-3.2
		c0.5-1.2,0.3-1.8,0.5-3.5c0-1.2,0.3-1,0.8-6c0.5-4.8,0.5-4.3,0.8-7.2c0.5-2.2,0.5-4,1-6.5c0.8-4.8,0.8-4.8,1-6.8c0.2-1.5,0-1,0.5-7
		c0.5-5,0.5-4.5,0.5-6.8c0-1.2,0.5-2.5,0.5-3.8c0-1-0.3-1.5,0.2-2c0.5-0.5,1.2-0.2,2.8,0c3.8,0.8,3.2,0.5,3.5,0.8c2,0.5,3.5,1,5,1.5
		s2.5,1.2,4.8,2.8c2.8,2,4.2,2.8,5.8,4.2c1.5,1.5,2.2,2.8,4,5c1,1.2,2.2,3.5,3.5,6.2c0.8,1.5,1.5,3.5,2.8,7c1,2.5,1.2,3.8,1.8,5
		c1,3.2,1.5,6,2,8s0.5,4.3,1.2,8.5c0.5,4.3,0.8,6.5,1,8.2c0.2,2.8,0.5,4.7,0.5,8.2c0.2,5,0,2.8,0.2,7.2c0.2,4.2,0.5,6.2-0.8,6.8
		c-0.5,0.5-1.8,0-2-0.5c-0.3-0.5,0-1,0.5-1.8c0.3-0.7,0.3-1.5,0.3-3.2c0-3.5-0.5-7.5-0.5-7.5c-1-6.8-0.5-5.8-1-8.5
		c-1-5.5-1.5-5.7-2.2-11.2c-0.5-3-0.5-3.5-1-5.7c-0.5-2.8-1.2-3.2-2-7c-1.2-4.2-1-4.5-1.8-6.5c-0.8-1.5-2-3.8-4.2-5
		c-2.8-1.2-5.5-0.8-6-0.5c-2.5,0.8-4,2.5-6.8,6s-4.5,6.5-5.2,8c-1.2,2-0.5,1.2-3.5,8.2c-2.2,5.2-2.5,5-2.8,6.5
		C581.8,693,581.5,695.3,580.5,695.5z"/>
	<path display="inline" fill="#262421" d="M700.8,693.5c0.5,0.2,1.2-0.5,2-1.5c0.8-0.8,1.2-1.2,1.5-2.2c0.3-1.2-0.5-1.8-1-3.2
		c-0.5-1.2-0.3-1.8-0.5-3.5c0-1.2-0.2-1-0.7-6c-0.5-4.8-0.5-4.2-0.8-7.2c-0.5-2.2-0.5-4-1-6.5c-0.7-4.8-0.7-4.8-1-6.8
		c-0.3-1.5,0-1-0.5-7c-0.5-5-0.5-4.5-0.5-6.7c0-1.2-0.5-2.5-0.5-3.8c0-1,0.2-1.5-0.2-2c-0.5-0.5-1.2-0.2-2.8,0
		c-3.8,0.8-3.2,0.5-3.5,0.8c-2,0.5-3.5,1-5,1.5c-1.5,0.5-2.5,1.2-4.8,2.8c-2.8,2-4.2,2.8-5.7,4.2c-1.5,1.5-2.2,2.8-4,5
		c-1,1.2-2.2,3.5-3.5,6.2c-0.8,1.5-1.5,3.5-2.8,7c-1,2.5-1.2,3.8-1.8,5c-1,3.2-1.5,6-2,8s-0.5,4.3-1.2,8.5c-0.5,4.3-0.7,6.5-1,8.2
		c-0.3,2.8-0.5,4.7-0.5,8.2c-0.2,5,0,2.8-0.2,7.2c-0.2,4.2-0.5,6.2,0.7,6.8c0.5,0.5,1.8,0,2-0.5c0.2-0.5,0-1-0.5-1.8
		c-0.2-0.7-0.2-1.5-0.2-3.2c0-3.5,0.5-7.5,0.5-7.5c1-6.8,0.5-5.8,1-8.5c1-5.5,1.5-5.7,2.2-11.2c0.5-3,0.5-3.5,1-5.7
		c0.5-2.8,1.2-3.2,2-7c1.2-4.2,1-4.5,1.8-6.5c0.7-1.5,2-3.8,4.2-5c2.8-1.2,5.5-0.8,6-0.5c2.5,0.8,4,2.5,6.8,6c2.8,3.5,4.5,6.5,5.2,8
		c1.2,2,0.5,1.2,3.5,8.2c2.2,5.2,2.5,5,2.8,6.5C699.8,691.2,700,693.2,700.8,693.5z"/>
	<g display="inline">
		<path fill="#DDDDDD" stroke="#000000" stroke-width="0.3582" stroke-miterlimit="10" d="M576.5,692c-1-0.5-2-0.8-2.5-1
			c-0.8-0.5-1.2-0.5-2.2-1.2c-1.5-0.7-1.8-1-1.8-1.2c-0.3-0.5,0-1,0.2-2c0.2-1.2,0.5-2.2,0.5-3.2c0.2-1.2,0.2-1.5,0.5-4.2
			c0.5-3.8,0.5-3.5,0.8-5.8c0.5-3.5,0.2-3.5,0.5-7.2c0.5-3.5,0.5-3.5,0.8-7.2c0.2-2.8,0-2.8,0.5-6.2c0.2-1.5,0.2-1.5,0.5-6.5
			c0.5-3.5,0.5-4.2,0.5-5c0.3-2.5,0-2.8,0.3-5c0-2.2,0.2-2.8,0.5-6.8c0.2-1.2,0.2-3,0.5-6.7c0.3-2.8,0.5-5.3,0.5-8
			c0-2.5-0.2-3.8,0.8-5.5c0.3-0.5,1-1.8,2.2-2.8c3.2-2.2,7.5-0.5,8-0.5"/>
		<path fill="#DDDDDD" stroke="#000000" stroke-width="0.3582" stroke-miterlimit="10" d="M575,691.5c0.5,0.2,1,0.2,1.2-0.3
			c0.5-0.5,0.5-1.5,0.5-3c0-1.2,0.2-1.2,0.5-3.2c0.5-2.8,0.5-4.2,0.5-6c0.2-2,0.5-4.5,1.2-9.8c1.2-8.2,1.2-7.5,1.8-10.5
			c0.5-3.5,0.2-3.5,1-9.7c0.5-5,0.5-5,1.2-9.8c0.5-6,0.5-5,0.8-9c0.8-7.2,1.2-7.5,0.8-9.5c-0.3-0.5-0.8-2,0-2.8c0.5-0.5,1.2,0,2-0.5
			c1-0.5,0.5-2.8,0.5-4c-0.3-1.8-0.5-4.2,0-7.5"/>
		<path fill="#606060" stroke="#000000" stroke-width="0.3582" stroke-miterlimit="10" d="M583.8,626.5c-1.2,0-2,0-2.8-0.3
			c-1.2-0.2-1.8-0.2-2-0.5c-0.5-0.5-0.2-1-0.2-1.5c0.2-1.2,0-2.5,0.2-3.5c0.2-2,0-2,0-5.5c0-2.5,0.2-2.2,0.5-6c0.2-2,0-1.8,0.2-6.8
			c0.2-3,0.2-3,0.2-4.5c0-2.8,0-3.8,0-6c0-1.8,0.2-3.8,0.2-7.8c0.3-4,0.3-4.2,0.5-9.8c0.2-4.8,0.2-6.8,0.5-8.5c0-2.5,0-2.5,0.2-4.5
			c0.3-3.5,0.3-4.2,0.5-8.5c0.5-6.5,0.5-9.7,0.5-10c-0.2-1.2-1-4,0-4.5c0.2-0.2,0.5-0.2,1.2-0.2c1.2-0.2,1.8-0.2,2,0.2
			c0.5,0.5,0.5,1.2,0.5,1.8c0,1.2,0.2,2.8,0,4.2c-0.2,2.5,0.2,2,0,6c0,1.2-0.2,2.8-0.5,6c-0.2,3.5-0.2,4-0.5,6c0,1-0.2,2.8-0.2,5.8
			c-0.2,5.3-0.2,7-0.5,12.8c-0.2,2.8-0.2,5-0.5,9.5c-0.2,5.8-0.5,6.8-0.5,10c-0.2,4.2-0.5,7-0.5,10c0,0.5,0.2,1.8,0.2,3.5
			c0.2,2,0.2,3.5,0.2,4c0,1.8,0.2,4.2,0.5,8"/>
	</g>
</g>
</svg>
