<?xml version="1.0" encoding="utf-8"?>
<!-- Generator: Adobe Illustrator 18.1.1, SVG Export Plug-In . SVG Version: 6.00 Build 0)  -->
<svg version="1.1" id="Layer_1" xmlns="http://www.w3.org/2000/svg" xmlns:xlink="http://www.w3.org/1999/xlink" x="0px" y="0px"
	 viewBox="569.2 531.2 143.2 237.9" enable-background="new 569.2 531.2 143.2 237.9" xml:space="preserve">
<g>
	<g>
		<g>
			<ellipse fill="#FCF6F9" stroke="#5E5F5F" stroke-miterlimit="10" cx="584.2" cy="638.2" rx="14.5" ry="17"/>
			<ellipse fill="#FCF6F9" stroke="#5E5F5F" stroke-miterlimit="10" cx="697.5" cy="636.2" rx="14.5" ry="17"/>
			<ellipse fill="#F2E1E9" cx="697.5" cy="637.5" rx="6" ry="11.5"/>
			<ellipse fill="#F2E1E9" cx="582.5" cy="640.2" rx="6" ry="11.5"/>
			<path fill="#B0A4A3" stroke="#5E5F5F" stroke-miterlimit="10" d="M584.5,622.2c-1,0-2.8-0.2-3.8-1.5c-1.2-1.2-1.2-3-1.5-4.8
				c-0.2-3-1.2-5.8-2-8.8c-1.2-6-1.5-6-2.8-12c-1.8-8.5-2.5-12.5-1.5-16c0.2-0.8,2.5-6.7,7.5-8.5c3.5-1.2,6,0,7.8-2
				c1.5-1.8,0.2-3,1.8-6s3.8-3,7.2-6.5c3-3,2-3.5,4.8-6.5c2.8-3,4.5-3,12-7c5.8-3,4.8-3.2,8.2-4.8c5-2.2,9-3.2,13.5-4.2
				c3.5-0.8,9-2,16.5-2c4.2,0,10.7-0.2,18.8,2c4.7,1.2,8.2,2.2,12.2,5.2c1.8,1.5,5.5,4.8,7.8,10.5c1,2.8,2.2,6,1.5,9.7
				c-1,4.8-4.5,7.2-3.5,8.5c0.5,0.8,2.2-0.2,4.8-0.2c4.5-0.2,9,2.2,11.5,4.8c1.8,2,2.8,4.7,3,10.2c0.7,10.2,1.8,24-7.2,33.8
				c-2.2,2.5-4.5,4-5.8,4.8"/>
			<path fill="#FEF7FA" stroke="#5E5F5F" stroke-miterlimit="10" d="M645.2,703.8h-10.8c-27.2,0-49.5-22.2-49.5-49.5v-43
				c0-27.2,22.2-49.5,49.5-49.5h10.8c27.2,0,49.5,22.2,49.5,49.5v43C694.5,681.5,672.2,703.8,645.2,703.8z"/>
		</g>
		<path fill="#FEF7FA" stroke="#5E5F5F" stroke-miterlimit="10" d="M629.8,641c0.2,0.5,0.8,0.5,7.2,0.5c5-0.2,4.2-0.2,6-0.2
			c4.7,0,6.2,0.8,7.2-0.2c1.2-1.2,1-3.5,0.8-4.5c-0.5-3.3-2.2-3.5-3.8-7.8c-0.5-1.5-0.3-1.5-1-4c-0.2-1-0.7-2.8-1.8-4.5
			c-1.8-4-2.5-6-3.5-6c-1.5,0-3,3.8-5,8.8c-1.5,3.8-1.2,4-2.5,7.5C631,637.5,628.8,639.7,629.8,641z"/>
		<path fill="none" stroke="#5E5F5F" stroke-miterlimit="10" d="M662.2,552.2c2-0.8,4.5-1.5,7.8-2.2c1.5-0.5,7.2-1.8,14.8-2
			c5-0.2,12.5,0.3,21.2,2.2"/>
		<path fill="none" stroke="#5E5F5F" stroke-miterlimit="10" d="M642.5,552.2c1.5-1.2,3.8-2.8,6.5-4.5c7-4.5,12.8-6.8,14.5-7.2
			c6.5-2.5,11.5-3.2,17.5-4.2c5.8-1,10.5-1.2,14-1.5"/>
		<circle fill="#F2E1E9" cx="672.2" cy="632.8" r="7.8"/>
		<circle fill="#F2E1E9" cx="607.5" cy="632.8" r="7.8"/>
	</g>
	<g>
		<path fill="#FEE79F" stroke="#5E5F5F" stroke-miterlimit="10" d="M662.5,713c5.2,2.8,9.5,4.8,12.5,6c4,1.8,6.2,2.8,9.8,4.8
			c3,1.8,5.2,3.2,7.2,5.5c2.8,3.2,3.2,7,4,14.8c0.5,5,0.8,10.2,0.8,20.5c0,1.8,0,3.8,0,2.8c0-1-23.5,1.8-113.3-0.5"/>
		<path fill="#FEE79F" stroke="#5E5F5F" stroke-miterlimit="10" d="M618.5,714c-5.2,2.8-9.5,4.8-12.5,6c-4,1.8-6.2,2.8-9.8,4.7
			c-3,1.8-5.2,3.2-7.2,5.5c-2.8,3.2-3.2,7-4,14.8c-0.5,5-0.8,10.2-0.8,20.5c0,1.8,0,3.8,0,2.8c0-1,23.5,1.8,113.2-0.5"/>
	</g>
	<path fill="#FEF7FA" stroke="#5E5F5F" stroke-miterlimit="10" d="M629.2,703.2c-0.2,6-0.2,10.5-0.2,13c-0.2,6.2-0.2,8.2,1,10.5
		c1.8,3,5,5,8.8,5.5c5.5,0.5,9.8-3.2,11.5-6.5c0.8-1.5,1-3,1.2-7.8c0.3-3.5,0.5-8.5,0.5-14.2h-0.5c-7.2-0.3-14.5-0.3-21.8-0.5"/>
	<path fill="#FFFFFF" stroke="#5E5F5F" stroke-miterlimit="10" d="M640.8,767.5c0.2-2.8,0.2-5,0.2-6.5c-0.2-6-1-8.2,0.2-11.5
		c0.8-2.2,1.2-1.5,2.8-4.5c2.8-5.5,1.2-7.8,3.8-13c1.5-2.8,3.5-5.2,3.5-5.2s-1.8,4.8-5.7,6c-1.2,0.5-2.5,0.5-4.8,0.2
		c-2.8-0.2-5-0.2-6.8-1.5c-2.5-1.8-3-5-3-5c-0.2,0,2.8,8.8,2.8,8.8c1,3,1.7,7,3.2,9.7c0.2,0.5,1,1.8,2.5,3.2c0.5,0.5,1,1,1.5,1.2"/>
	<path fill="#FEE79F" stroke="#5E5F5F" stroke-miterlimit="10" d="M659.5,736c1.8-1,2.2-3,2.8-5c0.8-3,0-3.8,0.2-8c0-6.2,1.5-8,0-10
		c-1-1.5-3-2-4.2-2.5c-1.5-0.5-3.2-1-4.5-0.2c-1.2,0.7-1,2.5-1.5,7.8c-0.5,4.2-1.5,8.8-1.5,9c-0.8,3.5-1,4-0.8,5
		C650.8,735.2,656.5,737.8,659.5,736z"/>
	<path fill="#FEE79F" stroke="#5E5F5F" stroke-miterlimit="10" d="M618.8,713.5c-0.8,2,0.8,2.5,1.2,7c0.5,3,0,3.5,0,9
		c0,4.3,0.2,6.5,1,7.2c2.2,2,8.5,0,10.2-3.5c1-2,0.2-3.5-0.2-7c-2-11.2,0.5-15.3-2.2-17C626,707.5,620,710,618.8,713.5z"/>
	<g>
		<g>
			<path fill="#5E5F5F" d="M633.8,677.5c4.8,0,9.5,0.2,14.3,0.2c1.5,0,1.5-2.5,0-2.5c-4.8,0-9.5-0.2-14.2-0.2
				C632,675,632,677.5,633.8,677.5L633.8,677.5z"/>
		</g>
	</g>
	<g>
		<g>
			<path fill="#5E5F5F" d="M626,662.5c5.8,2.5,11.5,5.2,17.8,5.5c5,0.2,8-1.8,11.5-5c1.2-1.2-0.7-3-1.8-1.8c-4,4-7.8,5-13.2,3.8
				c-4.5-1-8.8-2.8-13-4.8C626,659.7,624.5,661.8,626,662.5L626,662.5z"/>
		</g>
	</g>
	<g>
		<g>
			<path fill="#5E5F5F" d="M662.8,594.5c6-0.5,12-2,18.2-1.2c4,0.5,4-5.8,0-6.2c-6-0.8-12,0.5-18.2,1.2
				C659,588.5,658.8,594.7,662.8,594.5L662.8,594.5z"/>
		</g>
	</g>
	<g>
		<g>
			<path fill="#5E5F5F" d="M601,606.2c5.8,0,11.8,0,17.5,0c4,0,4-6.2,0-6.2c-5.8,0-11.8,0-17.5,0C597,600,597,606.2,601,606.2
				L601,606.2z"/>
		</g>
	</g>
	<g>
		<g>
			<path fill="#5E5F5F" d="M672.5,621.5c6.5,0,6.5-10,0-10S666,621.5,672.5,621.5L672.5,621.5z"/>
		</g>
	</g>
	<g>
		<g>
			<path fill="#5E5F5F" d="M607,621.7c6.5,0,6.5-10,0-10C600.8,611.7,600.5,621.7,607,621.7L607,621.7z"/>
		</g>
	</g>
	<g>
		<g>
			<path fill="#F1E0E8" d="M635.5,640c3.5,0,7.2,0,10.8,0c4.8,0,4.8-7.5,0-7.5c-3.5,0-7.2,0-10.8,0C630.8,632.5,630.8,640,635.5,640
				L635.5,640z"/>
		</g>
	</g>
</g>
</svg>
