<?xml version="1.0" encoding="utf-8"?>
<!-- Generator: Adobe Illustrator 18.1.1, SVG Export Plug-In . SVG Version: 6.00 Build 0)  -->
<svg version="1.1" id="Layer_1" xmlns="http://www.w3.org/2000/svg" xmlns:xlink="http://www.w3.org/1999/xlink" x="0px" y="0px"
	 viewBox="568.2 520.8 143.2 258.8" enable-background="new 568.2 520.8 143.2 258.8" xml:space="preserve">
<g>
	<g>
		<g>
			<path fill="#FEF7FA" stroke="#5E5F5F" stroke-miterlimit="10" d="M628,697.8c-0.2,6-0.2,10.5-0.2,13c-0.3,6.2-0.3,8.2,1,10.5
				c1.8,3,5,5,8.8,5.5c5.5,0.5,9.8-3.2,11.5-6.5c0.7-1.5,1-3,1.2-7.8c0.2-3.5,0.5-8.5,0.5-14.2h-0.5c-7.2-0.3-14.5-0.3-21.8-0.5"/>
			<g>
				<path fill="#FFE9BF" stroke="#5E5F5F" stroke-miterlimit="10" d="M688.2,636.8h-97c-9.5,0-17.2-7.8-17.2-17.2v-56.8
					c0-9.5,7.8-17.2,17.2-17.2h97c9.5,0,17.2,7.8,17.2,17.2v56.8C705.5,629,697.8,636.8,688.2,636.8z"/>
				<ellipse fill="#FCF6F9" stroke="#5E5F5F" stroke-miterlimit="10" cx="583.2" cy="632.2" rx="14.5" ry="17"/>
				<ellipse fill="#FCF6F9" stroke="#5E5F5F" stroke-miterlimit="10" cx="696.5" cy="630.2" rx="14.5" ry="17"/>
				<ellipse fill="#F2E1E9" cx="696.5" cy="631.5" rx="6" ry="11.5"/>
				<ellipse fill="#F2E1E9" cx="581.5" cy="634.2" rx="6" ry="11.5"/>
				<g>
					<path fill="#FEF7FA" stroke="#5E5F5F" stroke-miterlimit="10" d="M615.8,654.8c15.8-0.2,31.5,0.2,47.2,0.7
						c8.8-0.5,17.5-0.5,26.2,0.3c2-0.8,4.5-1,6.8-0.8v-89c0-4.5-3.5-8-8-8h-97c-4.5,0-8,3.5-8,8v89.5
						C594.2,654.8,605.2,655,615.8,654.8z"/>
					<path fill="#FEF7FA" stroke="#5E5F5F" stroke-miterlimit="10" d="M638.5,655.5c-12.8-0.5-26-1.5-38.8-1.2
						c-5.5,0.3-11.2,1-16.8,0.5c9.8,25.2,31.2,43,56.5,43c25,0,46.2-17.2,56.2-42.2C676.8,656.5,657.5,656.2,638.5,655.5z"/>
				</g>
				<path fill="#FFE9BF" stroke="#5E5F5F" stroke-miterlimit="10" d="M690,549.2c0,13.8-24.2,28-50.8,28s-50-14.2-50-28
					s23.2-28,50-28S690,535.5,690,549.2z"/>
				<g>
					<g>
						<path fill="#FEF7FA" d="M609.2,647c-2,2-14.2,0-17.2,0c-8,0-8,12.2,0,12.5c32,0.7,65,3,96.8-0.5c8-0.7,8-13.2,0-12.5
							c-31.8,3.5-64.8,1-96.8,0.5c0,4.2,0,8.2,0,12.5c10.8,0,17.5,4.2,26-3.8C624,650.2,615.2,641.5,609.2,647L609.2,647z"/>
					</g>
				</g>
				<g>
					<g>
						<path fill="#FEF7FA" d="M591.5,652c-1,0-1.8,0-2.5-0.5c0,1.8,0,3.5,0,5.5c0,0,0.2,0,0.2-0.3c-0.5,0.3-1,0.3-1.5,0.5h0.2
							c4,0,4-6.2,0-6.2c-0.8,0-1.5,0.2-2,0.5c-2,1.2-2,4,0,5.5c1.8,1.2,3.8,1.2,5.8,1.2C595.5,658.2,595.5,652,591.5,652L591.5,652z
							"/>
					</g>
				</g>
			</g>
			<g>
				<g>
					<g>
						<path fill="#FFE9BF" d="M594.5,662.2c0.2-0.2,0.5-0.5,0.8-0.8c1.2-1.2-0.8-3-1.8-1.8c-0.2,0.2-0.5,0.5-0.8,0.7
							C591.5,661.8,593.2,663.5,594.5,662.2L594.5,662.2z"/>
					</g>
				</g>
				<g>
					<g>
						<path fill="#FFE9BF" d="M600.5,667c0.2-1,0.8-1.8,1.2-2.2c1-1.2-1.2-2.5-2.2-1.2c-0.8,1-1.2,2-1.5,3
							C597.8,667.8,600,668.5,600.5,667L600.5,667z"/>
					</g>
				</g>
				<g>
					<g>
						<path fill="#FFE9BF" d="M602.8,673.2c0.5-0.8,1-1.5,1.8-2.2c1-1.2-0.8-3-1.8-1.8c-0.8,0.8-1.5,1.8-2,2.8
							C599.8,673.2,602,674.5,602.8,673.2L602.8,673.2z"/>
					</g>
				</g>
				<g>
					<g>
						<path fill="#FFE9BF" d="M609.5,680c1-2.2,1.8-4.8,2.8-7c0.5-1.5-1.8-2.2-2.5-0.7c-1,2.2-1.8,4.8-2.8,7
							C606.5,680.8,609,681.2,609.5,680L609.5,680z"/>
					</g>
				</g>
				<g>
					<g>
						<path fill="#FFE9BF" d="M617.2,681c0-1.5,0-3.2,0-4.8s-2.5-1.5-2.5,0s0,3.2,0,4.8S617.2,682.5,617.2,681L617.2,681z"/>
					</g>
				</g>
				<g>
					<g>
						<path fill="#FFE9BF" d="M621.8,686c0.2-2.2,0.5-4.5,0.8-6.8c0.2-1.5-2.2-1.5-2.5,0c-0.2,2.2-0.5,4.5-0.8,6.8
							C619,687.5,621.5,687.5,621.8,686L621.8,686z"/>
					</g>
				</g>
				<g>
					<g>
						<path fill="#FFE9BF" d="M627.2,687c1-1.2,1.8-2.2,2.5-3.8c0.8-1.5-1.5-2.8-2.2-1.2c-0.5,1.2-1.2,2.2-2,3.2
							C624.2,686.5,626,688.2,627.2,687L627.2,687z"/>
					</g>
				</g>
				<g>
					<g>
						<path fill="#FFE9BF" d="M636,689.5c0.5-1.5,0.8-3,0.8-4.8c0-1.5-2.5-1.5-2.5,0s-0.2,2.8-0.8,4
							C633.2,690.5,635.8,691.2,636,689.5L636,689.5z"/>
					</g>
				</g>
				<g>
					<g>
						<path fill="#FFE9BF" d="M644.8,690.2c0-1.5,0-3-0.2-4.2c0-1.5-2.5-1.5-2.5,0s0,3,0.2,4.2C642.2,692,644.8,692,644.8,690.2
							L644.8,690.2z"/>
					</g>
				</g>
				<g>
					<g>
						<path fill="#FFE9BF" d="M651.5,687.8c0.2-1.2,0.8-2.5,1-4c0.5-1.5-2-2.2-2.5-0.8c-0.2,1.2-0.8,2.5-1,4
							C648.8,688.8,651,689.5,651.5,687.8L651.5,687.8z"/>
					</g>
				</g>
				<g>
					<g>
						<path fill="#FFE9BF" d="M659.5,684.8c0-1.5,0-2.8,0-4.3c0-1.5-2.5-1.5-2.5,0c0,1.5,0,2.8,0,4.3S659.5,686.2,659.5,684.8
							L659.5,684.8z"/>
					</g>
				</g>
				<g>
					<g>
						<path fill="#FFE9BF" d="M664.5,682.8c-0.3-1-0.3-2.2-0.5-3.2c-0.2-1.5-2.8-1.5-2.5,0c0.2,1,0.2,2.2,0.5,3.2
							C662,684.2,664.5,684.2,664.5,682.8L664.5,682.8z"/>
					</g>
				</g>
				<g>
					<g>
						<path fill="#FFE9BF" d="M668.8,679.2c-0.2-1-0.8-2-1-3c-0.5-1.5-3-0.8-2.5,0.8c0.2,1,0.8,2,1,3
							C667,681.5,669.5,681,668.8,679.2L668.8,679.2z"/>
					</g>
				</g>
				<g>
					<g>
						<path fill="#FFE9BF" d="M672,676c0-1-0.3-2-0.3-3.2c-0.2-1.5-2.8-1.5-2.5,0c0,1,0.3,2,0.3,3.2
							C669.8,677.5,672.2,677.5,672,676L672,676z"/>
					</g>
				</g>
				<g>
					<g>
						<path fill="#FFE9BF" d="M676.2,671.2c-0.2-1-0.8-2-1.2-3c-0.8-1.5-3-0.3-2.2,1.2c0.5,0.7,0.8,1.5,1,2.5
							C674.2,673.5,676.5,672.8,676.2,671.2L676.2,671.2z"/>
					</g>
				</g>
				<g>
					<g>
						<path fill="#FFE9BF" d="M681.2,667.8c-0.2-0.7-0.8-1.2-1-2c-0.7-1.5-3-0.3-2.2,1.2c0.3,0.7,0.8,1.2,1,2
							C679.8,670.2,682,669,681.2,667.8L681.2,667.8z"/>
					</g>
				</g>
				<g>
					<g>
						<path fill="#FFE9BF" d="M665.8,649.2c-1-2-1.8-3.8-2.5-5.8c-0.5-1.5-3-0.8-2.5,0.8c0.7,2.2,1.8,4.5,2.8,6.5
							C664.5,652,666.5,650.5,665.8,649.2L665.8,649.2z"/>
					</g>
				</g>
				<g>
					<g>
						<path fill="#FFE9BF" d="M659.5,651.2c-0.8-1.8-1.5-3.5-2-5.5c-0.2-1.5-2.8-1-2.5,0.8c0.5,2,1.2,4.3,2.2,6
							C658,654,660.2,652.8,659.5,651.2L659.5,651.2z"/>
					</g>
				</g>
				<g>
					<g>
						<path fill="#FFE9BF" d="M653.2,653.5c-1-1.8-1.5-3.8-2-5.5c-0.2-1.5-2.8-1-2.5,0.8c0.5,2.2,1.2,4.2,2.2,6.2
							C651.8,656.2,654,655,653.2,653.5L653.2,653.5z"/>
					</g>
				</g>
				<g>
					<g>
						<path fill="#FFE9BF" d="M644,654.8c0-2,0-3.8-0.7-5.8c-0.5-1.5-2.8-1-2.5,0.8c0.5,1.8,0.7,3.2,0.5,5
							C641.5,656.2,644,656.2,644,654.8L644,654.8z"/>
					</g>
				</g>
				<g>
					<g>
						<path fill="#FFE9BF" d="M637.2,654.2c0-1.8,0-3.2,0-5c0-1.5-2.5-1.5-2.5,0c0,1.8,0,3.2,0,5
							C634.8,655.8,637.2,655.8,637.2,654.2L637.2,654.2z"/>
					</g>
				</g>
				<g>
					<g>
						<path fill="#FFE9BF" d="M629,654.5c0-2.2,0.2-4.5,0.8-6.8c0.3-1.5-2-2.2-2.5-0.8c-0.5,2.5-0.8,5-1,7.2
							C626.5,656,629,656,629,654.5L629,654.5z"/>
					</g>
				</g>
				<g>
					<g>
						<path fill="#FFE9BF" d="M616.8,651.5c1.2-0.5,2-1.5,2.8-2.2c1-1,2.2-2,3.5-2.8s0-3-1.2-2.2c-1.2,0.8-2.2,1.5-3.2,2.5
							c-1,1-1.8,2-3,2.5C614,650,615.2,652.2,616.8,651.5L616.8,651.5z"/>
					</g>
				</g>
			</g>
			<circle fill="#5E5F5F" stroke="#5E5F5F" stroke-width="0.5" stroke-miterlimit="10" cx="670" cy="607.5" r="4"/>
			<circle fill="#5E5F5F" stroke="#5E5F5F" stroke-width="0.5" stroke-miterlimit="10" cx="606" cy="607.5" r="4"/>
			<g>
				<g>
					<path fill="#5E5F5F" d="M596.2,596c6-0.5,13-1.5,19,0c2.2,0.5,3.2-3,1-3.5c-6.2-1.5-13.5-0.8-20-0.2
						C593.8,592.5,593.8,596.2,596.2,596L596.2,596z"/>
				</g>
			</g>
			<g>
				<g>
					<path fill="#5E5F5F" d="M660.8,595.8c6-0.5,13-1.5,19,0c2.2,0.5,3.2-3,1-3.5c-6.2-1.5-13.5-0.8-20-0.2
						C658.5,592.2,658.5,596,660.8,595.8L660.8,595.8z"/>
				</g>
			</g>
			<circle fill="#F2E1E9" cx="670" cy="628" r="7.8"/>
			<circle fill="#F2E1E9" cx="605.5" cy="628" r="7.8"/>
			<g>
				<g>
					<path fill="#F2E1E9" d="M645.8,630.8c-2,2.8-4.8,3-8,2.2c-2.2-0.5-5-1.2-6.5-3c-2.5-3-7,1.2-4.5,4.5c2.8,3.5,8.5,5,12.8,5.2
						c5,0.5,8.5-2,11.5-5.8C653.5,630.8,648,627.8,645.8,630.8L645.8,630.8z"/>
				</g>
			</g>
			<ellipse fill="none" stroke="#5E5F5F" stroke-miterlimit="10" cx="638.8" cy="631.5" rx="14" ry="8.8"/>
			<line fill="none" stroke="#5E5F5F" stroke-miterlimit="10" x1="639.5" y1="606.8" x2="639.5" y2="624"/>
			<path fill="none" stroke="#5E5F5F" stroke-miterlimit="10" d="M611.5,655.2c0,0,7,10.8,28.2,10.8c6.5,0,18.8-2.2,26.8-10.2"/>
			<path fill="none" stroke="#5E5F5F" stroke-miterlimit="10" d="M666.5,553.8c-4.2,0.5-10.5,0.8-17.8,0.2c-3-0.2-12.5-1-32.5-7.8
				c-8-2.8-18.5-6.8-30.2-12.2"/>
			<path fill="none" stroke="#5E5F5F" stroke-miterlimit="10" d="M661.5,539.5c-3.8,0.2-8,0.2-12.2,0c-21.7-1.2-39.2-9-51-16"/>
		</g>
		<g>
			<path fill="none" stroke="#5E5F5F" stroke-miterlimit="10" d="M659.8,707.8c5.2,2.8,9.5,4.8,12.5,6c4,1.8,6.2,2.8,9.8,4.8
				c3,1.8,5.2,3.2,7.2,5.5c2.8,3.2,3.2,7,4,14.8c0.5,5,0.7,10.2,0.7,20.5c0,1.8,0,3.8,0,2.8c0-1-23.5,1.8-113.2-0.5"/>
			<path fill="none" stroke="#5E5F5F" stroke-miterlimit="10" d="M615.8,708.8c-5.2,2.8-9.5,4.8-12.5,6c-4,1.8-6.2,2.8-9.8,4.8
				c-3,1.8-5.2,3.2-7.2,5.5c-2.8,3.2-3.3,7-4,14.8c-0.5,5-0.8,10.2-0.8,20.5c0,1.8,0,3.8,0,2.8c0-1,23.5,1.8,113.2-0.5"/>
		</g>
		<polyline fill="#ACD9B3" stroke="#5E5F5F" stroke-width="0.5" stroke-miterlimit="10" points="630,773 637.2,779.2 637.2,779.2 
			644.5,773 644.5,773 645.5,723.2 630,723.2 630,773.8 		"/>
		<g>
			<circle fill="#FFFFFF" cx="634.8" cy="760.2" r="1.5"/>
			<circle fill="#FFFFFF" cx="638" cy="770.5" r="1.5"/>
			<circle fill="#FFFFFF" cx="638.2" cy="764.5" r="1.5"/>
			<circle fill="#FFFFFF" cx="633" cy="767.2" r="1.2"/>
		</g>
		<g>
			<circle fill="#FFFFFF" cx="636.5" cy="744.8" r="1.5"/>
			<circle fill="#FFFFFF" cx="639.8" cy="755" r="1.5"/>
			<circle fill="#FFFFFF" cx="640" cy="749" r="1.5"/>
			<circle fill="#FFFFFF" cx="634.8" cy="751.8" r="1.2"/>
		</g>
		<path fill="#ADD9B2" stroke="#5E5F5F" stroke-width="0.5" stroke-miterlimit="10" d="M647.5,723.2c-0.2,0.2-3.5,4.7-9,5
			c-5-0.3-9.5-5.3-10-5.8l0.5-0.2c-0.8,1.2-1.5,3-1.8,5.5c-0.2,5.2,3.8,11.8,9.5,12c6,0.2,10-6.5,10.8-11.5c0.2-2,0-3.5-0.5-4.5"/>
	</g>
	<path fill="#FFFFFF" stroke="#5E5F5F" stroke-width="0.5" stroke-miterlimit="10" d="M647,725.5c2-7.8,4-15.7,6-23.5l0,0
		c3.5,2.2,6,4.2,9.5,6.5c-1.2,7.5-2.2,14-4.8,21.2l0,0C654.8,728.8,650.2,727,647,725.5"/>
	<path fill="#FFFFFF" stroke="#5E5F5F" stroke-width="0.5" stroke-miterlimit="10" d="M628.5,724c-0.5-8-1.2-16.2-2-24.2l0,0
		c-4,1.8-7.8,3.5-11.8,5c1.5,7.8,3,15.2,4.5,23l0,0C622.2,726.5,625.2,725.2,628.5,724"/>
</g>
</svg>
