<?xml version="1.0" encoding="utf-8"?>
<!-- Generator: Adobe Illustrator 18.1.1, SVG Export Plug-In . SVG Version: 6.00 Build 0)  -->
<svg version="1.1" id="Layer_1" xmlns="http://www.w3.org/2000/svg" xmlns:xlink="http://www.w3.org/1999/xlink" x="0px" y="0px"
	 viewBox="570.5 522.2 140.7 257" enable-background="new 570.5 522.2 140.7 257" xml:space="preserve">
<g>
	<g>
		<g>
			<g>
				<g>
					<path fill="#C1E1F7" stroke="#5E5F5F" stroke-miterlimit="10" d="M661,723c5.2,2.8,9.5,4.8,12.5,6c4,1.8,6.2,2.8,9.8,4.7
						c3,1.8,5.2,3.2,7.2,5.5c2.8,3.2,3.2,7,4,14.8c0.5,5,0.7,10.2,0.7,20.5c0,1.8,0,3.8,0,2.8c0-1-23.5,1.8-113.2-0.5"/>
					<path fill="#C1E1F7" stroke="#5E5F5F" stroke-miterlimit="10" d="M617,724c-5.2,2.8-9.5,4.7-12.5,6c-4,1.8-6.2,2.8-9.7,4.8
						c-3,1.8-5.3,3.2-7.2,5.5c-2.8,3.2-3.2,7-4,14.7c-0.5,5-0.8,10.3-0.8,20.5c0,1.8,0,3.8,0,2.8s23.5,1.8,113.2-0.5"/>
				</g>
				<g>
					<path fill="#C1E1F7" stroke="#5E5F5F" stroke-miterlimit="10" d="M639.8,779c0-0.5,0.2-7.8,0.2-8.2c0-8.2,0-8.2,0-8.2
						c-0.2-7.5-1.8-10-0.2-11.2c0.8-0.8,1.8-0.3,5,0c2,0,5.5,0,8.8-1c0.8-0.2,5-1.8,7.2-5.8c2.2-3.8,1-6.5,1.2-11.2
						c0.2-3.5,1.5-8.2,5.5-14.2"/>
					<path fill="#C1E1F7" stroke="#5E5F5F" stroke-miterlimit="10" d="M594.8,734.3c-0.8-3.5-0.2-6.2,0-7.8
						c2.5-10.8,16-16.8,24-15.8c0.5,0,0.8,0.2,4.2,0.5c5.5,0.7,8.5,1.2,10.5,1.5c6.8,0.7,12,0.2,13.5,0c7.8-0.8,7.5-2.5,12-2.5
						c6.5,0,13.8,3.2,18.2,9c5,6,5.2,12.8,5.5,15"/>
					<path fill="#C1E1F7" stroke="#5E5F5F" stroke-miterlimit="10" d="M611.8,717.5c0.8,1,1.8,2.2,2.8,4c0.8,1.2,2,3.5,2.5,6
						c1,4.5-0.8,5.3,0,9.5c0.8,3,2.2,5.2,3.2,6.5c0.5,0.8,3.3,4,8,6C632,751,635,751,641,751c5.8,0,8.5,0,12-1.5
						c2.2-1,7.2-3,9.2-7.5c1.5-3.8-0.2-5.8,0.2-10.8c0.2-3,1.5-7.2,5.5-12.2"/>
				</g>
			</g>
			<path fill="#C1E1F7" stroke="#5E5F5F" stroke-miterlimit="10" d="M683,734.3c-6.5-2.5-13-5-19.8-7.2"/>
			<path fill="#C1E1F7" stroke="#5E5F5F" stroke-miterlimit="10" d="M596.2,734.3c6.5-2.5,13-5,19.8-7.2"/>
		</g>
		<path fill="#F3EDEE" stroke="#5E5F5F" stroke-miterlimit="10" d="M629.8,708c-0.2,6-0.2,10.5-0.2,13c-0.2,6.2-0.2,8.2,1,10.5
			c1.7,3,5,5,8.8,5.5c5.5,0.5,9.7-3.2,11.5-6.5c0.7-1.5,1-3,1.2-7.8c0.2-3.5,0.5-8.5,0.5-14.3H652c-7.2-0.2-14.5-0.2-21.8-0.5"/>
		<g>
			<ellipse fill="#FCF6F9" stroke="#5E5F5F" stroke-miterlimit="10" cx="585.5" cy="656.2" rx="14.5" ry="17"/>
			<ellipse fill="#FCF6F9" stroke="#5E5F5F" stroke-miterlimit="10" cx="696.2" cy="654.2" rx="14.5" ry="17"/>
			<ellipse fill="#F2E1E9" cx="698.8" cy="655.5" rx="6" ry="11.5"/>
			<ellipse fill="#F2E1E9" cx="583.8" cy="658.2" rx="6" ry="11.5"/>
			<path fill="#F9C99B" stroke="#5E5F5F" stroke-miterlimit="10" d="M583.2,638.5c-2.5,1.8-5.8,3.2-7,2c-1.2-1-0.5-3.5-0.2-6.5
				c0.5-4-0.2-3.2-0.5-13.5c-0.2-6.5,0.2-6,0.5-19.8c0.2-11.7,0-12,0.5-13.8c1.8-5,4-6,8.2-15c1.8-3.5,1.5-3.8,3-6.5
				c1.2-2.5,3.8-7,7.8-10.8c1-1,6-5.8,14.2-8c5-1.5,10.2-1.2,21-0.8c9.8,0.5,13,1.2,18-1c2-1,6.2-2.8,8-7c1.8-3.8,0-6.8,2-8
				c2-1.5,5.8,0.3,9.5,2.2c4,2,8,4,11.5,8.5c3.5,4.8,4.8,9.5,5.2,12c1.2,5.8,0,7.5,2,10.5c2.2,3.5,4.8,3,9.2,6
				c6.8,4.7,9.3,12,10,14.5c1,2.8,0.8,4,0.8,17c0,14.2,0,21.2,0,21.8c0.5,11.8,2,16.8-0.5,18.2c-2.2,1.2-6-1-8.8-3"/>
			<path fill="#FEF7FA" stroke="#5E5F5F" stroke-miterlimit="10" d="M652,710.8c3.2-0.5,5.5-1,8-2c3.8-1.2,6.2-3,9.5-5
				c3.2-2,7-4.5,11.2-8.8c5.2-5,8-9.7,8.8-11c1.2-2.2,4-7.2,6-14c1.2-4.5,1.2-7.5,2-18.5c1-19.2,1-19,1-19.5
				c-0.3-13-0.3-19.7-4-27.8c-3.5-7.2-5-5-12-16.5c-1.5-2.8-3.5-6.2-6.2-6.2c-2,0-2.5,2-5.2,3.8c-3.2,2-6.5,1.8-11,1.5
				c-3.5-0.2-8.2-0.5-13-3c-8.5-4.5-13.5-14.2-13.5-14.5c0,0-5.5,2.2-8,3.5c-7,3-10.5,4.5-13,6c-1.5,0.8-7,4-12.8,9.7
				c-3.5,3.3-7.8,7.8-11,14.8c-2.5,5.5-3,10.2-3.5,12.8c-0.5,4.8-0.2,6.5,0,14.5c0,0.8,0,4,0,8c0,4.5-0.2,7.8-0.2,8.8
				c-0.2,7.3-0.5,14,1,20.2c2,9.5,6.5,16,8.8,19c1.5,2.2,7,9.8,17.2,16.2c4.5,2.8,11.8,7.5,22.2,8.8
				C640,712.5,645.2,711.8,652,710.8z"/>
		</g>
	</g>
	<path fill="none" stroke="#5E5F5F" stroke-miterlimit="10" d="M653.2,573.8c2.5-0.5,5.7-1.2,9.5-3c5-2.2,8.5-5,10.5-6.5
		c5-4,8-8,8.8-9c1.5-2,4-5.2,5.5-10c2.5-6.5,2.2-12.5,2-16.5"/>
	<path fill="none" stroke="#5E5F5F" stroke-miterlimit="10" d="M653.8,564.5c2-1,4.3-2.5,7-4.5c2.5-1.8,6.5-4.7,10.5-9.7
		c2-2.5,7-8.8,9-18.3c0.8-4,1-7.5,0.8-9.7"/>
	<path fill="none" stroke="#5E5F5F" stroke-miterlimit="10" d="M622.5,678.2c1.2,0.7,2.8,1.8,5,2.5c3.8,1.5,7,2,9.2,2.2
		c2.2,0.2,5.5,0.5,9.5,0c4-0.5,7-1.5,8.5-2.2c2.2-1,4.2-2,5.5-3"/>
	<path fill="none" stroke="#5E5F5F" stroke-miterlimit="10" d="M644.5,699c0-0.5,0.2-1.2,0-2.5c0-0.3-0.8-1.8-2.2-2.2
		c-2-0.5-3.8,1-4.2,1.5c-0.5,0.2-2.2,2-2,4.5c0.2,2.2,1.8,3.5,2,3.8c2,1.5,4.2,1.2,5,1c1.8-0.2,2.8-1.2,3.2-1.8"/>
	<g>
		<g>
			<path fill="#F1E0E8" d="M637.5,658c3.5,0,7.2,0,10.8,0c4.8,0,4.8-7.5,0-7.5c-3.5,0-7.2,0-10.8,0C632.5,650.5,632.5,658,637.5,658
				L637.5,658z"/>
		</g>
	</g>
	<g>
		<g>
			<g>
				<path fill="#5E5F5F" d="M664.8,617.5c5.8-0.5,11.5-1.5,17.2-0.8c4,0.5,5.7-5.5,1.8-6c-6.5-1-12.5,0-19,0.5
					C660.8,611.5,660.8,617.8,664.8,617.5L664.8,617.5z"/>
			</g>
		</g>
		<g>
			<g>
				<path fill="#5E5F5F" d="M603,616.2c5.8,0,11.8,0,17.5,0c4,0,4-6.2,0-6.2c-5.8,0-11.8,0-17.5,0C599,610,599,616.2,603,616.2
					L603,616.2z"/>
			</g>
		</g>
		<g>
			<g>
				<path fill="#5E5F5F" d="M675.5,635.5c6.5,0,6.5-10,0-10C669.3,625.5,669.3,635.5,675.5,635.5L675.5,635.5z"/>
			</g>
		</g>
		<g>
			<g>
				<path fill="#5E5F5F" d="M610.2,635.5c6.5,0,6.5-10,0-10C604,625.5,603.8,635.5,610.2,635.5L610.2,635.5z"/>
			</g>
		</g>
	</g>
	<path fill="none" stroke="#5E5F5F" stroke-width="0.8" stroke-miterlimit="10" d="M636.2,621.8c0,1.8,0,4.2,0,7.5
		c0.2,4.2,0.5,7.2,0.5,7.2c0.5,6,1.2,7.8,0,9s-2.5,0.2-4.5,1.5s-3.2,4.2-2.8,6.8s3,3.8,5,5c0.8,0.5,4.8,2.5,10.2,2
		c2.8-0.2,8.2-0.8,10.5-5c1-1.8,1.8-5,0.5-7c-1.8-2.8-5.5-1.2-7.2-4c-0.7-1-0.2-1.5-0.2-7c0-4.2-0.2-4.2,0-8c0-2.8,0.2-5,0.5-6.7"/>
	<g>
		<g>
			<path fill="#FFFFFF" d="M655.5,750.5c0,7,0,14.2,0,21.2c0,2.5,3.8,2.5,3.8,0c0-7,0-14.3,0-21.2
				C659.5,748.2,655.5,748.2,655.5,750.5L655.5,750.5z"/>
		</g>
	</g>
	<g>
		<g>
			<path fill="#FFFFFF" d="M622,750.3c0,7,0,13.8,0,20.7c0,2.5,3.8,2.5,3.8,0c0-7,0-13.8,0-20.7C625.8,747.8,622,747.8,622,750.3
				L622,750.3z"/>
		</g>
	</g>
</g>
</svg>
