<?xml version="1.0" encoding="utf-8"?>
<!-- Generator: Adobe Illustrator 18.1.1, SVG Export Plug-In . SVG Version: 6.00 Build 0)  -->
<svg version="1.1" id="Layer_1" xmlns="http://www.w3.org/2000/svg" xmlns:xlink="http://www.w3.org/1999/xlink" x="0px" y="0px"
	 viewBox="567.5 517.7 143.2 264.2" enable-background="new 567.5 517.7 143.2 264.2" xml:space="preserve">
<g>
	<path fill="#5E5F5F" stroke="#5E5F5F" stroke-miterlimit="10" d="M698,621.5l0.2-1c0-1,0,0,2.2-14c4-23.8,3.5-22.5,3.8-23.5
		c1-3.3,2.2-6,1.5-9.5c-0.8-2.8-2.8-6.7-6-7c-4.5-0.5-9.5,7-8,10.8c0.7,1.8,2.5,2,3.8,5c1,2.2,0.7,4,0.7,5
		C695.8,596.2,697.5,621.5,698,621.5z"/>
	<path fill="#5E5F5F" stroke="#5E5F5F" stroke-width="1.5" stroke-miterlimit="10" d="M582.2,627.8c-1,0-3.2-12.8-4-17.8
		s-1.8-11.8-2.2-20.8c-0.5-12.5-1-19,0.8-24c4.8-14.2,19-21,22.2-22.8c7.5-3.5,16.2-4,33.8-4.7c14.5-0.8,28-0.3,34,0
		c17.2,0.5,17.8,1.5,24.5,0.5c6-1,13.2-3,14.5-0.5c0.5,0.8,0,1.8-0.5,3.8c-1.5,5-0.8,7.5-1.2,11c-0.5,4.5-2.2,7.5-6,13.8
		c-2,3.3-5.5,9-12,14.8c-5.8,5-11.2,7.8-13.8,8.8c-3.5,1.5-9.8,3.8-17.5,4.5c-7.2,0.5-13-1-24.2-3.8c-11.5-3-21-6.5-24.5-7.8
		c-7.2-2.8-15-3.8-22-7c0,0-2.5-1-2.8-0.5c-0.2,0.2,1.2,1.2,2,3c0.5,1.2,0.3,2.5,0,3c0,0,0,4,0,12
		C583,615.2,583.5,627.5,582.2,627.8z"/>
	<g>
		<g>
			<path fill="#CFC7E3" stroke="#5E5F5F" stroke-miterlimit="10" d="M661.2,725.5c-2.8,0.5-5.7,1-8.5,1.5"/>
			<path fill="#CFC7E3" stroke="#5E5F5F" stroke-miterlimit="10" d="M616.2,726.8c3.8,0,7.5,0,11.2,0"/>
			<path fill="#CFC7E3" stroke="#5E5F5F" stroke-miterlimit="10" d="M660.8,725.8c5.2,2.8,9.5,4.7,12.5,6c4,1.8,6.2,2.8,9.7,4.8
				c3,1.8,5.3,3.2,7.2,5.5c2.8,3.2,3.2,7,4,14.7c0.5,5,0.8,10.3,0.8,20.5c0,1.8,0,3.8,0,2.8s-23.5,1.8-113.2-0.5"/>
			<path fill="#CFC7E3" stroke="#5E5F5F" stroke-miterlimit="10" d="M617,726.8c-5.2,2.8-9.5,4.7-12.5,6c-4,1.8-6.2,2.8-9.8,4.8
				c-3,1.8-5.2,3.2-7.2,5.5c-2.8,3.2-3.2,7-4,14.7c-0.5,5-0.8,10.3-0.8,20.5c0,1.8,0,3.8,0,2.8s23.5,1.8,113.2-0.5"/>
		</g>
		<g>
			<path fill="#CFC7E3" stroke="#5E5F5F" stroke-miterlimit="10" d="M639.5,764.5c2.5,0,2.8-4.3,9-12.8c4.2-5.7,6.2-6.5,7-10.5
				c1-4.8-0.2-8.8-0.7-10.2c-0.2-0.5-1.2-4-2.2-3.8c-0.7,0-0.5,2.5-1.8,6c-0.8,2-1.5,5-4,7.2c-0.2,0.2-4.2,4-9.5,3
				c-4.5-0.8-7.5-4.5-8.5-8c-1.2-4.2,0.5-8.2-0.8-8.8c-1-0.5-2.5,1.2-3,1.8c-2,2.2-2.5,5-2.5,6.8c-0.3,4.5,1.2,8.2,2.5,10.2
				c1.7,2.8,2.8,3.2,5.5,6C637.2,758.5,636.8,764.3,639.5,764.5z"/>
			<path fill="#CFC7E3" stroke="#5E5F5F" stroke-miterlimit="10" d="M630.5,751.2c6,0.2,11.8,0.5,17.8,0.5"/>
		</g>
		<ellipse fill="#FCF6F9" stroke="#5E5F5F" stroke-miterlimit="10" cx="582.5" cy="649.2" rx="14.5" ry="17"/>
		<ellipse fill="#FCF6F9" stroke="#5E5F5F" stroke-miterlimit="10" cx="695.8" cy="647.2" rx="14.5" ry="17"/>
		<ellipse fill="#F2E1E9" cx="695.8" cy="648.5" rx="6" ry="11.5"/>
		<ellipse fill="#F2E1E9" cx="580.8" cy="651.2" rx="6" ry="11.5"/>
		<path fill="#FEF7FA" stroke="#5E5F5F" stroke-miterlimit="10" d="M640.5,713c7.8,0.2,9.5,0.5,14.2,0.2c3.5-0.2,7.5-0.8,12.2-2.2
			c7.2-2.5,12-6.8,14.5-9c1.2-1.2,6.5-6,10.8-14.3c1.8-3.2,4.2-8,5-14.7c0.7-6.2-0.5-8-0.5-19.3c0-5,0.3-4.2,0.5-9.8
			c0.2-9-0.5-12-1-25.2c-0.2-8.5-0.5-12.8-0.2-15c0.5-8.8,2.2-12.8,0.2-19.5c-1-3.2-3-8-5-7.8c-0.7,0-1.2,1-2.2,2.2
			c-1.2,1.8-2.5,2.5-7.8,5.5c-6.5,3.5-9.5,5.5-10.5,5.8c-6.8,2.8-12.5,3.3-17.2,3.5c-7.8,0.5-13.8-0.2-17.8-1
			c-4.5-0.8-5-1.2-20.5-6.5c-14.5-4.8-12-3.5-15.5-5c-8.5-3.2-15.5-6.8-16.8-5.2c-0.5,0.5,0,1,0.2,4c0,2-0.2,3.5-0.2,4.5
			c-0.5,3.2-0.5,8-0.5,14.8c0,9,0.2,12.8,0.2,20.8c0,2.5,0,7.2,0,9.2c0,0.2,0,0.8,0,0.8s0,2,0,4c0,3-0.2,12.2-0.2,17
			c0,8.5,0,12.5,0.2,15.5c0.5,6,0.8,10,2.5,15.2c2.2,6.2,5.3,10.8,6.8,12.8c1.5,2,6,7.8,14,12.2c2,1,8,4.5,16.5,5.8
			C627.2,713.5,626.8,712.5,640.5,713z"/>
		<path fill="none" stroke="#000000" stroke-miterlimit="10" d="M651,571c5.2-2,13.2-6,20.5-13.5c2.2-2.5,7-7.2,10.5-15.2
			c4.2-10,4.2-19.2,3.8-24.5"/>
		<path fill="none" stroke="#000000" stroke-miterlimit="10" d="M650.2,582.2c4.8-0.8,12.5-2.5,20.5-7.8c10.2-6.2,15.5-14,17-16.2
			c8-12,8.5-24.2,8.5-29.5"/>
		<path fill="#FEF7FA" stroke="#5E5F5F" stroke-width="1.5" stroke-miterlimit="10" d="M659.8,610.5c1-1,5.2-4.5,11.5-4.8
			c7.2-0.2,12,3.8,13,4.5"/>
		<path fill="#FEF7FA" stroke="#5E5F5F" stroke-width="1.5" stroke-miterlimit="10" d="M595.5,609.5c1.2-1,6-4.8,13-4.5
			c6,0.2,10,3.2,11.2,4.5"/>
		<path fill="#FEF7FA" stroke="#5E5F5F" stroke-miterlimit="10" d="M600.5,627.5c0.2-0.2,1.8-3.5,5.5-4.2c3-0.5,5.8,1,7.5,3.5"/>
		<path fill="#FEF7FA" stroke="#5E5F5F" stroke-miterlimit="10" d="M665,628c0-0.2,1.5-4.2,5.2-5c3.2-0.8,7,1.2,8.5,4.8"/>
		<path fill="#5E5F5F" stroke="#5E5F5F" stroke-miterlimit="10" d="M584.5,633c0.8,0,1.8,8.2,2.2,11.5c0.5,5.2,0.2,6.2,0.8,12.3
			c0.5,4.7,0.8,8.8,2,13.5c1.5,5.5,2,8,4,10.3c5.3,5.7,16.5,5.7,19.5,1.8c1.2-2,0-3.8,1.5-6.2s4.8-3.8,9-4.5c16-3.2,24.8,0.2,34,0
			c0.5,0,1.5,0,2.8,0.5c3.2,1.5,2.2,5.8,4.5,8.5c4.5,5.5,17.2,2,20.2-0.5c0.8-0.7,1.5-1.5,1.5-1.5c1.5-2,1.5-4.5,1.5-5.2
			c0-4.5,1.5-8.8,2-13c0.3-2.8,1.2-14.5,5-27c0.5-1.8,0.8-2.5,1-2.5c1.8,0,0.8,22.8-0.2,44.5c0,1.5-0.2,4-1.2,7.2
			c-0.5,1.8-1.5,3.8-5.5,9.5c-3.5,5-5.2,7.2-7.2,9.2c-4,3.8-7.8,5.5-10.5,7c-1.5,0.7-6,2.8-12.2,4.5c-8.2,2-14.5,1.8-22.8,1.5
			c-9.5-0.2-14-0.5-20.2-2.5c-8.8-2.8-14.5-7.2-16.5-9c-2.5-2-7.5-6.2-11.2-13.2c-3.5-6.8-4.2-12.5-5.3-18.5
			c-0.8-4.8-0.5-9.8-0.2-19.5C583.5,642.2,583.8,633.2,584.5,633z"/>
		<path fill="#FEF7FA" stroke="#FEF7FA" stroke-miterlimit="10" d="M632.8,691c4.8,0,9.5,0,14.5,0"/>
		<path fill="#FEF7FA" stroke="#FEF7FA" stroke-miterlimit="10" d="M627.5,679.5c2.2,1,5,2,8.5,2.5c7.2,1.2,13-0.3,16.5-1.2"/>
	</g>
	<path fill="none" stroke="#5E5F5F" stroke-miterlimit="10" d="M630,641.8c0,1.8,0,3.2,0,4.2c0,1.8,0,3,0,3c0,1.5-0.2,2.2,0,3.5
		c0,1,0.2,1.5,0.5,2c0.5,1,1.5,1.2,2.8,1.8c2,0.5,3.5,0.5,6,0.5c3.8-0.3,5.8-0.3,7.8-0.3c3,0,4,0,4.7-0.7c0.3-0.2,0.5-0.8,0.5-3.8
		c0-2.5,0-4.5,0-4.8c0-1.5-0.2-3.2-0.2-5.5"/>
	<g>
		<g>
			<path fill="#F1E0E8" d="M633.5,655.2c4.8,0,9.8-0.2,14.5-0.2c3.2,0,3.2-5,0-5c-4.7,0-9.7,0.2-14.5,0.2
				C630.2,650.2,630.2,655.2,633.5,655.2L633.5,655.2z"/>
		</g>
	</g>
	<circle fill="#F2E1E9" cx="672.2" cy="645.2" r="7.8"/>
	<circle fill="#F2E1E9" cx="607.8" cy="645.2" r="7.8"/>
	<path fill="#FEF7FA" stroke="#5E5F5F" stroke-miterlimit="10" d="M628,714.5c-0.2,6-0.2,10.5-0.2,13c-0.2,6.2-0.2,8.2,1,10.5
		c1.7,3,5,5,8.8,5.5c5.5,0.5,9.8-3.2,11.5-6.5c0.8-1.5,1-3,1.2-7.8c0.2-3.5,0.5-8.5,0.5-14.3h-0.5c-7.2-0.2-14.5-0.2-21.8-0.5"/>
</g>
</svg>
